<?xml version="1.0" encoding="UTF-8" standalone="no"?>
<!-- Generator: Adobe Illustrator 15.1.0, SVG Export Plug-In . SVG Version: 6.00 Build 0)  -->

<svg
   version="1.1"
   id="Vrstva_1"
   x="0px"
   y="0px"
   width="138.45189"
   height="42.834"
   viewBox="0 0 138.45189 42.834"
   enable-background="new 0 0 276.906 85.668"
   xml:space="preserve"
   sodipodi:docname="dvur.svg"
   inkscape:version="1.2.1 (9c6d41e410, 2022-07-14)"
   xmlns:inkscape="http://www.inkscape.org/namespaces/inkscape"
   xmlns:sodipodi="http://sodipodi.sourceforge.net/DTD/sodipodi-0.dtd"
   xmlns="http://www.w3.org/2000/svg"
   xmlns:svg="http://www.w3.org/2000/svg"><defs
   id="defs55" /><sodipodi:namedview
   id="namedview53"
   pagecolor="#ffffff"
   bordercolor="#000000"
   borderopacity="0.25"
   inkscape:showpageshadow="2"
   inkscape:pageopacity="0.0"
   inkscape:pagecheckerboard="0"
   inkscape:deskcolor="#d1d1d1"
   showgrid="false"
   inkscape:zoom="4.5454055"
   inkscape:cx="129.2514"
   inkscape:cy="17.710191"
   inkscape:window-width="2400"
   inkscape:window-height="1271"
   inkscape:window-x="2391"
   inkscape:window-y="-9"
   inkscape:window-maximized="1"
   inkscape:current-layer="Vrstva_1" />
<g
   id="g50"
   transform="scale(0.49999416)">
	<path
   fill="#cd1316"
   d="M 17.148,23.535 H 9.107 v 11.179 h 8.041 z m -2.027,9.153 h -3.987 v -7.125 h 3.987 z"
   id="path2" />
	<path
   fill="#cd1316"
   d="m 39.955,77.688 c -1.356,0 -2.867,-0.735 -4.524,-1.432 -1.93,-0.81 -4.02,-1.597 -6.221,-1.597 -2.202,0 -4.293,0.787 -6.221,1.597 -1.657,0.696 -3.168,1.432 -4.525,1.432 -1.312,0 -2.458,-0.722 -3.751,-1.395 -1.595,-0.828 -3.354,-1.634 -5.607,-1.634 v 2.132 c 2.273,0 3.928,1.041 5.485,1.844 1.288,0.664 2.525,1.185 3.873,1.185 1.304,0 2.744,-0.506 4.283,-1.148 1.97,-0.82 4.138,-1.88 6.463,-1.88 2.325,0 4.492,1.06 6.461,1.88 1.54,0.643 2.98,1.148 4.284,1.148 1.348,0 2.585,-0.521 3.873,-1.185 1.558,-0.803 3.213,-1.844 5.486,-1.844 V 74.66 c -2.252,0 -4.013,0.806 -5.607,1.634 -1.294,0.673 -2.441,1.394 -3.752,1.394"
   id="path4" />
	<path
   fill="#cd1316"
   d="m 29.209,80.508 c -2.201,0 -4.291,0.786 -6.221,1.598 -1.656,0.695 -3.168,1.431 -4.524,1.431 v 2.132 c 1.304,0 2.744,-0.506 4.283,-1.147 1.97,-0.822 4.137,-1.88 6.462,-1.88 2.326,0 4.493,1.058 6.463,1.88 1.539,0.642 2.979,1.147 4.283,1.147 v -2.132 c -1.357,0 -2.868,-0.735 -4.525,-1.431 -1.929,-0.812 -4.019,-1.598 -6.221,-1.598"
   id="path6" />
	<path
   fill="#cd1316"
   d="M 54.399,37.669 V 20.58 h 3.214 V 10.451 H 55.077 L 50.645,0 H 39.965 L 35.533,10.451 H 32.971 V 20.58 h 3.213 v 17.089 h -4.02 v 5.034 h -5.91 v -5.034 h -4.02 V 20.58 h 3.214 V 10.451 H 22.912 L 18.481,0 H 7.801 L 3.369,10.451 H 0.807 V 20.58 H 4.02 V 37.669 H 0 v 36.208 c 0.994,-0.176 2.012,-0.583 3.073,-1.065 1.788,-0.814 3.729,-1.866 6.033,-1.866 2.273,0 3.928,1.041 5.485,1.843 1.288,0.664 2.525,1.185 3.873,1.185 1.304,0 2.744,-0.507 4.283,-1.148 1.97,-0.821 4.137,-1.879 6.463,-1.879 2.325,0 4.492,1.058 6.461,1.879 1.54,0.642 2.98,1.148 4.284,1.148 1.348,0 2.585,-0.521 3.873,-1.185 1.33,-0.685 2.731,-1.544 4.526,-1.781 h 1.959 c 2.566,0.32 4.692,1.784 6.685,2.489 0.48,0.169 0.952,0.302 1.421,0.384 v -36.21 h -4.02 z M 41.376,2.132 h 7.857 l 3.528,8.319 h -2.315 v 2.963 H 40.137 v -2.963 h -2.288 z m -6.273,16.316 v -5.866 h 2.902 v 2.964 h 14.573 v -2.964 h 2.902 v 5.866 z m 3.213,19.221 V 20.58 h 13.95 v 17.089 h -4.02 v 5.034 H 42.337 V 37.669 Z M 9.212,2.132 h 7.856 l 3.529,8.319 h -2.316 v 2.963 H 7.972 V 10.451 H 5.685 Z M 2.938,18.448 v -5.866 h 2.903 v 2.964 h 14.573 v -2.964 h 2.902 v 5.866 z M 6.152,37.669 V 20.58 h 13.95 v 17.089 h -4.021 v 5.034 H 10.173 V 37.669 Z M 17.384,71.686 C 16.492,71.438 15.64,70.93 14.712,70.448 13.383,69.756 11.937,69.08 10.185,68.876 V 51.924 c 1.78,0.272 3.441,1.22 4.725,2.696 1.591,1.829 2.474,4.314 2.474,6.901 z M 38.886,61.522 V 71.71 c -1.069,-0.242 -2.221,-0.783 -3.455,-1.301 -1.93,-0.81 -4.02,-1.597 -6.221,-1.597 -2.202,0 -4.293,0.787 -6.221,1.597 -1.235,0.519 -2.39,1.06 -3.459,1.302 v -10.19 c 0,-0.988 0.151,-1.959 0.44,-2.885 h 5.187 v 3.265 h 2.132 v -3.265 h 3.841 v 3.265 h 2.132 v -3.265 h 5.191 c 0.267,0.856 0.418,1.765 0.434,2.704 0,0.062 0,0.123 -10e-4,0.182 M 20.89,56.573 c 0.407,-0.685 0.902,-1.322 1.475,-1.896 0.816,-0.815 1.764,-1.472 2.792,-1.945 v 3.842 H 20.89 Z m 6.399,0 v -4.538 c 0.628,-0.128 1.27,-0.193 1.921,-0.193 h 0.005 c 0.656,0 1.296,0.065 1.915,0.189 v 4.542 z m 5.973,0 v -3.847 c 1.783,0.821 3.273,2.171 4.271,3.847 z m 14.973,12.302 c -1.751,0.204 -3.197,0.88 -4.528,1.572 -0.929,0.482 -1.782,0.991 -2.675,1.239 V 61.522 c 0,-2.604 0.885,-5.105 2.476,-6.945 1.284,-1.488 2.946,-2.439 4.727,-2.714 z m 8.052,2.033 C 54.511,70.122 52.588,69.13 50.38,68.875 V 49.634 h -1.078 c -2.78,0 -5.453,1.265 -7.419,3.54 -0.83,0.961 -1.505,2.071 -2.002,3.275 -1.895,-3.984 -5.959,-6.74 -10.666,-6.74 H 29.21 c -3.133,0 -6.138,1.245 -8.353,3.46 -0.969,0.97 -1.751,2.088 -2.326,3.304 C 18.035,55.28 17.362,54.18 16.534,53.227 14.568,50.965 11.897,49.709 9.118,49.709 H 8.041 v 19.163 c -1.787,0.2 -3.391,0.867 -4.881,1.552 -0.351,0.16 -0.693,0.323 -1.029,0.479 V 39.801 h 5.91 v 5.034 h 10.172 v -5.034 h 5.91 v 5.034 h 10.173 v -5.034 h 5.909 v 5.034 h 10.174 v -5.034 h 5.908 z"
   id="path8" />
	<path
   fill="#cd1316"
   d="m 49.312,23.535 h -8.041 v 11.179 h 8.041 z m -2.027,9.153 h -3.987 v -7.125 h 3.987 z"
   id="path10" />
	<path
   fill="#3c3c3b"
   d="m 77.17,22.251 h 2.705 c 2.006,0 2.659,0.771 2.659,2.752 v 2.752 c 0,1.912 -0.653,2.658 -2.659,2.658 H 77.17 Z M 72.739,18.52 v 15.625 h 7.136 c 4.548,0 7.184,-1.773 7.184,-6.39 v -2.752 c 0,-4.781 -2.682,-6.483 -7.184,-6.483 z"
   id="path12" />
	<polygon
   fill="#3c3c3b"
   points="101.834,34.145 106.219,18.52 102.09,18.52 98.966,29.667 98.103,29.667 94.978,18.52 90.523,18.52 94.908,34.145 "
   id="polygon14" />
	<path
   fill="#3c3c3b"
   d="m 117.089,14.228 c 0.56,0 0.933,0.28 0.933,0.746 0,0.467 -0.35,0.747 -0.933,0.747 -0.559,0 -0.932,-0.28 -0.932,-0.747 0,-0.466 0.373,-0.746 0.932,-0.746 m -0.093,-1.702 c -2.052,0 -3.125,1.096 -3.125,2.448 0,1.353 1.073,2.45 3.125,2.45 h 0.163 c 2.076,0 3.126,-1.097 3.126,-2.45 0,-1.352 -1.05,-2.448 -3.126,-2.448 z m -6.997,5.994 v 9.445 c 0,4.338 2.636,6.413 6.88,6.413 h 0.444 c 4.221,0 6.857,-2.075 6.857,-6.413 V 18.52 h -4.478 v 9.445 c 0,1.563 -0.607,2.426 -2.379,2.426 h -0.444 c -1.795,0 -2.402,-0.863 -2.402,-2.426 V 18.52 Z"
   id="path16" />
	<path
   fill="#3c3c3b"
   d="m 133.487,22.041 h 3.196 c 0.956,0 1.609,0.49 1.609,1.423 v 0.396 c 0,0.98 -0.653,1.446 -1.609,1.446 h -3.196 z M 129.01,18.52 v 15.625 h 4.477 v -5.271 h 2.682 l 2.402,5.271 h 4.782 l -2.729,-6.04 c 1.352,-0.793 2.098,-2.192 2.098,-4.035 v -0.839 c 0,-2.985 -1.959,-4.711 -5.364,-4.711 z"
   id="path18" />
	<polygon
   fill="#3c3c3b"
   points="160.609,28.012 164.67,34.145 169.846,34.145 164.645,26.309 164.645,25.517 169.566,18.52 164.645,18.52 160.564,24.303 159.889,24.303 159.889,18.52 155.41,18.52 155.41,34.145 159.889,34.145 159.889,28.012 "
   id="polygon20" />
	<path
   fill="#3c3c3b"
   d="m 178.408,22.041 h 3.193 c 0.957,0 1.611,0.49 1.611,1.423 v 0.396 c 0,0.98 -0.654,1.446 -1.611,1.446 h -3.193 z M 173.93,18.52 v 15.625 h 4.479 v -5.271 h 2.684 l 2.4,5.271 h 4.781 l -2.729,-6.04 c 1.352,-0.793 2.1,-2.192 2.1,-4.035 v -0.839 c 0,-2.985 -1.961,-4.711 -5.365,-4.711 z"
   id="path22" />
	<path
   fill="#3c3c3b"
   d="m 200.727,13.855 -2.588,3.032 h 3.754 l 3.523,-3.032 z m -1.166,8.792 h 0.84 l 1.516,5.062 h -3.871 z m -2.846,-4.127 -4.732,15.625 h 4.104 l 0.84,-2.799 h 6.109 l 0.842,2.799 h 4.338 L 203.48,18.52 Z"
   id="path24" />
	<polygon
   fill="#3c3c3b"
   points="212.227,18.52 212.227,34.145 223.701,34.145 223.701,30.414 216.705,30.414 216.705,18.52 "
   id="polygon26" />
	<path
   fill="#3c3c3b"
   d="m 237.057,28.035 c 0,1.539 -0.932,2.378 -2.727,2.378 h -0.467 c -1.865,0 -2.729,-0.839 -2.729,-2.378 v -3.428 c 0,-1.493 0.863,-2.356 2.729,-2.356 h 0.467 c 1.795,0 2.727,0.863 2.727,2.356 z m -3.194,-9.748 c -4.199,0 -7.254,2.145 -7.254,6.133 v 3.918 c 0,3.941 3.055,6.04 7.254,6.04 h 0.514 c 4.174,0 7.205,-2.099 7.205,-6.04 V 24.42 c 0,-3.988 -3.031,-6.133 -7.205,-6.133 z"
   id="path28" />
	<polygon
   fill="#3c3c3b"
   points="256.24,34.145 260.625,18.52 256.498,18.52 253.373,29.667 252.51,29.667 249.385,18.52 244.93,18.52 249.314,34.145 "
   id="polygon30" />
	<path
   fill="#3c3c3b"
   d="m 271.311,13.855 -2.59,3.032 h 3.756 l 3.521,-3.032 z m -6.67,4.665 v 15.625 h 12.266 V 30.46 h -7.789 v -2.542 h 6.646 V 24.42 h -6.646 v -2.216 h 7.674 V 18.52 Z"
   id="path32" />
	<polygon
   fill="#3c3c3b"
   points="87.991,61.354 87.991,45.729 83.98,45.729 83.98,55.01 83.49,55.01 78.336,45.729 72.739,45.729 72.739,61.354 76.751,61.354 76.751,52.071 77.263,52.071 82.394,61.354 "
   id="polygon34" />
	<path
   fill="#3c3c3b"
   d="m 98.912,49.856 h 0.839 l 1.516,5.061 h -3.871 z m -2.845,-4.127 -4.734,15.626 h 4.104 l 0.839,-2.799 h 6.111 l 0.839,2.799 h 4.339 l -4.736,-15.626 z"
   id="path36" />
	<path
   fill="#3c3c3b"
   d="m 115.336,49.46 h 2.705 c 2.006,0 2.659,0.77 2.659,2.751 v 2.753 c 0,1.912 -0.653,2.658 -2.659,2.658 h -2.705 z m -4.431,-3.731 v 15.625 h 7.136 c 4.548,0 7.184,-1.773 7.184,-6.391 V 52.21 c 0,-4.779 -2.683,-6.481 -7.184,-6.481 z"
   id="path38" />
	<polygon
   fill="#3c3c3b"
   points="137.911,45.729 137.911,61.354 149.387,61.354 149.387,57.622 142.389,57.622 142.389,45.729 "
   id="polygon40" />
	<path
   fill="#3c3c3b"
   d="m 159.906,49.856 h 0.84 l 1.516,5.061 h -3.871 z m -2.845,-4.127 -4.734,15.626 h 4.105 l 0.84,-2.799 h 6.109 l 0.84,2.799 h 4.34 l -4.736,-15.626 z"
   id="path42" />
	<path
   fill="#3c3c3b"
   d="m 176.957,54.94 h 3.5 c 1.002,0 1.631,0.396 1.631,1.307 v 0.419 c 0,0.934 -0.629,1.353 -1.631,1.353 h -3.5 z m 0,-5.877 h 3.266 c 0.91,0 1.516,0.35 1.516,1.189 v 0.419 c 0,0.863 -0.605,1.213 -1.516,1.213 h -3.266 z m -4.383,-3.334 v 15.626 h 8.605 c 3.381,0 5.34,-1.423 5.34,-4.105 v -0.63 c 0,-1.517 -0.676,-2.565 -2.006,-3.219 v -0.49 c 1.236,-0.722 1.68,-1.725 1.68,-2.845 v -0.489 c 0,-2.823 -2.193,-3.849 -5.295,-3.849 h -8.324 z"
   id="path44" />
	<polygon
   fill="#3c3c3b"
   points="203.055,55.127 203.055,51.629 196.408,51.629 196.408,49.413 204.082,49.413 204.082,45.729 191.93,45.729 191.93,61.354 204.197,61.354 204.197,57.668 196.408,57.668 196.408,55.127 "
   id="polygon46" />
	<polygon
   fill="#3c3c3b"
   points="213.086,61.354 213.086,50.719 213.646,50.719 216.049,57.764 220.781,57.764 223.207,50.719 223.791,50.719 223.791,61.354 228.199,61.354 228.199,45.729 221.459,45.729 219.057,52.654 218.449,52.654 216.094,45.729 208.91,45.729 208.91,61.354 "
   id="polygon48" />
</g>
</svg>
