<?xml version="1.0" encoding="UTF-8"?>
<svg width="260" height="115" version="1.1" viewBox="0 0 286 126.5" xmlns="http://www.w3.org/2000/svg"><defs><clipPath id="clipPath6137"><path d="m209.6 689h418.3v-539.1h-418.3z" clip-rule="evenodd"/></clipPath><clipPath id="clipPath6143"><path d="m0 992h841v-992h-841z"/></clipPath><clipPath id="clipPath6149"><path d="m0 992h841v-992h-841z"/></clipPath></defs><g transform="matrix(7.347 0 0 7.347 -1514 -441.1)"><g transform="matrix(0 -.08615 -.08615 0 261.6 104.7)"><g clip-path="url(#clipPath6137)"><g clip-path="url(#clipPath6143)"><g clip-path="url(#clipPath6149)"><path d="m422.8 393.4c3.613 0.65 6.713 2.957 8.361 6.23l5.141 10.16h-0.019v88.94h44.36l5.097 12.24c1.572 3.109 1.674 6.753 0.28 9.952l-56.68 117.2c-1.697 3.896-5.376 6.565-9.611 6.965-4.231 0.404-8.35-1.521-10.75-5.024l-77.36-116.4c-16.68-23.54-16.68-36.32 0-53l81.17-74.38c2.695-2.487 6.401-3.569 10.01-2.915" fill="#ed192d"/><g fill="#29358f"><path d="m507.3 464.4-12.11-6.797v4.155l9.138 5.173-3.632 3.168h-5.506v3.604h19.43v-3.604h-8.912l8.912-7.785v-4.298l-7.315 6.384"/><path d="m511.5 448.7c0-2.144-0.027-3.081-0.41-3.852-0.773-1.514-2.205-1.539-2.614-1.539-2.833 0-2.974 2.611-2.999 3.412-0.03 0.685-0.057 1.152-0.057 2.392v1.264h6.08zm-16.29 5.283v-3.606h7.213v-3.245l-7.213-3.849v-4.157l7.898 4.316c0.334-1.095 1.623-3.818 5.338-3.818 2.254 0 3.796 0.934 4.787 2.141 1.376 1.708 1.376 3.44 1.403 6.031v6.187h-19.43"/><path d="m502.2 430.5 8.945-2.698-8.945-2.667zm-6.961-7.458v-3.879l19.43 6.633v4.127l-19.43 6.547v-3.882l3.801-1.124v-7.289zm23.53 5.283-2.942 2.04v-2.813l2.942-3.956v4.729"/><path d="m498.5 412.5v-7.706h-3.305v11.37h19.46v-3.663h-16.15"/><path d="m504.5 389.2c-4.676 0.084-6.438 3.192-6.438 5.617 0 3.216 2.618 5.639 6.99 5.639 4.046 0 6.741-2.229 6.741-5.563 0-3.822-3.492-5.775-7.293-5.693zm0.414-3.631c6.631-0.03 10.21 4.482 10.21 9.299 0 5.311-4.291 9.329-10.23 9.329-2.452 0-4.983-0.659-7.213-2.586-2.287-1.981-2.971-4.24-2.971-6.687 0-5.973 4.652-9.329 10.21-9.355"/><path d="m514.6 367.7-19.43 5.529v4.897l19.43 5.725v-3.825l-15.33-4.35 15.33-4.206v-3.77"/><path d="m511.4 359.9h-4.565v-9.353h-3.136v9.353h-5.202v-10.92h-3.277v14.5h19.43v-13.81h-3.246zm7.347-8.362-2.942 3.959v2.81l2.942-2.037v-4.732"/><path d="m514.6 328.8h-19.43v3.662h8.839v8.337h-8.839v3.629h19.43v-3.629h-7.348v-8.337h7.348v-3.662"/><path d="m511.5 318.3c0-2.146-0.027-3.083-0.41-3.851-0.773-1.516-2.205-1.544-2.614-1.544-2.833 0-2.974 2.616-2.999 3.417-0.03 0.682-0.057 1.149-0.057 2.391v1.267h6.08zm-16.29 5.282v-3.602h7.213v-3.247l-7.213-3.854v-4.155l7.898 4.319c0.334-1.098 1.623-3.822 5.338-3.822 2.254 0 3.796 0.935 4.787 2.145 1.376 1.703 1.376 3.438 1.403 6.023v6.193h-19.43"/><path d="m502.2 299.8 8.945-2.695-8.945-2.672zm-6.961-7.46v-3.875l19.43 6.631v4.123l-19.43 6.553v-3.879l3.801-1.13v-7.292l-3.801-1.131"/><path d="m511.3 279.4c-0.023-2.448-0.054-3.027-0.519-4.071-1.295-2.698-4.264-2.97-6.083-2.97-4.04 0-5.253 1.485-5.8 2.886-0.308 0.824-0.444 1.791-0.444 4.543v1.534h12.85zm-16.12 5.557v-6.218c0.028-2.284 0.055-4.316 1.188-6.248 1.646-2.861 5.035-3.987 8.359-3.987 2.179 0 6.084 0.498 8.368 3.739 1.458 2.039 1.484 4.076 1.511 5.753v6.961h-19.43"/><path d="m511.4 261.4h-4.565v-9.354h-3.136v9.354h-5.202v-10.93h-3.277v14.51h19.43v-13.81h-3.246v10.24"/><path d="m500.6 230.7c-0.631 0.248-1.762 0.72-2.92 1.678-1.591 1.375-2.996 3.55-2.996 6.715 0 5.145 3.771 9.081 10.26 9.081 6.603 0 10.15-4.265 10.15-9.217 0-6.054-4.65-7.483-5.996-7.927l-0.965 3.632c0.359 0.056 1.188 0.222 1.928 0.717 0.601 0.413 1.705 1.488 1.705 3.492 0 3.164-2.614 5.367-6.77 5.367-4.425 0-6.879-2.338-6.879-5.393 0-1.815 0.883-2.917 1.9-3.711 0.856-0.636 1.567-0.883 2.009-1.021l-1.432-3.413"/><path d="m507.3 218.3-12.11-6.797v4.155l9.138 5.173-3.632 3.165h-5.506v3.606h19.43v-3.606h-8.912l8.912-7.787v-4.291l-7.315 6.382"/><path d="m502.9 199.9h-7.68v3.576h7.68l11.75 6.498v-4.102l-8.061-4.209 8.061-4.265v-4.043zm15.85-2.886-2.942 3.962v2.808l2.942-2.039v-4.731"/><path d="m473.6 464.4-12.1-6.797v4.155l9.135 5.173-3.635 3.163h-5.5v3.609h19.43v-3.609h-8.918l8.918-7.78v-4.298l-7.322 6.384"/><path d="m477.8 449.3c0-2.152-0.025-3.084-0.414-3.852-0.767-1.518-2.2-1.544-2.611-1.544-2.836 0-2.971 2.616-2.998 3.412-0.031 0.687-0.059 1.152-0.059 2.397v1.266h6.082zm-16.29 5.281v-3.602h7.205v-3.249l-7.205-3.856v-4.152l7.895 4.32c0.332-1.102 1.623-3.824 5.337-3.824 2.258 0 3.797 0.935 4.788 2.144 1.376 1.705 1.376 3.439 1.406 6.027v6.192h-19.43"/><path d="m468.5 431.3 8.941-2.698-8.941-2.674zm-6.961-7.456v-3.882l19.43 6.632v4.129l-19.43 6.549v-3.881l3.795-1.131v-7.293l-3.795-1.123"/><path d="m480.9 410.1h-13.73c-1.541 0-2.777 0.023-3.959 0.88-1.625 1.159-2.149 3.303-2.149 5.342 0 1.125 0.166 1.782 0.248 2.226h3.58c-0.109-0.526-0.275-1.156-0.275-1.925 0-1.078 0.33-1.819 0.769-2.232 0.686-0.685 1.51-0.685 3.108-0.685h12.41v-3.606"/></g></g></g></g></g></g></svg>
