<svg clip-rule="evenodd" fill-rule="evenodd" height="49.8" width="215" stroke-linejoin="round" stroke-miterlimit="1.41421" viewBox="0 0 259 60" xmlns="http://www.w3.org/2000/svg"><g fill="#164088"><g fill-rule="nonzero"><path d="m83.355 45.96h2.144l-3.971-11.168h-2.244l-3.963 11.168h2.02l.96-2.856h4.11zm-3.057-9.04h.131l1.517 4.605h-3.181z"/><path d="m91.133 42.926c.101 2.028 1.796 3.313 4.358 3.313 2.709 0 4.388-1.355 4.388-3.529 0-1.703-.952-2.647-3.22-3.158l-1.284-.294c-1.386-.318-1.951-.759-1.951-1.51 0-.952.852-1.571 2.136-1.571 1.223 0 2.09.619 2.229 1.602h1.912c-.093-1.919-1.788-3.266-4.133-3.266-2.5 0-4.156 1.347-4.156 3.375 0 1.664.952 2.67 2.98 3.127l1.447.332c1.432.333 2.043.805 2.043 1.61 0 .937-.952 1.61-2.267 1.61-1.417 0-2.407-.642-2.531-1.641z"/><path d="m106.946 34.513c-3.243 0-5.294 2.252-5.294 5.859s2.012 5.867 5.294 5.867c3.258 0 5.27-2.268 5.27-5.867 0-3.607-2.027-5.859-5.27-5.859zm0 1.773c1.981 0 3.227 1.586 3.227 4.086 0 2.492-1.238 4.094-3.227 4.094-2.021 0-3.251-1.602-3.251-4.094 0-2.5 1.261-4.086 3.251-4.086z"/><path d="m119.159 46.239c2.577 0 4.466-1.54 4.729-3.824h-1.966c-.271 1.254-1.347 2.044-2.763 2.044-1.904 0-3.088-1.564-3.088-4.087 0-2.515 1.184-4.079 3.08-4.079 1.409 0 2.485.867 2.763 2.206h1.966c-.232-2.33-2.19-3.986-4.729-3.986-3.165 0-5.124 2.237-5.124 5.867 0 3.614 1.966 5.859 5.132 5.859z"/><path d="m126.101 34.792h1.997v11.168h-1.997z"/><path d="m138.059 45.96h2.144l-3.97-11.168h-2.245l-3.963 11.168h2.021l.959-2.856h4.11zm-3.057-9.04h.132l1.517 4.605h-3.181zm1.053-3.227 2.484-2.4h-2.19l-2.229 2.4z"/><path d="m149.243 44.211h-5.123v-9.419h-1.997v11.168h7.12z"/><path d="m153.322 45.96v-7.6h.132l5.479 7.6h1.726v-11.168h-1.919v7.592h-.132l-5.479-7.592h-1.734v11.168z"/><path d="m165.419 45.96v-11.168h-1.997v11.168zm-.054-12.267 2.485-2.4h-2.191l-2.229 2.4z"/><path d="m172.834 46.239c2.577 0 4.466-1.54 4.729-3.824h-1.966c-.271 1.254-1.347 2.044-2.763 2.044-1.904 0-3.088-1.564-3.088-4.087 0-2.515 1.184-4.079 3.08-4.079 1.409 0 2.485.867 2.763 2.206h1.966c-.232-2.33-2.19-3.986-4.729-3.986-3.165 0-5.123 2.237-5.123 5.867 0 3.614 1.965 5.859 5.131 5.859z"/><path d="m189.196 45.96v-11.168h-1.989v4.62h-5.434v-4.62h-1.996v11.168h1.996v-4.822h5.434v4.822z"/><path d="m201.548 45.96 3.863-11.168h-2.129l-2.786 8.839h-.132l-2.809-8.839h-2.206l3.901 11.168z"/><path d="m214.567 44.234h-5.232v-3.127h4.945v-1.625h-4.945v-2.964h5.232v-1.726h-7.229v11.168h7.229zm-4.474-10.541h1.718l2.229-2.4h-1.818l-1.2 1.347h-.139l-1.2-1.347h-1.819z"/><path d="m221.703 46.239c2.577 0 4.466-1.54 4.729-3.824h-1.966c-.271 1.254-1.347 2.044-2.763 2.044-1.904 0-3.088-1.564-3.088-4.087 0-2.515 1.184-4.079 3.08-4.079 1.409 0 2.484.867 2.763 2.206h1.966c-.232-2.33-2.19-3.986-4.729-3.986-3.166 0-5.124 2.237-5.124 5.867 0 3.614 1.966 5.859 5.132 5.859z"/><path d="m230.642 45.96v-11.168h-1.997v11.168zm-.054-12.267 2.484-2.4h-2.19l-2.229 2.4z"/><path d="m86.853 24.36v-11.168h-2.337l-3.359 8.134h-.14l-3.359-8.134h-2.337v11.168h1.857v-7.856h.109l3.088 7.423h1.424l3.088-7.423h.109v7.856z"/><path d="m89.609 13.192h1.997v11.168h-1.997z"/><path d="m96.288 24.36v-7.6h.132l5.479 7.6h1.726v-11.168h-1.919v7.592h-.132l-5.48-7.592h-1.733v11.168z"/><path d="m106.388 13.192h1.997v11.168h-1.997z"/><path d="m110.63 21.326c.1 2.028 1.795 3.313 4.357 3.313 2.709 0 4.389-1.355 4.389-3.53 0-1.702-.952-2.647-3.22-3.158l-1.285-.294c-1.385-.317-1.95-.758-1.95-1.509 0-.952.851-1.571 2.136-1.571 1.223 0 2.09.619 2.229 1.602h1.912c-.093-1.919-1.788-3.266-4.133-3.266-2.5 0-4.157 1.347-4.157 3.374 0 1.664.952 2.671 2.98 3.127l1.447.333c1.432.333 2.044.805 2.044 1.61 0 .936-.952 1.61-2.268 1.61-1.416 0-2.407-.643-2.531-1.641z"/><path d="m126.396 24.36v-9.442h3.444v-1.726h-8.878v1.726h3.437v9.442z"/><path d="m139.158 22.634h-5.232v-3.127h4.946v-1.625h-4.946v-2.964h5.232v-1.726h-7.229v11.168h7.229z"/><path d="m143.632 14.848h2.26c1.269 0 2.043.712 2.043 1.873 0 1.184-.727 1.865-1.997 1.865h-2.306zm0 5.325h2.214l2.19 4.187h2.283l-2.438-4.497c1.331-.48 2.105-1.71 2.105-3.181 0-2.144-1.47-3.49-3.815-3.49h-4.536v11.168h1.997z"/><path d="m151.89 21.326c.101 2.028 1.796 3.313 4.358 3.313 2.709 0 4.388-1.355 4.388-3.53 0-1.702-.952-2.647-3.22-3.158l-1.284-.294c-1.386-.317-1.951-.758-1.951-1.509 0-.952.852-1.571 2.136-1.571 1.223 0 2.09.619 2.229 1.602h1.912c-.093-1.919-1.788-3.266-4.133-3.266-2.5 0-4.156 1.347-4.156 3.374 0 1.664.952 2.671 2.98 3.127l1.447.333c1.432.333 2.043.805 2.043 1.61 0 .936-.952 1.61-2.267 1.61-1.417 0-2.407-.643-2.531-1.641z"/><path d="m167.656 24.36v-9.442h3.444v-1.726h-8.877v1.726h3.436v9.442z"/><path d="m178.561 24.36 3.863-11.168h-2.129l-2.786 8.838h-.132l-2.809-8.838h-2.206l3.901 11.168z"/><path d="m188.809 12.913c-3.243 0-5.294 2.252-5.294 5.859s2.012 5.867 5.294 5.867c3.258 0 5.271-2.268 5.271-5.867 0-3.607-2.028-5.859-5.271-5.859zm0 1.772c1.981 0 3.227 1.587 3.227 4.087 0 2.492-1.238 4.094-3.227 4.094-2.02 0-3.251-1.602-3.251-4.094 0-2.5 1.262-4.087 3.251-4.087z"/><path d="m200.589 13.192v11.168h1.997v-3.661h2.422c2.26 0 3.839-1.517 3.839-3.73 0-2.253-1.525-3.777-3.754-3.777zm1.997 1.671h1.981c1.44 0 2.252.736 2.252 2.106 0 1.331-.836 2.074-2.26 2.074h-1.973z"/><path d="m213.042 14.848h2.26c1.269 0 2.043.712 2.043 1.873 0 1.184-.727 1.865-1.997 1.865h-2.306zm0 5.325h2.214l2.19 4.187h2.283l-2.438-4.497c1.331-.48 2.105-1.71 2.105-3.181 0-2.144-1.47-3.49-3.815-3.49h-4.536v11.168h1.997z"/><path d="m229.017 24.36h2.144l-3.971-11.168h-2.244l-3.963 11.168h2.02l.96-2.856h4.11zm-3.057-9.04h.131l1.517 4.605h-3.181zm1.052-3.227 2.485-2.4h-2.191l-2.229 2.4z"/><path d="m237.221 24.639c2.577 0 4.466-1.541 4.729-3.824h-1.966c-.271 1.254-1.347 2.043-2.763 2.043-1.904 0-3.088-1.563-3.088-4.086 0-2.516 1.184-4.079 3.08-4.079 1.409 0 2.485.867 2.763 2.206h1.966c-.232-2.33-2.19-3.986-4.729-3.986-3.165 0-5.123 2.237-5.123 5.867 0 3.614 1.965 5.859 5.131 5.859z"/><path d="m251.392 22.634h-5.232v-3.127h4.946v-1.625h-4.946v-2.964h5.232v-1.726h-7.228v11.168h7.228z"/></g><path d="m8.849.621h38.712c4.887 0 8.849 4.141 8.849 9.249v40.464c0 5.108-3.962 9.248-8.849 9.248h-38.712c-4.887 0-8.849-4.14-8.849-9.248v-40.464c0-5.108 3.962-9.249 8.849-9.249zm42.03 29.655h-45.349v17.746c0 3.192 2.476 5.78 5.531 5.78h34.288c3.054 0 5.53-2.588 5.53-5.78zm0-.99v-17.104c0-3.192-2.476-5.78-5.53-5.78h-34.288c-3.055 0-5.531 2.588-5.531 5.78v17.104z"/><path d="m20.325 29.286-7.396-16.672v13.165c0 1.255.13 2.038.392 2.348.347.422.907.633 1.679.633h.681v.526h-6.765v-.526h.691c.817 0 1.398-.261 1.744-.783.211-.322.317-1.054.317-2.198v-12.8c0-.903-.097-1.555-.289-1.957-.134-.291-.379-.534-.734-.73-.356-.195-.932-.294-1.729-.294v-.526h5.49l6.921 15.461 6.859-15.461h5.497v.526h-.678c-.826 0-1.412.261-1.757.783-.212.321-.317 1.055-.317 2.198v12.8c0 1.255.134 2.038.403 2.348.354.422.912.633 1.671.633h.678v.526h-8.256v-.526h.691c.826 0 1.407-.261 1.744-.783.211-.322.317-1.054.317-2.198v-13.165l-7.396 16.672z"/><path d="m38.286 10.92c.754-.186 1.375-.279 1.862-.279.792 0 1.502.184 2.127.549.625.366 1.107.918 1.446 1.654.339.737.509 1.534.509 2.393 0 1.249-.356 2.266-1.067 3.052-.712.785-1.559 1.178-2.542 1.178-.277 0-.609-.024-.995-.074-.387-.049-.834-.122-1.34-.22zm1.746 9.381c.548.068 1.053.101 1.516.101 1.905 0 3.381-.506 4.43-1.518s1.574-2.325 1.574-3.94c0-1.186-.346-2.212-1.037-3.078s-1.539-1.481-2.544-1.847c-1.006-.364-2.383-.547-4.131-.547h-7.148v.526h.739c.734 0 1.29.216 1.666.646.261.304.392 1.082.392 2.335v12.8c0 1.136-.096 1.855-.289 2.159-.358.548-.948.822-1.769.822h-.739v.526h8.391v-.526h-.739c-.744 0-1.295-.215-1.652-.646-.271-.303-.406-1.082-.406-2.335v-5.78c.616.134 1.198.235 1.746.302z"/><path d="m24.487 31.267v6.817h-.52c-.174-1.305-.484-2.344-.928-3.118-.444-.773-1.079-1.387-1.905-1.842-.825-.454-1.677-.682-2.556-.682-.994 0-1.818.311-2.47.933-.651.623-.977 1.33-.977 2.123 0 .608.207 1.161.622 1.66.588.735 1.996 1.715 4.224 2.939 1.821.999 3.063 1.765 3.725 2.297.66.533 1.168 1.16 1.523 1.883.355.722.532 1.479.532 2.271 0 1.504-.57 2.8-1.711 3.889-1.14 1.089-2.611 1.634-4.41 1.634-.559 0-1.089-.044-1.589-.131-.288-.048-.9-.225-1.833-.529-.934-.304-1.522-.457-1.762-.457s-.431.073-.57.218c-.14.145-.244.444-.31.899h-.52v-6.817h.52c.251 1.434.585 2.507 1.005 3.218.419.713 1.062 1.304 1.93 1.775.867.472 1.816.707 2.849.707 1.195 0 2.137-.325 2.826-.977s1.034-1.421 1.034-2.31c0-.494-.129-.993-.385-1.496-.257-.503-.662-.973-1.214-1.407-.362-.295-1.379-.913-3.05-1.854-1.671-.94-2.856-1.694-3.553-2.261-.698-.568-1.228-1.195-1.591-1.88s-.544-1.438-.544-2.261c0-1.428.536-2.659 1.609-3.692 1.073-1.032 2.433-1.549 4.079-1.549 1.03 0 2.122.253 3.277.758.54.239.919.358 1.141.358.24 0 .44-.073.599-.221s.286-.446.383-.895z"/><path d="m46.561 30.276v.54c-.687.134-1.21.37-1.567.708-.504.504-.954 1.274-1.35 2.311l-6.794 17.245h-.673l-7.312-17.479c-.378-.923-.644-1.487-.798-1.693-.243-.318-.539-.566-.887-.746-.349-.18-.823-.295-1.423-.346v-.54h8.051v.54c-.9.09-1.486.249-1.757.478-.27.23-.406.524-.406.883 0 .498.223 1.277.668 2.333l4.975 11.893 4.626-11.743c.455-1.157.683-1.959.683-2.408 0-.289-.141-.566-.422-.83s-.75-.452-1.408-.561c-.048-.01-.13-.025-.246-.045v-.54z"/></g></svg>