<svg xmlns="http://www.w3.org/2000/svg" width="158" height="64" viewBox="0 0 158 64">
  <defs>
    <style>
      .cls-1 {
        fill: #dab481;
        fill-rule: evenodd;
      }
    </style>
  </defs>
  <path id="carla_logo_gold.svg" class="cls-1" d="M1232.13,3043.69h0.07c0.01,0.08.02,0.13,0.02,0.13s0.03,0.13.01-.13a33.03,33.03,0,0,1,9.92,2.17,42.872,42.872,0,0,1,9.81,5.32,17.477,17.477,0,0,1,1.86-1.82c1.23-1.12,3.28-2.96,6.67-6.03-3.16,1.69-4.58-.94-6.67.13-1.19.6-1.23,3.2,0.66,3.38-4.1.54-7.74-2.68-8.31-7.6a1.5,1.5,0,0,0,2.74-.62c0.18-2.07-2.06-2.87-1.82-5.93,0.02-.05.03-0.1,0.05-0.15-0.02.03-.03,0.04-0.05,0.07,0.01-.03,0-0.06.01-0.08-0.02.05-.03,0.09-0.05,0.14-1.7,2.52-3.91,1.63-5.05,3.35-0.62.94,0.29,2.8,1.7,2.31-3.45,3.41-7.99,3.48-10.7.41,1.55,1.07,3.09-.94,2.56-2.18-0.95-2.23-3.66-1.15-5.05-4.56,0.73,4.73,1.16,7.58,1.4,9.3A13.28,13.28,0,0,1,1232.13,3043.69Zm20.8,10.09a32.732,32.732,0,0,0-10.79-6.82,28.5,28.5,0,0,0-12.24-1.81,52.993,52.993,0,0,1,11.77,2.93A73.481,73.481,0,0,1,1252.93,3053.78Zm-77.53,39.44a8.368,8.368,0,0,0,3.41-1.86c-0.01,0-.03.01-0.04,0.01a7.109,7.109,0,0,1-1.83.3,3.408,3.408,0,0,1-2.47-.7,2.74,2.74,0,0,1-.43-2.46,12.325,12.325,0,0,1,.54-1.89c0.28-.79.54-1.47,0.76-2.02l6.01-15.2a13.517,13.517,0,0,0-1.94-.14,10.767,10.767,0,0,0-1.55.11,12.668,12.668,0,0,0-3.61,1.28l-0.34.18-0.27-.27a5.524,5.524,0,0,0-2.25-1.34,11.194,11.194,0,0,0-3.6-.51,13.579,13.579,0,0,0-5.73,1.3,21.887,21.887,0,0,0-5.59,4.02,20.606,20.606,0,0,0-3.11,4.29,20.208,20.208,0,0,0-2.01,5.28c-0.06.23-.11,0.48-0.16,0.75l-0.04.24-0.21.12-0.27.14c-5.91,4.07-11.2,6.13-15.74,6.13-8.07,0-12.09-6.66-12.42-12.85-0.67-13,8.31-20.96,13.72-24.54,4.8-3.19,9.07-4.87,12.33-4.87,3.01,0,4.96,1.49,5.22,3.99,0.57,5.67-6.66,16.45-13.83,20.58a6.88,6.88,0,0,1-3.41,1.06,3.31,3.31,0,0,1-2.76-1.29,3.945,3.945,0,0,1-.38-3.55c0.68-2.13,5.9-8.81,13.2-8.81,0.01,0,.41.08,0.42,0.08a19.654,19.654,0,0,0,3.23-5.6c-7.69,1.96-14.56,7.04-17.94,12.49-2.22,3.6-2.42,6.47-.57,8.3a6.609,6.609,0,0,0,4.78,1.62,19.987,19.987,0,0,0,7.75-1.9,26.921,26.921,0,0,0,8.86-6.78c5.83-6.8,7.9-14.24,5.15-18.5-1.39-2.17-4.74-3.41-9.17-3.41-7.72,0-16.53,3.63-23.56,9.7-7.1,6.14-10.73,12.09-11.41,18.72-1.24,11.98,6.36,16.29,9.68,17.59a19.224,19.224,0,0,0,7.04,1.28c7.71,0,14.99-3.99,18.89-7.41l0.37-.31,0.84-.7-0.02,1.1a14.372,14.372,0,0,0,.07,1.64l0.03,0.28-0.02.01,0.13,0.63,0.02,0.13c0.02,0.08.04,0.17,0.06,0.24a5.627,5.627,0,0,0,5.85,4.11,13.735,13.735,0,0,0,9.14-3.98l0.71-.74,0.15,1.01a5.486,5.486,0,0,0,.45,1.28l0.17,0.31,0.2,0.24a4.12,4.12,0,0,0,.66.66,5.685,5.685,0,0,0,3.54.94A11.545,11.545,0,0,0,1175.4,3093.22Zm-8.14-4.87-0.04.1-0.08.08c-0.15.15-.51,0.54-0.51,0.54a13.512,13.512,0,0,1-2.37,1.82,4.983,4.983,0,0,1-2.59.78,3.717,3.717,0,0,1-2.07-.52,3.018,3.018,0,0,1-1.17-1.47,5.458,5.458,0,0,1-.33-2.01,14.391,14.391,0,0,1,.22-2.42,28.482,28.482,0,0,1,1.52-5.53,24.122,24.122,0,0,1,2.45-4.76,16.613,16.613,0,0,1,1.97-2.4,10.571,10.571,0,0,1,1.76-1.53,5.888,5.888,0,0,1,3.34-1.29,3.973,3.973,0,0,1,1.94.38,2.776,2.776,0,0,1,1.19,1.23,3.486,3.486,0,0,1,.34.83,4.613,4.613,0,0,1,.11,1.13,4.755,4.755,0,0,1-.22,1.09Zm22.8-15.05-0.1.9a11.206,11.206,0,0,1-.58,2.02l-0.38,1.03-0.31.84-5.76,15.12h6.67c1.44-4.01,5.58-15.43,6.2-16.42a12.782,12.782,0,0,1,1.84-2.28,14.456,14.456,0,0,1,1.89-1.75,4.681,4.681,0,0,1,2.44-1.12,1.293,1.293,0,0,1,1.27.93,1.508,1.508,0,0,1,.05.72l0.13-.05-0.27.7-0.03.13h-0.02l-0.08.22c-0.18.45-.42,0.94-0.65,1.41-0.31.64-.96,1.98-0.79,2.24a2.817,2.817,0,0,0,1.59.37,5.446,5.446,0,0,0,1.36-.18,7.174,7.174,0,0,0,3.1-1.77,5.819,5.819,0,0,0,1.64-2.94,4.1,4.1,0,0,0-.45-3.55,2.968,2.968,0,0,0-2.63-1.16,7.087,7.087,0,0,0-3.55,1,19.144,19.144,0,0,0-4.76,3.49c-0.51.53-1.06,1.08-1.06,1.08a4.508,4.508,0,0,0,.17-1.22,4,4,0,0,0-1.18-3.02,5.366,5.366,0,0,0-3.76-1.05,9.659,9.659,0,0,0-3.35.57,11.052,11.052,0,0,0-3.07,1.71,6.152,6.152,0,0,1,1.6-.22,3.094,3.094,0,0,1,2.41.71,2.166,2.166,0,0,1,.41,1.28A4.784,4.784,0,0,1,1189.96,3074.2Zm25.48,19.14a10.3,10.3,0,0,0,3.46-2.06,0.235,0.235,0,0,1-.08.02,7.565,7.565,0,0,1-1.84.31,3.683,3.683,0,0,1-2.59-.71,2.81,2.81,0,0,1-.49-2.62,14.1,14.1,0,0,1,.59-2.02c0.31-.88.57-1.6,0.77-2.13,0,0,7.05-18.62,10.2-26.98,0.63-1.68.67-2.99,0.12-3.79a2,2,0,0,0-1.65-.83c-1.93,0-4.27.12-6.2,0.26a3.692,3.692,0,0,1,.83,1.5,6.652,6.652,0,0,1,.04,2.99,4.608,4.608,0,0,1-.18.74c-0.09.31-.19,0.61-0.31,0.92l-6.04,16.01-0.44,1.17-3.23,8.54c-0.26.74-.5,1.43-0.71,2.08a16.022,16.022,0,0,0-.5,2.05,4.145,4.145,0,0,0,.86,3.65,5.05,5.05,0,0,0,3.97,1.43A10.152,10.152,0,0,0,1215.44,3093.34Zm48.84-11c2.8-5.14,3.39-10.07,1.75-14.64-1.6-4.49-5.11-7.96-8.38-10.37,5.54,5.63,8.52,13.75,3.3,23.16-2.7,4.85-7.95,9.67-11.7,10.74a5.73,5.73,0,0,1-1.59.25,2.475,2.475,0,0,1-2.14-.98,2.929,2.929,0,0,1-.41-2.34c0.13-.39.24-0.74,0.52-1.54,0.29-.83.54-1.49,0.76-2.02l6.01-15.2a13.987,13.987,0,0,0-1.65-.1,9.527,9.527,0,0,0-1.45.1,16.666,16.666,0,0,0-4.03,1.26l-0.33.16-0.25-.26a5.524,5.524,0,0,0-2.25-1.34,11.194,11.194,0,0,0-3.6-.51,13.579,13.579,0,0,0-5.73,1.3,19.156,19.156,0,0,0-5.22,3.57c-0.12.12-.24,0.25-0.36,0.38-0.07.08-.15,0.16-0.22,0.24a23.361,23.361,0,0,0-2.9,4.12,20.151,20.151,0,0,0-2.25,6.44c-0.48,2.9-.19,5.21.87,6.84s2.86,2.41,5.54,2.41a8.162,8.162,0,0,0,2.41-.35,15.834,15.834,0,0,0,4.33-2.15c0.57-.42,1.18-0.87,1.79-1.36l0.66-.51,0.15,0.82a2.594,2.594,0,0,0,.52,1.14l0.25,0.33,0.19,0.17a10.424,10.424,0,0,0,7,2.33C1251.76,3094.43,1259.74,3090.69,1264.28,3082.34Zm-26.02,5.62a8.433,8.433,0,0,1-1.18,1.4,7.944,7.944,0,0,1-1.77,1.53,4.983,4.983,0,0,1-2.59.78,3.717,3.717,0,0,1-2.07-.52,2.952,2.952,0,0,1-1.17-1.47,5.848,5.848,0,0,1-.33-2,14.146,14.146,0,0,1,.22-2.43,28.234,28.234,0,0,1,1.52-5.53,23.825,23.825,0,0,1,2.45-4.76,17.424,17.424,0,0,1,1.97-2.4,11.51,11.51,0,0,1,1.63-1.54,5.866,5.866,0,0,1,3.47-1.31,4.012,4.012,0,0,1,1.94.41,3.032,3.032,0,0,1,1.56,2.57C1243.96,3074.01,1243.15,3080.47,1238.26,3087.96Zm-75.54-37.8a12.455,12.455,0,0,1,1.43,4.61c17.72-9.45,37.29-11.15,48.13-11.25q-4.245-.345-8.64-0.34A125.169,125.169,0,0,0,1162.72,3050.16Zm13.14,37.81a11.071,11.071,0,0,0-.52,1.81,4.838,4.838,0,0,0-.08.87,2.359,2.359,0,0,0,.62.24,5.2,5.2,0,0,1,.07-0.64,12.531,12.531,0,0,1,.53-1.81c0.28-.79.53-1.46,0.74-1.99l6.24-15.8s-0.29-.05-0.75-0.12l-6.1,15.45C1176.39,3086.51,1176.14,3087.18,1175.86,3087.97Zm40.77-3.21c-0.21.53-.46,1.23-0.77,2.11a14.465,14.465,0,0,0-.56,1.94,4.863,4.863,0,0,0-.08.88,2.154,2.154,0,0,0,.61.26,5.428,5.428,0,0,1,.08-0.63,13.67,13.67,0,0,1,.56-1.94c0.31-.88.56-1.58,0.77-2.11,0,0,7.04-18.63,10.2-26.99,1.1-2.93.32-4.35-.7-4.95,0.66,0.77.95,2.15,0.09,4.44C1223.67,3066.14,1216.63,3084.76,1216.63,3084.76Zm-3.56,10.22c-2.94.13-4.15-.91-4.15-0.91,1.02,1.28,3.56,1.44,4.13,1.44a10,10,0,0,0,5.1-1.2,8.926,8.926,0,0,0,2.69-2l-1.56.31A10.214,10.214,0,0,1,1213.07,3094.98Zm33.35-5.41c-0.02.14-.03,0.26-0.05,0.39a2.462,2.462,0,0,0,.65.23c0.01-.05.01-0.1,0.02-0.15a12.177,12.177,0,0,1,.53-1.81c0.28-.8.53-1.46,0.75-1.99l6.24-15.8s-0.3-.06-0.76-0.11l-6.1,15.44c-0.22.53-.47,1.19-0.75,1.99A12.177,12.177,0,0,0,1246.42,3089.57Zm21.61-18.15c1.59,15.77-17.2,28.55-27.88,22.2C1250.47,3100.98,1270.83,3088.31,1268.03,3071.42Zm-43.7-26.94c-31.95-2.97-54.73,8.84-60.25,12.05a4.482,4.482,0,0,1-.57,1.48C1173.37,3052.09,1198.07,3042.47,1224.33,3044.48Zm13.45,27.36a15.2,15.2,0,0,0-2.98,3.38,23.09,23.09,0,0,0-2.39,4.66,27.365,27.365,0,0,0-1.5,5.43,14.293,14.293,0,0,0-.21,2.34,5.953,5.953,0,0,0,.13,1.26,2.423,2.423,0,0,0,.51.45,0.672,0.672,0,0,0,.12.06,5.628,5.628,0,0,1-.14-1.3,14.293,14.293,0,0,1,.21-2.34,27.365,27.365,0,0,1,1.5-5.43,22.826,22.826,0,0,1,2.39-4.66,14.693,14.693,0,0,1,2.91-3.33,4.9,4.9,0,0,1,3.11-1.2,4.066,4.066,0,0,1,1.77.39,2.081,2.081,0,0,0-.59-0.46,3.958,3.958,0,0,0-1.79-.45A4.735,4.735,0,0,0,1237.78,3071.84Zm-68.61,22.15c-0.01.04,1.13,1.24,3.94,1.24,2.32,0,5.59-.75,7.54-2.81l-1.51.24C1175.07,3095.89,1169.79,3094.62,1169.17,3093.99Zm-16.78-41.91c-2.55-5.63-15.5.34-22.54,8.83-6.86,8.28-7.41,20.44-1.51,25.54-4.84-5.1-4.82-17.64,2.74-25.73C1138.51,3052.76,1148.92,3047.91,1152.39,3052.08Zm-13.31,13.01c2.37-1.66,5.27-2.72,6.62-2.65a6.378,6.378,0,0,0,.9-0.9c-6.16.18-12.48,6.69-12.32,8.94C1134.83,3068.47,1137.31,3066.36,1139.08,3065.09Zm33.58,6.47a3.66,3.66,0,0,0-2.48-.95,4.821,4.821,0,0,0-3.08,1.17,15.736,15.736,0,0,0-2.98,3.39,23.183,23.183,0,0,0-2.39,4.67,27.365,27.365,0,0,0-1.5,5.43,14.293,14.293,0,0,0-.21,2.34,5.953,5.953,0,0,0,.13,1.26,2.742,2.742,0,0,0,.51.45l0.12,0.06a5.656,5.656,0,0,1-.14-1.31,14.273,14.273,0,0,1,.21-2.33,27.646,27.646,0,0,1,1.5-5.44,23.359,23.359,0,0,1,2.39-4.66,14.7,14.7,0,0,1,2.85-3.32,5.223,5.223,0,0,1,3.18-1.27,3.967,3.967,0,0,1,1.73.44C1172.5,3071.48,1172.66,3071.57,1172.66,3071.56Zm17.49,1.23c0.03-.02-0.09-0.1-0.06-0.12a1.1,1.1,0,0,0,.02-0.18,0.219,0.219,0,0,0-.05-0.03,3.862,3.862,0,0,0-1.64-.27,5.738,5.738,0,0,0-1.64.25c-0.12.04-.23,0.07-0.35,0.11a3.4,3.4,0,0,0-.52.85c0.41-.15.91-0.32,1.49-0.49a5.738,5.738,0,0,1,1.64-.25A8.083,8.083,0,0,1,1190.15,3072.79Zm11.9,0.98a2.436,2.436,0,0,1,1.45-.49c0.52-.91.62-0.57,0.04-0.66a4.915,4.915,0,0,0-2.81,1.17,13.518,13.518,0,0,0-3.08,3.34c-0.7,1.12-6.47,17.22-6.47,17.22h-7.29l-0.18.47h8.08s5.78-16.1,6.48-17.22a13.767,13.767,0,0,1,3.08-3.35C1201.55,3074.1,1201.8,3073.93,1202.05,3073.77Zm36.25,17.57c-0.63.49-1.23,0.94-1.79,1.35a14.648,14.648,0,0,1-2.16,1.29,14.914,14.914,0,0,1-2.31.94,8.586,8.586,0,0,1-2.57.37,8.044,8.044,0,0,1-4.41-1.09,7.387,7.387,0,0,0,5.03,1.56,8.8,8.8,0,0,0,2.56-.37,15.024,15.024,0,0,0,2.32-.94,14.648,14.648,0,0,0,2.16-1.29c0.49-.36.98-0.74,1.67-1.25m-71.46-.69c-0.63.49-1.23,0.94-1.79,1.35a15.039,15.039,0,0,1-2.15,1.29,15.439,15.439,0,0,1-2.32.94,8.586,8.586,0,0,1-2.57.37,8.044,8.044,0,0,1-4.41-1.09,7.4,7.4,0,0,0,5.03,1.56,8.8,8.8,0,0,0,2.56-.37,15.024,15.024,0,0,0,2.32-.94,14.648,14.648,0,0,0,2.16-1.29c0.49-.36.98-0.74,1.68-1.25m-16.88-3.65-0.31.25c-5.28,4.05-18.56,11.69-31.62,3.03,0,0,12.97,11.6,31.83-2.13l0.25-.18c0.03,0.14.05,0.28,0.08,0.4m59.46-19a3,3,0,0,0-.99-0.89,3.7,3.7,0,0,1,.37.42,5.093,5.093,0,0,1,.53,3.97,8.462,8.462,0,0,1-5.62,5.63,4.784,4.784,0,0,1-2.94-.04,0.461,0.461,0,0,0,.16.23,4.279,4.279,0,0,0,3.39.27,7.744,7.744,0,0,0,2.66-1.3,8.585,8.585,0,0,0,2.21-2.55,6.158,6.158,0,0,0,.93-3.01A5.462,5.462,0,0,0,1210.66,3070.51Zm-56.84.14c-6.38,6.54-15.84,10.49-21.74,7.29,5.72,4.21,16.28-.29,22.48-6.87,7.13-7.59,9.47-18.86,3.6-22.52C1163.53,3053,1160.19,3064.11,1153.82,3070.65Zm44.41,2.37a4.282,4.282,0,0,0-1.08-1.85,3.035,3.035,0,0,1,.6.45,4.034,4.034,0,0,1,.8,1.11Zm71.36,19.73a1.318,1.318,0,0,0-.41-0.76,1.191,1.191,0,0,0,.58-1.04,1.144,1.144,0,0,0-.36-0.87,1.807,1.807,0,0,0-1.26-.37,5.3,5.3,0,0,0-1.02.09l-0.12.03v4.2h0.82v-1.72h0.33a0.614,0.614,0,0,1,.65.65,4.453,4.453,0,0,0,.28,1l0.05,0.07h0.86l-0.11-.22A8.1,8.1,0,0,1,1269.59,3092.75Zm-1.4-1.14h-0.37v-1.17a3.158,3.158,0,0,1,.35-0.02,0.616,0.616,0,0,1,.77.58A0.639,0.639,0,0,1,1268.19,3091.61Zm3.31-1.61a3.482,3.482,0,0,0-1.39-1.38,3.69,3.69,0,0,0-3.64,0,3.507,3.507,0,0,0-1.4,1.38,3.888,3.888,0,0,0-.49,1.86,3.741,3.741,0,0,0,.49,1.85,3.5,3.5,0,0,0,1.37,1.38,3.741,3.741,0,0,0,1.85.49,3.677,3.677,0,0,0,1.84-.49,3.458,3.458,0,0,0,1.38-1.38,3.85,3.85,0,0,0,.49-1.85A3.79,3.79,0,0,0,1271.5,3090Zm-0.77,3.27a2.666,2.666,0,0,1-1.04,1.04,2.834,2.834,0,0,1-2.8,0,2.666,2.666,0,0,1-1.04-1.04,2.87,2.87,0,0,1-.38-1.41,2.806,2.806,0,0,1,.39-1.41,2.6,2.6,0,0,1,1.04-1.04,2.84,2.84,0,0,1,1.39-.37,2.8,2.8,0,0,1,1.38.37,2.565,2.565,0,0,1,1.05,1.04,2.9,2.9,0,0,1,.38,1.41A2.858,2.858,0,0,1,1270.73,3093.27Z" transform="translate(-1114 -3032)"/>
</svg>
