<?xml version="1.0" standalone="no"?>
<!DOCTYPE svg PUBLIC "-//W3C//DTD SVG 20010904//EN"
 "http://www.w3.org/TR/2001/REC-SVG-20010904/DTD/svg10.dtd">
<svg version="1.0" xmlns="http://www.w3.org/2000/svg"
 width="1060.000000pt" height="1060.000000pt" viewBox="0 0 1060.000000 1060.000000"
 preserveAspectRatio="xMidYMid meet">
<metadata>
Created by potrace 1.14, written by Peter Selinger 2001-2017
</metadata>
<g transform="translate(0.000000,1060.000000) scale(0.100000,-0.100000)"
fill="#000000" stroke="none">
<path d="M3885 9139 c-16 -5 -43 -12 -59 -15 -47 -8 -166 -73 -225 -123 -148
-124 -222 -294 -217 -499 3 -110 28 -215 65 -272 9 -14 23 -37 30 -52 20 -40
119 -140 176 -178 76 -52 190 -95 270 -103 15 -1 24 -16 37 -57 10 -30 18 -56
18 -58 0 -2 -17 -10 -37 -18 -128 -53 -300 -136 -403 -196 -108 -62 -124 -72
-130 -78 -3 -3 -32 -23 -65 -45 -53 -35 -143 -102 -185 -138 -46 -39 -47 -39
-87 -19 -33 17 -63 27 -123 39 -8 1 -33 5 -55 8 -22 3 -51 7 -65 10 -14 3 -46
7 -71 10 -25 3 -56 8 -69 10 -102 20 -673 28 -790 12 -30 -4 -73 -10 -95 -14
-22 -3 -51 -6 -65 -8 -26 -3 -116 -20 -160 -30 -14 -4 -38 -8 -53 -11 -16 -3
-46 -12 -68 -19 -21 -8 -39 -12 -39 -10 0 3 -12 0 -27 -6 -16 -6 -35 -12 -43
-14 -30 -7 -206 -72 -237 -89 -18 -9 -35 -16 -38 -16 -19 3 -336 -174 -343
-192 -2 -4 -10 -8 -18 -8 -8 0 -17 -7 -20 -15 -4 -8 -12 -15 -18 -15 -7 0 -21
-8 -32 -17 -10 -10 -36 -30 -56 -46 -65 -48 -190 -167 -284 -269 -100 -108
-238 -327 -279 -441 -31 -85 -28 -119 16 -158 34 -30 149 -90 202 -104 4 -2
10 -4 15 -5 4 -1 12 -3 17 -4 6 -1 35 -9 65 -18 30 -9 69 -19 85 -22 17 -3 39
-7 50 -9 50 -11 169 -26 264 -33 95 -7 333 -11 345 -5 5 2 34 5 65 6 31 2 81
6 111 10 30 4 67 8 81 9 14 2 30 5 35 8 5 3 29 9 54 12 25 3 60 10 78 15 18 5
35 10 37 10 3 1 6 1 8 2 1 0 13 3 26 5 30 5 211 66 266 89 100 42 310 158 335
185 3 3 18 14 34 24 28 18 58 43 118 99 17 15 32 27 34 27 6 0 -30 -74 -39
-81 -5 -3 -7 -8 -5 -10 2 -3 -35 -101 -83 -214 -9 -22 -79 -241 -84 -265 -2
-8 -16 -64 -30 -125 -14 -60 -28 -123 -31 -140 -3 -16 -7 -41 -10 -55 -3 -14
-7 -38 -9 -55 -3 -16 -7 -41 -10 -55 -2 -14 -7 -47 -10 -75 -3 -27 -8 -70 -10
-95 -24 -206 -24 -568 -1 -690 2 -14 7 -43 10 -65 3 -22 8 -53 12 -70 3 -16 7
-39 9 -50 10 -66 63 -248 91 -312 8 -17 14 -36 14 -43 0 -6 5 -21 12 -33 7
-12 13 -29 14 -37 2 -8 7 -23 13 -35 5 -11 35 -72 65 -135 59 -123 113 -223
150 -280 13 -19 37 -57 54 -85 17 -27 35 -54 40 -60 4 -5 19 -26 32 -45 13
-19 30 -41 37 -48 7 -7 13 -17 13 -21 0 -4 8 -16 18 -27 9 -10 29 -35 44 -56
15 -20 34 -42 41 -50 7 -7 20 -24 29 -37 75 -108 425 -454 613 -606 39 -31 77
-61 85 -68 8 -7 33 -26 55 -42 22 -16 42 -32 45 -35 7 -8 111 -83 131 -95 9
-5 44 -29 77 -53 34 -23 65 -42 71 -42 5 0 11 -4 13 -8 4 -11 205 -132 218
-132 6 0 10 -4 10 -10 0 -5 3 -10 8 -10 4 0 53 -24 110 -54 56 -29 102 -51
102 -47 0 3 4 0 9 -7 4 -7 14 -15 22 -16 8 -1 39 -14 69 -28 30 -14 75 -35
100 -46 49 -21 235 -92 260 -98 8 -2 61 -17 116 -33 98 -28 151 -40 204 -47
14 -1 25 -3 25 -4 0 -11 363 -22 380 -11 6 3 24 6 40 7 17 1 75 12 130 24 55
12 108 23 118 25 30 6 279 92 322 111 22 10 45 18 51 20 6 1 41 16 78 33 37
17 72 31 77 31 5 0 9 5 9 12 0 6 3 9 6 6 8 -9 326 158 332 174 2 4 8 8 12 8
10 0 161 89 170 100 3 3 30 21 60 40 30 19 60 39 67 45 7 5 19 16 27 23 8 6
18 12 21 12 3 0 54 37 113 82 118 90 116 89 153 121 14 12 50 42 80 67 120
101 317 293 414 405 28 31 57 64 66 73 12 13 131 161 197 247 23 29 120 175
136 205 11 19 22 37 25 40 3 3 17 25 30 50 14 25 27 47 31 50 3 3 14 23 24 45
10 22 25 48 34 58 8 9 12 17 7 17 -4 0 0 11 9 25 9 13 16 31 16 39 0 8 4 16 8
18 9 4 52 93 52 109 0 6 6 23 14 37 13 25 28 59 30 72 1 3 5 11 9 18 5 6 6 12
2 12 -3 0 -1 9 5 21 14 25 70 209 64 209 -3 0 0 9 6 19 5 11 12 36 15 56 2 21
7 45 9 54 10 31 17 76 21 121 2 25 7 56 10 70 3 14 8 81 10 150 3 69 5 127 6
130 1 3 1 7 1 10 0 3 -3 61 -6 130 -4 69 -8 145 -10 170 -11 124 -18 179 -26
225 -5 28 -12 66 -14 85 -3 19 -8 46 -11 60 -3 14 -7 39 -9 57 -3 18 -7 37
-11 43 -4 6 -8 21 -10 33 -4 27 -9 48 -25 107 -7 25 -13 50 -14 57 -1 7 -5 16
-9 19 -4 4 -7 18 -7 31 0 13 -4 31 -10 41 -5 9 -19 46 -30 82 -12 36 -25 74
-30 85 -4 11 -27 67 -51 125 -23 58 -53 124 -66 148 -26 46 -17 55 19 20 34
-33 115 -99 157 -128 20 -14 38 -28 39 -32 2 -5 8 -8 13 -8 5 0 38 -18 74 -40
36 -22 67 -40 69 -40 2 0 43 -19 92 -42 49 -23 95 -41 102 -40 6 2 12 -1 12
-6 0 -6 12 -12 28 -15 15 -3 72 -19 127 -36 55 -17 111 -33 125 -35 14 -2 50
-9 80 -16 56 -11 76 -15 165 -26 221 -27 575 -18 761 20 12 2 38 7 59 10 20 4
40 8 44 11 4 2 20 6 35 9 27 5 88 22 116 33 8 4 17 7 20 8 61 21 142 63 171
87 63 55 61 93 -7 236 -42 86 -154 263 -189 299 -9 8 -28 31 -43 51 -35 47
-163 174 -238 237 -32 28 -65 56 -72 63 -26 24 -269 182 -280 182 -7 0 -12 5
-12 12 0 6 -3 8 -6 5 -4 -4 -20 3 -35 14 -16 11 -29 17 -29 13 0 -4 -8 0 -18
8 -14 12 -85 49 -102 53 -7 2 -61 24 -85 34 -95 42 -347 117 -460 136 -97 16
-130 23 -130 25 0 1 -20 3 -45 5 -52 5 -143 13 -215 20 -165 15 -568 0 -755
-30 -14 -2 -43 -6 -65 -10 -23 -3 -52 -8 -65 -10 -14 -3 -42 -8 -63 -10 -54
-7 -61 -9 -67 -16 -3 -3 -26 -15 -52 -27 l-47 -20 -28 24 c-52 45 -183 144
-191 144 -5 0 -17 9 -27 20 -10 11 -24 20 -31 20 -7 0 -14 3 -16 8 -3 8 -84
62 -93 62 -3 0 -29 15 -58 33 -56 36 -266 139 -359 177 -56 23 -71 42 -49 65
5 6 14 27 21 48 6 20 15 37 18 38 149 16 320 124 411 259 133 196 150 418 50
639 -16 36 -33 68 -37 71 -4 3 -23 26 -42 51 -43 57 -181 165 -225 175 -5 1
-37 12 -70 24 -78 29 -233 36 -323 15 -148 -35 -289 -130 -372 -250 -96 -140
-133 -309 -104 -480 11 -67 10 -63 54 -161 30 -67 40 -81 116 -163 44 -48 65
-91 45 -91 -3 0 -7 -12 -8 -26 -2 -44 -13 -47 -127 -25 -58 12 -121 23 -139
25 -17 2 -52 7 -77 10 -159 22 -296 30 -520 29 -185 0 -371 -8 -422 -19 -13
-2 -50 -7 -83 -10 -63 -5 -83 -8 -125 -18 -14 -3 -43 -8 -65 -11 -22 -2 -58
-9 -80 -15 -22 -5 -45 -10 -52 -10 -10 0 -23 25 -29 56 -1 6 -5 25 -9 42 -5
24 -1 35 17 53 64 65 148 201 148 241 0 8 4 18 9 23 32 34 34 317 2 370 -3 6
-6 15 -7 22 -4 27 -56 124 -90 169 -51 69 -129 137 -194 171 -30 15 -58 32
-61 36 -3 5 -9 8 -13 8 -3 -1 -7 -1 -8 0 -2 0 -10 2 -18 4 -8 2 -38 10 -67 18
-59 16 -212 19 -258 6z"/>
</g>
</svg>
