<?xml version="1.0" encoding="UTF-8" standalone="no"?>
<svg
   width="512"
   height="512"
   viewBox="0 0 512 512"
   version="1.1"
   id="svg8"
   sodipodi:docname="person-circle.svg"
   inkscape:version="1.2.1 (9c6d41e410, 2022-07-14)"
   xmlns:inkscape="http://www.inkscape.org/namespaces/inkscape"
   xmlns:sodipodi="http://sodipodi.sourceforge.net/DTD/sodipodi-0.dtd"
   xmlns="http://www.w3.org/2000/svg"
   xmlns:svg="http://www.w3.org/2000/svg">
  <defs
     id="defs12" />
  <sodipodi:namedview
     id="namedview10"
     pagecolor="#ffffff"
     bordercolor="#000000"
     borderopacity="0.25"
     inkscape:showpageshadow="2"
     inkscape:pageopacity="0.0"
     inkscape:pagecheckerboard="0"
     inkscape:deskcolor="#d1d1d1"
     showgrid="false"
     inkscape:zoom="1.5898438"
     inkscape:cx="13.523341"
     inkscape:cy="214.80098"
     inkscape:window-width="2400"
     inkscape:window-height="1271"
     inkscape:window-x="2391"
     inkscape:window-y="-9"
     inkscape:window-maximized="1"
     inkscape:current-layer="svg8" />
  <title
     id="title2">ionicons-v5-j</title>
  <rect
     style="fill:#ffffff;stroke-width:0;fill-opacity:1"
     id="rect293"
     width="512"
     height="512"
     x="0"
     y="0" />
  <path
     d="M 258.9,48 C 141.92,46.42 46.42,141.92 48,258.9 49.56,371.09 140.91,462.44 253.1,464 370.1,465.6 465.58,370.1 463.98,253.12 462.44,140.91 371.09,49.56 258.9,48 Z M 389.32288,380.14241 C 387.62581,381.97764 380.67711,376.9317 379.18,374.93 370.23549,363.22743 359.28173,353.20821 346.83,345.34 321.37,329 289.11,320 256,320 c -33.11,0 -65.37,9 -90.83,25.34 -12.45128,7.86472 -23.40507,17.88058 -32.35,29.58 -1.49711,2.0017 -8.44581,7.27002 -10.14288,5.4348 -29.343256,-31.67633 -54.542023,-77.55284 -55.256972,-120.72581 -1.63,-97.31 91.236832,-191.33985 188.586832,-191.57985 97.35,-0.24 186.0569,90.76086 186.0569,187.95086 0.0335,44.21407 -22.70078,91.70061 -52.741,124.14241 z"
     id="path4"
     style="stroke-width:0.8;stroke-dasharray:none"
     sodipodi:nodetypes="ccccccccsccccscc" />
  <path
     d="M256,144c-19.72,0-37.55,7.39-50.22,20.82s-19,32-17.57,51.93C191.11,256,221.52,288,256,288s64.83-32,67.79-71.24c1.48-19.74-4.8-38.14-17.68-51.82C293.39,151.44,275.59,144,256,144Z"
     id="path6" />
</svg>
