<?xml version="1.0" encoding="UTF-8" standalone="no"?>
<!-- Created with Inkscape (http://www.inkscape.org/) -->

<svg
   width="2200"
   height="800"
   viewBox="0 0 582.08332 211.66667"
   version="1.1"
   id="svg2742"
   xml:space="preserve"
   inkscape:version="1.2.1 (9c6d41e410, 2022-07-14)"
   sodipodi:docname="CAROUSEL-UYAVRENI.svg"
   xmlns:inkscape="http://www.inkscape.org/namespaces/inkscape"
   xmlns:sodipodi="http://sodipodi.sourceforge.net/DTD/sodipodi-0.dtd"
   xmlns:xlink="http://www.w3.org/1999/xlink"
   xmlns="http://www.w3.org/2000/svg"
   xmlns:svg="http://www.w3.org/2000/svg"><sodipodi:namedview
     id="namedview2744"
     pagecolor="#ffffff"
     bordercolor="#000000"
     borderopacity="0.25"
     inkscape:showpageshadow="2"
     inkscape:pageopacity="0.0"
     inkscape:pagecheckerboard="0"
     inkscape:deskcolor="#d1d1d1"
     inkscape:document-units="mm"
     showgrid="false"
     inkscape:zoom="0.72515432"
     inkscape:cx="1043.2262"
     inkscape:cy="455.76506"
     inkscape:window-width="2400"
     inkscape:window-height="1271"
     inkscape:window-x="2391"
     inkscape:window-y="-9"
     inkscape:window-maximized="1"
     inkscape:current-layer="layer1" /><defs
     id="defs2739"><linearGradient
       inkscape:collect="always"
       id="linearGradient13131"><stop
         style="stop-color:#ebf4f5;stop-opacity:1;"
         offset="0.22551252"
         id="stop13127" /><stop
         style="stop-color:#b5c6e0;stop-opacity:1;"
         offset="1"
         id="stop13129" /></linearGradient><linearGradient
       id="linearGradient13119"
       inkscape:swatch="solid"><stop
         style="stop-color:#00cc46;stop-opacity:1;"
         offset="0"
         id="stop13117" /></linearGradient><inkscape:path-effect
       effect="bspline"
       id="path-effect3666"
       is_visible="true"
       lpeversion="1"
       weight="33.333333"
       steps="2"
       helper_size="0"
       apply_no_weight="true"
       apply_with_weight="true"
       only_selected="false" /><linearGradient
       id="linearGradient4427"
       y2="1060.2194"
       gradientUnits="userSpaceOnUse"
       y1="-3.7318399"
       x2="748.39111"
       x1="749.37195"><stop
         id="stop4423"
         stop-color="#00a8f0"
         offset="0.23889907" /><stop
         id="stop4425"
         stop-color="#00a8f0"
         stop-opacity="0"
         offset="0.89015639" /></linearGradient><filter
       id="filter4481"
       x="-0.039096098"
       y="-0.057872947"
       width="1.0781922"
       height="1.1157459"><feGaussianBlur
         id="feGaussianBlur4483"
         stdDeviation="4.1341802" /></filter><linearGradient
       xlink:href="#linearGradient5608"
       id="linearGradient5610"
       x1="352.06003"
       y1="352.9325"
       x2="353.34558"
       y2="489.7475"
       gradientUnits="userSpaceOnUse"
       spreadMethod="pad"
       gradientTransform="translate(63.43328,-0.63932245)" /><linearGradient
       id="linearGradient5608"><stop
         style="stop-color:#ffcc00;stop-opacity:1;"
         offset="0"
         id="stop5604" /><stop
         style="stop-color:#ffcc00;stop-opacity:0;"
         offset="0.8648771"
         id="stop5606" /></linearGradient><linearGradient
       xlink:href="#linearGradient5643"
       id="linearGradient5645"
       x1="352.06003"
       y1="352.9325"
       x2="353.34558"
       y2="489.7475"
       gradientUnits="userSpaceOnUse"
       spreadMethod="pad"
       gradientTransform="translate(63.43328,-0.63932245)" /><linearGradient
       id="linearGradient5643"><stop
         style="stop-color:#000000;stop-opacity:1;"
         offset="0"
         id="stop5639" /><stop
         style="stop-color:#000000;stop-opacity:0;"
         offset="0.53488439"
         id="stop5641" /></linearGradient><linearGradient
       xlink:href="#linearGradient5663"
       id="linearGradient5665"
       x1="186.08598"
       y1="178.39775"
       x2="185.5"
       y2="308.18021"
       gradientUnits="userSpaceOnUse"
       gradientTransform="translate(280.16328,177.42068)" /><linearGradient
       id="linearGradient5663"><stop
         style="stop-color:#000000;stop-opacity:1;"
         offset="0"
         id="stop5659" /><stop
         style="stop-color:#000000;stop-opacity:0;"
         offset="0.73084164"
         id="stop5661" /></linearGradient><linearGradient
       xlink:href="#linearGradient5655"
       id="linearGradient5657"
       x1="76.593056"
       y1="332.64026"
       x2="76.054321"
       y2="365.45972"
       gradientUnits="userSpaceOnUse"
       gradientTransform="matrix(0.72549,0,0,1.3636,342.55328,-36.087322)" /><linearGradient
       id="linearGradient5655"><stop
         style="stop-color:#784421;stop-opacity:1;"
         offset="0"
         id="stop5651" /><stop
         style="stop-color:#784421;stop-opacity:0;"
         offset="0.7241379"
         id="stop5653" /></linearGradient><filter
       id="filter4481-2"
       x="-0.039096098"
       y="-0.057872947"
       width="1.0781922"
       height="1.1157459"><feGaussianBlur
         id="feGaussianBlur4483-7"
         stdDeviation="4.1341802" /></filter><radialGradient
       id="radialGradient14917"
       gradientUnits="userSpaceOnUse"
       cy="21.818001"
       cx="18.240999"
       r="8.3085003"><stop
         id="stop4456-0"
         stop-color="#729fcf"
         stop-opacity=".20784"
         offset="0" /><stop
         id="stop4458-4"
         stop-color="#729fcf"
         stop-opacity=".67619"
         offset="1" /></radialGradient><radialGradient
       id="radialGradient14919"
       xlink:href="#linearGradient4467-4"
       gradientUnits="userSpaceOnUse"
       cy="13.078"
       cx="15.414"
       gradientTransform="matrix(3.1154,0,0,2.7059,-75.905,-278.43)"
       r="6.6561999" /><linearGradient
       id="linearGradient4467-4"><stop
         id="stop4469-2"
         stop-color="#fff"
         offset="0" /><stop
         id="stop4471-1"
         stop-color="#fff"
         stop-opacity=".24762"
         offset="1" /></linearGradient><radialGradient
       id="radialGradient14923"
       xlink:href="#linearGradient4467-4"
       gradientUnits="userSpaceOnUse"
       cy="13.078"
       cx="15.414"
       gradientTransform="matrix(3.1154,0,0,2.7059,-112.47,-278.16)"
       r="6.6561999" /><linearGradient
       id="linearGradient14897"
       y2="609.51001"
       gradientUnits="userSpaceOnUse"
       x2="302.85999"
       gradientTransform="matrix(2.7744,0,0,1.9697,-1892.2,-872.89)"
       y1="366.64999"
       x1="302.85999"><stop
         id="stop5050-9-5-6-0-8-1"
         stop-opacity="0"
         offset="0" /><stop
         id="stop5056-9-8-2-2-4-1"
         offset=".5" /><stop
         id="stop5052-0-7-5-9-3-3"
         stop-opacity="0"
         offset="1" /></linearGradient><radialGradient
       id="radialGradient14899"
       xlink:href="#linearGradient5060-2-4-4-9-1-9"
       gradientUnits="userSpaceOnUse"
       cy="486.64999"
       cx="605.71002"
       gradientTransform="matrix(2.7744,0,0,1.9697,-1891.6,-872.89)"
       r="117.14" /><linearGradient
       id="linearGradient5060-2-4-4-9-1-9"><stop
         id="stop5062-4-8-9-9-3-3"
         offset="0" /><stop
         id="stop5064-0-0-9-4-8-4"
         stop-opacity="0"
         offset="1" /></linearGradient><radialGradient
       id="radialGradient14901"
       xlink:href="#linearGradient5060-2-4-4-9-1-9"
       gradientUnits="userSpaceOnUse"
       cy="486.64999"
       cx="605.71002"
       gradientTransform="matrix(-2.7744,0,0,1.9697,112.76,-872.89)"
       r="117.14" /><linearGradient
       id="linearGradient14903"
       y2="4.9530001"
       gradientUnits="userSpaceOnUse"
       x2="41.219002"
       gradientTransform="matrix(0.25601,0,0,3.7895,-122.13,-250.52)"
       y1="4.9530001"
       x1="35.432999"><stop
         id="stop2797-5-31-3-9-8"
         stop-opacity=".068627"
         offset="0" /><stop
         id="stop2799-6-4-7-9-3"
         stop-color="#fff"
         offset="1" /></linearGradient><linearGradient
       id="linearGradient14905"
       y2="84.287003"
       gradientUnits="userSpaceOnUse"
       x2="10.22"
       gradientTransform="matrix(1.0052,-2.0471,0.39983,0.19633,-275.97,-8.3778)"
       y1="93.337997"
       x1="10.496"><stop
         id="stop2805-3-9-0-6-4-5"
         stop-color="#fff"
         offset="0" /><stop
         id="stop2807-8-1-9-0-3-9"
         stop-color="#cbcbcb"
         offset="1" /></linearGradient><linearGradient
       id="linearGradient14907"
       y2="22.132999"
       gradientUnits="userSpaceOnUse"
       x2="14.511"
       gradientTransform="matrix(0.42547,-0.86649,0.93003,0.45667,-275.69,-8.2432)"
       y1="22.132999"
       x1="6.5872002"><stop
         id="stop9752"
         stop-color="#2b435c"
         offset="0" /><stop
         id="stop9754"
         stop-color="#1f3245"
         offset="1" /></linearGradient><linearGradient
       id="linearGradient3238"
       y2="21.27"
       gradientUnits="userSpaceOnUse"
       y1="26.652"
       gradientTransform="matrix(0.45553,-0.92772,0.86608,0.42527,-276.35,-7.4428)"
       x2="-2.7583001"
       x1="73.362"><stop
         id="stop2118-9-2-9-7-1-6"
         stop-color="#282828"
         offset="0" /><stop
         id="stop2120-1-7-0-5-7-1"
         stop-color="#a9a9a9"
         stop-opacity="0"
         offset="1" /></linearGradient><linearGradient
       id="linearGradient14891"
       y2="84.287003"
       gradientUnits="userSpaceOnUse"
       x2="10.22"
       gradientTransform="matrix(0.12717,-2.4432,-0.47718,-0.024837,-139.2,-66.753)"
       y1="93.337997"
       x1="10.496"><stop
         id="stop2805-3-9-6-5"
         stop-color="#fff"
         offset="0" /><stop
         id="stop2807-8-1-3-1"
         stop-color="#cbcbcb"
         offset="1" /></linearGradient><linearGradient
       id="linearGradient14893"
       y2="22.132999"
       gradientUnits="userSpaceOnUse"
       x2="14.511"
       gradientTransform="matrix(0.053826,-1.0341,-1.11,-0.057774,-139.52,-66.77)"
       y1="22.132999"
       x1="6.5872002"><stop
         id="stop2096-6-9-4-7"
         stop-color="#b44"
         offset="0" /><stop
         id="stop2098-9-9-3-6"
         stop-color="#ee0d0d"
         offset="1" /></linearGradient><linearGradient
       id="linearGradient3267"
       y2="21.27"
       gradientUnits="userSpaceOnUse"
       y1="26.652"
       gradientTransform="matrix(0.05763,-1.1072,-1.0336,-0.053801,-139.33,-65.677)"
       x2="-2.7583001"
       x1="73.362"><stop
         id="stop2118-9-2-2-0"
         stop-color="#fff"
         offset="0" /><stop
         id="stop2120-1-7-5-8"
         stop-color="#fff"
         stop-opacity="0"
         offset="1" /></linearGradient><linearGradient
       inkscape:collect="always"
       xlink:href="#linearGradient13131"
       id="linearGradient13863"
       x1="291.04166"
       y1="211.66666"
       x2="291.04166"
       y2="0"
       gradientUnits="userSpaceOnUse" /></defs><g
     inkscape:label="Vrstva 1"
     inkscape:groupmode="layer"
     id="layer1"><rect
       style="fill:url(#linearGradient13863);fill-opacity:1;stroke:#000000;stroke-width:0;stroke-opacity:0"
       id="rect7459"
       width="582.08331"
       height="211.66666"
       x="0"
       y="0" /><g
       id="layer1-3"
       transform="matrix(0.26458333,0,0,0.26458333,187.27472,29.458699)"><path
         id="path2383-7"
         style="display:inline;fill:#ffcc00;stroke:#000000;stroke-width:0.410914;stroke-linecap:round;stroke-linejoin:round;stroke-dasharray:none"
         d="m 441.29,560.71 c 0.02,49.72 -40.29,90.04 -90.02,90.04 -49.72,0 -90.03,-40.32 -90.02,-90.04 -0.01,-49.73 40.3,-90.05 90.02,-90.05 49.73,0 90.04,40.32 90.02,90.05 z"
         transform="matrix(1.2168,0,0,1.2168,-76.15,-121.55)"
         inkscape:label="path2383" /><path
         id="path3242-5"
         style="display:inline;fill:#784421"
         d="m 93.338,349.05 a 18.031,15.556 0 1 1 -36.062,0 18.031,15.556 0 1 1 36.062,0 z"
         transform="matrix(0.42473,-0.24473,0.4879,0.84676,78.434,337.3)" /><path
         id="path3221-0"
         style="fill:#000000;fill-opacity:0.31373"
         d="m 454.19,523.12 c 0.07,1.69 0.12,3.4 0.12,5.1 0,60.46 -49.06,109.53 -109.53,109.53 -47.26,0 -87.59,-30 -102.94,-71.97 2.66,58.11 50.68,104.47 109.44,104.47 60.47,0 109.53,-49.07 109.53,-109.53 0,-13.2 -2.34,-25.87 -6.62,-37.6 z" /><path
         id="path3172-8"
         style="fill:#784421;stroke:#000000;stroke-width:0.5;stroke-linecap:round;stroke-linejoin:round;stroke-dasharray:none"
         d="m 359.45,671.28 c 0,9.09 14.67,9.38 32.74,9.38 18.07,0 32.73,0.69 32.73,-9.38 0,-17.72 -14.66,-32.1 -32.73,-32.1 -18.07,0 -32.74,14.38 -32.74,32.1 z" /><path
         id="path3174-4"
         style="fill:#000000;fill-opacity:0.31373;fill-rule:evenodd;stroke:#000000;stroke-width:0.5;stroke-linejoin:round;stroke-dasharray:none"
         d="m 404.78,680.06 c 0,-16.37 -9.44,-26.44 -9.44,-26.44 0,0 3.77,13.85 3.14,26.44 z" /><path
         id="path2399-0"
         style="fill:#ffcc00;fill-rule:evenodd;stroke:#000000;stroke-width:0.5;stroke-linecap:round;stroke-linejoin:round;stroke-dasharray:none"
         d="m 298.74,487.34 c 24.5,-37.9 20,-128.73 20,-128.73 l 60,-3.27 c 0,0 -1.5,91.49 23.5,130.04" /><path
         id="path3244-4"
         style="fill:#784421"
         d="m 93.338,349.05 a 18.031,15.556 0 1 1 -36.062,0 18.031,15.556 0 1 1 36.062,0 z"
         transform="matrix(0.58348,0,0,0.95455,319.84,61.25)" /><path
         id="path3214-4"
         style="fill:#000000;fill-opacity:0.31373;fill-rule:evenodd"
         d="m 162,177.28 -17.16,0.94 -42.84,2.34 c 0,0 0.24,4.86 0.31,12.56 13.16,8.26 26.42,13.07 35.72,13.07 3.33,0 7.11,-0.57 11.16,-1.66 6.18,33.34 17.67,80.34 36.03,102.5 l -1,0.35 1.28,-0.04 c -17.21,-26.53 -21.83,-78.15 -23.06,-107.75 -0.14,-3.35 -0.25,-6.43 -0.32,-9.15 -0.05,-2.18 -0.07,-4.1 -0.09,-5.78 -0.02,-1.36 -0.03,-2.38 -0.03,-3.38 0,-1.55 -0.01,-1.75 0,-2.4 z"
         transform="translate(216.73,178.06)" /><path
         id="path3155-7"
         style="fill:#ffcc00;stroke:#000000;stroke-width:0.5;stroke-linecap:round;stroke-linejoin:round;stroke-dasharray:none"
         d="m 351.27,208.57 c -22.79,0 -41.28,6.96 -54.88,18.59 -0.57,-0.43 -1.34,-0.81 -2.34,-1.25 -55.51,-10.61 -74.61,25.09 -75.31,30.75 -0.71,5.66 38.51,14.48 59.37,-6.38 0.27,-0.27 0.46,-0.45 0.72,-0.71 -6.17,12.02 -9.41,25.97 -9.41,40.84 0,45.17 56.13,81.84 81.85,81.84 26.71,0 81.84,-36.67 81.84,-81.84 0,-15.04 -3.46,-29.14 -9.94,-41.25 0.41,0.41 0.71,0.7 1.13,1.12 20.86,20.86 60.08,12.04 59.37,6.38 -0.7,-5.66 -19.77,-41.36 -75.28,-30.75 -1.17,0.52 -2.08,0.95 -2.65,1.47 C 392,215.63 373.53,208.57 351.27,208.57 Z" /><g
         id="g3205"
         inkscape:label="oci"><path
           id="path3157-5"
           style="fill:#ffffff;stroke:#000000;stroke-width:0.5;stroke-linecap:round;stroke-linejoin:round;stroke-dasharray:none"
           d="m 347.64,278.41 c 0.01,12.52 -10.14,22.67 -22.66,22.67 -12.52,0 -22.67,-10.15 -22.66,-22.67 -0.01,-12.52 10.14,-22.67 22.66,-22.67 12.52,0 22.67,10.15 22.66,22.67 z" /><path
           id="path3159-0"
           style="fill:#ffffff;stroke:#000000;stroke-width:0.5;stroke-linecap:round;stroke-linejoin:round;stroke-dasharray:none"
           d="m 400.38,278.41 c 0,12.52 -10.15,22.67 -22.67,22.67 -12.52,0 -22.66,-10.15 -22.66,-22.67 0,-12.52 10.14,-22.67 22.66,-22.67 12.52,0 22.67,10.15 22.67,22.67 z" /></g><path
         id="path3161-3"
         style="fill:#000000"
         d="m 380.23,282.41 c 0,4.18 -3.38,7.56 -7.55,7.56 -4.18,0 -7.56,-3.38 -7.56,-7.56 0,-4.17 3.38,-7.55 7.56,-7.55 4.17,0 7.55,3.38 7.55,7.55 z" /><path
         id="path3163-9"
         style="fill:#000000"
         d="m 338.2,282.41 c 0,4.18 -3.38,7.56 -7.55,7.56 -4.18,0 -7.56,-3.38 -7.56,-7.56 0,-4.17 3.38,-7.55 7.56,-7.55 4.17,0 7.55,3.38 7.55,7.55 z" /><path
         id="path3231-6"
         style="fill:#000000;fill-opacity:0.31373"
         d="m 425.69,251.49 c 1.75,7.63 2.62,15.72 2.62,24.13 0,45.17 -55.12,81.84 -81.84,81.84 -20.71,0 -61.1,-23.76 -76.06,-56.59 7.61,40.24 57.17,71.37 80.87,71.37 26.72,0 81.84,-36.67 81.84,-81.84 0,-14.08 -2.41,-27.34 -7.43,-38.91 z" /><path
         id="path3329-6"
         style="fill:#784421;stroke:#000000;stroke-width:0.5;stroke-linecap:round;stroke-linejoin:round;stroke-dasharray:none"
         d="m 344.46,671.28 c 0,9.09 -14.67,9.38 -32.74,9.38 -18.07,0 -32.73,0.69 -32.73,-9.38 0,-17.72 14.66,-32.1 32.73,-32.1 18.07,0 32.74,14.38 32.74,32.1 z" /><path
         id="path3331-0"
         style="fill:#000000;fill-opacity:0.31373;fill-rule:evenodd;stroke:#000000;stroke-width:0.5;stroke-linejoin:round;stroke-dasharray:none"
         d="m 299.13,680.06 c 0,-16.37 9.44,-26.44 9.44,-26.44 0,0 -3.77,13.85 -3.14,26.44 z" /><path
         id="path2398-8"
         style="fill:#000000"
         d="m 367.87,343.04 c -2.29,3.98 -6.5,5.84 -9.4,4.17 -2.89,-1.67 -3.38,-6.25 -1.09,-10.22 2.29,-3.97 6.5,-5.84 9.4,-4.17 2.89,1.68 3.38,6.25 1.09,10.22 z" /><path
         id="path2412-7"
         style="fill:#000000"
         d="m 335.13,343.04 c 2.29,3.98 6.5,5.84 9.4,4.17 2.89,-1.67 3.38,-6.25 1.09,-10.22 -2.29,-3.97 -6.5,-5.84 -9.4,-4.17 -2.89,1.68 -3.38,6.25 -1.09,10.22 z" /><path
         id="path3224-9"
         style="fill:#ffcc00;fill-rule:evenodd;stroke:#000000;stroke-width:0.5;stroke-linecap:round;stroke-dasharray:none"
         d="m 317.52,224.48 c 5.65,-10.25 -6.01,-22.62 -6.01,-22.62 l 17.32,-4.25 c 0,0 -2.47,15.56 6.72,21.22" /><path
         id="path3186-9"
         style="fill:#784421;stroke:#000000;stroke-width:0.5;stroke-linecap:round;stroke-linejoin:round;stroke-dasharray:none"
         d="m 82.378,-127.96 a 15.38,15.38 0 1 1 -30.759,0 15.38,15.38 0 1 1 30.759,0 z"
         transform="translate(251.74,323.4)" /><path
         id="path3190-5"
         style="fill:#d4aa00;fill-rule:evenodd;stroke:#000000;stroke-width:0.5;stroke-linejoin:round;stroke-dasharray:none"
         d="m 418.59,232.5 c 35.78,-4.57 52.52,16.97 53.83,20.23 1.32,3.26 -35.12,10.11 -53.83,-20.23 z" /><path
         id="path3228-1"
         style="fill:#ffcc00;fill-rule:evenodd;stroke:#000000;stroke-width:0.5;stroke-linecap:round;stroke-dasharray:none"
         d="m 384.69,224.48 c -5.65,-10.25 6.01,-22.62 6.01,-22.62 l -17.32,-4.25 c 0,0 2.47,15.56 -6.72,21.22" /><path
         id="path3222-7"
         style="fill:#784421;stroke:#000000;stroke-width:0.5;stroke-linecap:round;stroke-linejoin:round;stroke-dasharray:none"
         d="m 82.378,-127.96 a 15.38,15.38 0 1 1 -30.759,0 15.38,15.38 0 1 1 30.759,0 z"
         transform="translate(315.74,323.4)" /><path
         id="path3230-5"
         style="fill:#784421"
         d="m 93.338,349.05 a 18.031,15.556 0 1 1 -36.062,0 18.031,15.556 0 1 1 36.062,0 z"
         transform="matrix(0.72367,0.17743,-0.32471,1.3244,330.72,54.998)" /><path
         id="path3232-6"
         style="fill:#784421"
         d="m 93.338,349.05 a 18.031,15.556 0 1 1 -36.062,0 18.031,15.556 0 1 1 36.062,0 z"
         transform="matrix(1.3529,0,0,1.6591,231.87,-11.336)" /><path
         id="path3234-3"
         style="fill:#784421"
         d="m 93.338,349.05 a 18.031,15.556 0 1 1 -36.062,0 18.031,15.556 0 1 1 36.062,0 z"
         transform="matrix(0.44644,-0.14881,0.30185,0.90556,288.46,217.28)" /><path
         id="path3236-7"
         style="fill:#784421"
         d="m 93.338,349.05 a 18.031,15.556 0 1 1 -36.062,0 18.031,15.556 0 1 1 36.062,0 z"
         transform="matrix(0.66667,0,0,0.95455,359.08,257.25)" /><path
         id="path3238-3"
         style="fill:#784421"
         d="m 93.338,349.05 a 18.031,15.556 0 1 1 -36.062,0 18.031,15.556 0 1 1 36.062,0 z"
         transform="matrix(1.0588,0,0,1.3636,296.8,35.576)" /><path
         id="path3240-5"
         style="fill:#784421"
         d="m 93.338,349.05 a 18.031,15.556 0 1 1 -36.062,0 18.031,15.556 0 1 1 36.062,0 z"
         transform="matrix(0.72549,0,0,1.3636,279.12,-35.448)" /><path
         id="path3246-4"
         style="fill:#d4aa00;fill-rule:evenodd;stroke:#000000;stroke-width:0.5;stroke-linejoin:round;stroke-dasharray:none"
         d="m 283.46,232.5 c -35.78,-4.57 -52.52,16.97 -53.84,20.23 -1.31,3.26 35.13,10.11 53.84,-20.23 z" /></g><g
       id="g2891"
       transform="matrix(1.1030461,0,0,1.1030461,-94.017038,-697.08151)"><rect
         transform="rotate(-10.164394)"
         y="810.20746"
         x="154.00362"
         height="46.810131"
         width="88.540268"
         id="rect14982"
         style="opacity:1;fill:#ffffff;fill-opacity:1;stroke:#800000;stroke-width:2.18463;stroke-linecap:round;stroke-linejoin:round;stroke-miterlimit:4;stroke-dasharray:none;stroke-opacity:1" /><path
         style="fill:#000000;fill-opacity:0.879888;stroke:#000000;stroke-width:0;stroke-opacity:0"
         id="path4329"
         d="m 294.76764,768.8233 c 1.56256,-1.16354 3.21266,-2.19755 4.93455,-3.09923 2.65079,-1.41628 5.47476,-2.43678 8.30301,-3.42912 2.68108,-0.93234 5.34191,-1.92136 7.89047,-3.17528 1.90899,-0.95786 3.68075,-2.15505 5.49595,-3.27324 1.35789,-0.8735 2.72065,-1.73966 4.0945,-2.58787 0.88155,-0.59126 1.82267,-1.08624 2.76332,-1.57545 0.72029,-0.36027 1.46639,-0.66935 2.17214,-1.05807 0.45026,-0.25702 0.67343,-0.33995 1.11791,-0.60667 0.20037,-0.10487 0,0 0.002,-0.19035 l 0.003,-0.46086 v 0 c 0,0 -0.49631,0.23879 -0.69412,0.3474 -0.43928,0.27102 -0.8659,0.56195 -1.3158,0.81519 -0.70582,0.38242 -1.44582,0.69701 -2.16288,1.05738 -0.9382,0.49154 -1.87667,0.98854 -2.75509,1.58272 -1.3687,0.84686 -2.72138,1.71936 -4.07516,2.58977 -1.81149,1.11938 -3.58511,2.3087 -5.49164,3.26547 -2.53976,1.24648 -5.18665,2.24207 -7.8581,3.16901 -2.83815,0.99105 -5.66951,2.01611 -8.32728,3.43846 -1.51515,0.79273 -3.21351,1.90411 -4.67508,2.94521 -0.14535,0.10354 -0.32753,0.42618 -0.49325,0.67081 -0.0798,0.11779 0.0562,0.36368 -0.01,0.41214 l 0.62084,-0.40611 z"
         sodipodi:nodetypes="cccccccccccsccccccccssccc" /><path
         style="fill:#000000;fill-opacity:0.879888;stroke:#000000;stroke-width:0;stroke-opacity:0"
         id="path4331"
         d="m 345.93899,747.95486 c 1.18479,0.29432 2.80422,0.45307 4.00818,0.64784 1.87504,0.28011 3.75826,0.50079 5.64133,0.71895 2.3959,0.2551 4.7894,0.53481 7.19141,0.72683 2.21196,0.1364 4.42873,0.15369 6.64249,0.25369 1.68351,0.094 3.36341,0.24453 5.02456,0.53751 0.91009,0.17769 1.7899,0.46533 2.65291,0.7991 0.47945,0.17887 0.9533,0.37613 1.40576,0.61585 0.36864,0.16969 0.71657,0.36466 1.0467,0.60005 0.26465,0.15908 0.68515,0.81815 0.95921,0.9611 v 0 l 1.03847,-0.21892 c 0,0 -0.83146,-0.68703 -1.10409,-0.82765 -0.33367,-0.23571 -0.67171,-0.45189 -1.05064,-0.61064 -0.45224,-0.24889 -0.9297,-0.44859 -1.41382,-0.62629 -0.86839,-0.33489 -1.75004,-0.63372 -2.66547,-0.81464 -1.67033,-0.29837 -3.36047,-0.44791 -5.05369,-0.54458 -2.21122,-0.10135 -4.4253,-0.12143 -6.63506,-0.25196 -2.40554,-0.18693 -4.80224,-0.46504 -7.20103,-0.72215 -1.87532,-0.22125 -3.751,-0.44184 -5.61913,-0.71829 -1.1951,-0.19474 -3.72705,-0.50328 -4.90217,-0.79994 z"
         sodipodi:nodetypes="cccccccccccscccccccccc" /><text
         xml:space="preserve"
         style="font-size:11.3012px;font-family:Verdana;-inkscape-font-specification:'Verdana, Normal';fill:#000000;fill-opacity:0.879888;stroke:#000000;stroke-width:0;stroke-opacity:0"
         x="101.71093"
         y="859.57294"
         id="text4335"
         transform="matrix(1.014008,-0.21455445,0.22971772,0.93757939,0,0)"><tspan
           sodipodi:role="line"
           id="tspan4333"
           style="stroke-width:0"
           x="101.71093"
           y="859.57294">pátek 3.2.</tspan></text><text
         xml:space="preserve"
         style="font-size:18.2539px;font-family:Verdana;-inkscape-font-specification:'Verdana, Normal';fill:#000000;fill-opacity:0.879888;stroke:#000000;stroke-width:0;stroke-opacity:0"
         x="225.7681"
         y="734.07965"
         id="text4339"
         transform="matrix(0.80373551,-0.26280724,0.1791097,1.1856247,0,0)"><tspan
           sodipodi:role="line"
           id="tspan4337"
           style="fill:#ff0000;fill-opacity:0.879888;stroke-width:0"
           x="225.7681"
           y="734.07965">ZAVŘENO</tspan></text></g></g></svg>
