<?xml version="1.0" encoding="UTF-8" standalone="no"?>
<!-- Created with Inkscape (http://www.inkscape.org/) -->

<svg
   id="svg2"
   viewBox="0 0 265.44877 192.81402"
   version="1.0"
   inkscape:version="1.2.1 (9c6d41e410, 2022-07-14)"
   sodipodi:docname="lemmling-Cartoon-giraffehlava.svg"
   width="265.44876"
   height="192.81401"
   xmlns:inkscape="http://www.inkscape.org/namespaces/inkscape"
   xmlns:sodipodi="http://sodipodi.sourceforge.net/DTD/sodipodi-0.dtd"
   xmlns="http://www.w3.org/2000/svg"
   xmlns:svg="http://www.w3.org/2000/svg"
   xmlns:rdf="http://www.w3.org/1999/02/22-rdf-syntax-ns#"
   xmlns:cc="http://creativecommons.org/ns#"
   xmlns:dc="http://purl.org/dc/elements/1.1/">
  <defs
     id="defs83" />
  <sodipodi:namedview
     id="namedview81"
     pagecolor="#ffffff"
     bordercolor="#000000"
     borderopacity="0.25"
     inkscape:showpageshadow="2"
     inkscape:pageopacity="0.0"
     inkscape:pagecheckerboard="0"
     inkscape:deskcolor="#d1d1d1"
     showgrid="false"
     inkscape:zoom="2.0907235"
     inkscape:cx="43.764754"
     inkscape:cy="250.87009"
     inkscape:window-width="2400"
     inkscape:window-height="1271"
     inkscape:window-x="2391"
     inkscape:window-y="-9"
     inkscape:window-maximized="1"
     inkscape:current-layer="layer1" />
  <g
     id="layer1"
     transform="translate(-218.48062,-179.68599)">
    <path
       id="path3155"
       style="fill:#ffcc00;stroke:#000000;stroke-width:0.5;stroke-linecap:round;stroke-linejoin:round;stroke-dasharray:none"
       d="m 351.27,208.57 c -22.79,0 -41.28,6.96 -54.88,18.59 -0.57,-0.43 -1.34,-0.81 -2.34,-1.25 -55.51,-10.61 -74.61,25.09 -75.31,30.75 -0.71,5.66 38.51,14.48 59.37,-6.38 0.27,-0.27 0.46,-0.45 0.72,-0.71 -6.17,12.02 -9.41,25.97 -9.41,40.84 0,45.17 56.13,81.84 81.85,81.84 26.71,0 81.84,-36.67 81.84,-81.84 0,-15.04 -3.46,-29.14 -9.94,-41.25 0.41,0.41 0.71,0.7 1.13,1.12 20.86,20.86 60.08,12.04 59.37,6.38 -0.7,-5.66 -19.77,-41.36 -75.28,-30.75 -1.17,0.52 -2.08,0.95 -2.65,1.47 C 392,215.63 373.53,208.57 351.27,208.57 Z" />
    <g
       id="g3205"
       inkscape:label="oci">
      <path
         id="path3157"
         style="fill:#ffffff;stroke:#000000;stroke-width:0.5;stroke-linecap:round;stroke-linejoin:round;stroke-dasharray:none"
         d="m 347.64,278.41 c 0.01,12.52 -10.14,22.67 -22.66,22.67 -12.52,0 -22.67,-10.15 -22.66,-22.67 -0.01,-12.52 10.14,-22.67 22.66,-22.67 12.52,0 22.67,10.15 22.66,22.67 z" />
      <path
         id="path3159"
         style="fill:#ffffff;stroke:#000000;stroke-width:0.5;stroke-linecap:round;stroke-linejoin:round;stroke-dasharray:none"
         d="m 400.38,278.41 c 0,12.52 -10.15,22.67 -22.67,22.67 -12.52,0 -22.66,-10.15 -22.66,-22.67 0,-12.52 10.14,-22.67 22.66,-22.67 12.52,0 22.67,10.15 22.67,22.67 z" />
    </g>
    <path
       id="path3161"
       style="fill:#000000"
       d="m 380.23,282.41 c 0,4.18 -3.38,7.56 -7.55,7.56 -4.18,0 -7.56,-3.38 -7.56,-7.56 0,-4.17 3.38,-7.55 7.56,-7.55 4.17,0 7.55,3.38 7.55,7.55 z" />
    <path
       id="path3163"
       style="fill:#000000"
       d="m 338.2,282.41 c 0,4.18 -3.38,7.56 -7.55,7.56 -4.18,0 -7.56,-3.38 -7.56,-7.56 0,-4.17 3.38,-7.55 7.56,-7.55 4.17,0 7.55,3.38 7.55,7.55 z" />
    <path
       id="path2398"
       style="fill:#000000"
       d="m 367.87,343.04 c -2.29,3.98 -6.5,5.84 -9.4,4.17 -2.89,-1.67 -3.38,-6.25 -1.09,-10.22 2.29,-3.97 6.5,-5.84 9.4,-4.17 2.89,1.68 3.38,6.25 1.09,10.22 z" />
    <path
       id="path2412"
       style="fill:#000000"
       d="m 335.13,343.04 c 2.29,3.98 6.5,5.84 9.4,4.17 2.89,-1.67 3.38,-6.25 1.09,-10.22 -2.29,-3.97 -6.5,-5.84 -9.4,-4.17 -2.89,1.68 -3.38,6.25 -1.09,10.22 z" />
    <path
       id="path3224"
       style="fill:#ffcc00;fill-rule:evenodd;stroke:#000000;stroke-width:0.5;stroke-linecap:round;stroke-dasharray:none"
       d="m 317.52,224.48 c 5.65,-10.25 -6.01,-22.62 -6.01,-22.62 l 17.32,-4.25 c 0,0 -2.47,15.56 6.72,21.22" />
    <path
       id="path3186"
       style="fill:#784421;stroke:#000000;stroke-width:0.5;stroke-linecap:round;stroke-linejoin:round;stroke-dasharray:none"
       d="m 82.378,-127.96 a 15.38,15.38 0 1 1 -30.759,0 15.38,15.38 0 1 1 30.759,0 z"
       transform="translate(251.74,323.4)" />
    <path
       id="path3190"
       style="fill:#d4aa00;fill-rule:evenodd;stroke:#000000;stroke-width:0.5;stroke-linejoin:round;stroke-dasharray:none"
       d="m 418.59,232.5 c 35.78,-4.57 52.52,16.97 53.83,20.23 1.32,3.26 -35.12,10.11 -53.83,-20.23 z" />
    <path
       id="path3228"
       style="fill:#ffcc00;fill-rule:evenodd;stroke:#000000;stroke-width:0.5;stroke-linecap:round;stroke-dasharray:none"
       d="m 384.69,224.48 c -5.65,-10.25 6.01,-22.62 6.01,-22.62 l -17.32,-4.25 c 0,0 2.47,15.56 -6.72,21.22" />
    <path
       id="path3222"
       style="fill:#784421;stroke:#000000;stroke-width:0.5;stroke-linecap:round;stroke-linejoin:round;stroke-dasharray:none"
       d="m 82.378,-127.96 a 15.38,15.38 0 1 1 -30.759,0 15.38,15.38 0 1 1 30.759,0 z"
       transform="translate(315.74,323.4)" />
    <path
       id="path3246"
       style="fill:#d4aa00;fill-rule:evenodd;stroke:#000000;stroke-width:0.5;stroke-linejoin:round;stroke-dasharray:none"
       d="m 283.46,232.5 c -35.78,-4.57 -52.52,16.97 -53.84,20.23 -1.31,3.26 35.13,10.11 53.84,-20.23 z" />
  </g>
  <metadata
     id="metadata78">
    <rdf:RDF>
      <cc:Work>
        <dc:format>image/svg+xml</dc:format>
        <dc:type
           rdf:resource="http://purl.org/dc/dcmitype/StillImage" />
        <cc:license
           rdf:resource="http://creativecommons.org/licenses/publicdomain/" />
        <dc:publisher>
          <cc:Agent
             rdf:about="http://openclipart.org/">
            <dc:title>Openclipart</dc:title>
          </cc:Agent>
        </dc:publisher>
        <dc:date>2008-07-07T11:40:13</dc:date>
        <dc:description>Cartoon giraffe sitting, front view. Nice 20 minute tutorial video for drawing the giraffe in Inkscape &lt;a target=&quot;_blank&quot; href=&quot;https://www.youtube.com/watch?v=qZt9J_AUYZI&quot;&gt;https://www.youtube.com/watch?v=qZt9J_AUYZI&lt;/a&gt;</dc:description>
        <dc:source>https://openclipart.org/detail/17628/cartoon-giraffe-by-lemmling</dc:source>
        <dc:creator>
          <cc:Agent>
            <dc:title>lemmling</dc:title>
          </cc:Agent>
        </dc:creator>
        <dc:subject>
          <rdf:Bag>
            <rdf:li>animal</rdf:li>
            <rdf:li>cartoon</rdf:li>
            <rdf:li>colour</rdf:li>
            <rdf:li>funny</rdf:li>
            <rdf:li>giraffe</rdf:li>
            <rdf:li>mammal</rdf:li>
          </rdf:Bag>
        </dc:subject>
      </cc:Work>
      <cc:License
         rdf:about="http://creativecommons.org/licenses/publicdomain/">
        <cc:permits
           rdf:resource="http://creativecommons.org/ns#Reproduction" />
        <cc:permits
           rdf:resource="http://creativecommons.org/ns#Distribution" />
        <cc:permits
           rdf:resource="http://creativecommons.org/ns#DerivativeWorks" />
      </cc:License>
    </rdf:RDF>
  </metadata>
</svg>
