<?xml version="1.0" encoding="UTF-8" standalone="no"?><!--Created with Inkscape (http://www.inkscape.org/)--><svg viewBox="23 1 1342.3 1022.1" xml:space="preserve" width="1400" height="1066" xmlns:xlink="http://www.w3.org/1999/xlink" xmlns="http://www.w3.org/2000/svg"><defs><linearGradient id="i" y2="476.9" gradientUnits="userSpaceOnUse" x2="497.5" gradientTransform="matrix(1.1394 0 0 1.1155 148 -212.8)" y1="281.1" x1="511.3"><stop style="stop-color:#bdc7d3" offset="0"/><stop style="stop-color:#d3d3d3" offset="1"/></linearGradient><linearGradient id="h" y2="258.8" gradientUnits="userSpaceOnUse" x2="410.4" gradientTransform="matrix(1.1586 0 0 1.3077 113.7 -229)" y1="115.4" x1="452.8"><stop style="stop-color:#fff" offset="0"/><stop style="stop-color:#fff;stop-opacity:0" offset="1"/></linearGradient><linearGradient id="l" y2="509.2" gradientUnits="userSpaceOnUse" x2="428.4" gradientTransform="matrix(1.1213 0 0 .65711 157 65)" y1="585.2" x1="426.1"><stop style="stop-color:#6b8e23" offset="0"/><stop style="stop-color:#2f4f4f" offset="1"/></linearGradient><linearGradient id="H" y2="706.6" gradientUnits="userSpaceOnUse" x2="169.4" gradientTransform="matrix(1.1302 0 0 1.1583 147 -239)" y1="636.6" x1="166.1"><stop style="stop-color:#9c9c00" offset="0"/><stop style="stop-color:olive" offset="1"/></linearGradient><linearGradient id="J" y2="706.6" gradientUnits="userSpaceOnUse" x2="169.4" gradientTransform="matrix(1.4957 0 0 1.1646 -169.3 -242.6)" y1="636.6" x1="166.1"><stop style="stop-color:#9c9c00" offset="0"/><stop style="stop-color:olive" offset="1"/></linearGradient><linearGradient id="K" y2="706.6" gradientUnits="userSpaceOnUse" x2="169.4" gradientTransform="matrix(1.1302 0 0 1.1634 147 -242.5)" y1="636.6" x1="166.1"><stop style="stop-color:#9c9c00" offset="0"/><stop style="stop-color:olive" offset="1"/></linearGradient><linearGradient id="I" y2="706.6" gradientUnits="userSpaceOnUse" x2="169.4" gradientTransform="matrix(1.1302 0 0 1.1155 147 -212.8)" y1="636.6" x1="166.1"><stop style="stop-color:#9c9c00" offset="0"/><stop style="stop-color:olive" offset="1"/></linearGradient><linearGradient id="F" y2="706.6" gradientUnits="userSpaceOnUse" x2="169.4" gradientTransform="matrix(1.1302 0 0 1.2439 147 -290.2)" y1="636.6" x1="166.1"><stop style="stop-color:#9c9c00" offset="0"/><stop style="stop-color:olive" offset="1"/></linearGradient><linearGradient id="G" y2="706.6" gradientUnits="userSpaceOnUse" x2="169.4" gradientTransform="matrix(1.1302 0 0 1.1874 147 -257.1)" y1="636.6" x1="166.1"><stop style="stop-color:#9c9c00" offset="0"/><stop style="stop-color:olive" offset="1"/></linearGradient><linearGradient id="d" y2="103.8" gradientUnits="userSpaceOnUse" x2="677.2" y1="-771.5" x1="700.2" gradientTransform="translate(0 18.4)"><stop style="stop-color:#00a8f0;stop-opacity:0" offset=".4"/><stop style="stop-color:#00a8f0;stop-opacity:1" offset="1"/></linearGradient><linearGradient id="a" y2="1"><stop offset="0" stop-color="#f6e6b3"/><stop offset="1" stop-color="#ed9016"/></linearGradient><linearGradient id="c" y2="1"><stop offset="0" stop-color="#f6e6b3"/><stop offset="1" stop-color="#ed9016"/></linearGradient><linearGradient id="b" y2="1"><stop offset="0" stop-color="#f6e6b3"/><stop offset="1" stop-color="#ed9016"/></linearGradient><linearGradient id="C" y2="338.6" gradientTransform="scale(.99969 1.00031)" x1="62.2" y1="187" x2="213.9" gradientUnits="userSpaceOnUse"><stop offset="0" stop-color="#f6e6b3"/><stop offset="1" stop-color="#ed9016"/></linearGradient><linearGradient xlink:href="#a" id="m" y2="150.4" gradientTransform="scale(.73783 1.35533)" x1="125.1" y1="26.7" x2="248.9" gradientUnits="userSpaceOnUse"/><linearGradient xlink:href="#a" id="n" y2="132" gradientTransform="scale(.65372 1.5297)" x1="179.6" y1="33.8" x2="277.9" gradientUnits="userSpaceOnUse"/><linearGradient xlink:href="#a" id="o" y2="96.2" gradientTransform="scale(1.0688 .93563)" x1="51.1" y1="0" x2="147.2" gradientUnits="userSpaceOnUse"/><linearGradient xlink:href="#b" id="p" y2="411.4" gradientTransform="scale(.99968 1.00032)" x1="13.5" y1="162.3" x2="262.6" gradientUnits="userSpaceOnUse"/><linearGradient xlink:href="#b" id="q" y2="472.9" gradientTransform="scale(1.15259 .86761)" x1="16.6" y1="263.1" x2="226.4" gradientUnits="userSpaceOnUse"/><linearGradient xlink:href="#c" id="r" y2="487.2" gradientTransform="scale(1.134 .88183)" x1="45.8" y1="414.8" x2="118.2" gradientUnits="userSpaceOnUse"/><linearGradient xlink:href="#c" id="s" y2="296.5" gradientTransform="scale(.69365 1.44165)" x1="152.2" y1="259.2" x2="189.6" gradientUnits="userSpaceOnUse"/><linearGradient xlink:href="#c" id="t" y2="196.1" gradientTransform="scale(.45684 2.18895)" x1="1185" y1="183.1" x2="1198.1" gradientUnits="userSpaceOnUse"/><linearGradient xlink:href="#c" id="u" y2="179.8" gradientTransform="scale(.4165 2.40095)" x1="1345.1" y1="164.6" x2="1360.4" gradientUnits="userSpaceOnUse"/><linearGradient xlink:href="#c" id="v" y2="227.8" gradientTransform="scale(.52982 1.88743)" x1="1093" y1="212.3" x2="1108.5" gradientUnits="userSpaceOnUse"/><linearGradient xlink:href="#c" id="w" y2="487.2" gradientTransform="scale(1.13404 .8818)" x1="125.2" y1="414.8" x2="197.5" gradientUnits="userSpaceOnUse"/><linearGradient xlink:href="#c" id="x" y2="296.5" gradientTransform="scale(.69365 1.44165)" x1="282.7" y1="259.2" x2="320.1" gradientUnits="userSpaceOnUse"/><linearGradient xlink:href="#c" id="y" y2="353.2" gradientTransform="scale(.82614 1.21045)" x1="174.2" y1="320" x2="207.4" gradientUnits="userSpaceOnUse"/><linearGradient xlink:href="#c" id="z" y2="196.1" gradientTransform="scale(.45684 2.18895)" x1="364.2" y1="183.1" x2="377.3" gradientUnits="userSpaceOnUse"/><linearGradient xlink:href="#c" id="A" y2="179.8" gradientTransform="scale(.4165 2.40095)" x1="444.8" y1="164.6" x2="460.1" gradientUnits="userSpaceOnUse"/><linearGradient xlink:href="#c" id="B" y2="227.8" gradientTransform="scale(.52982 1.88743)" x1="385.3" y1="212.3" x2="400.7" gradientUnits="userSpaceOnUse"/><filter id="j" height="3.1" width="1.2" color-interpolation-filters="sRGB" y="-1" x="-.1"><feGaussianBlur stdDeviation="49.6"/></filter><filter id="k" height="1.9" width="1.1" color-interpolation-filters="sRGB" y="-.4" x="0"><feGaussianBlur stdDeviation="20.3"/></filter><filter id="e" x="0" y="-.1" width="1.1" height="1.1"><feGaussianBlur stdDeviation="4.1"/></filter><filter id="f" x="0" y="-.1" width="1.1" height="1.1"><feGaussianBlur stdDeviation="4.1"/></filter><filter id="g" x="0" y="-.1" width="1.1" height="1.1"><feGaussianBlur stdDeviation="4.1"/></filter></defs><path style="fill:url(#d);stroke-width:0" d="M15.9-461h1385.4V561.6H15.9z" transform="translate(-9.9 461)"/><path fill="#fff" d="M409.4-317.4c-5.6 0-10.2 3.4-11.3 8.1-12 .1-22.3 2.8-27.8 6.6a10.3 10.3 0 0 0-6-1.8 10 10 0 0 0-10 11.8c-8.3 3.1-13.6 7.8-13.6 13 0 9.4 16.5 17 37 17l1.7-.1c-.2 1.2-.3 2.4-.3 3.7 0 7.9 4.8 14.2 10.9 14.2 3 0 5.8-1.6 7.8-4.3 2.2 2 5 3.2 8.2 3.2 5 0 9.4-3.1 11.4-7.7 5 1.2 10.4 1.8 16.2 1.8 21 0 37.9-8.6 37.9-19.3 0-7.6-8.7-14.3-21.4-17.4 1.9-2 3-4.2 3-6.6 0-7.8-11.4-14.1-25.3-14.1-2.4 0-4.7.2-7 .5-.9-4.9-5.6-8.6-11.4-8.6z" style="stroke-width:.963915;stroke-dasharray:none" transform="translate(-9.9 461)"/><path opacity=".3" d="M261.9 385.8a24.6 24.6 0 0 0-18.6 23c-22.7 5.6-41.5 16-50.6 27a17.5 17.5 0 0 0-12-1.7c-10.7 2.5-17.8 14.4-15.7 26.7a24 24 0 0 0 1 4.2c-14.7 10.5-23.2 23.4-21.2 35.1 3.5 20.8 38 30.4 77 21.5l3.4-.8c0 2.7.2 5.5.7 8.3 3 17.6 14.7 29.8 26.2 27.2 5.9-1.3 10.5-6.3 13.3-13 5 3.4 10.9 4.9 16.8 3.5 9.7-2.2 16.8-11.1 19-22.2 9.8.5 20.5-.4 31.6-3 40-9 69.2-35.8 65.1-59.6-2.8-17-22-28-47.3-29.6 2.8-5.1 4-10.6 3-15.9-3-17.4-27-26.6-53.5-20.6-4.6 1-9 2.5-13 4.2a21.4 21.4 0 0 0-25.2-14.3z" transform="matrix(.66018 0 0 .57531 -8.2 70.2)" filter="url(#e)" fill="#fff" style="stroke-width:1.56405;stroke-dasharray:none;filter:url(#f)"/><path opacity=".3" d="M408.3 235a24.7 24.7 0 0 0-18.6 23.2c-22.7 5.5-41.4 15.8-50.5 26.8a17.4 17.4 0 0 0-12-1.6c-10.8 2.5-17.8 14.4-15.8 26.7.3 1.4.6 2.9 1.1 4.2-14.8 10.5-23.2 23.3-21.3 35.1 3.5 20.8 38 30.4 77 21.5l3.4-.8c0 2.7.2 5.5.7 8.3 3 17.6 14.7 29.8 26.2 27.2 5.9-1.3 10.5-6.3 13.3-13 5 3.4 11 4.9 16.9 3.5 9.6-2.2 16.7-11.1 19-22.2 9.7.5 20.5-.4 31.5-3 40-9 69.2-35.8 65.2-59.6-2.9-17-22-28-47.4-29.6 2.8-5.2 4-10.6 3-15.9-2.9-17.4-26.9-26.7-53.5-20.6-4.6 1-9 2.5-13 4.2a21.4 21.4 0 0 0-25.2-14.4z" transform="matrix(.71445 0 0 .67117 448.8 35.6)" filter="url(#e)" fill="#fff" style="stroke-width:1.39198;stroke-dasharray:none;filter:url(#g)"/><path style="fill:#495469;stroke-width:0" d="M17.3 99.7c24 2.3 67.2-1.2 90.6-4 4.6-.6 13.6 1.5 18.3 0 3.9-1.3 6.9-5.5 10.4-7.8 4-2.6 11.3-3 15.6-5.1 3.4-1.7 9.4 1.2 13 0a120 120 0 0 0 13-5.1c3.5-3.5-5.5-2.5 2.6-5.2 2.5-.8 5.7 1.5 7.8 0 6.6-4.3 11.3-12 18.3-15.4 2.2-1.1 8.7-1.5 10.4-2.6 1.6-1 1.2-3.7 2.6-5.1.9-.9 7-1.7 7.8-2.6 1.4-1.3 1.2-3.7 2.6-5.1 1.2-1.2 4 1.2 5.2 0 3.7-3.7 10-7.5 15.6-10.3 2.1-1 5.8 1 7.8 0 6-3 12-4.6 18.3-7.7 2.7-1.4 7.6 1.4 10.4 0 6.5-3.2 13-8.4 20.8-10.3 2.2-.5 5.8 1 7.8 0 6.3-3 11.6-8 18.2-10.2C341 1 344 3.6 350 .6c7.2-3.5 10.6-7 20.9-10.3 3.3-1 28.7-2.3 31.2-4.8l7.8-7.7c1.3-1.3 6.5 1.3 7.8 0 3.7-3.6 8.2-8 15.7-12.8.4-.4 10.1-2.3 10.4-2.6 3-3 8.3-10.8 13-15.4 1.7-1.7 8-4 10.4-5.2 3.1-1.5 4.7-6.1 7.8-7.7 1.6-.7 4 1.2 5.2 0 1.6-1.6 1.7-6 5.2-7.7 2.4-1.2 8.7 1.8 10.4 0 4.6-4.5 11.2-4.2 18.3-7.7 9.7-4.8 18.2-14.2 96.3-.3 5 .9 13.6 2.2 18.2 0 8.1-4 18-3.8 26-7.7 41.7-20.6 93-15.4 140.6-15.4 15 0 26.6-2.6 41.7-2.6 6.7 0 22.3 3 28.6 0 5.3-2.6 28-6.4 33.8-2.6 9.8 6.4 11.3 16.3 15.7 20.6.3.3 11.6 3.7 13 5.1 5.8 5.8 10.2 15.3 20.8 20.6 10.6 5.2 22.8 11.7 33.8 15.4 3.5 1.1 4.8 5.7 7.9 7.7 2.8 1.9 14.6 4 18.2 5.1a87.1 87.1 0 0 1 20.8 10.3c5.4 5.3-8.2-.2 2.6 5.1 1.6.8 3.7-.7 5.2 0 4.5 2.2 14.5 7.6 18.2 10.3 1.6 1.2 1.3 3.8 2.6 5.2 2 1.9 33.3 9.7 33.9 10.2.6.6-.6 2 0 2.6 1.3 1.3 11 0 13 0 27.5 0 78.8 6 101.5-5.1 8.5-4.2 26.8.4 33.9 5.1 10 6.6 20.6 15.2 28.6 23.1 4.5 4.5 48.3 9 52.1 12.9 1.9 1.8 5.5-1.2 7.8 0 1 .5 5 6.3 7.9 7.7 2 1 5.7-1 7.8 0 6.5 3.2 12.1 7.2 18.2 10.3 2.8 1.3 7.8-1.8 10.4 0 1.6 1 1.2 3.7 2.6 5 1.2 1.3 24.6-.7 26.2 0 3.1 1.6.2 493.3-2.8 496.2-3.7 3.7-152.6-46.3-205.7-46.3H722.3c-52.3 0-104 2.6-156.2 2.6-15.8 0-64.7-4.4-78 0-2.4.7-3.2 3.8-5.3 5.1-4.8 3.2-20.7 2-26 2.6-9.4 1.1-24.8 0-33.9 2.6-3 .8-4.8 4.1-7.8 5.1-4 1.3-19.6 2-23.4 2.6-10.1 1.4-21.2-2-31.2 0-10.7 2-15.9 4.8-26 7.7-3.1.8-9.6-.6-13 0a549 549 0 0 1-88.6 5.1H113.2c-14.5 0-33 3.4-46.9 0-5.9-1.4-15.3-5.1-20.8-5.1-10.1 0-11.7-3.2-20.9-7.7-1-.6-10 .8-10.4 0-5-14.7 1-42.9 5.2-56.6 1.2-3.6 4.2-6.5 5.2-10.2 5.4-19.4 4 29.4 7.9 10 2.8-14 0-31.9 0-46.2C5.6 342.5 16.6 314.7 15 234.4c0-44.7 2.6-90.8 2.6-134.7z" transform="translate(-9.9 461)"/><path style="opacity:.90265;fill:url(#h);stroke-width:0" d="M361.4-4.1c-18.5 22.8-30.7 37-45.4 61.8-4 6.9-4.7 5.4-8 9-1.4 1.6-.9 7-2.6 6-4.5-2.4 20.7-16.2 24-18 18.4-10.4 32.3-25 48-39.2C389.3 4.8 403.6 2.4 414.8-7c7.4-6.3 7.2-5.2 13.3-12 2.7-3 12.6-4.1 16-6 1.5-1 8 0 8 .6 0 20.7-45.3 36-45.3 46 0 1 1.7 0 2.6 0 8.9 0 14.7.6 24-3 22.2-8.3 39-21.9 58.8-34.6 2.7-1.8 5.7-8.6 8-6 .9 1-2 1.8-2.7 3-14.9 25.2 12.1-18.4-2.7 15-.9 2-4.2 1.1-5.3 3-.5.8.3 16.6 0 16.6-2.7 0 4.9-15.6 5.3-16.6 2.4-5.3 6.5-13.2 10.7-20.4 4.4-7.4 14.8-16.7 18.7-21 5.6-6.4 8-15.7 8-15.1 0 3.5-.8 81.3 0 82.2.6.7 1.8 0 2.7 0 .9 2 1.2 4.4 2.6 6 11.3 12.7 50-49 56-62.6 5.2-11.6 12.4-22.7 13.4-18 3.3 14.9-9.6 26.3-16 38.4-5.4 10.2-13.4 18-13.3 18.1 5 5.7 44.6-23.3 50.7-30.1 2.2-2.5 2.6-11.3 2.6-6 0 3-1.8 6.9 0 9 2.8 3.1 20.9-2.7 21.4-3 4.1-2.8 9.2-13.4 13.3-18 1.4-1.7 2.7-8.4 2.7-6.1 0 5.7-1.3 19.5-5.3 24-2.3 2.6-8.4 8-5.4 9.1 10.8 4 20.9-21 21.4-21 6.3 0-21 38.1-21.4 39-1 2.6-7.8 5.7-8 6.1-.8 1.8.8 4.2 0 6-.4 1-2-.7-2.6 0l-8 9c-1 1-1.8 8.1-2.7 9.1-1.4 1.6-4 1.4-5.4 3-2 2.4 1.4 12 0 15-.5 1.4-2.6 1.7-2.6 3.1 0 1 1.8.4 2.6 0 10.2-5.7 15.1-20 21.4-27.1 17.6-19.9 45.4-37 69.4-57.2C726.2-33.4 738-42 743-44.7c1.6-.9 4.1 1.4 5.4 0 .6-.7-1-3 0-3 .9 0-1 3 0 3 1.2 0 1.4-2.6 2.6-3 3.4-1.3 7.3 1 10.7 0 7.2-2 16.1-12.2 18.7-15 .7-.8 18.6-6.2 18.7-6.1 6.4 7.2-16.4 49 8 42.2 7.7-2.2 39.5-26 42.7-33.2.8-1.8-.8-4.2 0-6 .9-2 4.4 17.3 5.3 15.3 1.8-4-7.4-27.1 0-27.1 2 0 1.4 21.2 2.7 24.1 5.1 11.6 14.5 3 18.7 3h2.6c-13 0 2.3.9 5.4 6 2.2 3.8 5 15 5.3 15 2.5 0 3.6-4 5.3-6 5-5.5 9.6-13.7 13.4-18 1.5-1.7 2-12.9 2.7-15 2-7 22.8-34.5 29.3-27.2 2.5 2.9 0 8 0 12 0 2 1.8 6.1 0 6.1-1.2 0-23.6-29.9-29.3-33.1-6.4-3.6-34.6 0-42.7 0-13.1 0-27-14-37.4-6.3-3 2.2-10.2-1.8-13.3 0-.8.5.6 2.3 0 3-.8.9-94.6 0-104.1 0-6.4 0-21.3-3-26.7 0-3.6 2-1.7 4-5.4 6-1.5 1-4-1.4-5.3 0-.6.8.8 2.6 0 3-1.6 1-3.7-.8-5.3 0l-5.4 6c0 1 .7 2.4 0 3-1.4 1.7-82 9.5-85.4 8.2-3.9-1.4-7.3-4.7-10.6-6-2.6-1-6.2 2.1-8 0-.7-.7.6-2.3 0-3-1.6-1.7-36.6 2-37.4 3-3.2 3.6-9.3 4.5-10.7 6-.6.7.8 2.6 0 3-3.3 1.9-9.9-1.3-13.3 0-2.4 1-3.1 4.8-5.4 6-2.7 1.6-11.4 4-13.3 6.1-1.4 1.6-1.3 4.4-2.7 6-1 1.1-9 2.1-10.7 3-1.3.8-18.4 14.8-18.6 15-2.5 2.8-14.7 20.4-16 21.2-1.6.9-3.7-.7-5.4 0-12 4.5-25.2 7.5-37.3 14.4-2.4 1.3-5.7-1.4-8 0-.8.4.6 2.3 0 3-5 5.5-14.6 6-21.4 6z" transform="translate(-9.9 461)"/><path style="fill:#6b8e23;stroke-width:0" d="M11.7 427h1388.5v142H11.7z" transform="translate(-9.9 461)"/><path style="opacity:.19027;fill:url(#i);stroke-width:0" d="M18.6 350c-4.5-42.3-2.7-85.7-2.7-128.5 0-3-1.9-13.5 0-15.4 3.8-3.6 42.8 0 48 0 8 0 21 0 29-2.5 6-2 7-9.1 13-10.3 2.6-.5 5.6 1.1 8 0 1.7-.9 1-4 2.5-5.1 7.4-5.4 8-.7 15.8-2.6 6.8-1.7 16.3-8.3 23.6-10.3 5.7-1.6 12.6 1.1 18.4 0 8.8-1.7 18.4-5.8 26.2-7.7 6.6-1.6 20.7 1 26.3-2.6 1.6-1 1.2-3.8 2.6-5.1 4-4 54.3-17 57.7-18 7.2-2 13.8-5.8 21-7.7 6-1.6 12.5-.7 18.4-2.6 48.6-15.8-4.3-5.9 39.4-15.4 3.4-.7 7 .8 10.5 0 2.4-.6 6.7-7 5.2-5.1-6.4 8.4-16.2 29.7-21 36-5.2 6.7-12.2 12-18.4 18-4.3 7.6-7.7 16-13 23-6 8-18.7 16-23.7 25.7-2.5 5 6.8 3 7.9 2.6 9.8-3.8 14.8-14.8 23.6-20.5 3.6-2.4 38-20.1 39.4-20.6 5-1.9 10.7-.8 15.7-2.6 10.6-3.7 17.5-13.5 28.9-15.4 2.6-.4 20.7-5.3 23.6-2.5 10.3 10-7 12.8 18.4 12.8 6.1 0 12.4 1.5 18.3 0 41.1-10 80.1-27 120.8-38.5 26-7.5 52.8-12.6 78.7-20.6 39.8-12.2 74.9-30.8 112.9-46.2 17.7-7.3 3 36.2 7.8 38.5 11.9 5.8 39.3-4.3 49.9-7.7 7-2.3 13.8-5.8 21-7.7 8.6-2.4 17.9-2.1 26.2-5.2 5.4-1.9 61.5-33.4 63-33.4.9 0 0 1.8 0 2.6 0 9.3-1.3 18 2.7 25.7 1.8 3.5-3.2 2.3 2.6 5.1 5.4 2.7 61.6 0 70.8 0 3.9 0 21.4-3.6 23.7-2.5 5.8 2.8-1 10.8 5.2 12.8 7.3 2.4 47.8 2.7 55.1 0 6.6-2.4 12-7.5 18.4-10.3l13.1-5.1c2.6 0 5.4.8 7.9 0 .8-.3-.6-2 0-2.6 2.3-2.2 15.1-4.7 18.4-2.5 1.6 1 1.2 3.7 2.6 5.1 6.6 6.5 12.4 10.2 18.4 18 4.7 6.2 3.2 11.9 10.4 15.4 6.7 3.2 45.7 0 52.5-2.6 6.2-2.2 12.8-7.5 18.4-10.2 11.7-5.8 32.6 2.5 44.6 2.5 2.2 0 20.3-3.9 21-2.5 3.3 6.5 12 13.5 21 18 5.7 2.7 21.8 2 25.6 7.6 13.6 20-2.2 47.6 5.2 69.4 2.2 6.4 5 12.4 7.9 18-9 34.6 11.5 58-3.3 87.4 1.5 7.3-6.5 12.6-6.5 20.5 0 4.4 5.9 38 2.6 41.1-4.5 4.5-29.7-2-34.1-2.5-30.9-4.4-68.3 0-99.7 0-83.4 0-166.1-2.6-249.4-2.6h-76c-10.9 0-23.5-1.8-34.2 0-9.6 1.6-19.2 3.8-28.9 5.1-9 1.3-20.1-2.4-28.8 0-3.8 1-6.8 4-10.5 5.2-7.9 2.5-2.6-1.3-7.9 0-28.9 7-59.3 5.1-89.2 5.1-48.6 0-96.8 1.5-144.4-5.1-14.5-2-30 1.4-44.6 0-8.7-.9-17.7-.7-26.2-2.6-4.6-1-8.6-4.1-13.2-5.1-8.3-1.9-20.2 0-28.8 0H203c-35.3 0-77.2 5.6-110.3-5.2-8.5-2.8-22.5 0-31.5 0-1 0-18.4-.7-19.1 0-.6.6.6 2 0 2.6-2.3 2.3-19.4-1.8-23.6-2.6z" transform="translate(-9.9 461)"/><path style="opacity:.41593;fill:#fff5f5;stroke-width:0" d="M13.3 157.8h93.4c6.2 0 17-2.8 22.8 0 3.2 1.5 17.7 7.2 20.2 10.9 7.6 11 13 25.8 22.7 32.8 7.9 5.7 43.2 0 53 0 33 0 54.5.5 86-10.9 3.2-1.2 27.9-3.5 30.3 0 .6.9-.6 2.8 0 3.6 3.8 5.5 28.4 0 32.8 0h20.2c8.6 0 121.4-5.3 128.9 0 2.6 2 8.7 7 10 11 2.3 6.4-15 3.6-17.6 3.6-4.8 0-3.6-15.1 0-18.2 3-2.6 6.9-1.8 10.1-3.7 5.3-3 9.8-8.5 15.2-10.9 19-8.5 39-3.4 58-7.3 2.7-.6 14.5-8.3 17.8-3.7 2.3 3.5.4 19 2.5 22 2.5 3.5 20 0 22.7 0h78.3c8.3 0 19.6-3 27.8 0 15.7 5.6 1.8 33 22.8 25.5 16.5-6-9.6-2 12.6-7.3 13.1-3.2 27.2-2 40.4-3.7 14.7-1.7 28.2-7.3 43-7.3h20.2c1.7 0 5-2.4 5 0 0 8.9-18-20.2-2.5-29.2 4.2-2.4 14.2-8.9 17.7-10.9 10-5.8 50-1.4 60.6 3.7 5.2 2.5 45.4-25.7 55.6-18.3 5 3.6-6 18 5 21.9 17.5 6.3 61.1 0 80.9 0 8.5 0 38.8-6.6 48 0 2.5 1.8 1.7 5.6 5 3.6 12.8-7.3 24.4-17.2 38-21.8 38-13 76.7-16.6 113.6-36.5 16.9-9.2 65.2 8.8 78.7 21.9 1.6 1.5 1.2 5.3 2.6 7.3 5.2 7.5-.2-11.6 5 3.6 2 6 0 19 0 25.5 0 5 1.4 14.2 0 18.3-8.6 24.8-65.6 33.2-81.2 40.1-7 3.1-13.2 8.6-20.2 11-29.4 10-63.6 3.6-93.5 3.6-16.4 0-36.9 4.7-53 0-12.3-3.5-22.1-14-33-21.9-9.5-6.9-39.6.7-48 3.7-13.5 4.9-26.7 18.6-40.3 21.9-15.5 3.7-32.5.8-48 3.6-17 3.1-35.9 0-53 0-22.4 0-46.1 3.6-68.3 0-11.4-1.8-19.9-10.8-30.3-14.6-9.5-3.4-45.6-2.5-53 0-5.6 1.9-9.8 8.7-15.2 11-6.5 2.7-13.7 1-20.2 3.6-5.5 2.3-9.7 8.9-15.2 11-11.5 4.4-36.6 2.7-48 11-14.6 10.5.3 6.7-20.2 10.9-6.9 1.4-36-4.1-40.4-7.3-1.7-1.2-.8-6.3-2.5-7.3-10-5.8-51 .1-60.7 3.6-19.9 7.2 5.4-1-15.1 11-6.2 3.5-42.4 1.3-48 0-3.7-1-6.6-5.6-10.1-7.3-12-5.8-28.1-9.2-40.5-11-33.8-4.9-78.5-3.4-108.6 18.3-6 4.4-18.7-1.6-25.3 0-43.5 10.5-91.7 3.6-136.4 3.6-10.8 0-32.8 1.9-40.4-3.6-.3-.2-3-5.9-5-7.3-12-8.6-56.4 8.5-68.3 0-6.9-5-6.6-21.3-12.6-25.6-4.6-3.3-12.8 2.4-17.7 0-4.2-2-11.1-26.5-12.6-32.8-.7-3 1.4-12.5 0-14.6-1.3-2-3.7-1.7-5-3.7-3-4.2 2.4-35.7 2.5-36.5z" transform="translate(-9.9 461)"/><path style="opacity:.60177;fill:#d2d2d2;stroke-width:0;filter:url(#j)" transform="matrix(.97233 0 0 1.1155 224.7 248.2)" d="M-110.6 449.3h1188.5v115.2H-110.6z"/><path style="opacity:.24336;fill:#8b4513;stroke-width:0;filter:url(#k)" transform="matrix(1.0463 0 0 1.1155 180.3 248.2)" d="M-119.7 573.6h1225.3v111H-119.7z"/><path style="fill:#9c9c00;fill-rule:evenodd" d="M15.6 539.6c0-9 1.7-17 6.1-23-2.4 13.5 1.1 25.3 4.2 37.3 1.3-15.9 6.6-29.6 19.9-39a47 47 0 0 0-7.5 39c3.3-13.8 9-26.7 21.6-37.2a47 47 0 0 0-9.2 26.3c6.6-4.5 11.6-10 13.3-17.3.4 7-3 16.2-7.4 26 5.8-6.5 11.8-12.7 14-24.1a42.6 42.6 0 0 1 3.3 22.1c1.7-10 3.4-20.2 10-26.6-3.9 8-.8 16.3 4.1 24.8 4-8.7 9-17 6.7-27.8 2.4 1.1 4.3 2.8 5 6 2.2-7.5 6-10.3 10-12.4a53 53 0 0 0-9.2 27.4c5.6-10.8 11.7-19.4 19-22.5-11 11.8-11.3 20.9-7.4 28.9 2.5-8.1 5.3-16.1 15-21.4-7.5 11-7.3 19-7.5 27a109.2 109.2 0 0 1 28.1-41c-5.4 7.3-8.2 13.4-6.6 17.7 8.3-3.6 16.2-12 24-21.8 0 6.5-20.9 33.9-24 38 12-6 18.3-17 24.9-27.8-2 9.3-5.5 19.5-15 33.4a92 92 0 0 0 22.4-28.1c-.1 8-3.5 16.2-9.9 24.7 3.7-2 7.7-3.2 10-9 1.8 2.1 2.1 4.8 0 8.3 3.6-3 11.7-16.4 10.2-18.3 3.4.9 1.6 14-1.1 16.4 9.5.6 17.4-13.3 10-19.9 8 3.2 9.7 9.7 4 20.3 5-7.7 11.8-14.8 21.6-20.7-9.1 8-4.5 14-5.6 21.9 3-7.4 2.8-15 17.2-27.1-4 8.5.7 12.1 7 16.9 5.1-4.4 5.2-9.1 5.4-16.6a37.6 37.6 0 0 1 7.5 23.7 65 65 0 0 0 5.8-24.4c4.5 10.2 5.9 16 6 27.6 1.8-6.5 2.5-7.6 8.1-13.7-.5 3.1 1 5.9 5 8.2.5-6.5 3.7-10.9 8.3-14.2-3.1 5.5-2 10.8 4.1 15.7a47.8 47.8 0 0 0 10.8-20.6c1.3 7.4 3.1 15.6 0 28.8 5.9-4 10.4-9.2 6.6-21.7 7.4 7.2 9.3 10.7 7.8 19.9 7.4-9 8.6-15.6 7.1-28.5 5 6.6 5.5 10 7.3 25a46.1 46.1 0 0 1 11.8-14.1c-2.9 12.1-1.6 14.8 0 16.9 6.3-4.6 8.7-12.7 8.3-23.3 3.1 7 4.2 16.3 3.3 27.8a54 54 0 0 1 17.4-27.8c-6.6 11-5.2 18.2-1.6 24.3 3.4-13 3.2-19.6 13.2-31.4-3.3 10-3.3 18 0 24 .4-8.7 3.1-17 7.5-24.8-1.7 4.2-3.1 16-.8 18a100 100 0 0 1 12.4-25.5c-4.7 9.9-9 23.5-5.8 32.7l4.1 9.7c3.7-7.3 7-14.8 6.7-24.4 3.8 5.8 3.5 14.1 2.5 23a77.8 77.8 0 0 1 22.3-31.6 58.3 58.3 0 0 0-10.7 33.4c4.7-9 9.6-17.9 16.6-25.9-2.5 7-5 9-5.2 15l2.7 7.7c4.2-3.1 6.4-2.6 5.8-4.7 2.5 1.5 1.8 3.6.8 5.7 5-1.8 8.5-4.7 10-9.4 2.4 2.1 1.5 5.8-1.7 10.5 4.8-2.2 8.6-5.7 10.8-11.3 1.9-.3 3 2.5 4.1 7.2.5-7.7 2-14.5 8.3-17.7a21.8 21.8 0 0 0-1.7 15.8l7.5-14.3-5.8-9.4 14.1 11-3.3 17.2 6.6-9.2-2.5-16 12.5 23.7v-11.7l-8.3-18c8.9 5.8 16.2 14.4 20.7 28.2 3.7-3.7 2.8-9.2 1.6-14.7a20.8 20.8 0 0 1 5.9 22.2c4.1-3 7.6-6 3.3-11.7 3.3 1.1 5.4 4.4 8.3 8 .7-8.8-.7-17.6-6.7-26.4 5 5 9.7 10.2 12.5 18.4.8 4.6 3.5 6.2 6.6 7.2.3-7.3.4-14.7-4.1-21.8-1.3-3-3.7-5.2-5.8-7.5 10.3 5.7 16.5 16.1 21.5 27.8.5-4.8.1-10-2.5-15.8a64.4 64.4 0 0 1 14.1 20l.8-14.4 8.3 9a63 63 0 0 1 2.5-30.4l4.2 14.7c3.4-10 8.5-15.2 14-19.2-5.4 9.3-9.1 18.4-5.8 26.7l5 7.9a44.4 44.4 0 0 0 7.5-27c8 7.4 7.1 18.3 5 29.6l11.7-16.5c2.1-2.8 3.3-12.8 1.7-17.2 6.3 4 8 11.8 10 17.4l4.8 10.6c5.8-4.9 6-7.3 5.7-10 .4-3.2-2.4-8.2-6.6-11.3a74.5 74.5 0 0 1 26.5 20.2c3.8-5.7-.1-12.5-8.3-19.8 12.2 4.2 19.8 12 20 25.5l5.8-9.8c1.9-7.4-3.7-10.5-7.5-14.6a55.3 55.3 0 0 1 24 21.4c.7-5 .6-9.8-14-23.7a74.2 74.2 0 0 1 26.5 21.4c.4-5.1-2-10.9-9.2-17.6 8.5 5 14.2 10.7 17.5 17.2 3.3-3 3.5-8.6-4.2-20.6 5.6 4.2 9.5 9 11.6 14.6 3-7.3 1.5-9.7 0-12 4.9 3.6 7.8 10.1 9.1 19.2a33 33 0 0 1 5.8-22.6v46.6l-.8-.4h-720z" transform="translate(-9.9 461)"/><path style="opacity:.95133;fill:url(#l);stroke-width:0" d="M38.1 435.8c-38-6.5-23.2-27-20.6-45.4.2-1.7-1.2-6.2 0-7.6.3-.4 1.7 0 2.5 0 23.5 0 31.5 14.3 49.1 21.2 4.9 2 53.8-19 64.6-21.2 9.4-1.8 26.2 0 36.1 0 1.1 0 7.1-.4 7.8 0 13.4 8 18.1 13.6 43.9 10.6 5.5-.6 18.1-4.5 23.2-3 14.1 4.1 3 12.1 25.9 12.1 2.5 0 5.3.6 7.7 0 8.2-1.9 20-8.7 25.8-12.1 2.6-1.5 18.7.3 20.7 1.5 2.2 1.3 2.6 3.5 5.2 4.6 2.4 1 16 4.7 20.6 6 4.6 1.3 23.4 1 28.4 0 4.8-1 8.6-5 15.5-3 5.2 1.5 6.8 5.5 10.4 7.5 10.3 6.1 31.6 13.4 46.4 15.2 6.1.7 37.6 1 41.4 0 6.9-2 13.6-8 18-10.6.5-.3 52.2 3.1 64.6 1.5 14.3-1.9 27.1-8.5 41.3-10.6 5-.7 23.6 6.5 28.4 7.6 18.8 4 36.8 6.9 56.9 7.5 13 .5 37.8 2 51.6 0 3-.4 5-3.7 7.8-4.5 10.1-3 28 2.3 38.7 0 16-3.5 27-11 41.3-15.1 12.2-3.6 47.6 9.3 59.4 12 3.1.8 12.2 0 15.5 0 8.9 0 19.8 1 28.4 0 27-3 54.8-9.5 80.1-15 6.6-1.5 12-2.8 18-4.6a89 89 0 0 1 28.5 3c2 .8 2.9 2.5 5.2 3 5.5 1.4 34.4 3 41.3 1.6.2 0 16-5.5 18-6 5.5-1.7 97 0 106 0 18.9 0 41-1.7 56.8 3 9.6 2.8 13.1-1.4 23.2 4.5 7.8 4.6 28-1.3 38.7 0 3.8.4 6.6 2.5 10.4 3 3.3.5 8.8-1.8 10.3 0 5.2 6-2 20.4 2.6 25.7 3.3 4 16.6 8.9 18 10.6 1.3 1.4 1.7 15.7 0 16.7h-41.3c-1.9-.2-3.2-1.4-5.1-1.5-20-1.3-41.7 0-62 0-23.6 0-48.9-1.6-72.3 0-6 .4-37.7.8-41.3 1.5-3 .6-4.8 2.4-7.8 3-15.3 3-42.5-1.2-59.4 0a2307 2307 0 0 1-170.4 4.5c-27.8 0-57.8 2-85.3 0-66.7-4.6 16.6-1.7-36.1-4.5-15.5-.8-31-.7-46.5-1.5-48.6-2.6-98.7 3.2-147.2 0-13-.8-21.3-2.5-33.6-4.5-9.5-1.6-21.2 1-31 0-6.2-.6-12-2.5-18-3-26.5-2.6-66.8 0-95.6 0h-235c-15.8 0-98.5-2.3-113.7 0-8 1.1-16.3 1.4-25.8 1.4H35.5c-2.6-3 2-13.1 2.6-15z" transform="translate(-9.9 461)"/><path style="fill:#010002;stroke:#000;stroke-width:1px" d="M951.4 433c.3-5.4-.4-11 0-16.3.3-4 .6-1.7 1.4-6 .6-3 1-6.3 1-9.5 0-1.2-.7-6.9.4-7.2 1.2-.4 2.5 0 3.7-.5.4-.2.5-.6.9-.9 1-.8 2.5-1.4 3.7-1.8 1.3-.5 2.9-.1 4.1-.5.4 0 .5-.7 1-.9.4-.2 1.3.3 1.8 0 1.4-.7 4.4-.6 5-.9.2 0 0-.3 0-.4 1.1-1 2.9-.7 3.7-2.3.3-.5 0-1.7 0-2.3 0-.5.2-1.4 0-1.8-1.8-3.7-12.5 7-13.3 7.7h-1.9c-.3-.3 0-.9 0-1.3 0-3 2.4-5.5 4.2-7.3.6-.6 1-.1 1.4-1.4.3-1 .4-4.6.4-5.9 0-.4.3-2.4 0-2.7-1-1-4.8.7-5.5 1.4a22.8 22.8 0 0 0-3.7 5c-.6 1.2.4 3.2 0 4.5-.3.8-1 1.9-1.4 2.3-.2.2.2.6 0 .9-.6 1.2-3.6 1.4-4.6.4-.3-.3.2-1.4 0-1.8-1.2-2.5-.9-.1-.9-3.2 0-.9-.5-3.6 0-4.5l3.2-3.2c.4-.3 1-.1 1.4-.4.3-.3.7-1.2 1-1.4 0-.2 1.2-.3 1.3-.5.5-.5 1-2 1.4-2.7 0-.1.8-.5.5-.9-.6-.6-6.3 2.2-4.6 0 .5-.7.7-1.6 1.3-2.3.3-.2.7-.1 1-.4.2-.4.1-1 .4-1.4.4-.4 1-.6 1.4-.9 1.6-1.1-1.5.5 1.4-1.8.5-.4 1.3-.5 1.8-1 .3-.1 3.4-3.4 3.2-3.5-.3-.4-3.7 0-4.1 0-1.6 0-4.2 1-5 1.8-1 .9-2-.1-2.8.4-.3.2-.2.7-.5 1-.2.2-1 .4-1.4.8v1c-.4 1.8-.4 0-1.3 1.8-.3.4.3 1 0 1.3-1.4 1.4-1.9 5-1.9 7.3v-4.1c0-.8.7-5.7 0-6.3-3.5-3.5-5-11-1-15 1-1 3.5-2.7 4.7-3.2 1.3-.6 2.3.3 3.7-.5 1.2-.7 4.5-2.8 6-3.2 1-.2 2.3-.4 3.2-.9 1.7-.8 3.5-2 5.5-2.7 2.2-.7 4.7-1 6.9-1.8 1.3-.5 2.4-1.4 3.7-1.8.6-.2 1.3.2 1.8 0 .6-.3.9-1 1.4-1.4l1.8-.9c.3-.1.7.2 1 0 .7-.7.4-.9 1.3-1.4.7-.3 2.1.3 2.8 0 .4-.1.6-.6 1-.9l2.2-.9 2.8-.4c1.1-.3 2.1-1.1 3.2-1.4.3 0 .7.2 1 0 .2-.2.1-.7.4-.9.3-.3 1 .2 1.4 0 1-.3 2.1-1 3.2-1.4.4-.1 2 .4 2.3 0 .1 0-.2-.4 0-.4.1 0 .1.4 0 .4-1 0-2.1-.4-3.2-.4-1.7 0-5-.7-6.5 0-1.1.6.2.4-.9.4-1 0-1.8 0-2.3.5v.5c-.3 0-.6-.2-1 0 0 0 .2.3 0 .4-.3.2-.9-.2-1.3 0-1.2.6-2.3 1.5-3.7 1.8-1.5.4-3.7-.2-5 .5-.2 0 0 .3 0 .4-.2.2-.3.6-.5.5-.1-.2.7-.5.5-.5-.4 0-.6.5-1 .5-.3 0 .3-1.2 1-1.8.3-.3-.3-6 0-6v.5c-.4 0-.6-.4-1-.4s-.1 1-.4 1.3c-.5.8-1.4 1.4-1.9 2.3-.2.6.5 2.3 0 2.7-.8.9-1.4-1.9-1.8-2.2-.4-.4-1.4-.8-1.4-1.4v-1.4c.2-.3.8-1 .5-.9a13 13 0 0 0-4.6 4.1c-.5.9-.6 2-1.4 2.7-1.1 1.2-1.8 2.7-2.8 4.1-.6 1-1.8 1.4-2.3 1.8-.2.3-.2 1.2-.9 1.4-.1 0-5 1.7-5 1.4 0-.2.5-.2.4 0-.2.3-.5.6-1 .9-.2.2-1-.2-1.3 0-.4.2-2.4 1.5-2.7 1.3-.6-.2 1-2.9 1.3-3.1.3-.3.8-.2 1-.5 1.1-2.3-.9-3 2.3-4.5 1 .1.1-.8.4-1 .3 0 .7.2 1 0 0 0-.2-.3 0-.4.4-.2 1.8 0 2.2-.5.4-.3 1.5-1 2.3-1.3.8-.4 1 .1 1.9-.5 1-.7 1-1.5 1.8-2.2.3-.3 1-.5 1-1 0-.4-1 .3-1.4.5-1.4.8-6.9 5.5-8.3 4-1.5-1.4.1-4.9-.5-6.7-.9-2.7.1 1.1-1.4-1.8-.1-.3-.3-1.3-.4-1-.2.4-.1 11.7-1 10-.3-.7 0-2.9-.4-3.6-.2-.3-.7-.2-1-.4-.7-.8.9-4.2-.8-5-1-.5-2.4 0-3.3-.5-.4-.2-1.2-1.2-.9-1 1.8 1.8.6 2.6 1.4 3.7.2.3.7.2 1 .5.2.3-.3 1.4 0 1.8.5 1.2 3.5 4.8 2.7 6.4-1.3 2.5-5.4 5.2-7.4 7.2-.8.8-2.7 1.4-3.7 1.8-.7.4-1.5 1.6-1.8 1.9-.3.3-.8-.2-.5-.5 1-1 5.3-2.8 4.2-5l-1-.4c-.3-.4-.6-1.6-.9-1.9-1.4-1.4-2.4-1.3-3.7-3.1-1.3-2 .6-5-.4-6.9-.2-.3-.7-1.6-1-1.8-.5-.6-.4 1-.9-.4 0-.3.2-.7 0-1-.3-.4-1-.5-1.3-.8l-2.3-3.2c-.5-1-1.3-1.4-1.9-2.3v-.4c0 3.5-.5 8.4 1 11.3.2.4-.4 1.5 0 1.8.5.6 2.2.2 2.2.5 0 0-1.6-.7-2.7-1.4-2-1.1-4-5.7-5.5-7.3-.3-.2.2-1 0-1.3-.5-.4-2.2-3.3-3.3-2.7-1 .4.4 4.1 1 4.5 1.1.8 1.2 0 2.3.5.1 0-.1.3 0 .4.2.3 1.5.7 1.8 1 .3.2 1.1 1.6 1.4 1.7.3.2.6 0 .9 0 .8.3.8 1.8 1.4 2.3 1 1 0-1.4.9.5.1.2-.2.7 0 .9l1.4.4c0 2.6-.3.2.4 1 .8.7-.5 4 0 5 .3.5 2.3 1 2.8 3.1.2.7.3 3.5 0 4.1-.4.9-1.4 1.4-1.8 2.3-.2.2-.3 1.6-.5 1.8-2.4 2.3-5.4 1.3-7.8-.5-1-.7-2.3-1-3.2-1.8l-2.3-2.3c-.3-.2.2-1 0-1.3-.3-.3-.7-.2-1-.5-.9-.9-1.2-3.4-1.8-4.5-.7-1.5-2.5-2.6-3.2-4.1-.2-.3.1-.7 0-1-.8-1-2.8-1.6-2.8-2.6 0-3.5.6-2.1 1.9-4.6.1-.3.4-3.2.9-3.2 1.1 0-1.5 1.7-1.9 2.3-.1.3.2.7 0 1l-3.2 3.6c-.4.2-1 0-1.4 0-.1 0-.4.1-.4 0-.3-.8.5-3.6 0-4.1-1.1-1.1-2.6-3.2-4.6-3.2-1 0-3 .2-3.7-.5-.2-.2-.3-.9 0-.9 2.2 0 2.6 1.6 4.1 2.7.4.3 3.5 2 3.7 2.8 1 3-4.4 2.9-6 1.8l-7.8-5.5c-.3-.1-1 0-1-.4 0-.2.5-.2.5 0 0 .4-.9 2-.9 3.2 0 2-.4 4.3 1.9 5.4 1.5.8 4-.3 5.5.5 2 2-.2.2 1.8.9.6.2 2.7 3.4 3.3 4 .7 1 0 1.1.4 1.9.5 1 2.4 1.4 3.2 2.3l.5.9h1c.8.3 6.6 6 7.7 7.2.3.3 2.3 1.6 2.3 1.8 0 .4-.6-.3-.9-.4-.6-.3-1.7-.2-2.3-.5-1.5-.7-3-1.2-4.6-2.2-1.8-1.2-4.4-2.2-6-3.7-.5-.5-.2-1-.9-1.3-1.3-.7-1.8-1-2.7-1.8-.7-.6-8-.5-9.3-.5-1.2 0-1.5-.2-2.3-1-.8-.7-3.8.4-4.6-.4-.2-.2-.2-.6-.4-.9-.3-.2-2.4-.2-2.8-.4-2.5-1.3-5.5-2.7-6.9-4.1-.2-.3-.3-2-.4-2.3-.4-1-1-.6-1.4-1.3-.2-.3.2-.7 0-1-.2-.2-.7.3-1 0-.2-.2-.2-.6-.4-.9-.5-.4-.9.5-1.4-.4-.4-.8.6-3 0-3.7-.2-.2-.6.2-.9 0-1-.4-.9-3.3-2.8-2.7-3 1-.5 7.2-2.3 7.7-4.1 1.4-4.6-4.3-7.8-5.9-1.9-.9-3.4-.3-5.5-.9l-1.9-.4c2 .6 2.3 1 4.2 1.8 4 1.6 4.6-.3 4.6 4.5 0 .4.2 1.6 0 1.9-.3.3-3.5-.7-4.1-1-1.2-.5-10.3.1-11 1-.2 0 0 1.1 0 1.3 0 .5-.3 1 0 1.4h22c.3 0 2.5-.3 2.8 0 0 0-.2.3 0 .4.9 1 2.3 1 3.6 1.8 1.4 1 1.9 2.3 2.8 3.2.4.4 1.7.6 2.3 1 1.2.7 2.3 1.3 3.2 2.2.3.2 2 .4 2.3.5.3 0 1.9 1.1 2.3 1.3.5.3 1.4-.2 1.9 0 1.1-.2 1.1 1 1.8 1.4.4.2 1.4-.2 1.8 0l3.7 1.4c.6.1 1.3-.2 1.9 0l2.3.4c.2.2.2.7.4 1 .3.1 1.2-.3 1.4 0 .1 0 .2.4 0 .4-.1 0 .2-.5 0-.5-.4 0-.9 1-1 1-.9.4-4-.4-6.4.8-1 .5-10 0-12 0-.7 0-1.5-.6-2.2-.9-.8-.2-2 .4-2.8 0-1.7-.8-.6-1-2.7-1.3h-1.9l-1.8-1v-.4c-.3-.3-1.4.2-1.9 0-.2-.1-.4-.2-.4-.5 0-.1.3 0 .4 0a34 34 0 0 0 4.2 1.9c.3 0 .6-.2.9 0 .1 0-.1.3 0 .4.5.3 1.8.1 2.3.5a36 36 0 0 0 11.5 4.5c1.4.3 6.4-.6 7.4 0l.9 1c1.4.6 10.2 0 12.4 0 1.8 0 6.6-.7 7.8 0 1 .4 1.7 1.4 2.8 1.7.4.2 1-.1 1.4 0 .7.3 1.2 1 1.8 1.4.6.4 1.7.2 2.3.5.6.2 1 1.8 1.4 2.2 1.2 1.2 2.8 1.8 4.1 3.2.9.8 3.2 1.7 3.7 2.3.8.8 1.7 2.5 2.3 3.2.4.3-.2 1 0 1.3l1 .5c.2.2-.2.6 0 .9 1 2 .9 4.3.9 6.8 0 .5.7 6.3.4 6.3-.1 0 0-.3 0-.4a6 6 0 0 0-1.4-1.4c-2.8-1-1.5-2.2-3.6-3.6-1.4-1-3.2-1.3-4.2-2.3-.8-.8.2-3.4-.4-4-.5-.5-2.2.3-2.8 0-1.1-.8-1.5-1-2.8-1.4-2.4-.8-6-2.4-7.3-3.7-.6-.6-15.4.5-17 .5-.3 0 2.2-.5 2.7 0 .6.5 1.8.9 2.8 1.4 1.3.6 10.8 1.3 11 1.8.7 1.3-2.7.9-3.2.9-1.3 0-3.4.3-4.6.9-1.1.5-3-.6-4.1 0-.4.2-.6.7-1 .9-.5.4-2.5.2-3.2.5-.4 0-4 1.4-3.7 1.8.6.5 1.6 0 2.3 0 1.9 0 6.7.8 8.3 0v-.5c.5-.5 2.7.5 3.2 0 .7-.7 1.9-.4 2.8-.9.3-.1 3.5-1.6 3.7-1.4 1.2 1.3-4.2 2.8-4.6 3.2-1.1 1-2 5.3-1.4 6 .5.5 1.4-1.1 1.8-1.4 1.2-.9 3.3-1.8 4.2-2.8.2-.2.2-.6.4-.9l2.3-1.3c0 .1-.4.1-.4 0 0-.4.2-.7.4-1 .6-.5 2.1-.5 2.8-.8 1-.6 3.2.4 3.7 1.3.1.3-.2.7 0 1 .7.6 2 1.5 2.7 2.2.3.2-.1.6 0 1a8 8 0 0 0 2.3 2.6c1.8.9 3.7 3.6 4.6 5.5 1.3 2.5 3.3 4.2 4.2 6.8.6 2 0 5.2 0 7.3 0 .4.3 1 0 1.3h-.5c-.7 1.4.9 4.2 0 5.5-.2.3-.7.1-.9.4-.2.4.1 2 0 2.3-.8 3.1-1 6.4-1.8 9.5-.2.7.3 1.7 0 2.3-.9 1.7-.8 4-1.4 6-.3.7.3 1.8 0 2.6-.2.4-.7.6-1 1-.7 1.5.4 4.3-.4 5.8-.4.9 0 2-.5 2.8-.2.4-.7.5-.9.9-.9 1.7-.3 2.9-.9 4.5-.1.3-.6.6-.5 1 .2.2.7 0 1 0 .7 0 2 .2 2.7 0 1.5-.5 3-2.3 4.6-2.3 1 0 3.3-.5 4.2 0 .4.2.5.7.9.9.4.1 1-.2 1.4 0 .4.2.5.7.9.9h2.3c.8-1.6-2.1-5.1-2.8-6.4z" transform="translate(-9.9 461)"/><path style="fill:#454c19;stroke-width:0" d="M902.2 309.6h-7.8c-2.5 0-12.6-2.8-14.8-1.6-2.2 1.3-4.5 6-6.4 6.8-.8.3-2.5 0-3.2.5-1.7 1-1 3.1-3.2.5-.6-.6-1.2-1.3-1.9-1.6-.9-.3-6.1-.5-6.9 0-1 .9-2.5 2-3.7 2.6-.2.2-.7-.2-.9 0v.6c-.8.4-14.8-5.4-15-5.6v-.3h-2.5c-.3.4-1.3 1-2 1.3-2.2 1.3-4.7-2.3-6-3.8-.1-.1-2-1.8-2.2-2.5v-1s-.2.2-.3 0c0-.2.2-.6 0-.8l-.2-.4c0-.5 3.1.8 2.2-.3-1.4-1.5 1.2.3-1.1-.6-.2 0-.5-4.5-.3-5l1.4-1h1.6c.5 0 1.5-.2 2 0 1 .7 1.3 1.9 2.7 2.3 1.1.3 18-3.2 20.2-3.7l.9-.5v-.5c.4-.3 1 .2 1.4 0 .8-.7 1-1.2 1.8-1.6.6-.3 1.3.1 1.9 0 1.6-.4 3.3-1.1 5-1.6 3.4-.8 7.4.7 10.6-.5 1-.4 1.4-1.6 2.3-2 4-1.6-.9.5 2.3-1.6.7-.5 1.6-.1 2.3-.6.7-.5 1-1.7 1.8-2 .5-.2 1 .2 1.4 0 2.3-1.3.5-1 2.8-1.6 1.7-.5 3.7 0 4.6 1 .6.7 5.9.2 6.4 0 .3 0 5-2.5 5-2.6.2-.1 0-.4 0-.5.6-.3 1.4.3 2 0 0 0-.2-.4 0-.5.7-.5 9.1 1.2 9.6 1.5 1.6 1.2-.4 1 1 1h16c1.4 0 3.8-.4 5 0 2.3 1 5 .6 7.4 1.1 1 .2 1.9.9 2.8 1 1 .3 7.6.2 8.3.6.6.3.6 1.2 1 1.6.6.8 4.4-.3 5.4 0 1 .2 1.3 1.9 1.9 2 .4.2 1-.1 1.4 0 .1 0-.2.5 0 .6l3.6 1c2.1.2 13.6.6 15.2 0 .4-.2.6-.8 1-1 2.4-1.4 11 1.3 13.8 1.5 5.9.5 12 0 17.9 0 1.5 0 8 3.4 9 3.8.6.1 1.4 1 1.8 1.2 5.3 3-1.1-.7 3.2.8.8.2 1.4 1 2.1 1.2 1 .3 2 0 2.9 0 .8 0 3.4.4 4.2 0 .7-.4 2-.7 2.8-.4 1 .2.7.7 1.8 1.2h1c.4 0 .5.6.8.8 1.3.7 5-.7 6.3.8.2.2 0 .5 0 .8.2.3.6.5.7.8.8 1.3.8 3.2.8 4.8 0 1.7-.5 5-1.1 6.4 0 0-1 .5-1 .8-.1.1 0 .3 0 .4-.3.1-.6-.1-.8 0 0 0 .1.3 0 .4-.6.7-1.8.8-2.5 1.2-.5.3-1 .7-1.4 1.2 0 .1.1.3 0 .4h-.7c-.5.2-1 1-1.7 1.2-2.8.6-5.3.8-8.2.8-2.5 0-11 .6-12.4 0-.2-.1-.1-.6-.3-.8-.2-.2-7 3.5-7.3 3.5-7.4 0-14.3 1.1-21.6-.5-1.4-.3-2-1.4-3.3-2.1-2.3-1.3-4.3-2.7-6.9-3.7-2.8-1-5 1.6-6.9 2.7-.8.4-16.5.9-18.4.5-.8-.2-1.5-.8-2.3-1-1-.4-2.8.4-3.6-.6-.4-.4-1.6-1.6-2.3-2-1.3-.8-.5.3-2.3-1.1-1.1-.8-5.3 0-6.5 0h-17c-2.7 0-5.4 1.7-7.8 2.6-1.3.5-3.3 0-4.6 0-.2 0-1.6.2-1.9 0-.5-.3-3-2.6-3.2-3.1-.1-.3.2-.8 0-1-.1-.2-6.9-4.2-7-4.2z" transform="translate(-9.9 461)"/><path style="fill:#010002;stroke:#000;stroke-width:.89062px" d="M883.7 517.5v.2-.2zm0 .3c0 2.2-.3 5.2.8 7.1 0-.2 0-.2.3.4v.6l1.1.3v.2l-1.5-.7v.5c.4.2 1 .2 1.5.2v.5s.1-.4.4-.1c.3.2.2.8.1 1.4l-.1.1c-.7.3-1.8 0-2.6.3-1.3.6 0 2.8-.7 3.3-.2.2-.6.1-.7.3-.4.5 0 2-.4 2.4-.6 1.1-.6-6.4-.7-6.6-.1-.2-.2.4-.4.6-1.2 2-.3-.6-1 1.2-.6 1.2.7 3.6-.4 4.5-.8.6-2.8-.4-4.4-1.4-.5-.7-.7-1.9-1-2.5-.7-1-2-1.7-2.6-2.7v-.6c-.6-.7-2.2-1.1-2.2-1.8 0-2.3.5-1.4 1.4-3l.4-1.4c-.4.3-1 .6-1 .8-.2.2 0 .4 0 .6l-2.6 2.4h-1.1c-.2 0-.4.1-.4 0-.2-.5.4-2.4 0-2.7-.9-.8-2-2.1-3.6-2.1h-.7l1 .9c.3.2 2.8 1.3 3 1.8.8 2-3.5 2-4.8 1.2l-6.2-3.6-.4-.2c-.1.4-.7 1.3-.7 2 0 1.3-.3 2.9 1.5 3.6 1.2.5 3.2-.2 4.4.3 1.6 1.4-.2.2 1.4.6.4.1 2.1 2.3 2.6 2.7.5.6 0 .7.3 1.2.4.6 1.6 1 2.4 1.4l-.2.1c-.3.3-.8 2-1.5 1.5-.3-.3.3-1.4 0-1.8-.3-.6-1-1-1.4-1.5-.2-.2 0-.9-.4-.9-.2 0-.4.3-.7.3v2.7l-.3-.3c-.5-.4-6.4-.3-7.3-.3-1 0-1.3 0-1.9-.6-.4-.3-1.6-.2-2.5-.1h-.8l-.3-.2c-.2-.1-.2-.4-.4-.6l-2.2-.3c-2-.8-4.3-1.8-5.4-2.7-.2-.2-.3-1.3-.4-1.5-.2-.6-.8-.4-1-.9-.2-.2.1-.5 0-.6-.2-.2-.6.1-.8 0l-.4-.6c-.3-.3-.7.3-1-.3-.4-.5.4-2 0-2.4-.2-.2-.6 0-.8 0-.7-.3-.6-2.2-2.2-1.8-2.3.6-.4 4.7-1.8 5-3.3 1-3.6-2.8-6.2-3.8-1.5-.7-2.7-.3-4.3-.6l-1.5-.3c1.5.4 1.7.7 3.3 1.2 3.2 1 3.6-.2 3.6 3 0 .2.2 1 0 1.2-.2.2-2.8-.4-3.2-.6-1-.4-8.1 0-8.8.6v1c0 .2-.2.5 0 .8H835v.3c.7.6 1.8.6 2.9 1.2 1 .6 1.4 1.5 2.2 2.1.3.3 1.3.4 1.8.6l1 .6 1.5.9c.2.2 1.6.3 1.8.3l1.9 1c.3 0 1-.2 1.4 0 1-.2 1 .6 1.5.8.3.2 1 0 1.4 0l3 1c.4 0 1-.2 1.4 0l1.8.2c.2.2.2.5.4.6.2.2.9-.1 1 0-.3 0-.6.6-.6.7-.8.3-3.2-.2-5.1.5-.8.4-8 0-9.5 0-.6 0-1.3-.4-1.8-.5-.7-.2-1.7.2-2.2 0-1.4-.6-.5-.7-2.2-1h-.4v.3c.5.2 1.5.1 1.9.3 2.6 1.5 5.6 2.4 9 3 1.1.3 5.1-.4 5.9 0l.7.7c1.1.4 8.1 0 9.9 0 1.4 0 5.2-.4 6.1 0 .8.3 1.3 1 2.2 1.2h1.1c.6.1 1 .6 1.5.9.4.2 1.3.1 1.8.3.5.1.8 1.2 1 1.5 1 .8 2.2 1.2 3.3 2 .7.6 2.5 1.2 3 1.6.6.5 1.3 1.7 1.8 2.1.3.2-.2.6 0 1l.7.2c.2.2 0 .4 0 .6.9 1.4.7 2.8.7 4.5l.3 2c-.6-.9-.6 0-1-1v-.7c-.2-.3-.9-.4-1-.6-.3-.2-.2-.5-.5-.6-.6-.3-1.4.3-2.1-.3-.5-.4-1.7-.8-2.8-1 0-.6.1-1.2-.1-1.4-.4-.3-1.8.3-2.2 0-.9-.5-1.2-.6-2.2-.9-2-.5-4.8-1.6-5.8-2.4-.5-.4-8.3 0-11.5.2h.2c.4.5 1.4.7 2.2 1 1 .4 8.5 1 8.7 1.2.5.9-2.1.6-2.5.6-1.1 0-2.8.2-3.7.6-.9.4-2.4-.3-3.2 0-.4.2-.5.5-.8.6-.4.2-2 .2-2.5.3-.3.1-3.3 1-3 1.2.5.4 1.3 0 1.9 0 1.4 0 5.2.5 6.5 0v-.3c.4-.3 2.1.4 2.6 0s1.4-.3 2.2-.6c.2 0 2.7-1 2.9-.9 1 .8-3.3 1.8-3.7 2.1-.8.7-1.6 3.5-1 4 .4.3 1-.8 1.4-1 1-.5 2.5-1.2 3.3-1.8l.3-.6 1.7-.8-.2-.1c0-.2.2-.4.4-.6.4-.4 1.6-.3 2.1-.6h1.5c0 .2.7.8 1.4 1.4v.1l.3.2.8.7c.2.2.5.2.7.3l.4.3c.2.2 0 .5 0 .6.3.5 1.2 1.6 1.8 1.8 1 .5 2.2 1.6 3 2.7-.6.1-3.3-.8-3.7-.5-.3.2.3.5.4.5l1 1.9 1.2.3.7.9c.2.2.8 0 1 .2.2.1 2.6 2 2.6 2.2.4.6 0 2.4 0 3 0 2 .3.5-.7 2.1-.2.3.3 1 0 1.2-.7.6-3.2.5-3.6-.3-.2-.2.1-.5 0-.6-.3-.3-1-1-1.1-1.5-.4-.9.4-2.2 0-3-.7-1-2-2.5-3-3.3-.5-.5-3.5-1.6-4.3-1-.2.3 0 1.6 0 1.9 0 .8 0 3.2.4 3.9.3.8.6.5 1 .9 1.5 1.2 3.3 2.8 3.3 4.8 0 .3.3.7 0 .9h-1.4c-.7-.5-9.1-7.5-10.6-5.1-.2.3 0 .9 0 1.2 0 .4-.2 1.2 0 1.5.6 1 2 .8 3 1.5 0 0-.2.3 0 .3.4.2 2.8.1 4 .6.3.1 1-.2 1.4 0 .3.1.4.5.7.6 1 .3 2.2 0 3.3.3 1 .2 2 .7 3 1.2.2.2.3.5.6.6 1 .3 2 0 3 .3l.3.6-1 4.8c-.2.4.2 1.2 0 1.6-.7 1-.7 2.6-1.2 3.9-.2.5.2 1.2 0 1.8 0 .3-.5.3-.7.6-.6 1 .3 2.9-.4 3.9-.3.6 0 1.3-.3 1.8-.2.3-.6.3-.8.6-.7 1.2-.2 2-.7 3 0 .2-.5.4-.4.6.2.2.6 0 .8 0 .6 0 1.6.2 2.2 0 1.1-.3 2.3-1.5 3.6-1.5h.7v4.2c-.5.8-2.8 3.2-2.2 4.2h1.9c.3 0 .4-.4.7-.5.3-.2.7 0 1.1 0 .3-.1.4-.5.7-.7.7-.3 2.5 0 3.3 0 1.3 0 2.5 1.2 3.6 1.6H902c.1-.2-.2-.5-.3-.7-.5-1 0-1.8-.8-3l-.7-.6c-.3-.5 0-1.2-.4-1.8-.6-1 .3-3-.3-4-.2-.2-.6-.2-.7-.5-.2-.5.2-1.3 0-1.8-.5-1.3-.4-2.8-1.1-4-.2-.3.1-1 0-1.4-.6-2-.9-4.3-1.5-6.4 0-.2.2-1.2 0-1.5-.1-.1-.6 0-.7-.3l-.1-.1V582c.2-.7.4-1.4 0-1.9V574c.7-1.4 2-2.5 3-4 .8-1.3 2.3-3 3.6-3.6.7-.3 1.6-1.4 1.9-1.8 0-.2-.2-.5 0-.6.5-.5 1.6-1 2.2-1.6.1-.1-.2-.4 0-.6.3-.6 2-1.2 2.9-.9.5.3 1.7.2 2.2.6.1.2.3.4.3.7h-.3l1.8.9.3.6c.8.6 2.4 1.2 3.3 1.8.3.2 1 1.2 1.5.9.5-.5-.3-3.3-1.1-4-.4-.3-4.6-1.2-3.7-2 .2-.2 2.7.8 3 .9.7.3 1.6 0 2.1.5.5.4 2.1-.3 2.6 0 0 .1-.1.3 0 .4 1.2.5 5 0 6.5 0 .6 0 1.4.3 1.8 0 .3-.3-2.6-1.2-2.9-1.3-.5-.1-2.1 0-2.5-.3-.3-.1-.4-.4-.7-.6-1-.3-2.5.4-3.3 0-1-.3-2.6-.6-3.7-.6-.4 0-3 .3-2.5-.6.2-.3 7.7-.7 8.7-1.2.8-.3 1.8-.5 2.2-.9h.2c-3.2-.2-11-.6-11.5-.3-1 .9-3.9 1.9-5.8 2.4a8 8 0 0 0-2.2 1c-.4.2-1.8-.4-2.2 0-.5.4.3 2.1-.3 2.6-.8.7-2.2 1-3.3 1.6-1.7 1-.6 1.7-3 2.4-.1 0-1 .7-1 .9v.3c-.3 0 .3-3.9.3-4.3 0-1.6 0-3 .8-4.5.1-.2-.2-.4 0-.6l.7-.3c.2-.2-.2-.7 0-.9.5-.4 1.2-1.6 1.8-2.1.4-.3 2.3-1 3-1.5 1-.9 2.2-1.3 3.2-2.1.3-.3.6-1.4 1.1-1.5.5-.1 1.4 0 1.8-.3.5-.3 1-.8 1.5-1 .3 0 .7.2 1 0 1-.2 1.5-.8 2.3-1.1 1-.4 4.7 0 6.2 0 1.7 0 8.7.4 9.8 0 .3-.2.4-.5.7-.6.8-.4 4.7.2 5.8 0a32 32 0 0 0 9.2-3c.4-.3 1.3-.1 1.8-.3v-.3h-.4c-1.7.2-.9.3-2.2.9-.6.2-1.6-.2-2.2 0-.5.1-1.2.6-1.8.6-1.6 0-8.6.3-9.5 0-1.9-.8-4.3-.3-5-.6 0 0-.4-.6-.8-.6.2-.2 1 .1 1.1 0 .2-.2.2-.5.4-.6l1.8-.3h1.4l3-1c.3 0 1 .2 1.4 0 .6-.2.6-1 1.5-.9.4 0 1 .2 1.4 0l1.8-.9c.3 0 1.7 0 1.9-.2.7-.6 1.6-1 2.5-1.6.5-.2 1.5-.3 1.9-.6.7-.6 1-1.5 2.1-2 1-.6 2.2-.6 3-1.3v-.3h19.6c.2-.2 0-.6 0-.9v-.9c-.7-.5-7.8-1-8.7-.6-.5.2-3 .8-3.3.6-.2-.1 0-1 0-1.2 0-3.2.4-2 3.6-3 1.6-.5 1.8-.8 3.3-1.2l-1.5.3c-1.6.3-2.9 0-4.3.6-2.6 1-3 4.8-6.2 3.9-1.4-.4.5-4.5-1.8-5.1-1.5-.4-1.5 1.5-2.2 1.8h-.7c-.5.4.3 1.9 0 2.4-.4.6-.8 0-1.1.3l-.4.6h-.7c-.2.1 0 .4 0 .6-.3.6-.9.3-1.1 1-.1.1-.2 1.3-.4 1.4-1.1 1-3.5 2-5.5 2.7-.3.2-2 .2-2.1.3-.2.2-.2.5-.4.6-.6.5-3-.2-3.7.3-.5.5-.8.6-1.8.6s-6.8 0-7.2.3c-.8.7-1.2.8-2.2 1.3-.6.2-.3.5-.8.9-1.2 1-3.3 1.6-4.7 2.4l-3.6 1.5c-.5.2-1.4 0-1.8.3-.3 0-.8.5-.8.3s1.6-1 1.9-1.2c.9-.8 5.4-4.7 6.1-4.9.3 0 .5.1.8 0l.3-.6c.7-.5 2.2-.8 2.6-1.4.3-.5-.2-.6.3-1.3.5-.4 2.1-2.6 2.6-2.7 1.6-.4-.2.8 1.4-.6 1.2-.4 3.2.2 4.4-.3 1.8-.7 1.5-2.2 1.5-3.6 0-.6-.6-1.5-.7-1.9l-.4.1-6.2 3.6c-1.3.7-5.5.8-4.7-1.2.1-.5 2.6-1.6 2.9-1.8l1-.9h-.7c-1.6 0-2.7 1.4-3.6 2.1-.5.4.2 2.3 0 2.7 0 .1-.2 0-.4 0-.3 0-.7.2-1 0-.3 0-2.4-2-2.6-2.4v-.6l-1-.8c0 .5.2 1.3.3 1.4 1 1.6 1.4.7 1.4 3 0 .7-1.6 1-2.2 1.8v.6c-.5 1-2 1.8-2.5 2.8-.5.7-.8 2.3-1.5 3-.2.1-.5 0-.7.3-.2.1.2.7 0 .9l-1.8 1.5c-.8.5-1.8.7-2.6 1.2-2 1.2-4.3 1.8-6.2.3l-.3-1.2c-.4-.6-1.1-1-1.5-1.5-.2-.4-.1-2.3 0-2.7.4-1.4 2-1.8 2.2-2.2.4-.6-.6-2.7 0-3.3.2-.1.3 0 .4 0v-.3c.4 0 1.1 0 1.4-.3.1 0 .1-.2 0-.4l-.4.1-1 .5v-.2l1-.3c.2-.1 0-.4 0-.6.5-.7.4-.5.4-.3 1.1-1.9.8-4.9.7-7.2-.5.6-1 .9-1.4 1.5l-1.8 2-1.1.7c-.2.2 0 .4 0 .6-.4 1-.3 0-.8.3l-.7 1.2c-.8 1.3.7 3.2-.4 4.6l-.6.6c-.1-1.1-.5-2-1.1-1.9-.6.3-1.3 1-1.5 1.3-.2.2-.6-.2-.4-.4.8-.6 4.2-1.8 3.3-3.3l-.7-.3c-.3-.2-.5-1-.7-1.2-1.2-1-2-1-3-2.1-1-1.3.5-3.2-.3-4.5-.2-.3-.6-1.1-.8-1.2-.5-.4-.3.6-.7-.3 0-.2.2-.5 0-.6-.2-.3-.8-.4-1-.6l-1.9-2.1c-.4-.7-1-1-1.5-1.5zm16.5 15.2.3-.2c1-.5 2.1-2.1 3-3.4l-.1.1-1.1 1.2h-.7c-.7.2-.7 1.1-1.1 1.5-.3.2-.4.2-.4 0v.8zm3.4-3.6 1.3-.5v-.3c.8-.4.9.3 1.8-.3.4-.2 1.5-2.7.7-3-.9-.4-2.2 1.5-2.5 1.8-.2.2.1.8 0 1-.4.2-.9.7-1.3 1.3zm-5 4.7c.1.2.1.1 0 0zm15-6c0-.4-.2-.7-.4-.7-.5 0 0 .3.4.7zm9.5-1c.8 0 1.7 0 2.1-.3.2-.2.3-.6 0-.6a3 3 0 0 0-2.1.9zm7.3.2c.2 0 .3 0 .3-.2 0-.1-.4-.1-.4 0l.1.2zm16 15.8h.3-.3zm.3 0h.8l1.4-.6-1.8.6a1 1 0 0 1-.4 0zm2.2-.7.7-.3h-.7v.3zm-24.2 14.1 2 .1c.2 0-1.3-.2-2 0zM838.2 536h-.7l-1.6-.6 1.2.6h1.1zm23.7-6.4v-.3.3zm-7.7-9.5v-.1h-.3l.3.1zm7.4-.1a3 3 0 0 0-2.2-1c-.3 0-.2.5 0 .7.4.3 1.4.3 2.2.3zm9.4 1c.5-.4.9-.7.4-.7-.2 0-.3.3-.4.7zm13.4 4.8c0-.2.2-.6 0-.7 0 0 0 .3-.3 0-.4-.4-.4-1.3-1-1.5h-.8l-1-1.2-.3-.1c1 1.3 2 2.9 3.1 3.4l.3.1zm-3.4-3.5c-.4-.6-.9-1.1-1.3-1.4-.1-.2.2-.8 0-1-.3-.2-1.6-2-2.5-1.7-.8.3.3 2.7.7 3 1 .5 1 0 1.8.3.2 0 0 .2 0 .3l1.3.5zm19.8 2.5v.2-.2zm-14.7 1.7.2.1h-.2zm.2 2c0 .7-.2 1.4 0 1.7.2.4 1.8.7 2.2 2.1.1.4.2 2.3 0 2.8l-1.5 1.4c0 .2-.2 1.1-.4 1.3l-1 .6c-1.1-.8-2-1.6-2.6-2.4-.6-1 1.7-3.5 2.2-4.3.1-.3-.3-1 0-1.2.2-.2.6 0 .7-.3.5-.5 0-1 .4-1.6zm-10.2 5.7 1 .5c.4.3 1.5.2 1.9.4.1 0-.1.2 0 .2h.7c.3.1-.4.8.4.7 2 .7 1.4 1.2 1.5 2-.4-.1-.8-.3-1.1-.6-.8-.4-1.8-.7-2.6-1.2l-1.8-1.5v-.5zm-42.2.5c0 .2.2.3.3.4h.7l-.7-.4h-.3zm1.5.3a3 3 0 0 0-.4 0l.7.3v-.2l-.3-.1zm24.7 1.3v.2c-.1 0 0-.1 0-.2zm31.6 5.5 1.9 1c.2.3-.1.6-.4.4-.2-.2-.9-1-1.5-1.2v-.2zm58.9.1h-.2l-.8.3c.3 0 .6.1.8 0l.3-.2h-.1zm-26.1 1.6v.3-.3zm-65.7 5.9a5 5 0 0 0-.9 0h1.9-1zm14.8 5.5h-.2.2zm15.5 3.8.1.4c-.1 0-.1-.2 0-.4z" transform="matrix(1.1302 0 0 1.1155 108.5 222.5)"/><path style="fill:#40490a;stroke-width:0" d="m868 470.1-.5.1v.6c-.4.3-1-.4-1.4 0v.5c-.1.2-3.7 2.7-4 2.8-.3.1-4.4.7-4.9 0a3 3 0 0 0-3.5-1.1c-1.8.7-.4.3-2.1 1.6-.4.3-.8-.1-1.1 0-.6.4-.8 1.7-1.4 2.3-.5.4-1.3 0-1.8.5-1.2 1.1-.9 1.1-.7 1l-1 .6c-.8.6-1 1.8-1.8 2.3-2.5 1.3-5.5-.4-8.2.5-1.3.5-2.6 1.3-3.9 1.7-.5.1-1-.3-1.4 0-.6.5-.8 1-1.4 1.6-.3.3-.7-.2-1 0-.2.1 0 .4 0 .6l-.8.5c-1.6.5-14.7 4.2-15.5 4-1-.5-1.3-1.7-2.1-2.4-.4-.3-1.1 0-1.5 0-.4 0-1-.2-1.3 0l-1 1c-.2.5 0 5.2.2 5.3l.6.2.2.4c.8 1.2-1.7-.2-1.7.3l.2.4v1h.3v1l.6 1.1h-.5v.5l-1.1 1.3c-.5.4-1.4.5-2 1.2 0 .1.2.4 0 .5 0 0-.3-.2-.4 0-.1 0 0 .3 0 .4l-.9.8c-.5 1.6-.8 5-.8 6.8 0 1.7 0 3.7.6 5.1.1.3.4.5.5.9 0 .2-.1.6 0 .8 1 1.5 3.8 0 4.9.8.2.2.3.8.6.9.2 0 .5-.2.8 0 .9.4.5 1 1.3 1.3.7.2 1.7 0 2.2-.4.6-.5 2.7 0 3.3 0 .7 0 1.4-.4 2.1 0 .6.2 1.1 1 1.7 1.2 2 1 1-.1.8-.4l1.6 1.3c.3.2 1 1 1.4 1.2.9.4 5.8 4 7 4 4.6 0 9.2-.5 13.8 0 2.1.2 8.7 3.1 10.6 1.7.3-.3.4-1 .7-1.2 1.3-.6 10-.2 11.7 0l2.8 1.2v.5c.4.2.8-.1 1.1 0 .5.2.7 2 1.4 2.2.8.3 3.7-.9 4.3 0 .2.3.2 1.3.7 1.7.5.4 5.6.3 6.3.5.8.2 1.4 1 2.2 1.1 1.8.5 4 .2 5.6 1.1 1 .5 2.9 0 4 0h12.3c1 0-.5-.1.7 1.1.4.4 6.9 2.2 7.5 1.7v-.6c.4-.3 1 .4 1.4 0v-.5c0-.2 3.6-2.7 3.9-2.8.4-.1 4.5-.7 5 0a3 3 0 0 0 3.5 1.1c1.8-.7.4-.3 2.1-1.6.3-.3.7.1 1 0 .7-.4.9-1.7 1.5-2.2.5-.5 1.2-.1 1.8-.6 1.2-1.1.8-1.2.6-1l1.1-.6c.7-.6 1-1.8 1.8-2.3 2.5-1.3 5.5.4 8.1-.5l4-1.7c.4-.1 1 .4 1.4 0 .6-.4.7-1 1.4-1.6.3-.3.7.2 1 0v-.6l.7-.5a134 134 0 0 1 15.5-3.9c1 .4 1.3 1.7 2.2 2.3.3.3 1 0 1.5 0 .3 0 1 .2 1.2 0l1.1-1c.2-.5 0-5.2-.2-5.2l-.6-.3-.3-.4c-.7-1.2 1.7.2 1.7-.3l-.2-.4v-1s-.2.1-.2 0v-1l-.6-1.1h.5v-.5l1-1.2c.6-.5 1.5-.6 2-1.3v-.5c.1 0 .3.2.5 0v-.4c.1-.3.8-.8.8-.8.5-1.5.8-5 .8-6.8 0-1.7 0-3.7-.5-5.1l-.6-.9c0-.2.2-.6 0-.8-1-1.5-3.8 0-4.8-.8-.3-.2-.4-.8-.6-.9-.3 0-.6.1-.8 0-.9-.4-.6-1-1.4-1.3-.7-.2-1.6 0-2.1.5-.7.4-2.7 0-3.3 0-.8 0-1.5.3-2.2 0-.6-.3-1-1-1.6-1.3-2.1-1-1 .2-.8.4l-1.7-1.3c-.3-.2-1-1-1.4-1.2-.8-.4-5.8-4-7-4-4.5 0-9.2.5-13.7 0-2.2-.2-8.7-3.1-10.7-1.6-.3.2-.3.9-.6 1-1.3.7-10.1.3-11.7 0l-2.9-1v-.6c-.3-.2-.7.1-1 0-.5-.2-.8-2-1.4-2.2-.8-.3-3.7.8-4.3 0-.2-.3-.2-1.3-.7-1.7-.6-.4-5.6-.3-6.4-.5-.7-.2-1.4-1-2.1-1.1-1.9-.5-4-.2-5.7-1.1-1-.5-2.8 0-3.9 0h-12.4c-1 0 .5.2-.7-1.1-.3-.3-5.3-1.7-7-1.8zm-16.2 29 4 1c-.6.4-1.4.5-2.2.1l-1.8-1zm75.8 9c.4 0 .7 0 1.1.2.7.3 1.3.7 1.8 1.1l-4-1 1-.4z" transform="matrix(1.1302 0 0 1.1155 108.5 222.5)"/><path style="fill:#fc0;stroke:#000;stroke-width:3.2874;stroke-linecap:round;stroke-linejoin:round" d="M441.3 560.7a90 90 0 1 1-180 0 90 90 0 0 1 180 0z" transform="translate(-210 324.8) scale(1.01249)"/><path style="fill:#784421" d="M93.3 349a18 15.6 0 1 1-36 0 18 15.6 0 1 1 36 0z" transform="matrix(.35341 -.20364 .40598 .70458 -81.4 706.7)"/><path style="fill:#000;fill-opacity:.31373" d="m454.2 523.1.1 5.1a109.6 109.6 0 0 1-212.5 37.6A109.6 109.6 0 1 0 454.2 523z" transform="matrix(.8321 0 0 .8321 -146.7 426)"/><path style="fill:#784421;stroke:#000;stroke-width:4;stroke-linecap:round;stroke-linejoin:round" d="M359.4 671.3c0 9 14.7 9.4 32.8 9.4 18 0 32.7.6 32.7-9.4a32.4 32.4 0 0 0-32.7-32.1c-18 0-32.7 14.4-32.7 32z" transform="matrix(.8321 0 0 .8321 -146.7 426)"/><path style="fill:#000;fill-opacity:.31373;fill-rule:evenodd;stroke:#000;stroke-width:4;stroke-linejoin:round" d="M404.8 680c0-16.3-9.5-26.4-9.5-26.4s3.8 13.9 3.2 26.5z" transform="matrix(.8321 0 0 .8321 -146.7 426)"/><path style="fill:#fc0;fill-rule:evenodd;stroke:#000;stroke-width:4;stroke-linecap:round;stroke-linejoin:round" d="M298.7 487.3c24.5-37.9 20-128.7 20-128.7l60-3.3s-1.5 91.5 23.5 130" transform="matrix(.8321 0 0 .8321 -146.7 426)"/><path style="fill:#784421" d="M93.3 349a18 15.6 0 1 1-36 0 18 15.6 0 1 1 36 0z" transform="matrix(.4855 0 0 .79427 119.5 477)"/><path style="fill:#000;fill-opacity:.31373;fill-rule:evenodd" d="m162 177.3-17.2 1-42.8 2.3.3 12.5a75 75 0 0 0 35.7 13c3.4 0 7.1-.5 11.2-1.6 6.2 33.4 17.7 80.4 36 102.5l-1 .4h1.3c-17.2-26.6-21.8-78.2-23-107.8l-.4-9.2v-5.7l-.1-3.4v-2.4z" transform="matrix(.8321 0 0 .8321 33.7 574.1)"/><path style="fill:#fc0;stroke:#000;stroke-width:4;stroke-linecap:round;stroke-linejoin:round" d="M351.3 208.6c-22.8 0-41.3 7-55 18.6a12 12 0 0 0-2.3-1.3c-55.5-10.6-74.6 25.1-75.3 30.8-.7 5.6 38.6 14.4 59.4-6.4l.7-.7c-6.1 12-9.4 26-9.4 40.8 0 45.2 56.2 81.8 81.9 81.8 26.7 0 81.8-36.6 81.8-81.8 0-15-3.5-29.1-10-41.2l1.2 1c20.9 21 60 12.1 59.4 6.5-.7-5.7-19.8-41.4-75.3-30.8-1.2.5-2 1-2.7 1.5a82 82 0 0 0-54.4-18.8Z" transform="matrix(.8321 0 0 .8321 -146.7 426)"/><path style="fill:#fff;stroke:#000;stroke-width:4;stroke-linecap:round;stroke-linejoin:round" d="M347.6 278.4a22.7 22.7 0 1 1-45.3 0 22.7 22.7 0 0 1 45.3 0zM400.4 278.4a22.7 22.7 0 1 1-45.4 0 22.7 22.7 0 0 1 45.4 0z" transform="matrix(.8321 0 0 .8321 -146.7 426)"/><path style="fill:#000" d="M380.2 282.4a7.6 7.6 0 1 1-15 0 7.6 7.6 0 0 1 15 0zM338.2 282.4a7.6 7.6 0 1 1-15.1 0 7.6 7.6 0 0 1 15.1 0z" transform="matrix(.8321 0 0 .8321 -146.7 426)"/><path style="fill:#000;fill-opacity:.31373" d="M425.7 251.5a108 108 0 0 1 2.6 24.1c0 45.2-55.1 81.9-81.8 81.9-20.7 0-61.1-23.8-76-56.6 7.5 40.2 57 71.3 80.8 71.3 26.7 0 81.8-36.6 81.8-81.8 0-14-2.4-27.3-7.4-39z" transform="matrix(.8321 0 0 .8321 -146.7 426)"/><path style="fill:#784421;stroke:#000;stroke-width:4;stroke-linecap:round;stroke-linejoin:round" d="M344.5 671.3c0 9-14.7 9.4-32.8 9.4-18 0-32.7.6-32.7-9.4a32.4 32.4 0 0 1 32.7-32.1c18 0 32.8 14.4 32.8 32z" transform="matrix(.8321 0 0 .8321 -146.7 426)"/><path style="fill:#000;fill-opacity:.31373;fill-rule:evenodd;stroke:#000;stroke-width:4;stroke-linejoin:round" d="M299.1 680c0-16.3 9.5-26.4 9.5-26.4s-3.8 13.9-3.2 26.5z" transform="matrix(.8321 0 0 .8321 -146.7 426)"/><path style="fill:#000" d="M367.9 343c-2.3 4-6.5 5.9-9.4 4.2-3-1.7-3.4-6.2-1.1-10.2 2.3-4 6.5-5.8 9.4-4.2 2.9 1.7 3.4 6.3 1 10.2zM335.1 343c2.3 4 6.5 5.9 9.4 4.2 3-1.7 3.4-6.2 1.1-10.2-2.3-4-6.5-5.8-9.4-4.2-2.9 1.7-3.4 6.3-1 10.2z" transform="matrix(.8321 0 0 .8321 -146.7 426)"/><path style="fill:#fc0;fill-rule:evenodd;stroke:#000;stroke-width:4;stroke-linecap:round" d="M317.5 224.5c5.7-10.3-6-22.6-6-22.6l17.3-4.3s-2.4 15.6 6.7 21.2" transform="matrix(.8321 0 0 .8321 -146.7 426)"/><path style="fill:#784421;stroke:#000;stroke-width:4;stroke-linecap:round;stroke-linejoin:round" d="M82.4-128a15.4 15.4 0 1 1-30.8 0 15.4 15.4 0 1 1 30.8 0z" transform="matrix(.8321 0 0 .8321 62.8 695)"/><path style="fill:#d4aa00;fill-rule:evenodd;stroke:#000;stroke-width:4;stroke-linejoin:round" d="M418.6 232.5c35.8-4.6 52.5 17 53.8 20.2 1.3 3.3-35.1 10.1-53.8-20.2z" transform="matrix(.8321 0 0 .8321 -146.7 426)"/><path style="fill:#fc0;fill-rule:evenodd;stroke:#000;stroke-width:4;stroke-linecap:round" d="M384.7 224.5c-5.7-10.3 6-22.6 6-22.6l-17.3-4.3s2.5 15.6-6.7 21.2" transform="matrix(.8321 0 0 .8321 -146.7 426)"/><path style="fill:#784421;stroke:#000;stroke-width:4;stroke-linecap:round;stroke-linejoin:round" d="M82.4-128a15.4 15.4 0 1 1-30.8 0 15.4 15.4 0 1 1 30.8 0z" transform="matrix(.8321 0 0 .8321 116 695)"/><path style="fill:#784421" d="M93.3 349a18 15.6 0 1 1-36 0 18 15.6 0 1 1 36 0z" transform="matrix(.60216 .14764 -.27019 1.10202 128.5 471.7)"/><path style="fill:#784421" d="M93.3 349a18 15.6 0 1 1-36 0 18 15.6 0 1 1 36 0z" transform="matrix(1.12574 0 0 1.38052 46.3 416.6)"/><path style="fill:#784421" d="M93.3 349a18 15.6 0 1 1-36 0 18 15.6 0 1 1 36 0z" transform="matrix(.37148 -.12382 .25117 .7535 93.4 606.8)"/><path style="fill:#784421" d="M93.3 349a18 15.6 0 1 1-36 0 18 15.6 0 1 1 36 0z" transform="matrix(.55473 0 0 .79427 152.1 640)"/><path style="fill:#784421" d="M93.3 349a18 15.6 0 1 1-36 0 18 15.6 0 1 1 36 0z" transform="matrix(.88102 0 0 1.13464 100.3 455.6)"/><path style="fill:#784421" d="M93.3 349a18 15.6 0 1 1-36 0 18 15.6 0 1 1 36 0z" transform="matrix(.60367 0 0 1.13464 85.6 396.5)"/><path style="fill:#d4aa00;fill-rule:evenodd;stroke:#000;stroke-width:4;stroke-linejoin:round" d="M283.5 232.5c-35.8-4.6-52.6 17-53.9 20.2-1.3 3.3 35.1 10.1 53.9-20.2z" transform="matrix(.8321 0 0 .8321 -146.7 426)"/><g><path style="fill:#fc0;stroke:#000;stroke-width:3.2874;stroke-linecap:round;stroke-linejoin:round" d="M441.3 560.7a90 90 0 1 1-180 0 90 90 0 0 1 180 0z" transform="translate(892 340) scale(1.01249)"/><path style="fill:#784421" d="M93.3 349a18 15.6 0 1 1-36 0 18 15.6 0 1 1 36 0z" transform="matrix(.35341 -.20364 .40598 .70458 1020.7 721.9)"/><path style="fill:#000;fill-opacity:.31373" d="m454.2 523.1.1 5.1a109.6 109.6 0 0 1-212.5 37.6A109.6 109.6 0 1 0 454.2 523z" transform="matrix(.8321 0 0 .8321 955.4 441.2)"/><path style="fill:#784421;stroke:#000;stroke-width:4;stroke-linecap:round;stroke-linejoin:round" d="M359.4 671.3c0 9 14.7 9.4 32.8 9.4 18 0 32.7.6 32.7-9.4a32.4 32.4 0 0 0-32.7-32.1c-18 0-32.7 14.4-32.7 32z" transform="matrix(.8321 0 0 .8321 955.4 441.2)"/><path style="fill:#000;fill-opacity:.31373;fill-rule:evenodd;stroke:#000;stroke-width:4;stroke-linejoin:round" d="M404.8 680c0-16.3-9.5-26.4-9.5-26.4s3.8 13.9 3.2 26.5z" transform="matrix(.8321 0 0 .8321 955.4 441.2)"/><path style="fill:#fc0;fill-rule:evenodd;stroke:#000;stroke-width:4;stroke-linecap:round;stroke-linejoin:round" d="M298.7 487.3c24.5-37.9 20-128.7 20-128.7l60-3.3s-1.5 91.5 23.5 130" transform="matrix(.8321 0 0 .8321 955.4 441.2)"/><path style="fill:#784421" d="M93.3 349a18 15.6 0 1 1-36 0 18 15.6 0 1 1 36 0z" transform="matrix(.4855 0 0 .79427 1221.6 492.2)"/><path style="fill:#000;fill-opacity:.31373;fill-rule:evenodd" d="m162 177.3-17.2 1-42.8 2.3.3 12.5a75 75 0 0 0 35.7 13c3.4 0 7.1-.5 11.2-1.6 6.2 33.4 17.7 80.4 36 102.5l-1 .4h1.3c-17.2-26.6-21.8-78.2-23-107.8l-.4-9.2v-5.7l-.1-3.4v-2.4z" transform="matrix(.8321 0 0 .8321 1135.8 589.4)"/><path style="fill:#fc0;stroke:#000;stroke-width:4;stroke-linecap:round;stroke-linejoin:round" d="M351.3 208.6c-22.8 0-41.3 7-55 18.6a12 12 0 0 0-2.3-1.3c-55.5-10.6-74.6 25.1-75.3 30.8-.7 5.6 38.6 14.4 59.4-6.4l.7-.7c-6.1 12-9.4 26-9.4 40.8 0 45.2 56.2 81.8 81.9 81.8 26.7 0 81.8-36.6 81.8-81.8 0-15-3.5-29.1-10-41.2l1.2 1c20.9 21 60 12.1 59.4 6.5-.7-5.7-19.8-41.4-75.3-30.8-1.2.5-2 1-2.7 1.5a82 82 0 0 0-54.4-18.8Z" transform="matrix(.8321 0 0 .8321 955.4 441.2)"/><path style="fill:#fff;stroke:#000;stroke-width:4;stroke-linecap:round;stroke-linejoin:round" d="M347.6 278.4a22.7 22.7 0 1 1-45.3 0 22.7 22.7 0 0 1 45.3 0zM400.4 278.4a22.7 22.7 0 1 1-45.4 0 22.7 22.7 0 0 1 45.4 0z" transform="matrix(.8321 0 0 .8321 955.4 441.2)"/><path style="fill:#000" d="M380.2 282.4a7.6 7.6 0 1 1-15 0 7.6 7.6 0 0 1 15 0zM338.2 282.4a7.6 7.6 0 1 1-15.1 0 7.6 7.6 0 0 1 15.1 0z" transform="matrix(.8321 0 0 .8321 955.4 441.2)"/><path style="fill:#000;fill-opacity:.31373" d="M425.7 251.5a108 108 0 0 1 2.6 24.1c0 45.2-55.1 81.9-81.8 81.9-20.7 0-61.1-23.8-76-56.6 7.5 40.2 57 71.3 80.8 71.3 26.7 0 81.8-36.6 81.8-81.8 0-14-2.4-27.3-7.4-39z" transform="matrix(.8321 0 0 .8321 955.4 441.2)"/><path style="fill:#784421;stroke:#000;stroke-width:4;stroke-linecap:round;stroke-linejoin:round" d="M344.5 671.3c0 9-14.7 9.4-32.8 9.4-18 0-32.7.6-32.7-9.4a32.4 32.4 0 0 1 32.7-32.1c18 0 32.8 14.4 32.8 32z" transform="matrix(.8321 0 0 .8321 955.4 441.2)"/><path style="fill:#000;fill-opacity:.31373;fill-rule:evenodd;stroke:#000;stroke-width:4;stroke-linejoin:round" d="M299.1 680c0-16.3 9.5-26.4 9.5-26.4s-3.8 13.9-3.2 26.5z" transform="matrix(.8321 0 0 .8321 955.4 441.2)"/><path style="fill:#000" d="M367.9 343c-2.3 4-6.5 5.9-9.4 4.2-3-1.7-3.4-6.2-1.1-10.2 2.3-4 6.5-5.8 9.4-4.2 2.9 1.7 3.4 6.3 1 10.2zM335.1 343c2.3 4 6.5 5.9 9.4 4.2 3-1.7 3.4-6.2 1.1-10.2-2.3-4-6.5-5.8-9.4-4.2-2.9 1.7-3.4 6.3-1 10.2z" transform="matrix(.8321 0 0 .8321 955.4 441.2)"/><path style="fill:#fc0;fill-rule:evenodd;stroke:#000;stroke-width:4;stroke-linecap:round" d="M317.5 224.5c5.7-10.3-6-22.6-6-22.6l17.3-4.3s-2.4 15.6 6.7 21.2" transform="matrix(.8321 0 0 .8321 955.4 441.2)"/><path style="fill:#784421;stroke:#000;stroke-width:4;stroke-linecap:round;stroke-linejoin:round" d="M82.4-128a15.4 15.4 0 1 1-30.8 0 15.4 15.4 0 1 1 30.8 0z" transform="matrix(.8321 0 0 .8321 1164.9 710.3)"/><path style="fill:#d4aa00;fill-rule:evenodd;stroke:#000;stroke-width:4;stroke-linejoin:round" d="M418.6 232.5c35.8-4.6 52.5 17 53.8 20.2 1.3 3.3-35.1 10.1-53.8-20.2z" transform="matrix(.8321 0 0 .8321 955.4 441.2)"/><path style="fill:#fc0;fill-rule:evenodd;stroke:#000;stroke-width:4;stroke-linecap:round" d="M384.7 224.5c-5.7-10.3 6-22.6 6-22.6l-17.3-4.3s2.5 15.6-6.7 21.2" transform="matrix(.8321 0 0 .8321 955.4 441.2)"/><path style="fill:#784421;stroke:#000;stroke-width:4;stroke-linecap:round;stroke-linejoin:round" d="M82.4-128a15.4 15.4 0 1 1-30.8 0 15.4 15.4 0 1 1 30.8 0z" transform="matrix(.8321 0 0 .8321 1218.1 710.3)"/><path style="fill:#784421" d="M93.3 349a18 15.6 0 1 1-36 0 18 15.6 0 1 1 36 0z" transform="matrix(.60216 .14764 -.27019 1.10202 1230.6 487)"/><path style="fill:#784421" d="M93.3 349a18 15.6 0 1 1-36 0 18 15.6 0 1 1 36 0z" transform="matrix(1.12574 0 0 1.38052 1148.4 431.8)"/><path style="fill:#784421" d="M93.3 349a18 15.6 0 1 1-36 0 18 15.6 0 1 1 36 0z" transform="matrix(.37148 -.12382 .25117 .7535 1195.4 622)"/><path style="fill:#784421" d="M93.3 349a18 15.6 0 1 1-36 0 18 15.6 0 1 1 36 0z" transform="matrix(.55473 0 0 .79427 1254.2 655.2)"/><path style="fill:#784421" d="M93.3 349a18 15.6 0 1 1-36 0 18 15.6 0 1 1 36 0z" transform="matrix(.88102 0 0 1.13464 1202.4 470.8)"/><path style="fill:#784421" d="M93.3 349a18 15.6 0 1 1-36 0 18 15.6 0 1 1 36 0z" transform="matrix(.60367 0 0 1.13464 1187.7 411.7)"/><path style="fill:#d4aa00;fill-rule:evenodd;stroke:#000;stroke-width:4;stroke-linejoin:round" d="M283.5 232.5c-35.8-4.6-52.6 17-53.9 20.2-1.3 3.3 35.1 10.1 53.9-20.2z" transform="matrix(.8321 0 0 .8321 955.4 441.2)"/></g><g transform="matrix(.64945 0 0 .64945 322.3 737.3)"><g transform="translate(-.6)" fill="url(#a)"><path stroke="#010101" stroke-width="4" d="M109.7 182.4c-9.5-63.6 54.4-67.9 47.2-93.2-7.5-26.3-36.5-18.8-51.6-22.6-15.1-3.8-13-17.8-3.8-25.2 7-5.7 63.5-8.7 76.8 32.7 18.4 57.7-45.3 53-45.3 107 0 46-22 1.3-23.3 1.3z" style="fill:url(#m)"/><path fill-opacity=".3" d="M162.9 51.7a47 47 0 0 1 7.9 15c18.4 57.6-45.3 52.8-45.3 107 0 18.7-3.7 22.4-8 20.2 6.7 9.2 15.5 16.3 15.5-12.7 0-54.2 63.7-49.4 45.3-107-3.1-9.9-8.7-17.2-15.4-22.5z" style="fill:url(#n)"/><path stroke-linejoin="round" stroke="#010101" stroke-width="4" stroke-linecap="round" d="M81.2 28.3c-10.6 1.5-25.2 11.4-24.6 15 13.6-4.2 20.2-4 27.5-.7-8.2 3-17.3 10.5-18.1 18.6 4-3.2 10.4-6.1 17.4-6.7 3-.3-8.5 22.8-4.7 25.5C85.2 67.3 90 62.7 97.3 59.8c-3.5 8-4.5 19.7.7 25.9.6-5 2.8-11.2 6.9-16.6 2-2.6 17.6 20.8 21.8 18.7-8.2-11.7-10-18-9-26 5.3 7 15.2 13.4 23.1 11.7A43.2 43.2 0 0 1 129 61c-2-3.6 26.3-4.2 26.5-8.8-14.2 1.5-20.7-.1-27.1-4.7 8.6-1.4 19-6.9 21.4-14.6a34.4 34.4 0 0 1-27.3.8S136.7 11 132.8 8.6c-6 12.9-11.4 14.8-18.7 18 3.3-8.1 4.6-17-.8-23.1-.4 5-2.4 11.4-6.5 17C105 23 88.8-.2 84.6 2.1c8.5 11.4 10.5 17.7 9.8 25.6-5.6-6.7-15.6-12.8-23.5-11 6.2 4 13 11.1 10.3 11.5z" style="fill:url(#o)"/></g><path transform="translate(-.6)" stroke-linejoin="round" stroke="#010101" stroke-width="2.2" stroke-linecap="round" fill="url(#b)" d="M261.4 287a123.4 123.4 0 0 1-246.8 0s0 0 0 0a123.4 123.4 0 1 1 246.8-.3v.2z" style="fill:url(#p)"/><path transform="translate(-.6)" fill-opacity=".3" fill="url(#b)" d="M246.1 228.3a123.4 123.4 0 0 1-227 93.4 123.5 123.5 0 1 0 227-93.4z" style="fill:url(#q)"/><g transform="translate(-.6)" fill="url(#c)"><path stroke-linejoin="round" stroke="#010101" stroke-width="4" stroke-linecap="round" d="M132 406.8c0 21.6-17.5 20.8-39 20.8-12 0-22.7.2-29.9-3.2-5.7-2.8-9.2-8-9.2-17.6a39 39 0 0 1 78 0z" style="fill:url(#r)"/><path fill-opacity=".3" d="M113 373.6a39.1 39.1 0 0 1-7.4 53.9c15-.6 26-3.7 26-20.6a39 39 0 0 0-18.6-33.3z" style="fill:url(#s)"/><g stroke="#010101" stroke-width="4" stroke-linecap="round"><path d="M544.8 427.3c-3.5-11.3.5-24.6.5-24.6" style="fill:url(#t)" transform="matrix(-1 0 0 1 652.5 -1.8)"/><path d="M562.9 429.8c4.3-18.2-.7-32.7-.7-32.7" style="fill:url(#u)" transform="matrix(-1 0 0 1 652.5 -1.8)"/><path d="M581.1 428c8.8-14 1.3-25.3 1.3-25.3" style="fill:url(#v)" transform="matrix(-1 0 0 1 652.5 -1.8)"/></g><g><path stroke-linejoin="round" stroke="#010101" stroke-width="4" stroke-linecap="round" d="M222 406.8c0 21.6-17.5 20.8-39 20.8-21.6 0-39 .8-39-20.8a39 39 0 0 1 78 0z" style="fill:url(#w)"/><path fill-opacity=".3" d="M203.5 373.6a39.1 39.1 0 0 1-7.4 53.9c15-.6 26-3.7 26-20.6a39 39 0 0 0-18.6-33.3z" style="fill:url(#x)"/><path fill-opacity=".3" d="M149.2 387.4a39 39 0 0 0-5.2 19.5c0 17.5 11.5 20.2 27.4 20.6-15.8-6.5-23.8-22.2-22.2-40.1z" style="fill:url(#y)"/><g stroke="#010101" stroke-width="4" stroke-linecap="round"><path d="M169.8 427.3c-3.5-11.3.5-24.6.5-24.6" style="fill:url(#z)" transform="translate(-.8 -1.8)"/><path d="M187.9 429.8c4.3-18.2-.6-32.7-.6-32.7" style="fill:url(#A)" transform="translate(-.8 -1.8)"/><path d="M206.1 428c8.8-14 1.3-25.3 1.3-25.3" style="fill:url(#B)" transform="translate(-.8 -1.8)"/></g></g></g><path stroke-linejoin="round" stroke="#010101" stroke-width="4" stroke-linecap="round" fill="#794522" d="M66.1 154a27.1 27.1 0 0 0-14.3 50.1 98.4 98.4 0 1 0 171.4 0 27.1 27.1 0 1 0-37.4-37.3 98 98 0 0 0-96.7 0A27 27 0 0 0 66 154z"/><path stroke-linejoin="round" stroke="#010101" stroke-width="4" stroke-linecap="round" fill="#502e18" d="M209 165.5c-5.4 0-10.1 3-12.8 7.2a77.7 77.7 0 0 1 21 21 15.3 15.3 0 0 0-8.1-28.2zM66 165.5c5.5 0 10.3 3 13 7.2a77.7 77.7 0 0 0-21.1 21 15.3 15.3 0 0 1 8.2-28.2z"/><path stroke-linejoin="round" stroke="#010101" stroke-linecap="round" stroke-width="4" fill="#794522" d="M210.2 191c8.1-14 50.9-14.8 53.8-8.2-21.5 6-30 12-36.7 22.5 13.3-3 31.6-1 39.5 8.9a52.3 52.3 0 0 0-40 14.6c12.2 3.2 26.5 4 31.4 16.2-14.6-3-28.6 5.3-28.6 5.3 14.7-6.8 45.2 17.2 43.7 24.3-21-7.5-31.4-7.5-43-2.8 12.7 5.2 26.4 17.4 27.2 30a52.4 52.4 0 0 0-41.1-11.2c8.2 9.8 19.3 18.7 16.3 31.4-10.2-10.8-27.2-7.7-27.2-7.7 16 2.1 28.3 33.2 23.3 38.5-13.9-17.5-22.7-23-34.9-25.2 8 11.1 13 28.8 7 39.9a52.3 52.3 0 0 0-28.9-31.4c1.8 12.6 6.5 26.1-2.8 35.3-2.9-14.6-12.3-27-12.3-27-4.5 12-4.8 35-17.4 38.7 4.5-14.2-.2-22.6-2.8-32.7 0 0-7.2 18.5-2.8 32.7-12.6-3.6-14.9-26.7-19.3-38.7 0 0-9.6 13.1-12.7 27.6-9.2-9.3-4.3-22.7-2.3-35.3a52.3 52.3 0 0 0-29.4 31c-5.9-11.3-.5-28.9 7.6-39.9-12.2 2-21.1 7.4-35.2 24.7-5-5.3 8-40.2 24-42 0 0-14.4.7-24.6 11.5-3-12.7 8.2-21.6 16.4-31.4A52.3 52.3 0 0 0 17.2 302c.8-12.7 14.6-24.9 27.2-30.1-11.5-4.7-22-4.7-43 2.8-1.4-7.1 29-31 43.7-24.3 0 0-13.4-11.3-28.2-10 6.2-11.5 20.5-10.8 33-12.7a52.4 52.4 0 0 0-38.2-18.8c9-9 27.3-9 40.2-4.6-5.5-11-13.3-18-34-26.3 3.6-6.3 46-.8 52.6 14"/><path stroke-linejoin="round" stroke="#010101" stroke-linecap="round" stroke-width="4" fill="#794522" d="M82.3 177c-1.4-10.3-1.6-20.4-11-32 13-1.3 20.5 11 29 20.4 5.2-15.9.4-32.7-5.7-42.3 12.4 2.4 22.7 17.6 26.3 30.8 6-10.8 7.4-21 2.8-42.9 4.1-.3 12.2 12.1 16.7 25.4 3.4 9.9 9.2-26 16.4-25.4-4.6 21.8-3.3 32.1 2.8 43 3.6-13.3 14-28.5 26.3-31a52.3 52.3 0 0 0-5.7 42.4c8.5-9.5 16-21.7 29-20.3-9.4 11.5-9.6 21.6-11 31.9"/><path transform="translate(-.6)" stroke-linejoin="round" stroke="#010101" stroke-width="2.2" stroke-linecap="round" fill="url(#C)" d="M212.7 262.9a74.7 74.7 0 1 1-149.4 0v0a74.7 74.7 0 1 1 149.4-.1z" style="fill:url(#C)"/><g stroke-linejoin="round" stroke="#010101" stroke-width="4.3" stroke-linecap="round" fill="none"><path d="M191.6 271.6a36.5 36.5 0 0 1-53.7 41M83.2 271.6a36.5 36.5 0 0 0 53.6 41"/></g><path fill="#010101" d="M154 287.8c0 8.8-9.6 16-16 16-6.9 0-16-7.2-16-16s7.1-11 16-11 16 2.2 16 11z"/><path stroke-linejoin="round" stroke="#010101" stroke-width="9.9" stroke-linecap="round" fill="#fff" d="M134.3 241.9a23.1 23.1 0 1 1-46.3 0v0a23.1 23.1 0 1 1 46.3 0z" style="stroke-width:5.57971355;stroke-dasharray:none" transform="translate(-.6)"/><path fill="#010101" d="M124.6 244.6a7.2 7.2 0 0 1-14.4 0 7.2 7.2 0 0 1 14.4 0z"/><g><path stroke-linejoin="round" stroke="#010101" stroke-width="9.9" stroke-linecap="round" fill="#fff" d="M188 241.9a23.1 23.1 0 1 1-46.3 0v0a23.1 23.1 0 1 1 46.3 0z" style="stroke-width:5.57971355;stroke-dasharray:none" transform="translate(-.6)"/><path fill="#010101" d="M164 244.6a7.2 7.2 0 0 1-14.4 0 7.2 7.2 0 0 1 14.4 0z"/></g><g stroke="#010101" stroke-width="4" stroke-linecap="round" fill="none"><path d="M180 281.1c44.7-16.6 66.5 3.9 66.5 3.9M173.6 292.2a53.6 53.6 0 0 1 52.4 14M171 304.1c24.3-2.5 33.6 19.2 33.6 19.2"/><g><path d="M100.9 281.1c-44.7-16.6-66.5 3.9-66.5 3.9M107.3 292.2a53.6 53.6 0 0 0-52.4 14M110 304.1c-24.4-2.5-33.7 19.2-33.7 19.2"/></g></g></g><g><path style="fill:#939dac;stroke:#010101;stroke-width:2.56575859;stroke-linecap:round;stroke-linejoin:round;stroke-dasharray:none" d="M250.8 129.6a109.5 109.5 0 1 1-219 0 109.5 109.5 0 0 1 219 0z" transform="matrix(1.2711 0 0 1.2711 536.2 681)"/><path style="fill:#010101;fill-opacity:.3137;stroke-width:1.00064585;stroke-dasharray:none" d="M144.8 18c-11.8 0-23 2.4-33.3 6.6l.2-.5a109.5 109.5 0 0 0-71.4 148.1c8.1-3.4 22.5-14 34.4-23.5 15.4 23.9 60.4 46.8 66.8 46.8 6.3 0 50.3-25.7 66-47.5 6.3 4.8 20 16.1 25.4 19.4a132 132 0 0 1-183.5 21.9 109.4 109.4 0 0 0 192.8-17l.2-.7.8-1.8.2-.6.7-2 .2-.4.7-2 .1-.4a108.8 108.8 0 0 0 2.2-7.3v-.2l.6-2.3v-.3c.3-.7.4-1.5.6-2.2v-.4l.5-2.2v-.5a110.5 110.5 0 0 0 .8-4.6l.1-.9v-.7c.2-.6.2-1.3.3-2l.2-1.6c.2-3.2.4-6.4.4-9.6 0-41-22.6-76.9-56-95.6a86.1 86.1 0 0 0-50-16z" transform="matrix(1.2711 0 0 1.2711 536.2 681)"/><path style="fill:#939dac;stroke:#010101;stroke-width:2.56575859;stroke-linecap:round;stroke-linejoin:round;stroke-dasharray:none" d="M56.3 229.4c0 20.8 16.8 23.5 37.7 23.5 20.8 0 37.7-2.7 37.7-23.5 0-20.9-17.6-32.4-37.7-37.8-31.3-8.4-37.8 17-37.7 37.8z" transform="matrix(1.2711 0 0 1.2711 536.2 681)"/><path style="fill:#fff;stroke:#010101;stroke-width:2.56575859;stroke-linecap:round;stroke-linejoin:round;stroke-dasharray:none" d="M123.3 241.1c1.6 5.7-3 7.6-8.7 9.2-5.8 1.5-10.7 2-12.2-3.6s2-11.4 7.7-13a10.7 10.7 0 0 1 13.2 7.4zM85.3 247.2c-1.5 5.7-6.4 5.1-12.2 3.6-5.8-1.6-10.3-3.6-8.8-9.2s7.4-9 13.2-7.4c5.8 1.6 9.3 7.4 7.8 13z" transform="matrix(1.2711 0 0 1.2711 536.2 681)"/><path style="fill:#fff;stroke:#010101;stroke-width:2.56575859;stroke-linecap:round;stroke-linejoin:round;stroke-dasharray:none" d="M103.9 246.3c0 5.8-4.9 6.6-10.8 6.6-6 0-10.9-.8-10.9-6.6s4.9-10.6 10.9-10.6 10.8 4.8 10.8 10.6z" transform="matrix(1.2711 0 0 1.2711 536.2 681)"/><path style="fill:#010101;fill-opacity:.3137" d="M106 195.8a41.1 41.1 0 0 1 8.2 25.6c0 24.7-16.8 27.8-37.7 27.8-3.2 0-6.3 0-9.3-.3 6.8 3.3 16.3 4 26.8 4 20.8 0 37.7-2.7 37.7-23.5 0-16.6-11.1-27.2-25.8-33.6z" transform="matrix(1.2711 0 0 1.2711 536.2 681)"/><path style="fill:#939dac;stroke:#010101;stroke-width:2.56575859;stroke-linecap:round;stroke-linejoin:round;stroke-dasharray:none" d="M226.3 229.4c0 20.8-17 23.5-37.8 23.5-20.8 0-37.7-2.7-37.7-23.5 0-20.9 17.6-32.4 37.7-37.8 31.3-8.4 37.8 17 37.8 37.8z" transform="matrix(1.2711 0 0 1.2711 536.2 681)"/><path style="fill:#fff;stroke:#010101;stroke-width:2.56575859;stroke-linecap:round;stroke-linejoin:round;stroke-dasharray:none" d="M218.8 241.1c1.5 5.7-3 7.6-8.8 9.2-5.7 1.5-10.6 2-12.1-3.6s2-11.4 7.7-13a10.7 10.7 0 0 1 13.2 7.4zM180.7 247.2c-1.5 5.7-6.4 5.1-12.1 3.6-5.8-1.6-10.3-3.6-8.8-9.2s7.4-9 13.2-7.4c5.8 1.6 9.2 7.4 7.7 13z" transform="matrix(1.2711 0 0 1.2711 536.2 681)"/><path style="fill:#fff;stroke:#010101;stroke-width:2.56575859;stroke-linecap:round;stroke-linejoin:round;stroke-dasharray:none" d="M199.4 246.3c0 5.8-4.9 6.6-10.9 6.6s-10.8-.8-10.8-6.6 4.8-10.6 10.8-10.6c6 0 10.9 4.8 10.9 10.6z" transform="matrix(1.2711 0 0 1.2711 536.2 681)"/><path style="fill:#010101;fill-opacity:.3137" d="M205.5 190.5c9.7 7.5 12.3 22.7 12.3 36.1 0 21.6-17.5 24.3-39 24.3-4.7 0-9.2-.1-13.3-.5 6.4 2 14.3 2.5 23 2.5 20.9 0 37.8-2.7 37.7-23.5 0-16.4-3.9-35.4-20.7-38.9z" transform="matrix(1.2711 0 0 1.2711 536.2 681)"/><path style="fill:#939dac;stroke:#010101;stroke-width:2.56575859;stroke-linecap:round;stroke-linejoin:round;stroke-dasharray:none" d="M13.5 11.7c22-18.2 65.2-6.6 91 .9-14 49.3-2.7 80-14.8 108-27.8 27.7-70.8 58.1-68.3 40 11.6-86.8-42-120.9-7.9-149ZM267 11.7c-22-18.2-65.3-6.6-91.1.9 14 49.3 2.8 80 14.9 108 27.8 27.7 70.8 58.1 68.3 40-11.6-86.8 42-120.9 7.9-149z" transform="matrix(1.2711 0 0 1.2711 536.2 681)"/><path style="fill:#939dac;stroke:#010101;stroke-width:2.56575859;stroke-linecap:round;stroke-linejoin:round;stroke-dasharray:none" d="M140.2 4C60 4 40 39.2 53.7 90.6 70 151.4 123.2 177 140.2 177c17.1 0 70.5-26.7 86.6-86.5C240.5 39.3 220.6 4 140.2 4z" transform="matrix(1.2711 0 0 1.2711 536.2 681)"/><path style="fill:#fff;stroke:#010101;stroke-width:2.56575859;stroke-linecap:round;stroke-linejoin:round;stroke-dasharray:none" d="M190.3 58.1a22.7 22.7 0 1 1-45.3 0 22.7 22.7 0 0 1 45.3 0z" transform="matrix(1.2711 0 0 1.2711 536.2 681)"/><path style="fill:#010101" d="M170.1 62.1a7.6 7.6 0 1 1-15 0 7.6 7.6 0 0 1 15 0z" transform="matrix(1.2711 0 0 1.2711 536.2 681)"/><path style="fill:#fff;stroke:#010101;stroke-width:2.56575859;stroke-linecap:round;stroke-linejoin:round;stroke-dasharray:none" d="M137.6 58.1a22.7 22.7 0 1 1-45.4 0 22.7 22.7 0 0 1 45.4 0z" transform="matrix(1.2711 0 0 1.2711 536.2 681)"/><path style="fill:#010101" d="M128.1 62.1a7.6 7.6 0 1 1-15.1 0 7.6 7.6 0 0 1 15.1 0z" transform="matrix(1.2711 0 0 1.2711 536.2 681)"/><path style="opacity:.32474;fill:#000;stroke:#010101;stroke-width:4.0022;stroke-linecap:round;stroke-linejoin:round" d="M113.3 104.1c38 131.4-10.6 127.5 32.3 128.2 42.9.7 4.4 7.1 22.5-123" transform="matrix(1.2711 0 0 1.2711 536.2 681)"/><path style="fill:#939dac;stroke:#010101;stroke-width:1.99559001;stroke-linecap:round;stroke-linejoin:round;stroke-dasharray:none" d="M109.2 95.1c36.5 136.4-10.2 132.3 31 133 41.3.9-3.3 4.4 31.1-133" transform="matrix(1.2711 0 0 1.2711 536.2 681)"/><path style="fill:none;stroke:#687588;stroke-width:4;stroke-linecap:round;stroke-linejoin:round" d="M130.2 213.8h20.1M132.2 197.8h16.1M132.2 181.8h16.1M130.2 165.8h20.1M128.2 149.8h24.1M126.2 133.8h28.1M122.2 117.8h36.1" transform="matrix(1.2711 0 0 1.2711 536.2 681)"/></g><g transform="matrix(.12179 0 0 .11077 970.3 861.1)"><path fill="#502d16" stroke="#000" stroke-width="1.6" d="M-226.2 453.4c1.6-2.7 16.8-.7 20.5 5.5 5.7 9.6 1.6 25.6-6.6 33-11.5 10.5-29.7 12.2-46 3.7-36.9-19.6-47.7-67.2-30.2-103.4 25.5-52.8 91.7-65.9 139.8-39.4 44 24.2 68.3 75 65.8 125.5v-1s-34.7 256-40.3 292.9c-48.7 320.5 328 425.3 380.8 323 82.3-159.1-357.6 46-288-367C-8.1 593.8-1.8 605.7 6 503.5c7.8-102.2-41.8-174.6-107.6-213-82.5-45.5-196.1-23-239.8 67.6-30 62-13.1 147.2 51.9 177.2 41.3 19.1 97.9 6.2 115.2-40.8 9.8-26.7 1-63.7-28.6-72-14-4-39.8.7-41.8 15.9-1 8.2 9 22.1 19.6 14.5" style="stroke-width:15.59951932;stroke-dasharray:none"/><path fill="#502d16" stroke="#000" stroke-width="1.6" stroke-linecap="round" d="M821.7-122.4c-3.5 19.1-29.3 25.8-47.4 61.8 88.5 175.5 165.7 194.4 109.4 350-17.7 48.8-122.8 164.2-178 137.3-63.3-30.9-100.9-40.6-120.8-36.6a299.5 299.5 0 0 0-166.3-51.7c-66.6 0-129 23.1-182.8 63.4-11.9.7-250.8 18.7-358 215-109.9 201.2-77.8 504.5-61.7 543 16.1 38.6 32.2 93.8 72.4 35.9 40.2-58-56.7-294.2 13.4-444 48.8-104 127.7-199 200.4-176.8a573 573 0 0 0-47.7 232c0 258.8 163 468.5 364 468.5 201.1 0 364.1-209.7 364.1-468.4 0-74.6-13.5-145-37.6-207.6 40.5-28.5 104.9-83.7 186-186.4 95.8-121.4 130.6-318.2-109.4-535.4ZM127.4 140.6a140.1 140.1 0 1 1-280.3 0 140.1 140.1 0 0 1 280.3 0z" style="stroke-width:15.59951932;stroke-dasharray:none"/><path fill="#502d16" stroke="#000" stroke-width="1.6" stroke-linecap="round" d="M984.7 140.6a140.1 140.1 0 1 1-280.3 0 140.1 140.1 0 0 1 280.3 0z" style="stroke-width:15.59951932;stroke-dasharray:none"/><path fill="#a05a2c" stroke="#000" stroke-width="1.6" stroke-linecap="round" d="M127.6 143a101.9 101.9 0 1 1-203.8 0 101.9 101.9 0 0 1 203.8 0zM909.3 143a101.9 101.9 0 1 1-203.7 0 101.9 101.9 0 0 1 203.7 0z" style="stroke-width:15.59951932;stroke-dasharray:none"/><path fill="#502d16" stroke="#000" stroke-width="1.6" stroke-linecap="round" d="M770 137.9C770 304.8 612 440 417 440S63.8 304.8 63.8 138c0-167 158-302.3 353-302.3S770-29 770 138z" style="stroke-width:15.59951932;stroke-dasharray:none"/><path fill="#a05a2c" stroke="#000" stroke-width=".5" stroke-linecap="round" stroke-linejoin="round" d="M665.4 876c0 168.4-107.8 305-241 305-133 0-240.8-136.6-240.8-305 0-168.5 107.8-305 240.9-305 133 0 241 136.5 241 305z"/><path fill="#502d16" stroke="#000" stroke-width="1.6" stroke-linecap="round" d="M193.8 946.1c38 133-1.7 260-88.7 283.7-86.9 23.8-188.2-64.7-226.1-197.6-38-132.9 1.7-259.9 88.6-283.6 87-23.8 188.2 64.7 226.2 197.5zM655.4 946.1c-42.1 133-6.5 260 79.7 283.7 86.2 23.8 190.3-64.7 232.4-197.6 42.2-132.9 6.5-259.9-79.6-283.6-86.2-23.8-190.3 64.7-232.5 197.5Z" style="stroke-width:15.59951932;stroke-dasharray:none"/><path fill="#a05a2c" stroke="#000" stroke-width="1.6" stroke-linecap="round" d="M645.9 262.4c0 93.3-102.1 169-228 169-126 0-228.1-75.7-228.1-169 0-93.4 102.1-169 228-169 126 0 228.1 75.6 228.1 169z" style="stroke-width:15.59951932;stroke-dasharray:none"/><path fill="#fff" stroke="#000" stroke-width="7.5" d="M349.4-112.8c-33.6 0-68.5 42.7-83.2 74.9-16 34.9-20 89.5 9 114.7 29.9 26 93.9 23.6 118.5-7.4 37.7-47.5 26.2-156.7-30-179.4a38 38 0 0 0-14.3-2.8zm134.3 0a38 38 0 0 0-14.3 2.8c-56.2 22.7-67.6 132-29.9 179.4 24.6 31 88.6 33.3 118.5 7.4C587 51.7 583-3 567-38c-14.7-32.2-49.6-75-83.3-75z"/><path stroke="#000" stroke-width="3.2" d="M378.2-41.8c-14.6 0-29.8 18.5-36.2 32.5-6.9 15.2-8.6 38.9 4 49.8 13 11.3 40.7 10.3 51.4-3.1 16.4-20.7 11.4-68.1-13-78-2-.8-4.1-1.2-6.2-1.2zm76.5 0c-2 0-4.1.4-6.1 1.2-24.4 9.9-29.5 57.3-13 78 10.6 13.4 38.4 14.4 51.4 3.1 12.6-10.9 10.8-34.6 3.9-49.8-6.4-14-21.6-32.5-36.2-32.5z"/><path fill="#502d16" stroke="#000" stroke-width="1.8" d="M-78.6 1255.1s-15.7-85.2 141.3-88c156.9-2.7 150.6 82.5 150.6 82.5s-103.6 49.5-291.9 5.5zM909.2 1255.1s15.7-85.2-141.2-88c-157-2.7-150.6 82.5-150.6 82.5s103.5 49.5 291.8 5.5z"/><linearGradient id="D" gradientUnits="userSpaceOnUse" x1="148.8" y1="723.9" x2="183.1" y2="634.5" gradientTransform="matrix(1 0 0 -1 139.2 910.5)"><stop offset="0" style="stop-color:#4a4a4a"/><stop offset=".5" style="stop-color:#333;stop-opacity:.498"/><stop offset="1" style="stop-color:#333;stop-opacity:0"/></linearGradient><path fill="url(#D)" d="M283.3 272.3a59.7 59.7 0 0 1-1.8-48.8c10.8-24.8 55-22.9 58.1 14.7 17.2-43-43.9-58.5-62-28.5-9.2 15-14.1 44.8 5.7 62.6z" style="fill:url(#D)"/><linearGradient id="E" gradientUnits="userSpaceOnUse" x1="-1567" y1="723.9" x2="-1532.8" y2="634.5" gradientTransform="rotate(180 -506.5 455.2)"><stop offset="0" style="stop-color:#4a4a4a"/><stop offset=".5" style="stop-color:#333;stop-opacity:.498"/><stop offset="1" style="stop-color:#333;stop-opacity:0"/></linearGradient><path fill="url(#E)" d="M558.9 272.3a59.7 59.7 0 0 0 1.7-48.8c-10.7-24.8-54.9-22.9-58 14.7-17.2-43 43.8-58.5 62-28.5 9.1 15 14 44.8-5.7 62.6z" style="fill:url(#E)"/><path fill="none" stroke="red" stroke-width="4.9" stroke-linecap="round" stroke-linejoin="round" d="M373.7 326s-6 40.5 48.8 40.5c54 0 48.3-39.8 48.3-39.8"/><path fill="#a05a2c" stroke="#000" stroke-width="1.6" d="M-193.6 1116.9s-10.7 17.4-15.5 58.2c-4.9 40.8-8.8 95 16.5 95.2 25.3.4 21.4-16.5 21.4-16.5s-3 19.5 21.3 17.5 21.4-16.5 21.4-16.5-6.8 13.6 22.3 12.6c20.5-.6 13.6-58.3 13.6-58.3s26.3 23.4 29.2-36.9c1.8-36.5-40.8-64-40.8-64s-42.8-25.3-89.4 8.7zM700.2-219.4c27 7.3 127.4 90.4 128.2 108.8.9 18.5-47.2 55.5-47.2 55.5s-38.6.3-58.4-11.8c-19.9-12.2-51-42.8-72.5-15.6-29.7 37.5-54.9 25-51.8 10 3-14 7.6-39 33.8-48.7 26.3-9.6 78.1-6.7 70.7-9.8-12.5-5-96-5-99.5 5-17.6 50.7-67.3 37.8-54.7 17.8 12.7-20 9.3-46.7 36.3-50.9 27-4.1 63.4-11 63.4-11s-89.3-6.9-92 10c-7 43-52.9 47.3-48.8 29 4.2-19 18.3-66.6 46-73.6C581-211.5 605-215 625-220.3c19.9-5.3 48.2-6.4 75.1.9z" style="stroke-width:15.59951932;stroke-dasharray:none"/></g><path style="fill:#9c9c00;fill-rule:evenodd" d="M722.3 543.7c0-7.3 1.5-13.6 5.7-18.4-2.2 10.7 1 20.2 4 29.8a38.5 38.5 0 0 1 18.5-31.3c-8.1 9.4-9.6 20-7 31.3 3-11 8.5-21.4 20.2-29.8-5 6.8-8.8 13.8-8.5 21 6.2-3.6 10.8-8 12.4-13.8.4 5.7-2.8 13-7 20.8 5.5-5.1 11.1-10.1 13.2-19.3a29.8 29.8 0 0 1 3.1 17.8c1.6-8.1 3.2-16.2 9.3-21.4-3.6 6.4-.7 13.1 4 19.9 3.7-7 8.4-13.6 6.1-22.3 2.3 1 4.1 2.2 4.7 4.8 2-6 5.6-8.3 9.3-10-7.2 10-8 16.2-8.5 22 5.2-8.6 11-15.5 17.8-18-10.4 9.5-10.6 16.7-7 23.2 2.4-6.5 5-13 14-17.2-7 9-6.8 15.2-7 21.7a88.7 88.7 0 0 1 26.4-32.9c-5.1 5.8-7.7 10.7-6.2 14.2 7.8-3 15.2-9.7 22.5-17.5 0 5.2-19.6 27.2-22.5 30.5C851 544 857 535.2 863 526.5a66.3 66.3 0 0 1-14 26.8c8-6.3 15.6-13 21-22.6-.2 6.4-3.4 13-9.3 19.9 3.4-1.6 7.1-2.6 9.3-7.2 1.7 1.7 2 3.8 0 6.6 3.4-2.4 11-13.2 9.6-14.7 3.2.7 1.5 11.3-1 13.2 8.8.5 16.3-10.7 9.2-16 7.5 2.5 9.2 7.8 4 16.3 4.5-6.2 11-11.9 20-16.6-8.4 6.3-4.1 11.2-5.2 17.5 2.8-5.9 2.6-12 16.2-21.7-3.8 6.8.6 9.7 6.5 13.5 4.8-3.5 4.9-7.2 5-13.2 4.1 4.7 7.2 10.7 7 19 3.2-5.4 5-12 5.5-19.6a41.3 41.3 0 0 1 5.6 22.1c1.7-5.2 2.4-6.1 7.6-11-.5 2.6 1 4.8 4.7 6.7.5-5.3 3.5-8.8 7.7-11.5-2.9 4.4-1.9 8.7 4 12.7a37 37 0 0 0 10-16.6c1.2 6 3 12.5 0 23.1 5.5-3.2 9.7-7.4 6.2-17.4 6.9 5.8 8.7 8.6 7.3 16 6.9-7.2 8-12.5 6.7-23 4.6 5.3 5 8 6.8 20.1 3-4.7 6.8-8.4 11-11.3-2.6 9.8-1.4 12 0 13.6 5.9-3.7 8.1-10.2 7.8-18.7a41 41 0 0 1 3.1 22.3c2-7.5 6.9-14.8 16.3-22.3-6.2 8.8-4.9 14.6-1.6 19.5 3.3-10.5 3-15.7 12.5-25.2-3.1 8-3.1 14.4 0 19.3.4-7 2.9-13.6 7-20-1.6 3.4-3 12.9-.8 14.5a76.2 76.2 0 0 1 11.6-20.5c-4.4 8-8.4 18.9-5.4 26.3l3.9 7.8a35 35 0 0 0 6.2-19.6c3.6 4.7 3.3 11.3 2.3 18.4 5-10.4 11.8-19 21-25.3a42.4 42.4 0 0 0-10.1 26.8c4.4-7.2 9-14.4 15.5-20.8-2.3 5.6-4.6 7.2-4.8 12l2.5 6.2c4-2.5 6-2 5.4-3.7 2.3 1.2 1.8 2.8.8 4.5 4.6-1.4 8-3.7 9.3-7.5 2.3 1.7 1.5 4.6-1.6 8.4 4.5-1.8 8.1-4.5 10.1-9 1.8-.3 3 2 4 5.7.4-6.1 1.9-11.6 7.7-14.2a15.3 15.3 0 0 0-1.6 12.7l7-11.5-5.4-7.5 13.2 8.7-3.1 13.9 6.2-7.4-2.3-12.8 11.6 19v-9.4l-7.8-14.4a41.7 41.7 0 0 1 19.4 22.6c3.5-3 2.7-7.3 1.6-11.8 5.2 4.6 8 10 5.4 17.8 4-2.3 7.2-4.9 3.1-9.3 3.1.8 5.1 3.5 7.8 6.3.6-7-.7-14-6.2-21.1 4.6 3.9 9 8.1 11.6 14.8.8 3.6 3.3 5 6.2 5.7.3-5.9.4-11.8-3.8-17.5-1.2-2.4-3.4-4.1-5.5-6 9.7 4.5 15.5 13 20.2 22.3.5-3.9.1-8-2.3-12.7 5.9 4.6 9.7 10.2 13.2 16l.8-11.4 7.7 7.2c-1.7-11-.1-18.3 2.3-24.4l4 11.7c3.1-8 7.9-12.2 13.1-15.4-5.1 7.5-8.6 14.8-5.4 21.5l4.7 6.3c4.4-6.6 7.8-13.5 7-21.7 7.5 6 6.6 14.7 4.6 23.8l11-13.3c2-2.2 3-10.3 1.5-13.8 6 3.3 7.5 9.5 9.4 14l4.5 8.5c5.5-4 5.6-5.8 5.4-8 .4-2.6-2.3-6.6-6.2-9.1a69.8 69.8 0 0 1 24.8 16.3c3.6-4.7 0-10.1-7.7-16 11.3 3.4 18.4 9.7 18.6 20.5l5.4-7.9c1.8-5.9-3.3-8.4-7-11.7a49.9 49.9 0 0 1 22.6 17.2c.6-4 .5-7.8-13.2-19a68.6 68.6 0 0 1 24.8 17.2c.4-4.2-2-8.8-8.5-14.2 8 4 13.3 8.6 16.3 13.9 3.1-2.4 3.3-7-4-16.6 5.3 3.3 9 7.3 11 11.7 2.7-5.8 1.4-7.8 0-9.6 4.5 2.9 7.3 8.1 8.5 15.4a23.8 23.8 0 0 1 5.4-18.1v37.4l-.7-.3H722.2z" transform="translate(-9.9 461)"/><path style="fill:url(#F);fill-rule:evenodd" d="M13.7 514c0-15.6.6-29.5 2.2-40-.9 23.5.4 44.1 1.6 65 .5-27.7 2.4-51.7 7.4-68.2A348.8 348.8 0 0 0 22 539c1.2-24 3.4-46.5 8-65-2 15-3.5 30-3.4 46 2.5-8 4.3-17.4 5-30.2.1 12.4-1.2 28.3-2.8 45.2 2.2-11 4.4-22 5.2-42 1.3 12.6 1.4 25.6 1.3 38.8.6-17.7 1.2-35.3 3.7-46.6-1.5 14-.3 28.6 1.5 43.3 1.5-15 3.4-29.5 2.5-48.5.9 2 1.6 4.9 1.8 10.5.8-13.1 2.2-18 3.7-21.7-2.8 21.7-3.2 35-3.4 47.9 2.1-18.9 4.4-33.8 7.1-39.3a162.2 162.2 0 0 0-2.8 50.4c1-14.1 2-28.1 5.6-37.3-2.8 19.4-2.7 33.1-2.8 47.2 2.4-27 5.7-51.3 10.5-71.5-2 12.5-3 23.2-2.5 30.8 3.1-6.3 6-21.1 9-38 0 11.2-7.8 59-9 66.2 4.5-10.4 6.9-29.5 9.3-48.5-.7 16.2-2 34.1-5.6 58.3a370 370 0 0 0 8.4-49.1c-.1 13.9-1.4 28.3-3.7 43.2 1.3-3.5 2.8-5.5 3.7-15.7a46 46 0 0 1 0 14.4c1.3-5.2 4.3-28.6 3.8-31.8 1.2 1.4.6 24.5-.4 28.6 3.5 1 6.4-23.2 3.7-34.8 3 5.5 3.6 17 1.5 35.4 1.8-13.5 4.4-25.7 8-36-3.4 13.7-1.7 24.3-2 38 1-12.8 1-26 6.3-47.2a65.8 65.8 0 0 0 2.6 29.5c2-7.7 2-15.9 2-28.9 1.7 10.2 2.9 23.4 2.8 41.3 1.3-11.7 2-26 2.2-42.6 1.7 17.8 2.2 27.9 2.2 48.1a130 130 0 0 1 3-23.8c-.2 5.5.4 10.3 1.9 14.4.2-11.4 1.4-19.1 3-25a73 73 0 0 0 1.6 27.6c1.7-8.5 3-20.5 4-36 .5 12.9 1.2 27.3 0 50.3 2.2-7.1 3.9-16.1 2.5-37.9 2.7 12.5 3.4 18.6 2.9 34.6 2.7-15.6 3.2-27 2.6-49.7 1.9 11.5 2 17.4 2.7 43.6 1.2-10.2 2.7-18.3 4.4-24.5-1 21.1-.6 25.9 0 29.4 2.3-8 3.2-22 3.1-40.6 1.2 12.3 1.6 28.5 1.2 48.5a273 273 0 0 1 6.5-48.5c-2.5 19.2-2 31.7-.6 42.5 1.3-22.8 1.2-34.2 5-55a234 234 0 0 0 0 42 399 399 0 0 1 2.7-43.2c-.6 7.3-1.2 27.8-.3 31.3.8-11.6 3-35.7 4.6-44.5a376 376 0 0 0-2.1 57.2l1.5 16.9c1.4-12.8 2.6-26 2.5-42.6 1.4 10.1 1.3 24.6.9 40 2-22.6 4.7-41.2 8.3-55-3.2 22.7-3.9 40.8-4 58.3 1.8-15.8 3.6-31.3 6.2-45.3-1 12.2-1.9 15.7-2 26.1l1 13.5c1.6-5.4 2.4-4.4 2.2-8.1 1 2.6.7 6.2.3 9.8 1.9-3 3.2-8 3.7-16.4 1 3.8.6 10.1-.6 18.4 1.8-3.9 3.2-9.9 4-19.7.7-.6 1.2 4.3 1.5 12.5.2-13.4.8-25.2 3.1-30.8-1 9-1 18.2-.6 27.5l2.8-25-2.2-16.3 5.3 19-1.3 30.2 2.5-16-1-28 4.7 41.3v-20.3l-3-31.4c3.2 10 6 25.1 7.6 49.1 1.4-6.4 1-16 .7-25.5 2 9.8 3.2 21.8 2.1 38.6a40 40 0 0 0 1.2-20.3c1.3 2 2 7.7 3.1 13.8.3-15.3-.2-30.6-2.4-45.9 1.8 8.5 3.6 17.6 4.6 32.1.3 8 1.3 10.8 2.5 12.5 0-12.8.1-25.6-1.6-38-.4-5.3-1.3-9-2.1-13.2 3.8 10 6 28.2 8 48.5.2-8.4 0-17.3-1-27.5 2.4 9.9 4 22 5.3 34.8l.3-25 3 15.8c-.6-24 0-39.7 1-53.1l1.5 25.6c1.3-17.4 3.2-26.6 5.3-33.5-2 16.2-3.4 32.1-2.2 46.6l1.9 13.7c1.8-14.3 3.1-29.4 2.7-47.2 3 13.1 2.7 32 1.9 51.8l4.4-28.8c.8-5 1.2-22.4.6-30 2.4 7 3 20.6 3.7 30.4l1.8 18.4a78.2 78.2 0 0 0-.3-37.2 145 145 0 0 1 9.8 35.4c1.5-10 0-21.9-3-34.7 4.5 7.4 7.3 21 7.4 44.5l2.1-17c.7-12.9-1.3-18.4-2.8-25.6a141 141 0 0 1 9 37.4c.2-8.6.2-17-5.3-41.3 3.7 8.4 7 20.3 10 37.4 0-9-.9-19-3.5-30.8 3.2 8.6 5.3 18.7 6.5 30.1 1.3-5.2 1.3-15-1.5-36 2 7.3 3.5 15.8 4.3 25.5 1-12.8.5-17 0-21 1.8 6.4 2.9 17.7 3.4 33.5-.3-20.5.9-30.1 2.1-39.3v81.2l-.3-.6H13.6z" transform="translate(-9.9 461)"/><path style="fill:url(#G);fill-rule:evenodd" d="M276.4 522c0-13.4.6-25.2 2.2-34-.9 19.9.3 37.5 1.4 55.3.5-23.6 2.3-44 7-58.1-3 17.4-3.6 37-2.7 58 1.2-20.4 3.2-39.6 7.6-55.3a248.5 248.5 0 0 0-3.2 39.2c2.3-6.8 4-14.8 4.6-25.7.2 10.5-1 24-2.6 38.5 2-9.5 4.2-18.7 5-35.8 1.2 10.7 1.3 21.8 1.1 33 .6-15 1.2-30 3.5-39.7a149 149 0 0 0 1.4 37c1.4-12.9 3.2-25.2 2.4-41.4.8 1.7 1.5 4.2 1.7 9 .8-11.3 2-15.4 3.5-18.5-2.7 18.4-3 29.8-3.2 40.8 2-16 4-28.8 6.6-33.6-3.9 17.6-4 31.1-2.6 43 .9-12 1.9-24 5.2-31.8-2.6 16.6-2.5 28.3-2.6 40.3 2.3-23 5.4-43.7 9.9-61-2 10.7-2.9 19.8-2.3 26.3 2.9-5.4 5.6-18 8.4-32.4 0 9.6-7.3 50.4-8.4 56.4 4.1-8.9 6.4-25.2 8.7-41.3-.7 13.8-2 29-5.3 49.7 3-11.7 5.9-24 7.9-41.9 0 11.9-1.3 24.2-3.5 36.9 1.3-3 2.7-4.8 3.5-13.4.6 3.1.7 7 0 12.3 1.2-4.5 4-24.4 3.6-27.2 1.1 1.2.5 20.9-.4 24.4 3.3 1 6-19.8 3.4-29.6 2.8 4.7 3.5 14.4 1.5 30.1 1.7-11.4 4-21.9 7.5-30.7-3.2 11.7-1.6 20.8-2 32.5 1-11 1-22.2 6-40.3a51.2 51.2 0 0 0 2.5 25.1c1.8-6.5 1.8-13.5 2-24.6 1.4 8.7 2.6 20 2.5 35.2 1.2-10 1.8-22.1 2-36.3a341 341 0 0 1 2.1 41c.7-9.6 1-11.3 2.9-20.3-.2 4.7.3 8.8 1.7 12.3.2-9.7 1.3-16.3 2.9-21.2-1 8.2-.7 16 1.5 23.4A210 210 0 0 0 375 497c.5 11 1.1 23.3 0 42.9 2-6 3.6-13.7 2.3-32.3a87.5 87.5 0 0 1 2.8 29.5c2.5-13.3 3-23 2.4-42.4 1.8 9.8 2 14.8 2.6 37.2 1.1-8.7 2.5-15.6 4.1-21-1 18.1-.5 22.2 0 25.2 2.2-6.8 3-18.9 3-34.6 1 10.4 1.4 24.3 1 41.3.8-13.9 2.6-27.4 6.2-41.3-2.4 16.3-1.9 27-.6 36.2 1.2-19.5 1-29.2 4.6-46.9a181.1 181.1 0 0 0 0 35.8c.2-13 1-25.2 2.6-36.9a174 174 0 0 0-.3 26.7 466 466 0 0 1 4.4-37.9c-1.7 14.8-3.2 35-2 48.8l1.4 14.4c1.3-10.9 2.4-22.1 2.3-36.3 1.4 8.6 1.2 21 .9 34 1.8-19.2 4.4-35 7.8-46.9-3 19.4-3.7 34.9-3.8 49.8 1.7-13.5 3.4-26.7 5.8-38.6-.8 10.4-1.7 13.3-1.8 22.2l1 11.5c1.5-4.6 2.2-3.7 2-6.9.9 2.3.6 5.3.3 8.4 1.7-2.6 3-7 3.5-14 .8 3.2.5 8.6-.6 15.7a47 47 0 0 0 3.7-16.8c.7-.5 1.1 3.7 1.5 10.6.2-11.3.7-21.4 2.9-26.2-1 7.6-1 15.5-.6 23.4l2.6-21.2-2-14 5 16.2-1.2 25.7 2.3-13.6-.9-23.8 4.3 35.2v-17.3l-2.8-26.9c3 8.6 5.6 21.5 7.2 42 1.3-5.5 1-13.6.6-21.8 2 8.4 3 18.6 2 33 1.4-4.4 2.7-9.1 1.2-17.4 1.1 1.6 1.9 6.6 2.9 11.8.2-13-.3-26.1-2.4-39.2a161 161 0 0 1 4.4 27.4c.3 6.8 1.2 9.2 2.3 10.6.1-10.9.1-21.8-1.4-32.4-.5-4.4-1.3-7.7-2-11.2 3.5 8.5 5.7 24 7.5 41.4.1-7.2 0-14.8-1-23.5 2.3 8.4 3.7 18.8 5 29.7l.3-21.3 2.9 13.4c-.6-20.4 0-33.8.9-45.2l1.4 21.8c1.2-14.9 3-22.7 5-28.5a175 175 0 0 0-2 39.6l1.7 11.8c1.6-12.2 2.9-25 2.6-40.3 2.8 11.2 2.4 27.3 1.7 44.2l4.1-24.6c.7-4.2 1.2-19 .6-25.6 2.2 6 2.8 17.6 3.5 26l1.7 15.7c2-7.3 2-10.8 2-15 .1-4.7-.9-12.1-2.3-16.8 3 6.4 6 14 9.2 30.2 1.4-8.5 0-18.7-2.9-29.6 4.3 6.4 7 18 7 38l2-14.5c.7-11-1.3-15.7-2.6-21.8 3.6 8.5 6.8 18.2 8.4 31.8.2-7.3.2-14.5-5-35.2 3.5 7.2 6.7 17.3 9.3 31.9.2-7.7-.7-16.3-3.1-26.3 3 7.4 5 16 6 25.7 1.2-4.4 1.3-12.8-1.4-30.7 2 6.2 3.3 13.5 4 21.8a62 62 0 0 0 0-18 124 124 0 0 1 3.2 28.6 182 182 0 0 1 2-33.5V565l-.2-.6H276.3z" transform="translate(-9.9 461)"/><path style="fill:url(#H);fill-rule:evenodd" d="M1047.3 519.4a231 231 0 0 0-2.3-37.3c.9 21.8-.5 41-1.6 60.4-.5-25.7-2.6-48-7.6-63.4 3.3 19 3.9 40.5 2.8 63.4a293.9 293.9 0 0 0-8.2-60.4c2 13.9 3.6 28 3.5 42.7a102 102 0 0 1-5.1-28c-.2 11.5 1.1 26.3 2.8 42-2.2-10.3-4.5-20.4-5.3-39a280.4 280.4 0 0 0-1.3 36c-.6-16.4-1.3-32.8-3.8-43.3 1.5 13 .3 26.6-1.6 40.3-1.5-14-3.4-27.5-2.5-45.2-1 2-1.7 4.6-2 9.8a55.3 55.3 0 0 0-3.7-20.1c2.9 20 3.3 32.5 3.5 44.5-2.2-17.5-4.5-31.5-7.3-36.6 4.2 19.2 4.3 34 2.8 47-1-13.2-2-26.2-5.7-34.8 2.9 18 2.8 30.8 2.9 44-2.4-25.1-5.8-47.8-10.8-66.6 2 11.7 3.1 21.6 2.5 28.7-3.1-6-6.2-19.7-9.1-35.4 0 10.4 8 55 9.1 61.6-4.5-9.7-7-27.5-9.5-45.1.8 15 2.1 31.7 5.7 54.3A315.2 315.2 0 0 1 987 493c0 13 1.4 26.4 3.8 40.3-1.4-3.3-3-5.2-3.8-14.7a39 39 0 0 0 0 13.5c-1.4-5-4.5-26.7-4-29.7-1.2 1.4-.5 22.8.5 26.6-3.6 1-6.7-21.5-3.8-32.3-3 5.1-3.8 15.7-1.6 33-1.9-12.6-4.5-24-8.2-33.6 3.5 12.8 1.7 22.7 2.1 35.5-1.1-12-1-24.3-6.6-44a55.9 55.9 0 0 1-2.6 27.4c-2-7.2-2-14.8-2.1-26.9-1.7 9.5-3 21.8-2.9 38.5-1.2-11-2-24.2-2.2-39.7a372 372 0 0 0-2.3 44.8c-.7-10.5-1-12.4-3-22.2.1 5.1-.5 9.6-2 13.4a80.9 80.9 0 0 0-3.1-23.2c1.1 9 .7 17.6-1.6 25.6a229 229 0 0 1-4.1-33.5c-.5 12-1.2 25.4 0 46.9-2.3-6.7-4-15-2.6-35.3a95.4 95.4 0 0 0-3 32.2 189 189 0 0 1-2.7-46.3 245 245 0 0 0-2.8 40.6c-1.2-9.5-2.7-17-4.5-22.8 1.1 19.7.6 24 0 27.4-2.3-7.5-3.3-20.6-3.1-37.8a391.6 391.6 0 0 0-1.3 45.1c-.8-15.2-2.8-30-6.7-45.1 2.6 17.8 2 29.5.7 39.5-1.3-21.2-1.2-31.8-5-51.1 1.2 16.2 1.2 29.3 0 39-.2-14-1.3-27.4-3-40.2.7 6.8 1.3 25.9.4 29.1a508 508 0 0 0-4.8-41.3c1.8 16 3.5 38.1 2.2 53.2l-1.5 15.7a298.4 298.4 0 0 1-2.6-39.7c-1.4 9.4-1.3 23-1 37.3-2-21-4.8-38.4-8.5-51.3 3.3 21.2 4 38 4.1 54.3a554.6 554.6 0 0 0-6.3-42c1 11.3 1.9 14.5 2 24.2l-1 12.6c-1.7-5-2.5-4.2-2.3-7.6-1 2.5-.7 5.7-.3 9.2a32.1 32.1 0 0 1-3.8-15.3c-1 3.5-.6 9.4.7 17a51.3 51.3 0 0 1-4.2-18.2c-.7-.6-1.1 4-1.5 11.6a91.1 91.1 0 0 0-3.2-28.7c1 8.4 1 17 .6 25.6l-2.8-23.2 2.2-15.2-5.4 17.7 1.3 28-2.6-14.8 1-26-4.8 38.4v-19l3.2-29.2c-3.4 9.3-6.2 23.4-8 45.8-1.4-6-1-14.9-.6-23.8a119 119 0 0 0-2.2 36 34 34 0 0 1-1.2-19c-1.3 1.8-2.1 7.2-3.2 12.9-.3-14.3.3-28.5 2.5-42.7-1.9 7.9-3.7 16.4-4.7 29.9-.4 7.4-1.4 10-2.6 11.6 0-12-.1-23.9 1.6-35.4.5-5 1.4-8.4 2.2-12.3-4 9.3-6.3 26.2-8.2 45.2-.2-7.8 0-16.1 1-25.6-2.5 9.2-4 20.5-5.4 32.3l-.4-23.2-3.1 14.7c.7-22.3 0-37-1-49.5l-1.6 23.9a126.7 126.7 0 0 0-5.3-31.2c2 15.1 3.5 29.9 2.2 43.4l-2 12.8a269.3 269.3 0 0 1-2.8-44c-3 12.2-2.7 29.9-1.9 48.2l-4.5-26.8a176 176 0 0 1-.6-28c-2.4 6.7-3 19.2-3.8 28.3l-1.8 17.3c-2.3-8-2.3-11.8-2.3-16.4-.1-5 1-13.2 2.6-18.3-3.3 7-6.7 15.2-10.2 33-1.4-9.4 0-20.4 3.2-32.4-4.6 7-7.5 19.6-7.6 41.5l-2.2-15.9c-.8-12 1.4-17 2.8-23.8-4 9.4-7.4 20-9.2 34.8-.2-8-.2-15.8 5.4-38.4-3.7 7.8-7.2 18.8-10.1 34.8-.2-8.4.8-17.8 3.5-28.7-3.3 8-5.4 17.4-6.7 28-1.3-4.8-1.3-14 1.6-33.5a112 112 0 0 0-4.4 23.8 67.6 67.6 0 0 1 0-19.5c-1.9 5.9-3 16.4-3.5 31.1.3-19-1-28-2.2-36.6v75.7l.3-.7h275.2z" transform="translate(-9.9 461)"/><path style="fill:url(#I);fill-rule:evenodd" d="M777.2 528.3c0-12.6-.6-23.7-2.2-32 .9 18.7-.3 35.2-1.4 52-.5-22.3-2.3-41.5-7-54.7 3 16.4 3.6 34.9 2.7 54.6a238.8 238.8 0 0 0-7.6-52c1.9 12 3.3 24 3.2 36.8-2.3-6.3-4-14-4.6-24.2-.2 10 1 22.7 2.6 36.3-2-9-4.2-17.6-5-33.6a227 227 0 0 0-1.1 31c-.6-14.2-1.2-28.3-3.5-37.3 1.4 11.2.3 22.8-1.4 34.6-1.4-12-3.2-23.6-2.4-38.8-.8 1.6-1.5 4-1.7 8.4-.8-10.5-2-14.4-3.5-17.3 2.7 17.3 3 28 3.2 38.3-2-15.1-4-27-6.6-31.5 3.9 16.5 4 29.2 2.6 40.4a97.8 97.8 0 0 0-5.2-30c2.6 15.6 2.5 26.6 2.6 37.9a351 351 0 0 0-9.9-57.3c2 10 2.9 18.6 2.3 24.7-2.9-5-5.6-17-8.4-30.4 0 9 7.3 47.3 8.4 53-4.1-8.4-6.4-23.7-8.7-38.9.7 13 2 27.4 5.3 46.8-3-11-5.9-22.5-7.9-39.4 0 11.1 1.3 22.7 3.5 34.7-1.3-2.9-2.7-4.5-3.5-12.7-.6 3-.7 6.7 0 11.6-1.2-4.2-4-22.9-3.6-25.5-1.1 1.1-.5 19.6.4 22.9-3.3.9-6-18.6-3.4-27.9-2.8 4.5-3.5 13.6-1.5 28.4a130.8 130.8 0 0 0-7.5-28.9c3.2 11 1.6 19.5 2 30.6-1-10.3-1-20.9-6-38 1.4 12-.3 17-2.5 23.7-1.8-6.2-1.8-12.7-2-23.1a177 177 0 0 0-2.5 33c-1.2-9.3-1.8-20.8-2-34-1.6 14.2-2.1 22.3-2.1 38.5-.7-9-1-10.6-2.9-19.1.2 4.4-.3 8.2-1.7 11.5a65.8 65.8 0 0 0-2.9-20 50 50 0 0 1-1.5 22.1 186 186 0 0 1-3.7-28.8c-.5 10.3-1.1 21.8 0 40.3-2-5.7-3.6-13-2.3-30.4-2.6 10-3.3 15-2.8 27.7-2.5-12.4-3-21.7-2.4-39.8-1.8 9.2-2 14-2.6 34.9-1.1-8.1-2.5-14.6-4.1-19.6 1 17 .5 20.7 0 23.6-2.2-6.4-3-17.7-3-32.6a317 317 0 0 0-1 38.9c-.8-13-2.6-25.8-6.2-38.9 2.4 15.4 1.9 25.4.6 34-1.2-18.2-1-27.3-4.6-44a160 160 0 0 1 0 33.7c-.2-12.2-1-23.7-2.6-34.7.6 5.9 1 22.3.3 25.1-.8-9.2-2.8-28.6-4.4-35.6 1.7 13.9 3.2 32.9 2 45.8l-1.4 13.5a241.7 241.7 0 0 1-2.3-34c-1.4 8-1.2 19.6-.9 32-1.8-18.1-4.4-33-7.8-44.1 3 18.2 3.7 32.7 3.8 46.7-1.7-12.6-3.4-25-5.8-36.2.8 9.7 1.7 12.5 1.8 20.8l-1 10.9c-1.5-4.4-2.2-3.6-2-6.6-.9 2.1-.6 5-.3 8-1.7-2.5-3-6.6-3.5-13.2-.8 3-.5 8 .6 14.7-1.7-3-3-8-3.7-15.7-.7-.5-1.1 3.4-1.5 10a74 74 0 0 0-2.9-24.7c1 7.1 1 14.5.6 22l-2.6-20 2-13-5 15.2 1.2 24.1-2.3-12.8.9-22.4-4.3 33v-16.2l2.8-25.2c-3 8-5.6 20.2-7.2 39.4-1.3-5.2-1-12.8-.6-20.5-2 8-3 17.5-2 31-1.4-4.1-2.7-8.5-1.2-16.3-1.1 1.5-1.9 6.2-2.9 11-.2-12.2.3-24.4 2.4-36.7-1.8 6.8-3.4 14.1-4.4 25.7-.3 6.4-1.2 8.7-2.3 10a181 181 0 0 1 1.4-30.5c.5-4.1 1.3-7.2 2-10.5-3.5 8-5.7 22.6-7.5 38.9-.1-6.8 0-13.9 1-22a203 203 0 0 0-5 27.8l-.3-20-2.9 12.6c.6-19.1 0-31.7-.9-42.5l-1.4 20.5c-1.2-14-3-21.3-5-26.8 2 13 3.3 25.7 2 37.3l-1.7 11c-1.6-11.5-2.9-23.5-2.6-37.8a150.8 150.8 0 0 0-1.7 41.5l-4.1-23.1c-.7-4-1.2-18-.6-24-2.2 5.6-2.8 16.4-3.5 24.3l-1.7 14.8a54 54 0 0 1 .3-29.8c-3 6-6 13-9.2 28.3-1.4-8 0-17.5 2.9-27.8-4.3 6-7 16.8-7 35.7l-2-13.7c-.7-10.3 1.3-14.7 2.6-20.4-3.6 8-6.8 17.1-8.4 29.9a99 99 0 0 1 5-33c-3.5 6.6-6.7 16.1-9.3 29.9a89 89 0 0 1 3.1-24.7c-3 6.9-5 15-6 24.1-1.2-4.2-1.3-12 1.4-28.8-2 5.8-3.3 12.6-4 20.4-1-10.2-.6-13.6 0-16.8-1.7 5-2.8 14.2-3.2 26.8.2-16.4-.9-24.1-2-31.5v65.1l.2-.5h251.7z" transform="translate(-9.9 461)"/><path style="fill:url(#J);fill-rule:evenodd" d="M1399.7 514.2c0-14.7-.6-27.7-2.3-37.5.9 22-.5 41.3-1.6 60.8-.5-26-2.5-48.4-7.6-63.8a299 299 0 0 1 2.9 63.8 298 298 0 0 0-8.2-60.8c2 14 3.6 28.1 3.4 43-2.5-7.4-4.4-16.3-5-28.2-.2 11.6 1.1 26.5 2.8 42.3-2.2-10.4-4.5-20.5-5.4-39.3a284.5 284.5 0 0 0-1.2 36.2c-.7-16.5-1.3-33-3.8-43.5 1.5 13 .3 26.7-1.6 40.5-1.5-14.1-3.4-27.6-2.5-45.4a25 25 0 0 0-1.9 9.8 56 56 0 0 0-3.8-20.2c3 20.2 3.3 32.7 3.5 44.7-2.1-17.6-4.5-31.6-7.3-36.8 4.3 19.3 4.4 34.2 2.9 47.3-1-13.3-2-26.4-5.7-35 2.8 18.2 2.7 31 2.8 44.2-2.4-25.2-5.8-48-10.7-67 2 11.8 3.1 21.8 2.5 29-3.1-6-6.1-19.9-9.1-35.7 0 10.6 8 55.4 9.1 62-4.5-9.8-7-27.6-9.4-45.4.7 15.1 2 32 5.6 54.6a319.6 319.6 0 0 1-8.5-46c0 13 1.4 26.5 3.8 40.5-1.4-3.3-3-5.2-3.8-14.7-.7 3.4-.8 7.7 0 13.5-1.4-5-4.5-26.8-3.9-29.8-1.3 1.3-.6 22.9.4 26.7-3.6 1-6.6-21.7-3.7-32.5-3 5.1-3.8 15.8-1.6 33.1-1.9-12.6-4.5-24-8.2-33.7 3.4 12.9 1.7 22.8 2.1 35.7-1.1-12-1-24.4-6.5-44.3a56.7 56.7 0 0 1-2.7 27.6c-2-7.2-2-14.9-2-27-1.7 9.5-3 21.9-3 38.6-1.2-10.9-1.9-24.3-2.1-39.8-1.7 16.6-2.3 26-2.3 45-.7-10.6-1-12.4-3-22.3.1 5.1-.5 9.6-2 13.5a82 82 0 0 0-3.1-23.4c1.1 9 .7 17.8-1.6 25.8-1.8-8-3.2-19.2-4.1-33.7-.5 12-1.2 25.5 0 47-2.3-6.6-4-15-2.5-35.4a96.8 96.8 0 0 0-3 32.4 191.8 191.8 0 0 1-2.7-46.5c-1.9 10.7-2 16.2-2.8 40.8a151 151 0 0 0-4.5-23c1.1 19.8.6 24.3 0 27.6-2.4-7.5-3.3-20.7-3.1-38a397.6 397.6 0 0 0-1.3 45.4 235 235 0 0 0-6.6-45.4c2.5 18 2 29.7.6 39.7-1.3-21.3-1.2-32-5-51.4 1.2 16.4 1.2 29.5 0 39.3-.2-14.2-1.2-27.6-2.9-40.5.7 6.9 1.2 26 .3 29.3-.8-10.8-3-33.4-4.7-41.6 1.8 16.2 3.4 38.4 2.2 53.5l-1.6 15.9c-1.4-12-2.6-24.4-2.5-40-1.5 9.5-1.3 23.1-1 37.5-2-21.1-4.8-38.6-8.5-51.5 3.4 21.2 4 38.2 4.1 54.6a562.6 562.6 0 0 0-6.3-42.4c1 11.4 2 14.7 2 24.4l-1 12.7c-1.6-5-2.5-4.2-2.2-7.6-1 2.4-.7 5.8-.3 9.2a32.5 32.5 0 0 1-3.8-15.4c-1 3.5-.6 9.5.6 17.2a52 52 0 0 1-4.1-18.4c-.7-.5-1.2 4-1.6 11.7a92.4 92.4 0 0 0-3.1-28.9c1 8.5 1 17 .6 25.8l-2.8-23.3 2.2-15.3-5.4 17.7 1.3 28.3-2.6-15 1-26.2-4.8 38.7v-19l3.2-29.5a181 181 0 0 0-7.9 46c-1.4-6-1-14.9-.6-23.9-2.1 9.2-3.3 20.5-2.2 36.2-1.6-4.8-3-9.9-1.3-19-1.2 1.8-2 7.2-3.1 13-.3-14.4.2-28.7 2.5-43a178 178 0 0 0-4.7 30c-.4 7.5-1.4 10.1-2.6 11.7-.1-12-.1-24 1.6-35.6.5-5 1.4-8.5 2.2-12.3-4 9.3-6.3 26.3-8.2 45.4-.2-7.9 0-16.2 1-25.7-2.5 9.2-4 20.6-5.4 32.5l-.3-23.3-3.2 14.7c.7-22.4 0-37.2-1-49.7l-1.5 24a128.4 128.4 0 0 0-5.4-31.4c2.1 15.2 3.5 30 2.2 43.6L1180 527a273.2 273.2 0 0 1-2.8-44.2c-3 12.2-2.7 30-1.9 48.5l-4.5-27c-.8-4.6-1.2-21-.6-28.1-2.4 6.6-3 19.3-3.8 28.4l-1.8 17.3a67.4 67.4 0 0 1 .3-34.8 127 127 0 0 0-10.1 33.1c-1.4-9.4 0-20.5 3.2-32.5-4.7 7-7.6 19.7-7.6 41.7l-2.2-16c-.8-12 1.3-17.1 2.8-23.9-4 9.4-7.4 20-9.1 35-.3-8-.3-15.9 5.3-38.6-3.7 7.8-7.2 19-10 35-.2-8.5.7-17.9 3.4-29-3.2 8.2-5.4 17.6-6.6 28.3-1.3-4.9-1.4-14.1 1.6-33.7-2.2 6.8-3.7 14.8-4.5 23.9-1-12-.6-16 0-19.6-1.8 5.9-3 16.5-3.4 31.3.2-19.2-1-28.2-2.2-36.9v76.1l.3-.6 270.4 5.7z" transform="translate(-9.9 461)"/><path style="fill:url(#K);fill-rule:evenodd" d="M1130.6 524.7c0-13-.6-24.7-2.1-33.4.8 19.6-.4 36.8-1.5 54.2-.5-23.1-2.3-43.1-7-57 3.1 17.2 3.6 36.4 2.7 57a259 259 0 0 0-7.6-54.2c2 12.4 3.3 25 3.2 38.4a90 90 0 0 1-4.6-25.2 331 331 0 0 0 2.6 37.7c-2-9.2-4.1-18.3-5-35a247 247 0 0 0-1 32.3c-.7-14.7-1.3-29.5-3.6-38.9a143 143 0 0 1-1.4 36.2c-1.4-12.6-3.2-24.7-2.3-40.6-.9 1.8-1.6 4.2-1.8 8.8-.7-11-2-15-3.5-18 2.7 18 3 29.2 3.2 40-2-15.8-4-28.3-6.6-33 3.9 17.3 4 30.5 2.6 42.2a106 106 0 0 0-5.2-31.2c2.6 16.2 2.5 27.7 2.6 39.4a380.4 380.4 0 0 0-9.9-59.6c2 10.4 2.9 19.3 2.3 25.7-2.9-5.3-5.6-17.7-8.4-31.8a662 662 0 0 0 8.4 55.3c-4.1-8.7-6.4-24.6-8.7-40.5.7 13.5 2 28.5 5.3 48.7a278 278 0 0 1-7.9-41c.1 11.6 1.3 23.6 3.5 36.1-1.3-3-2.7-4.6-3.5-13.1-.6 3-.7 6.9 0 12-1.2-4.4-4-23.9-3.6-26.6a91 91 0 0 0 .5 23.9c-3.4.9-6.1-19.4-3.5-29-2.8 4.6-3.5 14.1-1.5 29.5a141 141 0 0 0-7.5-30c3.2 11.4 1.6 20.3 2 31.8-1-10.8-1-21.8-6-39.6a49.2 49.2 0 0 1-2.5 24.7c-1.8-6.4-1.8-13.3-1.9-24.1-1.5 8.5-2.7 19.5-2.6 34.5-1.2-9.8-1.8-21.7-2-35.6-1.6 14.9-2 23.3-2.1 40.2-.7-9.5-1-11-2.9-20 .2 4.7-.3 8.7-1.7 12.1-.2-9.5-1.3-16-2.9-20.8 1 8 .7 15.8-1.4 23-1.7-7.1-3-17.2-3.8-30.1-.5 10.8-1.1 22.8 0 42-2-6-3.6-13.4-2.3-31.6a84 84 0 0 0-2.7 28.9c-2.6-13-3-22.6-2.5-41.5-1.8 9.6-2 14.5-2.6 36.3-1.1-8.4-2.5-15.2-4.1-20.4 1 17.7.5 21.6 0 24.6-2.2-6.7-3-18.5-2.9-34-1 10.3-1.5 23.9-1.2 40.6-.7-13.6-2.5-27-6-40.5 2.3 16 1.8 26.4.5 35.4-1.2-19-1-28.5-4.6-45.8 1.2 14.6 1.2 26.2 0 35a297 297 0 0 0-2.6-36.1 167 167 0 0 1 .3 26.1c-.8-9.6-2.8-29.8-4.4-37 1.7 14.3 3.2 34.2 2 47.7l-1.4 14a262.8 262.8 0 0 1-2.3-35.5c-1.3 8.4-1.2 20.6-.9 33.4a261.2 261.2 0 0 0-7.8-46c3 19 3.7 34.1 3.8 48.7a489 489 0 0 0-5.8-37.7c.8 10.1 1.7 13 1.8 21.7l-1 11.3c-1.4-4.5-2.2-3.7-2-6.8-.9 2.2-.6 5.2-.3 8.2-1.7-2.5-3-6.7-3.4-13.6a41 41 0 0 0 .5 15.3c-1.6-3.2-3-8.3-3.7-16.4-.7-.5-1.1 3.6-1.5 10.4-.1-11.2-.7-21-2.9-25.8 1 7.5 1 15.2.6 23l-2.6-20.8 2-13.7-5 16 1.3 25.1-2.4-13.4 1-23.3-4.4 34.5v-17l2.9-26.2c-3.2 8.3-5.7 21-7.3 41a85 85 0 0 1-.6-21.3c-2 8.2-3 18.2-2 32.3a30 30 0 0 1-1.2-17c-1.1 1.6-1.9 6.4-2.8 11.5-.3-12.8.2-25.6 2.3-38.3-1.8 7-3.4 14.7-4.4 26.8-.3 6.7-1.2 9-2.3 10.4-.1-10.7-.1-21.4 1.5-31.8.4-4.3 1.2-7.5 2-11-3.6 8.4-5.8 23.6-7.5 40.6-.2-7 0-14.5.8-23a220 220 0 0 0-4.9 29l-.3-20.8-2.9 13.2c.6-20 0-33.2-.9-44.4l-1.4 21.4c-1.2-14.5-3-22.2-5-28a168 168 0 0 1 2.1 39l-1.7 11.4c-1.7-12-3-24.5-2.6-39.4a164 164 0 0 0-1.8 43.2l-4.1-24a155 155 0 0 1-.6-25.1c-2.2 6-2.8 17.2-3.5 25.4l-1.6 15.4a58.5 58.5 0 0 1 .3-31.1c-3 6.3-6.1 13.7-9.3 29.6-1.3-8.4 0-18.3 2.9-29-4.3 6.2-7 17.5-7 37.2l-2-14.2c-.7-10.8 1.3-15.4 2.6-21.4-3.6 8.4-6.8 18-8.4 31.2-.2-7.1-.2-14.2 5-34.5-3.5 7-6.7 17-9.3 31.3-.2-7.6.7-16 3.2-25.8-3 7.2-5 15.7-6.1 25.2-1.2-4.4-1.3-12.6 1.4-30.1-2 6-3.3 13.2-4 21.3-1-10.6-.6-14.2 0-17.5-1.7 5.3-2.8 14.8-3.2 28 .2-17.2-.9-25.2-2-33v68l.2-.6h251.7z" transform="translate(-9.9 461)"/><path fill="#fff" d="M1180.7-246.8c-10.2 0-18.7 6.2-20.8 14.6-21.8.2-40.7 5-50.9 11.8-3-2-6.8-3.3-10.8-3.3-10.3 0-18.7 8-18.7 17.8 0 1.2.1 2.4.4 3.5-15.3 5.5-25.1 14-25.1 23.4 0 16.6 30.3 30.1 67.7 30.1h3.3c-.5 2-.7 4.3-.7 6.6 0 14.1 9 25.6 20 25.6 5.6 0 10.7-3 14.3-7.8 4 3.6 9.3 5.8 15 5.8 9.2 0 17.2-5.7 21-13.9 9 2.1 19 3.3 29.5 3.3 38.4 0 69.5-15.5 69.5-34.6 0-13.7-16-25.6-39.1-31.2a17 17 0 0 0 5.3-11.8c0-14-20.8-25.4-46.3-25.4a83 83 0 0 0-12.7 1c-1.6-8.8-10.4-15.5-21-15.5z" style="stroke-width:.963915;stroke-dasharray:none" transform="translate(-9.9 461)"/><metadata/></svg>