<?xml version="1.0" encoding="utf-8"?>
<!-- Generator: Adobe Illustrator 24.1.1, SVG Export Plug-In . SVG Version: 6.00 Build 0)  -->
<svg version="1.1" id="Layer_1" xmlns="http://www.w3.org/2000/svg" xmlns:xlink="http://www.w3.org/1999/xlink" x="0px" y="0px"
	 viewBox="0 0 512 512" style="enable-background:new 0 0 512 512;" xml:space="preserve">
<g>
	<polygon points="457.6,32 336,32 336,0 512,0 512,176 480,176 480,54.4 310.4,224 288,201.6 	"/>
	<polygon points="457.6,32 336,32 336,0 512,0 512,176 480,176 480,54.4 310.4,224 288,201.6 	"/>
	<path d="M416,288h32v192c0,19.2-12.8,32-32,32H32c-19.2,0-32-12.8-32-32V96c0-19.2,12.8-32,32-32h224v32H32v384h384V288z"/>
</g>
</svg>
