<?xml version="1.0" encoding="UTF-8" standalone="no"?>
<svg
   width="512"
   height="512"
   viewBox="0 0 512 512"
   version="1.1"
   id="svg8"
   sodipodi:docname="person-circle.svg"
   inkscape:version="1.2.1 (9c6d41e410, 2022-07-14)"
   xmlns:inkscape="http://www.inkscape.org/namespaces/inkscape"
   xmlns:sodipodi="http://sodipodi.sourceforge.net/DTD/sodipodi-0.dtd"
   xmlns="http://www.w3.org/2000/svg"
   xmlns:svg="http://www.w3.org/2000/svg">
  <defs
     id="defs12" />
  <sodipodi:namedview
     id="namedview10"
     pagecolor="#ffffff"
     bordercolor="#000000"
     borderopacity="0.25"
     inkscape:showpageshadow="2"
     inkscape:pageopacity="0.0"
     inkscape:pagecheckerboard="0"
     inkscape:deskcolor="#d1d1d1"
     showgrid="false"
     inkscape:zoom="1.5898438"
     inkscape:cx="206.62408"
     inkscape:cy="256.3145"
     inkscape:window-width="2400"
     inkscape:window-height="1271"
     inkscape:window-x="2391"
     inkscape:window-y="-9"
     inkscape:window-maximized="1"
     inkscape:current-layer="svg8" />
  <title
     id="title2">ionicons-v5-j</title>
  <rect
     style="fill:#ffffff;stroke-width:0;fill-opacity:1"
     id="rect293"
     width="512"
     height="512"
     x="0"
     y="0" />
  <path
     d="M258.9,48C141.92,46.42,46.42,141.92,48,258.9,49.56,371.09,140.91,462.44,253.1,464c117,1.6,212.48-93.9,210.88-210.88C462.44,140.91,371.09,49.56,258.9,48ZM385.32,375.25a4,4,0,0,1-6.14-.32,124.27,124.27,0,0,0-32.35-29.59C321.37,329,289.11,320,256,320s-65.37,9-90.83,25.34a124.24,124.24,0,0,0-32.35,29.58,4,4,0,0,1-6.14.32A175.32,175.32,0,0,1,80,259C78.37,161.69,158.22,80.24,255.57,80S432,158.81,432,256A175.32,175.32,0,0,1,385.32,375.25Z"
     id="path4" />
  <path
     d="M256,144c-19.72,0-37.55,7.39-50.22,20.82s-19,32-17.57,51.93C191.11,256,221.52,288,256,288s64.83-32,67.79-71.24c1.48-19.74-4.8-38.14-17.68-51.82C293.39,151.44,275.59,144,256,144Z"
     id="path6" />
</svg>
