<?xml version="1.0" encoding="UTF-8" standalone="no"?>
<!-- Generator: Adobe Illustrator 18.0.0, SVG Export Plug-In . SVG Version: 6.00 Build 0)  -->

<svg
   version="1.1"
   x="0px"
   y="0px"
   width="423.05527"
   height="483.50674"
   viewBox="0 0 423.05527 483.50674"
   xml:space="preserve"
   id="svg68"
   sodipodi:docname="1418498461.svg"
   inkscape:version="1.2.1 (9c6d41e410, 2022-07-14)"
   xmlns:inkscape="http://www.inkscape.org/namespaces/inkscape"
   xmlns:sodipodi="http://sodipodi.sourceforge.net/DTD/sodipodi-0.dtd"
   xmlns="http://www.w3.org/2000/svg"
   xmlns:svg="http://www.w3.org/2000/svg"><defs
   id="defs72" /><sodipodi:namedview
   id="namedview70"
   pagecolor="#ffffff"
   bordercolor="#000000"
   borderopacity="0.25"
   inkscape:showpageshadow="2"
   inkscape:pageopacity="0.0"
   inkscape:pagecheckerboard="0"
   inkscape:deskcolor="#d1d1d1"
   showgrid="false"
   inkscape:zoom="1.4280702"
   inkscape:cx="136.89803"
   inkscape:cy="250.33784"
   inkscape:window-width="2400"
   inkscape:window-height="1271"
   inkscape:window-x="2391"
   inkscape:window-y="-9"
   inkscape:window-maximized="1"
   inkscape:current-layer="svg68" />
<style
   type="text/css"
   id="style2">
	.st0{fill:url(#SVGID_1_);}
	.st1{fill:none;stroke:#000000;stroke-width:0.5;stroke-miterlimit:10;}
	.st2{fill:url(#SVGID_2_);stroke:#000000;stroke-width:0.25;stroke-miterlimit:10;}
	.st3{display:none;}
</style>
<g
   id="Layer_2"
   transform="translate(-33.472365,-35.296622)">
	<g
   id="g39">
		<radialGradient
   id="SVGID_1_"
   cx="244.87"
   cy="277.79001"
   r="227.577"
   gradientUnits="userSpaceOnUse">
			<stop
   offset="0"
   style="stop-color:#29ABE2"
   id="stop4" />
			<stop
   offset="6.117653e-002"
   style="stop-color:#2EADE3"
   id="stop6" />
			<stop
   offset="0.1377"
   style="stop-color:#3EB3E5"
   id="stop8" />
			<stop
   offset="0.2225"
   style="stop-color:#57BDE8"
   id="stop10" />
			<stop
   offset="0.3132"
   style="stop-color:#7BCBED"
   id="stop12" />
			<stop
   offset="0.4086"
   style="stop-color:#A9DDF3"
   id="stop14" />
			<stop
   offset="0.5066"
   style="stop-color:#E0F3FB"
   id="stop16" />
			<stop
   offset="0.5567"
   style="stop-color:#FFFFFF"
   id="stop18" />
			<stop
   offset="0.608"
   style="stop-color:#D6EFF9"
   id="stop20" />
			<stop
   offset="0.6814"
   style="stop-color:#A2DAF2"
   id="stop22" />
			<stop
   offset="0.7536"
   style="stop-color:#76C9EC"
   id="stop24" />
			<stop
   offset="0.8229"
   style="stop-color:#55BCE8"
   id="stop26" />
			<stop
   offset="0.8886"
   style="stop-color:#3DB3E5"
   id="stop28" />
			<stop
   offset="0.9493"
   style="stop-color:#2EADE3"
   id="stop30" />
			<stop
   offset="1"
   style="stop-color:#29ABE2"
   id="stop32" />
		</radialGradient>
		<path
   class="st0"
   d="m 403.8,365.5 3.6,-1 -2.6,-3.2 3.7,1.9 -2.3,-3.4 3.6,2 -2.4,-3.3 3.7,1.7 -2.8,-3 4,0.7 -3.8,-0.7 2.2,-3.2 -2.2,3.4 -1.1,-3.9 v 4.1 l -2.4,-3.3 0.8,4 -2.7,-3.1 1,4 -2.7,-3.1 0.6,4.1 -1.9,-3.6 -1.4,3.8 1.6,-3.6 -3.9,1.1 3.5,-2.1 -4.1,-0.2 3.9,-1.4 -4.1,-0.6 4,-1.1 -4,-0.9 4,-0.8 -4,-1.1 4.1,-0.7 -2.2,1.8 -2.1,-3.5 0.7,4 -2.4,-3.3 0.8,4 -2.5,-3.3 0.9,4 -2.5,-3.2 1,4 -2.6,-3.2 -1.6,3.1 3.8,-1.3 -3.9,-1.1 4,-0.1 -3.9,-1.1 4,-0.1 -3.9,-1.1 4,-0.1 -3.9,-1.1 4,-0.1 -3.9,-1.1 3.3,1.2 2.9,-6.3 7.2,0.4 3.1,-6.5 7.2,0.2 2.9,-6.6 h 7.2 l 2.7,-6.7 7.2,-0.3 2.2,-6.9 7.1,-1.3 -1,-5.8 -3.8,-3.6 -4.4,5.5 -6.8,-1.5 -3.6,6.1 -7,-1 -3.3,6.2 -7,-0.8 -3.1,6.3 -7,-0.6 -3,6.4 -6.5,-0.7 -1.5,1.9 3.7,-1.6 -4,0.5 3.7,-1.6 -4,0.5 3.7,-1.6 -4,0.5 3.7,-1.6 -4,0.5 3.7,-1.6 -2,1.9 -2.1,-2.4 3.1,2.6 -3.8,-1.4 3.1,2.6 -3.8,-1.4 3.1,2.6 -3.8,-1.4 3.1,2.6 -3.8,-1.4 3.1,2.6 -2.3,-2.4 -1.7,3.4 0.2,-4.2 -2.5,3.3 0.2,-4.2 -2.5,3.3 0.2,-4.2 -2.5,3.3 0.2,-4.2 -2.5,3.3 0.1,-4.2 -2,3.5 -1.5,-3.6 -0.1,4.2 -2.2,-3.6 -0.1,4.2 -2.2,-3.6 -0.1,4.2 -2.2,-3.6 -0.1,4.2 -2.2,-3.6 -0.1,4.2 -1.7,-3.6 -1.7,3 2.9,-2.8 -3.3,2.3 2.9,-2.8 -3.3,2.3 2.9,-2.8 -3.3,2.3 2.9,-2.8 -3.3,2.3 2.9,-2.8 -3.5,1.9 3.6,-1.7 -3.9,0.7 3.8,-1.3 -3.9,0.7 3.8,-1.3 -3.9,0.7 3.8,-1.3 -3.9,0.7 3.8,-1.3 -3.9,0.7 3,0.8 1.6,-5.3 5.6,1.6 1.7,-5.5 5.7,1.3 1.4,-5.6 5.7,0.9 0.9,-5.7 5.8,0.1 -0.3,-5.8 5.4,-2.1 -4.2,-3.5 1,-4.8 -4.2,2.5 -2.7,-4.1 -2.2,4.4 -3.9,-3 -1.2,4.8 -4.3,-2.4 -0.7,4.9 -4.5,-2 -0.5,4.9 -1.6,-0.5 -3.9,-1.8 3.9,-1.8 -4.2,-0.8 3.3,-2.7 -4.3,0.2 2.6,-3.4 -4.1,1.2 1.8,-3.9 -3.7,2.2 0.3,-4.3 -1.6,3.7 -4.1,-0.8 2.4,4.3 -4.8,1.1 2.7,4.1 -4.7,1.2 2.7,4.1 -4.8,1.2 2.6,4.1 -4.8,1 2.4,4.3 -4.6,0.3 0.8,3.3 -0.2,-4 -1.1,3.9 v -4 l -1.4,3.8 0.4,-4 -1.8,3.6 0.9,-3.9 -2.4,3.2 2,-3.5 -3.4,-0.2 3.6,2 -2.2,-3.4 3.4,2.3 -2.2,-3.5 3.4,2.3 -2.2,-3.4 3.4,2.3 -2.2,-3.5 3.4,2.3 -2.2,-3.5 4,0.6 -3.7,1.6 1.3,-3.9 -2.7,3 1.3,-3.9 -2.7,3 1.3,-3.9 -2.7,3 1.3,-3.9 -2.7,3 1.3,-3.9 -1.9,3.3 -1.2,-3.7 0.1,4.1 -1.9,-3.6 0.1,4.1 -1.9,-3.6 0.1,4.1 -1.9,-3.6 0.1,4.1 -1.9,-3.6 0.1,4.1 -0.8,-3.6 -3.5,2.5 0.1,-4.6 -4,2.3 v -4.6 l -3.9,2.3 0.1,-4.6 -4,2.3 v -4.6 l -4,2.3 v -4.6 l -3.9,2.3 1.4,-3.8 -2.3,3.3 1.3,-3.8 -2.2,3.4 1.3,-3.8 -2.2,3.4 1.2,-3.8 -2.2,3.4 1.2,-3.8 -2.2,3.4 2.3,-1.7 -3.4,-1.9 3.7,1.5 -3.2,-2.5 3.7,1.5 -3.2,-2.5 3.7,1.5 -3.2,-2.5 3.7,1.5 -3.2,-2.5 3.7,1.5 -3.5,-1.4 3.6,-2.3 -4.3,-1.2 3.6,-2.6 -4.3,-1.2 3.6,-2.6 -4.3,-1.2 3.6,-2.6 -4.3,-1.2 3.6,-2.6 -4.3,-1.2 3.6,-2.4 -2.3,-1.9 2.2,3.4 -1.1,-3.9 2.3,3.4 -1.2,-3.9 2.3,3.3 -1.2,-3.9 2.3,3.3 -1.2,-3.9 2.3,3.3 -1.3,-3.8 3.9,2.3 -0.1,-4.6 4,2.3 v -4.6 l 3.9,2.3 -0.1,-4.6 4,2.3 v -4.6 l 4,2.3 V 248 l 3.5,2.5 0.8,-3.6 -0.1,4.1 1.9,-3.6 -0.1,4.1 1.9,-3.6 -0.1,4.1 1.9,-3.6 -0.1,4.1 1.9,-3.6 -0.1,4.1 1.2,-3.7 1.9,3.3 -1.3,-3.9 2.7,3 -1.3,-3.9 2.7,3 -1.3,-3.9 2.7,3 -1.3,-3.9 2.7,3 -1.3,-3.9 3.7,1.6 -4,0.6 2.2,-3.4 -3.4,2.3 2.2,-3.5 -3.4,2.3 2.2,-3.4 -3.4,2.3 2.2,-3.5 -3.4,2.3 2.2,-3.5 -3.6,2 3.4,-0.2 -1.9,-3.5 2.4,3.2 -0.9,-3.9 1.8,3.6 -0.4,-4 1.4,3.8 v -4 l 1.1,3.9 0.2,-4 -0.7,3.3 4.6,0.3 -2.4,4.3 4.8,1 -2.6,4.1 4.8,1.2 -2.7,4.1 4.7,1.2 -2.7,4.1 4.8,1.1 -2.4,4.3 4.1,-0.8 1.6,3.7 -0.3,-4.3 3.7,2.2 -1.8,-3.9 4.1,1.2 -2.6,-3.4 4.3,0.2 -3.3,-2.7 4.2,-0.8 -3.9,-1.8 3.9,-1.8 1.6,-0.5 0.5,4.9 4.5,-2 0.7,4.9 4.3,-2.4 1.2,4.8 4,-3 2.2,4.4 2.7,-4.1 4.2,2.5 -1,-4.8 4.2,-3.5 -5.4,-2.1 0.3,-5.7 -5.8,0.1 -0.9,-5.7 -5.7,0.9 -1.4,-5.6 -5.7,1.3 -1.7,-5.5 -5.6,1.6 -1.6,-5.3 -3,0.8 3.9,0.7 -3.8,-1.3 3.9,0.7 -3.8,-1.3 3.9,0.7 -3.8,-1.3 3.9,0.7 -3.8,-1.3 3.9,0.7 -3.6,-1.7 3.5,1.9 -2.9,-2.8 3.3,2.3 -2.9,-2.8 3.3,2.3 -2.9,-2.8 3.3,2.3 -2.9,-2.8 3.3,2.3 -2.9,-2.8 1.7,3 1.7,-3.6 0.1,4.2 2.2,-3.6 0.1,4.2 2.2,-3.6 0.1,4.2 2.2,-3.6 0.1,4.2 2.2,-3.6 0.1,4.2 1.6,-3.6 2,3.5 -0.2,-4.2 2.5,3.3 -0.2,-4.2 2.5,3.3 -0.2,-4.2 2.5,3.3 -0.2,-4.2 2.5,3.3 -0.1,-4.2 1.7,3.4 2.3,-2.4 -3.1,2.6 3.8,-1.4 -3.1,2.6 3.8,-1.4 -3.1,2.6 3.8,-1.4 -3.1,2.6 3.8,-1.4 -3.1,2.6 2.2,-2.4 2,1.9 -3.7,-1.6 4,0.5 -3.7,-1.6 4,0.5 -3.7,-1.6 4,0.5 -3.7,-1.6 4,0.5 -3.7,-1.6 1.5,1.9 6.5,-0.7 3,6.4 7,-0.6 3.1,6.3 7,-0.8 3.3,6.2 7,-1 3.6,6.1 6.9,-1.5 4.4,5.5 3.8,-3.6 1,-5.9 -7.1,-1.3 -2.2,-6.9 -7.2,-0.3 -2.7,-6.7 h -7.2 l -2.9,-6.6 -7.2,0.2 -3.1,-6.5 -7.2,0.4 -2.9,-6.3 -3.3,1.2 3.9,-1.1 -4,-0.1 3.9,-1.1 -4,-0.1 3.9,-1.1 -4,-0.1 3.9,-1.1 -4,-0.1 3.9,-1.1 -3.8,-1.3 1.7,3.1 2.6,-3.2 -1,4 2.5,-3.2 -0.9,4 2.5,-3.3 -0.8,4 2.4,-3.3 -0.6,4 2.1,-3.5 2.2,1.8 -4.1,-0.7 4,-1.1 -4,-0.8 4,-0.9 -4,-1.1 4.1,-0.6 -3.9,-1.4 4.1,-0.2 -3.5,-2.1 3.9,1.1 -1.6,-3.6 1.4,3.8 2,-3.6 -0.7,4.1 2.7,-3.1 -1,4 2.7,-3.1 -0.8,4 2.4,-3.3 v 4.1 l 1.1,-3.9 2.2,3.4 -2.2,-3.2 3.8,-0.7 -4,0.7 2.8,-3 -3.7,1.7 2.4,-3.3 -3.6,2 2.3,-3.4 -3.7,1.9 2.6,-3.2 -3.6,-1 7.2,0.3 2.6,-6.2 6.7,0.6 2.5,-6.3 6.7,0.5 2.4,-6.3 6.8,0.3 2.1,-6.4 6.8,-0.1 1.5,-6.6 6.4,-3.8 -6.5,3.6 -6.4,-2 -3.4,5.8 -6.6,-1.3 -3.1,6 -6.7,-1.1 -3,6.1 -6.7,-0.9 -2.8,6.1 -6.7,-0.8 -3.3,6.4 0.9,-3.6 -4,0.7 3.5,-2.2 -4.1,0.3 3.5,-2.2 -4.1,0.4 3.4,-2.4 -4,0.9 2.6,-3.2 -2.5,2.9 -1.7,-3.5 1.9,3.6 -3.9,-1 3.6,2 -4.1,0.4 3.9,1.3 -4,0.8 4,1.1 -4,0.8 3.9,1.5 -4.1,-0.1 2.6,3.1 -2.3,-3.2 -1,3.9 v -4.1 l -2.2,3.5 0.7,-4 -2.6,3.2 1.1,-4 -2.8,3 1.3,-3.9 -2.9,2.9 1.4,-3.9 0.4,2.8 -4.1,0.1 3.8,1.5 -4.1,0.4 3.9,1.3 -4.1,0.5 3.9,1.2 -4.1,0.6 3.9,1.2 -4,0.6 1.9,3 0.8,-3.9 -2.9,2.9 1.9,-3.5 -2.9,2.9 1.9,-3.5 -2.9,2.9 1.9,-3.5 -2.9,2.9 1.9,-3.5 -2.9,2.9 2.7,-2.3 -4,-5.7 3.9,-6 -4.1,-5.9 3.8,-6.1 -4.3,-5.8 3.6,-6.2 -4.5,-5.7 3.3,-6.4 -4.9,-5.3 2.4,-6.8 -5.6,-2.1 -5,1.5 2.6,6.6 -4.7,5.2 3.5,6.1 -4.3,5.5 3.8,5.9 -4.2,5.7 3.9,5.8 -4,5.8 4,5.8 -3.8,5.3 0.9,2.3 0.5,-4 -1.6,3.7 0.5,-4 -1.6,3.7 0.5,-4 -1.6,3.7 0.5,-4 -1.6,3.7 0.5,-4 0.7,2.7 -3.2,0.6 3.8,-1.4 -3.1,2.6 3.8,-1.4 -3.1,2.6 3.8,-1.4 -3.1,2.6 3.8,-1.4 -3.1,2.6 3.8,-1.4 -3.2,0.8 2.2,3.2 -3.6,-2.2 1.6,3.9 -3.6,-2.2 1.6,3.9 -3.6,-2.2 1.6,3.9 -3.6,-2.2 1.6,3.9 -3.6,-2.2 2,3.4 -3.9,-0.5 3.6,2.2 -4.2,0.1 3.6,2.2 -4.2,0.1 3.6,2.2 -4.2,0.1 3.6,2.2 -4.2,0.1 3.6,2.2 -4,-0.3 1.8,3 -1,-3.9 0.3,4 -1,-3.9 0.3,4 -1,-3.9 0.3,4 -1,-3.9 0.3,4 -1,-3.9 -0.1,4 0.3,-4 -1.3,3.8 0.7,-3.9 -1.3,3.8 0.7,-3.9 -1.3,3.8 0.7,-3.9 -1.3,3.8 0.7,-3.9 -1.4,3.8 2.2,-2.2 -3.7,-4.1 4.1,-4.1 -4,-4.2 3.9,-4.3 -4.2,-4 3.6,-4.5 -4.5,-3.6 3,-5 -5.1,-2.6 0.9,-5.7 -5.1,1.8 -3.7,-3.2 v 4.9 l -4.9,0.3 2.7,4.1 -4.5,1.9 3.5,3.5 -4.2,2.6 3.9,3.1 -4,2.9 4,2.9 -1.2,1.1 -3.5,2.5 0.4,-4.3 -2.8,3.3 -0.7,-4.2 -2,3.8 -1.6,-4 -1,4.2 -2.5,-3.5 0.1,4.3 -3.5,-2.4 2.4,3.3 -2.7,3.1 4.9,0.1 -1.5,4.7 4.9,-0.3 -1.3,4.7 4.9,-0.3 -1.3,4.7 4.9,-0.2 -1.5,4.7 h 4.9 l -2,4.2 3.2,1 -3.6,-1.8 2.8,2.9 -3.5,-2.1 2.6,3.1 -3.3,-2.3 2.3,3.4 -3,-2.9 1.6,3.7 -2.1,-3.4 -1.8,2.8 3.6,-2.1 -4.1,0.2 3.7,-1.8 -4.1,0.2 3.7,-1.8 -4.1,0.2 3.7,-1.8 -4.1,0.2 3.7,-1.8 -4.1,0.2 2.5,-3.1 -0.5,4 -2.7,-3 1.3,3.9 -2.7,-3 1.3,3.9 -2.7,-3 1.3,3.9 -2.7,-3 1.3,3.9 -2.7,-3 1.9,3.3 -3.8,-0.8 3.6,1.9 -4.1,-0.1 3.6,1.9 -4.1,-0.1 3.6,1.9 -4.1,-0.1 3.6,1.9 -4.1,-0.1 3.6,1.9 -3.5,-1.1 0.4,4.3 -3.9,-2.3 v 4.6 l -4,-2.3 0.1,4.6 -4.1,-2.7 v 4.6 l -4,-2.3 v 4.6 l -4,-2.3 0.1,4.6 -2.6,-3.1 1.7,3.7 -2.7,-3 1.7,3.7 -2.8,-3 1.8,3.6 -2.8,-2.9 1.8,3.6 -2.8,-2.9 1.8,3.6 -0.5,-2.9 -3.9,1.9 1.1,-4.3 -4.1,1.8 1.1,-4.3 -4.1,1.8 1.1,-4.3 -4.1,1.8 1.1,-4.3 -4.1,1.8 1.1,-4.3 -3.8,2 0.5,-3.7 -0.5,4 -0.5,-4 -0.5,4 -0.5,-4 -0.5,4 -0.5,-4 -0.5,4 -0.5,-4 -0.5,4 0.1,-3.9 -2.6,1.2 4,-0.2 -3.9,-0.9 4,-0.2 -3.9,-0.8 4,-0.2 -4,-0.8 4,-0.3 -4,-0.8 4,-0.3 -4,-0.7 4,-2.2 -4,-2.3 4,-2.3 -4,-2.3 4,-2.2 -4,-2.3 4,-2.3 -4,-2.3 4,-2.3 -4,-2.3 4,-1.8 -2.7,-2.5 3.5,2.2 -2.2,-3.5 3.5,2.2 -2.2,-3.5 3.5,2.2 -2.2,-3.5 3.5,2.2 -2.2,-3.5 3.5,2.2 -2.6,-2.9 h 3.8 l -4,-0.8 4,-0.8 -4,-0.8 4,-0.8 -4,-0.8 4,-0.8 -4,-0.8 4,-0.8 -4,-0.8 3.2,-2.4 -1.5,3.7 -1.9,-3.6 0.3,4.1 -1.9,-3.6 0.3,4.1 -1.9,-3.6 0.3,4.1 -1.9,-3.6 0.3,4.1 -1.9,-3.6 -0.1,4.1 1.5,-3 -4,-0.1 4,-0.5 -3.9,-1.2 4,0.3 -3.7,-1.7 4,0.7 -3.5,-2 3.9,1 -3.4,-2.2 2.4,2.3 2.6,-3.9 2.5,4.2 3.3,-3.6 2.2,4.4 3.4,-3.5 2.2,4.4 3.4,-3.5 2.2,4.4 3.3,-3.6 2.6,4.2 1.4,-3.9 4,0.4 -3.9,-1.8 3.7,-2.1 -4.3,-0.4 3.1,-3 -4.2,0.6 2.3,-3.6 -4,1.5 1.4,-4 -3.5,2.5 0.4,-4.2 0.3,-1.6 4.5,2 0.5,-4.9 4.6,1.8 0.1,-4.9 4.8,1.3 -0.6,-4.9 4.9,0.3 -2.2,-4.4 4.2,-2.4 -4.6,-1.6 -1,-5.4 -4.5,3.6 -4.8,-3.1 -2.8,5.1 -5.4,-2.1 -2.1,5.4 -5.6,-1.6 -1.7,5.5 -5.6,-1.3 -1.4,5.6 -5.4,-1.2 -0.8,3 2.6,-3.1 -3.1,2.6 2.6,-3.1 -3.1,2.6 2.6,-3.1 -3.1,2.6 2.6,-3.1 -3.1,2.6 2.6,-3.1 -3.3,2.3 3.4,-2.1 -3.9,1.1 3.6,-1.7 -3.9,1.1 3.6,-1.7 -3.9,1.1 3.6,-1.7 -3.9,1.1 3.6,-1.7 -3.9,1.1 3.5,0.1 -2.3,-3.3 3.7,2 -2,-3.7 3.7,2 -2,-3.7 3.7,2 -2,-3.7 3.7,2 -2,-3.7 3.7,2 -2.4,-3.2 h 4 l -3.7,-2 4.2,-0.5 -3.7,-2 4.2,-0.5 -3.7,-2 4.2,-0.5 -3.7,-2 4.2,-0.5 -3.7,-2 3.8,0.3 -0.9,-3.2 0.7,4 0.7,-4 0.7,4 0.7,-4 0.7,4 0.7,-4 0.7,4 0.7,-4 0.7,4 -1,-3.1 2.7,-0.7 -3.2,2.4 2.4,-3.2 -3.2,2.4 2.4,-3.2 -3.2,2.4 2.4,-3.2 -3.2,2.4 2.4,-3.2 -3.2,2.4 2.4,-0.4 2.7,-6 7,0.6 3,-6.4 7,0.5 2.8,-6.4 7,0.3 2.6,-6.5 7,-0.1 2.1,-6.7 7,-1.1 -1.2,-5.1 -4.6,-3.8 -4.7,5.5 -7,-1.6 -3.9,6.1 -7.1,-1 -3.6,6.3 -7.2,-0.8 -3.4,6.4 -7.2,-0.6 -3.3,6.4 -6.9,-0.6 -0.6,3.5 1,-3.9 -2.1,3.5 1,-3.9 -2.1,3.5 1,-3.9 -2.1,3.5 1,-3.9 -2.1,3.5 1,-3.9 -3,2.7 3.5,0.1 -1.5,-3.8 3,2.8 -1.5,-3.8 3,2.8 -1.6,-3.8 3.1,2.7 -1.7,-3.7 3.2,2.6 -2,-3.6 2.7,-1 -2.6,3.2 1,-4 -2.7,3.1 1.2,-3.9 -2.9,2.9 1.5,-3.8 -3.1,2.6 1.9,-3.6 -3.6,2 2.9,-2.8 -4,-0.4 4,0.7 -2.1,-3.5 3.2,2.6 -1.4,-3.9 3,2.9 -1.3,-3.9 3.1,2.7 -1.7,-3.7 3.6,2.1 -2.9,-2.9 4,-0.2 -3.9,0.3 1.3,-3.6 -1.5,3.8 -1.2,-3.9 -0.4,4.1 -1.7,-3.7 -0.1,4.1 -1.8,-3.7 -0.2,4.1 -1.4,-3.8 -2.7,2.6 3.9,-6.1 -4.1,-5.4 3.9,-5.5 -4.2,-5.3 3.8,-5.6 -4.3,-5.2 3.6,-5.7 -4.5,-5.1 3.3,-5.9 -4.9,-4.6 -0.1,-7.4 -0.1,7.4 -4.9,4.6 3.3,5.9 -4.5,5.1 3.6,5.7 -4.3,5.2 3.8,5.6 -4.2,5.3 3.9,5.5 -4.1,5.4 3.9,6.1 -2.7,-2.6 -1.4,3.8 -0.2,-4.1 -1.8,3.7 -0.1,-4.1 -1.7,3.7 -0.4,-4.1 -1.2,3.9 -1.5,-3.8 1.3,3.6 -3.9,-0.3 4,0.2 -2.8,2.9 3.6,-2.1 -1.7,3.7 3.1,-2.7 -1.3,3.9 3,-2.9 -1.4,3.9 3.2,-2.6 -2.1,3.5 4,-0.7 -4,0.4 2.9,2.8 -3.6,-2 1.9,3.6 -3.1,-2.6 1.5,3.8 -2.9,-2.9 1.2,3.9 -2.7,-3.1 1,4 -2.6,-3.2 2.7,1 -2,3.6 3.2,-2.6 -1.7,3.7 3.1,-2.7 -1.6,3.8 3,-2.8 -1.5,3.8 3,-2.8 -1.5,3.8 3.5,-0.1 -3,-2.7 1,3.9 -2.1,-3.5 1,3.9 -2.1,-3.5 1,3.9 -2.1,-3.5 1,3.9 -2.1,-3.4 1,3.9 -0.6,-3.5 -6.9,0.6 -3.3,-6.4 -7.2,0.6 -3.4,-6.4 -7.2,0.8 -3.6,-6.3 -7.1,1 -3.9,-6.1 -7,1.6 -4.7,-5.5 -4.6,3.8 -1.2,5.1 7,1.1 2.1,6.7 7,0.1 2.6,6.5 7,-0.3 2.8,6.4 7,-0.5 3,6.4 7,-0.6 2.7,6 2.4,0.4 -3.2,-2.4 2.4,3.2 -3.2,-2.4 2.4,3.2 -3.2,-2.4 2.4,3.2 -3.2,-2.4 2.4,3.3 -3.2,-2.4 2.7,0.8 -1,3.1 0.7,-4 0.7,4 0.7,-4 0.7,4 0.7,-4 0.7,4 0.7,-4 0.7,4 0.7,-4 -0.9,3.2 3.8,-0.3 -3.7,2 4.2,0.5 -3.7,2 4.2,0.5 -3.7,2 4.2,0.5 -3.7,2 4.2,0.5 -3.7,2 h 4 l -2.4,3.2 3.7,-2 -2,3.7 3.7,-2 -2,3.7 3.7,-2 -2,3.7 3.7,-2 -2,3.7 3.7,-2 -2.3,3.3 3.4,-0.1 -3.9,-1.1 3.6,1.7 -3.9,-1.1 3.6,1.7 -3.9,-1.1 3.6,1.7 -3.9,-1.1 3.6,1.7 -3.9,-1.1 3.4,2.1 -3.3,-2.3 2.6,3.1 -3.1,-2.6 2.6,3.1 -3.1,-2.6 2.6,3.1 -3.1,-2.6 2.6,3.1 -3.1,-2.6 2.6,3.1 -0.8,-3 -5.4,1.2 -1.4,-5.6 -5.6,1.3 -1.7,-5.5 -5.6,1.6 -2.1,-5.4 -5.4,2.1 -2.8,-5.1 -4.8,3.1 -4.5,-3.6 -1,5.4 -4.6,1.6 4.2,2.4 -2.2,4.4 4.9,-0.3 -0.6,4.9 4.8,-1.3 0.1,4.9 4.6,-1.8 0.5,4.9 4.5,-2 0.3,1.6 0.4,4.2 -3.5,-2.5 1.4,4 -4,-1.5 2.3,3.6 -4.2,-0.6 3.1,3 -4.3,0.4 3.7,2.1 -3.9,1.8 4,-0.4 1.4,3.9 2.6,-4.2 3.3,3.6 2.2,-4.4 3.4,3.5 2.2,-4.4 3.4,3.5 2.3,-4.4 3.3,3.6 2.5,-4.2 2.6,3.9 2.4,-2.3 -3.4,2.2 3.9,-1 -3.5,2 4,-0.7 -3.7,1.7 4,-0.3 -3.9,1.2 4,0.5 -4,0.1 1.5,3 -0.1,-4.1 -1.9,3.6 0.3,-4.1 -1.9,3.6 0.3,-4.1 -1.9,3.6 0.3,-4.1 -1.9,3.6 0.3,-4.1 -1.9,3.6 -1.5,-3.7 3.2,2.4 -4,0.8 4,0.8 -4,0.8 4,0.8 -4,0.8 4,0.8 -4,0.8 4,0.8 -4,0.8 h 3.8 l -2.6,2.9 3.5,-2.2 -2.2,3.5 3.5,-2.2 -2.2,3.5 3.5,-2.2 -2.2,3.5 3.5,-2.2 -2.2,3.5 3.5,-2.2 -2.7,2.5 3.9,1.8 -4,2.3 4,2.3 -4,2.3 4,2.2 -4,2.3 4,2.3 -4,2.3 4,2.3 -4,2.3 4,2.3 -4,0.7 4,0.3 -4,0.8 4,0.3 -4,0.8 4,0.2 -3.9,0.8 4,0.2 -3.9,0.9 4,0.2 -2.6,-1.2 0.1,3.9 -0.5,-4 -0.5,4 -0.5,-4 -0.5,4 -0.5,-4 -0.5,4 -0.5,-4 -0.5,4 -0.6,-4 0.5,3.7 -3.8,-2 1.1,4.3 -4.1,-1.8 1.1,4.3 -4.1,-1.8 1.1,4.3 -4.1,-1.8 1.1,4.3 -4.1,-1.8 1.1,4.3 -3.9,-1.9 -0.5,2.9 1.8,-3.6 -2.8,2.9 1.8,-3.6 -2.8,2.9 1.8,-3.6 -2.8,3 1.7,-3.7 -2.7,3 1.7,-3.7 -2.6,3.1 0.1,-4.6 -3.9,2.3 v -4.6 l -4,2.3 0.1,-4.6 -3.9,2.3 v -4.6 l -4,2.3 v -4.6 l -4,2.3 0.4,-4.3 -3.5,1.1 3.6,-1.9 -4.1,0.1 3.6,-1.9 -4.1,0.1 3.6,-1.9 -4.1,0.1 3.6,-1.9 -4.1,0.1 3.6,-1.9 -3.8,0.8 1.9,-3.3 -2.7,3 1.3,-3.9 -2.7,3 1.3,-3.9 -2.7,3 1.3,-3.9 -2.7,3 1.3,-3.9 -2.7,3 -0.5,-4 2.5,3.1 -4.1,-0.2 3.7,1.8 -4.1,-0.2 3.7,1.8 -4.1,-0.2 3.7,1.8 -4.1,-0.2 3.7,1.8 -4.1,-0.2 3.6,2.1 -1.8,-2.8 -2.1,3.4 1.6,-3.7 -2.9,2.8 2.3,-3.3 -3.3,2.3 2.6,-3.1 -3.5,2.1 2.8,-2.9 -3.6,1.8 3.2,-1 -2,-4.2 h 4.9 l -1.5,-4.7 4.9,0.2 -1.3,-4.7 4.9,0.3 -1.3,-4.7 4.9,0.3 -1.5,-4.7 4.9,-0.1 -2.7,-3.1 2.4,-3.3 -3.5,2.4 0.1,-4.3 -2.5,3.5 -1,-4.2 -1.6,4 -1.9,-3.8 -0.7,4.2 -2.8,-3.3 0.4,4.3 -3.5,-2.5 -1.2,-1.1 4,-2.9 -4,-2.9 3.9,-3.1 -4.2,-2.6 3.5,-3.5 -4.5,-1.9 2.7,-4.1 -4.3,-0.2 v -4.9 l -3.7,3.2 -5.1,-1.8 0.9,5.7 -5.1,2.6 3,4.9 -4.5,3.6 3.6,4.5 -4.2,4 3.9,4.3 -4,4.2 4.1,4.1 -3.7,4.1 2.2,2.2 -1.3,-3.8 0.7,3.9 -1.3,-3.8 0.7,3.9 -1.3,-3.8 0.7,3.9 -1.3,-3.8 0.7,3.9 -1.4,-3.8 0.3,4 -0.1,-4 -1,3.9 0.3,-4 -1,3.9 0.3,-4 -1,3.9 0.3,-4 -1,3.9 0.3,-4 -1,3.9 1.8,-3 -4,0.3 3.6,-2.2 -4.2,-0.1 3.6,-2.2 -4.2,-0.1 3.6,-2.2 -4.2,-0.1 3.6,-2.2 -4.2,-0.1 3.6,-2.2 -3.9,0.5 2,-3.4 -3.6,2.2 1.6,-3.9 -3.6,2.2 1.6,-3.9 -3.6,2.2 1.6,-3.9 -3.6,2.2 1.6,-3.9 -3.6,2.2 2.1,-3.2 -3.2,-0.8 3.8,1.4 -3.1,-2.6 3.8,1.4 -3.1,-2.6 3.8,1.4 -3.1,-2.6 3.8,1.4 -3.1,-2.6 3.8,1.4 -3.2,-0.7 0.7,-2.7 0.5,4 -1.6,-3.7 0.5,4 -1.6,-3.7 0.5,4 -1.6,-3.7 0.5,4 -1.6,-3.7 0.5,4 0.9,-2.3 -3.8,-5.3 4,-5.7 -4,-5.8 3.9,-5.8 -4.2,-5.7 3.8,-5.9 -4.3,-5.5 3.5,-6.1 -4.7,-5.2 2.6,-6.6 -5,-1.5 -5.6,2.1 2.4,6.8 -4.9,5.3 3.3,6.4 -4.5,5.7 3.6,6.2 -4.3,5.8 3.8,6.1 -4.1,5.9 3.9,6 -4,5.7 2.7,2.3 -2.9,-2.9 1.9,3.5 -2.9,-2.9 1.9,3.5 -2.9,-2.9 1.9,3.5 -2.9,-2.8 1.9,3.5 -2.9,-2.8 0.8,3.9 1.9,-3 -4,-0.6 3.9,-1.2 -4.1,-0.6 3.9,-1.2 -4.1,-0.5 3.9,-1.3 -4.1,-0.4 3.8,-1.5 -4.1,-0.1 0.4,-2.8 1.4,3.9 -2.9,-2.9 1.3,3.9 -2.8,-3 1.1,4 -2.6,-3.2 0.7,4 -2.2,-3.5 v 4.1 l -1,-3.9 -2.3,3.2 2.6,-3.1 -4.1,0.1 3.9,-1.5 -4,-0.8 4,-1.1 -4,-0.8 3.9,-1.3 -4.1,-0.4 3.6,-2.1 -3.9,1 1.9,-3.6 -1.7,3.5 -2.5,-2.9 2.6,3.2 -4,-0.9 3.4,2.4 -4.1,-0.4 3.5,2.2 -4.1,-0.3 3.5,2.2 -4,-0.7 0.9,3.6 -3.3,-6.4 -6.7,0.8 -2.8,-6.1 -6.7,0.9 -3,-6.1 -6.7,1.1 -3.1,-6 -6.6,1.3 -3.5,-5.8 -6.4,2 -6.5,-3.6 6.4,3.8 1.5,6.6 6.8,0.1 2.7,7.6 6.7,-0.3 2.4,6.3 6.7,-0.5 2.5,6.3 6.7,-0.6 2.6,6.2 7.2,-0.3 -3.6,1 2.6,3.2 -3.7,-1.9 2.3,3.4 -3.6,-2 2.4,3.3 -3.7,-1.7 2.8,3 -4,-0.7 3.8,0.7 -2.2,3.2 2.2,-3.4 1.1,3.9 V 198 l 2.4,3.3 -0.8,-4 2.7,3.1 -1,-4 2.7,3.1 -0.6,-4.1 1.9,3.6 1.4,-3.8 -1.6,3.6 3.9,-1.1 -3.5,2.1 4.1,0.2 -3.9,1.4 4.1,0.6 -4,1.1 4,0.9 -4,0.8 4,1.1 -4.1,0.7 2.2,-1.8 2.1,3.5 -0.7,-4 2.4,3.3 -0.8,-4 2.5,3.3 -0.9,-4 2.5,3.2 -1,-4 2.6,3.2 1.6,-3.1 -3.8,1.3 3.9,1.1 -4,0.1 3.9,1.1 -4,0.1 3.9,1.1 -4,0.1 3.9,1.1 -4,0.1 3.9,1.1 -3.3,-1.2 -2.9,6.3 -7.2,-0.4 -3.1,6.5 -7.2,-0.2 -2.9,6.6 h -7.2 l -2.7,6.7 -7.2,0.3 -2.2,6.9 -7.1,1.3 1,5.8 3.8,3.6 4.4,-5.5 6.8,1.5 3.6,-6.1 7,1 3.3,-6.2 7,0.8 3.1,-6.3 7,0.6 3,-6.4 6.5,0.7 1.5,-1.9 -3.7,1.6 4,-0.5 -3.7,1.6 4,-0.5 -3.7,1.6 4,-0.5 -3.7,1.6 4,-0.5 -3.7,1.6 2,-1.9 2.1,2.4 -3.1,-2.6 3.8,1.4 -3.1,-2.6 3.8,1.4 -3.1,-2.6 3.8,1.4 -3.1,-2.6 3.8,1.4 -3.1,-2.6 2.3,2.4 1.7,-3.4 -0.4,4.1 2.5,-3.3 -0.2,4.2 2.5,-3.3 -0.2,4.2 2.5,-3.3 -0.2,4.2 2.5,-3.3 -0.1,4.2 2,-3.5 1.5,3.6 0.1,-4.2 2.2,3.6 0.1,-4.2 2.2,3.6 0.1,-4.2 2.2,3.6 0.1,-4.2 2.2,3.6 0.1,-4.2 1.7,3.6 1.7,-3 -2.9,2.8 3.3,-2.3 -2.9,2.8 3.3,-2.3 -2.9,2.8 3.3,-2.3 -2.9,2.8 3.3,-2.3 -2.9,2.8 3.5,-1.9 -3.6,1.7 3.9,-0.7 -3.8,1.3 3.9,-0.7 -3.8,1.3 3.9,-0.7 -3.8,1.3 3.9,-0.7 -3.8,1.3 3.9,-0.7 -3,-0.8 -1.6,5.3 -5.6,-1.6 -1.7,5.5 -5.7,-1.3 -1.4,5.6 -5.7,-0.9 -0.9,5.7 -5.8,-0.1 0.3,5.8 -5.4,2.1 4.2,3.5 -1,4.8 4.2,-2.5 2.7,4.1 2.2,-4.4 3.9,3 1.2,-4.8 4.3,2.4 0.7,-4.9 4.5,2 0.5,-4.9 1.6,0.5 3.9,1.8 -3.9,1.8 4.2,0.8 -3.3,2.7 4.3,-0.2 -2.6,3.4 4.1,-1.2 -1.8,3.9 3.7,-2.2 -0.3,4.3 1.6,-3.7 4.1,0.8 -2.4,-4.3 4.8,-1.1 -2.7,-4.1 4.7,-1.2 -2.7,-4.1 4.8,-1.2 -2.6,-4.1 4.8,-1 -2.4,-4.3 4.6,-0.3 -0.8,-3.3 0.2,4 1.1,-3.9 v 4 l 1.4,-3.8 -0.4,4 1.8,-3.6 -0.9,3.9 2.4,-3.2 -2,3.5 3.4,0.2 -3.6,-2 2.2,3.4 -3.4,-2.3 2.2,3.5 -3.4,-2.3 2.2,3.4 -3.4,-2.3 2.2,3.5 -3.4,-2.3 2.2,3.5 -4,-0.6 3.7,-1.6 -1.3,3.9 2.7,-3 -1.3,3.9 2.7,-3 -1.3,3.9 2.7,-3 -1.3,3.9 2.7,-3 -1.3,3.9 1.9,-3.3 1.2,3.7 -0.1,-4.1 1.9,3.6 -0.1,-4.1 1.9,3.6 -0.1,-4.1 1.9,3.6 -0.1,-4.1 1.9,3.6 -0.1,-4.1 0.8,3.6 3.5,-2.5 -0.1,4.6 4,-2.3 v 4.6 l 3.9,-2.3 -0.1,4.6 4,-2.3 v 4.6 l 4,-2.3 v 4.6 l 3.9,-2.3 -1.3,3.8 2.3,-3.3 -1.2,3.9 2.3,-3.3 -1.2,3.9 2.3,-3.3 -1.2,3.9 2.3,-3.4 -1.1,3.9 2.2,-3.4 -2.3,1.9 3.6,2.4 -4.3,1.2 3.6,2.6 -4.3,1.2 3.6,2.6 -4.3,1.2 3.6,2.6 -4.3,1.2 3.6,2.6 -4.3,1.2 3.6,2.3 -3.5,1.4 3.7,-1.5 -3.2,2.5 3.7,-1.5 -3.2,2.5 3.7,-1.5 -3.2,2.5 3.7,-1.5 -3.2,2.5 3.7,-1.5 -3.4,1.9 2.3,1.6 -2.2,-3.4 1.2,3.8 -2.2,-3.4 1.2,3.8 -2.2,-3.4 1.3,3.8 -2.2,-3.4 1.3,3.8 -2.3,-3.3 1.4,3.8 -3.9,-2.3 0.1,4.6 -4,-2.3 v 4.6 l -3.9,-2.3 0.1,4.6 -4,-2.3 v 4.6 l -4,-2.3 v 4.6 l -3.5,-2.5 -0.8,3.6 0.1,-4.1 -1.9,3.6 0.1,-4.1 -1.9,3.6 0.1,-4.1 -1.9,3.6 0.1,-4.1 -1.9,3.6 0.1,-4.1 -1.2,3.7 -1.9,-3.3 1.3,3.9 -2.7,-3 1.3,3.9 -2.7,-3 1.3,3.9 -2.7,-3 1.3,3.9 -2.7,-3 1.3,3.9 -3.7,-1.6 4,-0.6 -2.2,3.4 3.4,-2.3 -2.2,3.5 3.4,-2.3 -2.2,3.4 3.4,-2.3 -2.2,3.5 3.4,-2.3 -2.2,3.5 3.6,-2 -3.4,0.2 1.9,3.5 -2.4,-3.2 0.9,3.9 -0.6,-4.6 0.4,4 -1.4,-3.8 v 4 l -1.1,-3.9 -0.2,4 0.7,-3.3 -4.6,-0.3 2.4,-4.3 -4.8,-1 2.6,-4.1 -4.8,-1.2 2.7,-4.1 -4.7,-1.2 2.7,-4.1 -4.8,-1.1 2.4,-4.3 -4.1,0.8 -1.6,-3.7 0.3,4.3 -3.7,-2.2 1.8,3.9 -4.1,-1.2 2.6,3.4 -4.3,-0.2 3.3,2.7 -4.2,0.8 3.9,1.8 -3.9,1.8 -1.6,0.5 -0.5,-4.9 -4.5,2 -0.7,-4.9 -4.3,2.4 -1.2,-4.8 -4,3 -2.2,-4.4 -2.7,4.1 -4.2,-2.5 1,4.8 -4.2,3.5 5.4,2.1 -0.3,5.7 5.8,-0.1 0.9,5.7 5.7,-0.9 1.4,5.6 5.7,-1.3 1.7,5.5 5.6,-1.6 1.6,5.3 3,-0.8 -3.9,-0.7 3.8,1.3 -3.9,-0.7 3.8,1.3 -3.9,-0.7 3.8,1.3 -3.9,-0.7 3.8,1.3 -3.9,-0.7 3.6,1.7 -3.5,-1.9 2.9,2.8 -3.3,-2.3 2.9,2.8 -3.3,-2.3 2.9,2.8 -3.3,-2.3 2.9,2.8 -3.3,-2.3 2.9,2.8 -1.7,-3 -1.7,3.6 -0.1,-4.2 -2.2,3.6 -0.1,-4.2 -2.2,3.6 -0.1,-4.2 -2.2,3.6 -0.1,-4.2 -2.2,3.6 -0.1,-4.2 -1.6,3.6 -2,-3.5 0.2,4.2 -2.5,-3.3 0.2,4.2 -2.5,-3.3 0.2,4.2 -2.5,-3.3 0.2,4.2 -2.5,-3.3 0.1,4.2 -1.7,-3.4 -2.3,2.4 3.1,-2.6 -3.8,1.4 3.1,-2.6 -3.8,1.4 3.1,-2.6 -3.8,1.4 3.1,-2.6 -3.8,1.4 3.1,-2.6 -2.2,2.4 -2,-1.9 3.7,1.6 -4,-0.5 3.7,1.6 -4,-0.5 3.7,1.6 -4,-0.5 3.7,1.6 -4,-0.5 3.7,1.6 -1.5,-1.9 -6.5,0.7 -3,-6.4 -7,0.6 -3.1,-6.3 -7,0.8 -3.3,-6.2 -7,1 -3.6,-6.1 -6.9,1.5 -4.4,-5.5 -3.8,3.6 -1,5.9 7.1,1.3 2.2,6.9 7.2,0.3 2.7,6.7 h 7.2 l 2.9,6.6 7.2,-0.2 3.1,6.5 7.2,-0.4 2.9,6.3 3.3,-1.2 -3.9,1.1 4,0.1 -3.9,1.1 4,0.1 -3.9,1.1 4,0.1 -3.9,1.1 4,0.1 -3.9,1.1 3.8,1.3 -1.7,-3.1 -2.6,3.2 1,-4 -2.5,3.2 0.9,-4 -2.5,3.3 0.8,-4 -2.4,3.3 0.6,-4 -2.1,3.5 -2.2,-1.8 4.1,0.7 -4,1.1 4,0.8 -4,0.9 4,1.1 -4.1,0.6 3.9,1.4 -4.1,0.2 3.5,2.1 -3.9,-1.1 1.6,3.6 -1.4,-3.8 -2,3.6 0.7,-4.1 -2.7,3.1 1,-4 -2.7,3.1 0.8,-4 -2.4,3.3 v -4.1 l -1.1,3.9 -2.2,-3.4 2.2,3.2 -3.8,0.7 4,-0.7 -2.8,3 3.7,-1.7 -2.4,3.3 3.6,-2 -2.3,3.4 3.7,-1.9 -2.6,3.2 3.6,1 -7.2,-0.3 -2.6,6.2 -6.7,-0.6 -2.5,6.3 -6.7,-0.5 -2.4,6.3 -6.8,-0.3 -2.1,6.4 -6.8,0.1 -1.5,6.6 -6.4,3.8 6.5,-3.6 6.4,2 3.4,-5.8 6.6,1.3 3.1,-6 6.7,1.1 3,-6.1 6.7,0.9 2.8,-6.1 6.7,0.8 3.3,-6.4 -0.9,3.6 4,-0.7 -3.5,2.2 4.1,-0.3 -3.5,2.2 4.1,-0.4 -3.4,2.4 4,-0.9 -2.6,3.2 2.5,-2.9 1.7,3.5 -1.9,-3.6 3.9,1 -3.6,-2 4.1,-0.4 -3.9,-1.3 4,-0.8 -4,-1.1 4,-0.8 -3.9,-1.5 4.1,0.1 -2.6,-3.1 2.3,3.2 1,-3.9 v 4.1 l 2.2,-3.5 -0.7,4 2.6,-3.2 -1.1,4 2.8,-3 -1.3,3.9 2.9,-2.9 -1.4,3.9 -0.4,-2.8 4.1,-0.1 -3.8,-1.5 4.1,-0.4 -3.9,-1.3 4.1,-0.5 -3.9,-1.2 4.1,-0.6 -3.9,-1.2 4,-0.6 -1.9,-3 -0.8,3.9 2.9,-2.9 -1.9,3.5 2.9,-2.9 -1.9,3.5 2.9,-2.9 -1.9,3.5 2.9,-2.9 -1.9,3.5 2.9,-2.9 -2.7,2.3 4,5.7 -3.9,6 4.1,5.9 -3.8,6.1 4.3,5.8 -3.6,6.2 4.5,5.7 -3.3,6.4 4.9,5.3 -2.4,6.8 5.6,2.1 5,-1.5 -2.6,-6.6 4.7,-5.2 -3.5,-6.1 4.3,-5.5 -3.8,-5.9 4.2,-5.7 -3.9,-5.8 4,-5.8 -4,-5.8 3.8,-5.3 -0.9,-2.3 -0.5,4 1.6,-3.7 -0.5,4 1.6,-3.7 -0.5,4 1.6,-3.7 -0.5,4 1.6,-3.7 -0.5,4 -0.7,-2.7 3.2,-0.6 -3.8,1.4 3.1,-2.6 -3.8,1.4 3.1,-2.6 -3.8,1.4 3.1,-2.6 -3.8,1.4 3.1,-2.6 -3.8,1.4 3.2,-0.8 -2.2,-3.2 3.6,2.2 -1.6,-3.9 3.6,2.2 -1.6,-3.9 3.6,2.2 -1.6,-3.9 3.6,2.2 -1.6,-3.9 3.6,2.2 -2,-3.4 3.9,0.5 -3.6,-2.2 4.2,-0.1 -3.6,-2.2 4.2,-0.1 -3.6,-2.2 4.2,-0.1 -3.6,-2.2 4.2,-0.1 -3.6,-2.2 4,0.3 -1.8,-3 1,3.9 -0.3,-4 1,3.9 -0.3,-4 1,3.9 -0.3,-4 1,3.9 -0.3,-4 1,3.9 0.1,-4 -0.3,4 1.3,-3.8 -0.7,3.9 1.3,-3.8 -0.7,3.9 1.3,-3.8 -0.7,3.9 1.3,-3.8 -0.7,3.9 1.4,-3.8 -2.2,2.2 3.7,4.1 -4.1,4.1 4,4.2 -3.9,4.3 4.2,4 -3.6,4.5 4.5,3.6 -3,5 5.1,2.6 -0.9,5.7 5.1,-1.8 3.7,3.2 v -4.9 l 4.9,-0.3 -2.7,-4.1 4.5,-1.9 -3.5,-3.5 4.2,-2.6 -3.9,-3.1 4,-2.9 -4,-2.9 1.2,-1.1 3.5,-2.5 -0.4,4.3 2.8,-3.3 0.7,4.2 2,-3.8 1.6,4 1,-4.2 2.5,3.5 -0.1,-4.3 3.5,2.4 -2.4,-3.3 2.7,-3.1 -4.9,-0.1 1.5,-4.7 -4.9,0.3 1.3,-4.7 -4.9,0.3 1.3,-4.7 -4.9,0.2 1.5,-4.7 h -4.9 l 2,-4.2 -3.2,-1 3.6,1.8 -2.8,-2.9 3.5,2.1 -2.6,-3.1 3.3,2.3 -2.3,-3.4 2.9,2.8 -1.6,-3.7 2.1,3.4 1.8,-2.8 -3.6,2.1 4.1,-0.2 -3.7,1.8 4.1,-0.2 -3.7,1.8 4.1,-0.2 -3.7,1.8 4.1,-0.2 -3.7,1.8 4.1,-0.2 -2.5,3.1 0.5,-4 2.7,3 -1.3,-3.9 2.7,3 -1.3,-3.9 2.7,3 -1.3,-3.9 2.7,3 -1.3,-3.9 2.7,3 -1.9,-3.3 3.8,0.8 -3.6,-1.9 4.1,0.1 -3.6,-1.9 4.1,0.1 -3.6,-1.9 4.1,0.1 -3.6,-1.9 4.1,0.1 -3.6,-1.9 3.5,1.1 -0.4,-4.3 3.9,2.3 v -4.6 l 4,2.3 -0.1,-4.6 3.9,2.3 v -4.6 l 4,2.3 V 311 l 4,2.3 -0.1,-4.6 2.6,3.1 -1.8,-3.6 2.7,3 -1.8,-3.6 2.7,3 -1.8,-3.6 2.7,3 -1.8,-3.6 2.7,3 -1.8,-3.6 0.3,2.8 3.3,-2 -3.2,2.5 3.7,-1.5 -3.2,2.5 3.7,-1.5 -3.2,2.5 3.7,-1.5 -3.2,2.5 3.7,-1.5 -3.2,2.5 3,-2.3 0.2,4.3 3.2,-3.1 0.5,4.4 3.2,-3.1 0.5,4.4 3.2,-3.1 0.5,4.4 3.2,-3.1 0.5,4.4 3.2,-3.1 0.3,4.4 2.8,-1 -4,0.3 3.9,0.9 -4,0.3 3.9,0.9 -4,0.3 3.9,0.9 -4,0.3 3.9,0.9 -4,0.4 4,0.7 -4,2.2 4,2.3 -4,2.3 4,2.3 -4,2.2 4,2.3 -4,2.3 4,2.3 -4,2.3 4,2.3 -4,1.8 2.7,2.5 -3.5,-2.2 2.2,3.5 -3.5,-2.2 2.2,3.5 -3.5,-2.2 2.2,3.5 -3.5,-2.2 2.2,3.5 -3.5,-2.2 2.6,2.9 h -3.8 l 4,0.8 -4,0.8 4,0.8 -4,0.8 4,0.8 -4,0.8 4,0.8 -4,0.8 4,0.8 -3.2,2.4 1.5,-3.7 1.9,3.6 -0.3,-4.1 1.9,3.6 -0.3,-4.1 1.9,3.6 -0.3,-4.1 1.9,3.6 -0.3,-4.1 1.9,3.6 0.1,-4.1 -1.5,3 4,0.1 -4,0.5 3.9,1.2 -4,-0.3 3.7,1.7 -4,-0.7 3.5,2 -3.9,-1 3.4,2.2 -2.4,-2.3 -2.6,3.9 -2.5,-4.2 -3.3,3.6 -2.2,-4.4 -3.4,3.5 -2.2,-4.4 -3.4,3.5 -2.2,-4.4 -3.3,3.6 -2.6,-4.2 -1.4,3.9 -4,-0.4 3.9,1.8 -3.7,2.1 4.3,0.4 -3.1,3 4.2,-0.6 -2.3,3.6 4,-1.5 -1.4,4 3.5,-2.5 -0.4,4.2 -0.3,1.6 -4.5,-2 -0.5,4.9 -4.6,-1.8 -0.1,4.9 -4.8,-1.3 0.6,4.9 -4.9,-0.3 2.2,4.4 -4.2,2.4 4.6,1.6 1,5.4 4.5,-3.6 4.8,3.1 2.8,-5.1 5.4,2.1 2.1,-5.4 5.6,1.6 1.7,-5.5 5.6,1.3 1.4,-5.6 5.4,1.2 0.8,-3 -2.6,3.1 3.1,-2.6 -2.6,3.1 3.1,-2.6 -2.6,3.1 3.1,-2.6 -2.6,3.1 3.1,-2.6 -2.6,3.1 3.3,-2.3 -3.4,2.1 3.9,-1.1 -3.6,1.7 3.9,-1.1 -3.6,1.7 3.9,-1.1 -3.6,1.7 3.9,-1.1 -3.6,1.7 3.9,-1.1 -3.5,-0.1 2.3,3.3 -3.7,-2 2,3.7 -3.7,-2 2,3.7 -3.7,-2 2,3.7 -3.7,-2 2,3.7 -3.7,-2 2.4,3.2 h -4 l 3.7,2 -4.2,0.5 3.7,2 -4.2,0.5 3.7,2 -4.2,0.5 3.7,2 -4.2,0.5 3.7,2 -3.8,-0.3 0.9,3.2 -0.7,-4 -0.7,4 -0.7,-4 -0.7,4 -0.7,-4 -0.7,4 -0.7,-4 -0.7,4 -0.7,-4 1,3.1 -2.7,0.7 3.2,-2.4 -2.4,3.2 3.2,-2.4 -2.4,3.2 3.2,-2.4 -2.4,3.2 3.2,-2.4 -2.4,3.2 3.2,-2.4 -2.4,0.4 -2.7,6 -7,-0.6 -3,6.4 -7,-0.5 -2.8,6.4 -7,-0.3 -2.6,6.5 -7,0.1 -2.1,6.7 -7,1.1 1.2,5.1 4.6,3.8 4.7,-5.5 7,1.6 3.9,-6.1 7.1,1 3.6,-6.3 7.2,0.8 3.4,-6.4 7.2,0.6 3.3,-6.4 6.9,0.6 0.6,-3.5 -1,3.9 2.1,-3.5 -1,3.9 2.1,-3.5 -1,3.9 2.1,-3.5 -1,3.9 2.1,-3.5 -1,3.9 3,-2.7 -3.5,-0.1 1.5,3.8 -3,-2.8 1.5,3.8 -3,-2.8 1.6,3.8 -3.1,-2.7 1.7,3.7 -3.2,-2.6 2,3.6 -2.7,1 2.6,-3.2 -1,4 2.7,-3.1 -1.2,3.9 2.9,-2.9 -1.5,3.8 3.1,-2.6 -1.9,3.6 3.6,-2 -2.9,2.8 4,0.4 -4,-0.7 2.1,3.5 -3.2,-2.6 1.4,3.9 -3,-2.9 1.3,3.9 -3.1,-2.7 1.7,3.7 -3.6,-2.1 2.9,2.9 -4,0.2 3.9,-0.3 -1.3,3.6 1.5,-3.8 1.2,3.9 0.4,-4.1 1.7,3.7 0.1,-4.1 1.8,3.7 0.2,-4.1 1.4,3.8 2.7,-2.6 -3.9,6.1 4.1,5.4 -3.9,5.5 4.2,5.3 -3.8,5.6 4.3,5.2 -3.6,5.7 4.5,5.1 -3.3,5.9 4.9,4.6 0.1,7.4 0.1,-7.4 4.9,-4.6 -3.3,-5.9 4.5,-5.1 -3.6,-5.7 4.3,-5.2 -3.8,-5.6 4.2,-5.3 -3.9,-5.5 4.1,-5.4 -3.9,-6.1 2.7,2.6 1.4,-3.8 0.2,4.1 1.8,-3.7 0.1,4.1 1.7,-3.7 0.4,4.1 1.2,-3.9 1.5,3.8 -1.3,-3.6 3.9,0.3 -4,-0.2 2.8,-2.9 -3.6,2.1 1.7,-3.7 -3.1,2.7 1.3,-3.9 -3,2.9 1.4,-3.9 -3.2,2.6 2.1,-3.5 -4,0.7 4,-0.4 -2.9,-2.8 3.6,2 -1.9,-3.6 3.1,2.6 -1.5,-3.8 2.9,2.9 -1.2,-3.9 2.7,3.1 -1,-4 2.6,3.2 -2.7,-1 2,-3.6 -3.2,2.6 1.7,-3.7 -3.1,2.7 1.6,-3.8 -3,2.8 1.5,-3.8 -3,2.8 1.5,-3.8 -3.5,0.1 3,2.7 -1,-3.9 2.1,3.5 -1,-3.9 2.1,3.5 -1,-3.9 2.1,3.5 -1,-3.9 2.1,3.4 -1,-3.9 0.6,3.5 6.9,-0.6 3.3,6.4 7.2,-0.6 3.4,6.4 7.2,-0.8 3.6,6.3 7.1,-1 3.9,6.1 7,-1.6 4.7,5.5 4.6,-3.8 1.2,-5.1 -7,-1.1 -2.1,-6.7 -7,-0.1 -2.6,-6.5 -7,0.3 -2.8,-6.4 -7,0.5 -3,-6.4 -7,0.6 -2.7,-6 -2.4,-0.4 3.2,2.4 -2.4,-3.2 3.2,2.4 -2.4,-3.2 3.2,2.4 -2.4,-3.2 3.2,2.4 -2.4,-3.3 3.2,2.4 -2.7,-0.8 1,-3.1 -0.7,4 -0.7,-4 -0.7,4 -0.7,-4 -0.7,4 -0.7,-4 -0.7,4 -0.7,-4 -0.7,4 0.9,-3.2 -3.8,0.3 3.7,-2 -4.2,-0.5 3.7,-2 -4.2,-0.5 3.7,-2 -4.2,-0.5 3.7,-2 -4.2,-0.5 3.7,-2 h -4 l 2.4,-3.2 -3.7,2 2,-3.7 -3.7,2 2,-3.7 -3.7,2 2,-3.7 -3.7,2 2,-3.7 -3.7,2 2.3,-3.3 -3.4,0.1 3.9,1.1 -3.6,-1.7 3.9,1.1 -3.6,-1.7 3.9,1.1 -3.6,-1.7 3.9,1.1 -3.6,-1.7 3.9,1.1 -3.4,-2.1 3.3,2.3 -2.6,-3.1 3.1,2.6 -3.3,-0.9 3.1,2.6 -2.6,-3.1 3.1,2.6 -2.6,-3.1 3.1,2.6 -2.6,-3.1 0.8,3 5.4,-1.2 1.4,5.6 5.6,-1.3 1.7,5.5 5.6,-1.6 2.1,5.4 5.4,-2.1 2.8,5.1 4.8,-3.1 4.5,3.6 1,-5.4 4.6,-1.6 -4.2,-2.4 2.2,-4.4 -4.9,0.3 0.6,-4.9 -4.8,1.3 -0.1,-4.9 -4.6,1.8 -0.5,-4.9 -4.5,2 -0.3,-1.6 -0.4,-4.2 3.5,2.5 -1.4,-4 4,1.5 -2.3,-3.6 4.2,0.6 -3.1,-3 4.3,-0.4 -3.7,-2.1 3.9,-1.8 -4,0.4 -1.4,-3.9 -2.6,4.2 -3.3,-3.6 -2.2,4.4 -3.4,-3.5 -2.2,4.4 -3.4,-3.5 -2.3,4.4 -3.3,-3.6 -2.5,4.2 -2.6,-3.9 -2.4,2.3 3.4,-2.2 -3.9,1 3.5,-2 -4,0.7 3.7,-1.7 -4,0.3 3.9,-1.2 -4,-0.5 4,-0.1 -1.5,-3 0.1,4.1 1.9,-3.6 -0.3,4.1 1.9,-3.6 -0.3,4.1 1.9,-3.6 -0.3,4.1 1.9,-3.6 -0.3,4.1 1.9,-3.6 1.5,3.7 -3.2,-2.4 4,-0.8 -4,-0.8 4,-0.8 -4,-0.8 4,-0.8 -4,-0.8 4,-0.8 -4,-0.8 4,-0.8 h -3.8 l 2.6,-2.9 -3.5,2.2 2.2,-3.5 -3.5,2.2 2.2,-3.5 -3.5,2.2 2.2,-3.5 -3.5,2.2 2.2,-3.5 -3.5,2.2 2.7,-2.5 -3.9,-1.8 4,-2.3 -4,-2.3 4,-2.3 -4,-2.2 4,-2.3 -4,-2.3 4,-2.3 -4,-2.3 4,-2.3 -4,-2.2 4,-0.7 -4,-0.4 3.9,-0.9 -4,-0.3 3.9,-0.9 -4,-0.3 3.9,-0.9 -4,-0.3 3.9,-0.9 -4,-0.3 2.8,1 0.3,-4.4 3.2,3.1 0.5,-4.4 3.2,3.1 0.5,-4.4 3.2,3.1 0.5,-4.4 3.2,3.1 0.5,-4.4 3.2,3.1 0.2,-4.3 3,2.3 -3.2,-2.5 3.7,1.5 -3.2,-2.5 3.7,1.5 -3.2,-2.5 3.7,1.5 -3.2,-2.5 3.7,1.5 -3.2,-2.5 3.3,2 0.3,-2.8 -1.8,3.6 2.7,-3 -1.8,3.6 2.7,-3 -1.8,3.6 2.7,-3 -1.8,3.6 2.7,-3 -1.8,3.6 2.5,-3.1 -0.1,4.6 3.9,-2.3 v 4.6 l 4,-2.3 -0.1,4.6 3.9,-2.3 v 4.6 l 4,-2.3 v 4.6 l 4,-2.3 -0.4,4.3 3.5,-1.1 -3.6,1.9 4.1,-0.1 -3.6,1.9 4.1,-0.1 -3.6,1.9 4.1,-0.1 -3.6,1.9 4.1,-0.1 -3.6,1.9 3.8,-0.8 -1.9,3.3 2.7,-3 -1.3,3.9 2.7,-3 -1.3,3.9 2.7,-3 -1.3,3.9 2.7,-3 -1.3,3.9 2.7,-3 0.5,4 -2.5,-3.1 4.1,0.2 -3.7,-1.8 4.1,0.2 -3.7,-1.8 4.1,0.2 -3.7,-1.8 4.1,0.2 -3.7,-1.8 4.1,0.2 -3.6,-2.1 1.8,2.8 2.1,-3.4 -1.6,3.7 2.9,-2.8 -2.3,3.3 3.3,-2.3 -2.6,3.1 3.5,-2.1 -2.8,2.9 3.6,-1.8 -3.2,1 2,4.2 H 318 l 1.5,4.7 -4.9,-0.2 1.3,4.7 -4.9,-0.3 1.3,4.7 -4.9,-0.3 1.5,4.7 -4.9,0.1 2.7,3.1 -2.4,3.3 3.5,-2.4 -0.1,4.3 2.5,-3.5 1,4.2 1.6,-4 1.9,3.8 0.7,-4.2 2.8,3.3 -0.4,-4.3 3.5,2.5 1.2,1.1 -4,2.9 4,2.9 -3.9,3.1 4.2,2.6 -3.5,3.5 4.5,1.9 -2.7,4.1 4.9,0.3 v 4.9 l 3.7,-3.2 5.1,1.8 -0.9,-5.7 5.1,-2.6 -3,-4.9 4.5,-3.6 -3.6,-4.5 4.2,-4 -3.9,-4.3 4,-4.2 -4.1,-4.1 3.7,-4.1 -2.2,-2.2 1.3,3.8 -0.7,-3.9 1.3,3.8 -0.7,-3.9 1.3,3.8 -0.7,-3.9 1.3,3.8 -0.7,-3.9 1.4,3.8 -0.3,-4 0.1,4 1,-3.9 -0.3,4 1,-3.9 -0.3,4 1,-3.9 -0.3,4 1,-3.9 -0.3,4 1,-3.9 -1.8,3 4,-0.3 -3.6,2.2 4.2,0.1 -3.6,2.2 4.2,0.1 -3.6,2.2 4.2,0.1 -3.6,2.2 4.2,0.1 -3.6,2.2 3.9,-0.5 -2,3.4 3.6,-2.2 -1.6,3.9 3.6,-2.2 -1.6,3.9 3.6,-2.2 -1.6,3.9 3.6,-2.2 -1.6,3.9 3.6,-2.2 -2.1,3.2 3.2,0.8 -3.8,-1.4 3.1,2.6 -3.8,-1.4 3.1,2.6 -3.8,-1.4 3.1,2.6 -3.8,-1.4 3.1,2.6 -3.8,-1.4 3.2,0.7 -0.7,2.7 -0.5,-4 1.6,3.7 -0.5,-4 1.6,3.7 -0.5,-4 1.6,3.7 -0.5,-4 1.6,3.7 -0.5,-4 -0.9,2.3 3.8,5.3 -4,5.7 4,5.8 -3.9,5.8 4.2,5.7 -3.8,5.9 4.3,5.5 -3.5,6.1 4.7,5.2 -2.6,6.6 5,1.5 5.6,-2.1 -2.4,-6.8 4.9,-5.3 -3.3,-6.4 4.5,-5.7 -3.6,-6.2 4.3,-5.8 -3.8,-6.1 4.1,-5.9 -3.9,-6 4,-5.7 -2.7,-2.3 2.9,2.9 -1.9,-3.5 2.9,2.9 -1.9,-3.5 2.9,2.9 -1.9,-3.5 2.9,2.8 -1.9,-3.5 2.9,2.8 -0.8,-3.9 -1.9,3 4,0.6 -3.9,1.2 4.1,0.6 -3.9,1.2 4.1,0.5 -3.9,1.3 4.1,0.4 -3.8,1.5 4.1,0.1 -0.4,2.8 -1.4,-3.9 2.9,2.9 -1.3,-3.9 2.8,3 -1.1,-4 2.6,3.2 -0.7,-4 2.2,3.5 v -4.1 l 1,3.9 2.3,-3.2 -2.6,3.1 4.1,-0.1 -3.9,1.5 4,0.8 -4,1.1 4,0.8 -3.9,1.3 4.1,0.4 -3.6,2.1 3.9,-1 -1.9,3.6 1.7,-3.5 2.5,2.9 -2.6,-3.2 4,0.9 -3.4,-2.4 4.1,0.4 -3.5,-2.2 4.1,0.3 -3.5,-2.2 4,0.7 -0.9,-3.6 3.3,6.4 6.7,-0.8 2.8,6.1 6.7,-0.9 3,6.1 6.7,-1.1 3.1,6 6.6,-1.3 3.5,5.8 6.4,-2 6.5,3.6 -6.4,-3.8 -1.5,-6.6 -6.8,-0.1 -2.1,-6.4 -6.7,0.3 -2.4,-6.3 -6.7,0.5 -2.5,-6.3 -6.7,0.6 -2.6,-6.2 z m -176.4,-109.6 2.2,3.4 -0.5,-4.1 2.2,3.4 -0.5,-4.1 2.2,3.4 -0.5,-4.1 2.2,3.4 -0.5,-4.1 2.2,3.4 -0.5,-4.1 2.2,3.4 -0.7,-4 2,3.5 -0.7,-4 2,3.5 -0.7,-4 2,3.5 -0.7,-4 2,3.5 -0.7,-4 2,3.5 v -4.1 4.1 l 2,-3.5 -0.7,4 2,-3.5 -0.7,4 2,-3.5 -0.7,4 2,-3.5 -0.7,4 2,-3.5 -0.7,4 2.2,-3.4 -0.5,4.1 2.2,-3.4 -0.5,4.1 2.2,-3.4 -0.5,4.1 2.2,-3.4 -0.5,4.1 2.2,-3.4 -0.5,4.1 2.2,-3.4 -2.4,2.9 3.5,-2 -3.5,2 3.5,-2 -3.5,2 3.5,-2 -3.5,2 3.5,-2 -3.5,2 3.5,-2 -3,-0.6 1.2,4.1 -3.7,-2.2 1.2,4.1 -3.7,-2.2 1.2,4.1 -3.7,-2.2 1.2,4.1 -3.7,-2.2 1.2,4.1 -3.7,-2.2 -0.7,4.4 2.3,-3.8 -4.2,-0.6 3.6,-2.3 -4.2,-0.7 3.6,-2.3 -4.2,-0.7 3.6,-2.3 -4.2,-0.7 3.6,-2.3 -4.2,-0.7 1.7,-3.9 1.6,3.9 -4.2,0.6 3.6,2.3 -4.2,0.7 3.6,2.3 -4.2,0.7 3.6,2.3 -4.2,0.7 3.6,2.3 -4.2,0.7 2.3,3.8 -0.7,-4.4 -3.7,2.2 1.3,-4.1 -3.7,2.2 1.2,-4.1 -3.7,2.2 1.2,-4.1 -3.7,2.2 1.2,-4.1 -3.7,2.2 1.2,-4.1 -3,0.6 3.5,2 -3.5,-2 3.5,2 -3.5,-2 3.5,2 -3.5,-2 3.5,2 -3.5,-2 3.6,0.3 z m 25.5,12.4 -2.7,3.1 3.8,-1.4 -3.1,2.6 3.8,-1.4 -3.1,2.6 3.8,-1.4 -3.1,2.6 3.8,-1.4 -3.1,2.6 3.8,-1.4 -3.4,1.9 3.8,0.6 -4.1,-0.1 3.8,1.3 -4.1,-0.1 3.8,1.3 -4.1,-0.1 3.8,1.3 -4.1,-0.1 3.8,1.3 -4.1,-0.1 3.6,2 -3.5,-2.1 2.1,3.5 -3.1,-2.6 2.1,3.5 -3.1,-2.6 2.1,3.5 -3.1,-2.6 2.1,3.5 -3.1,-2.6 2.1,3.5 -2.5,-3 v 3.9 l -0.6,-4 -0.6,4 -0.6,-4 -0.6,4 -0.6,-4 -0.6,4 -0.7,-4 -0.7,4 -0.7,-4 -1.3,3.9 1.5,-3.8 -3.1,2.6 2.1,-3.5 -3.1,2.7 2.1,-3.5 -3.1,2.6 2.1,-3.5 -3.1,2.6 2.1,-3.5 -3.1,2.5 2.5,-3 -3.8,0.7 3.8,-1.3 -4.1,0.1 3.8,-1.3 -4.1,0.1 3.8,-1.3 -4.1,0.1 3.8,-1.3 -4.1,0.1 3.8,-1.3 -4.1,-0.6 4,0.8 -3.1,-2.6 3.8,1.4 -3.1,-2.6 3.8,1.4 -3.1,-2.6 3.8,1.4 -3.1,-2.6 3.8,1.4 -3.1,-2.6 3.3,2 -1.4,-3.6 2,3.5 -0.8,-4 2,3.5 -0.8,-4 2,3.5 -0.8,-4 2,3.5 -0.8,-4 2,3.5 -0.1,-4.1 -0.1,4.1 2,-3.5 -0.8,4 2,-3.5 -0.8,4 2,-3.5 -0.8,4 2,-3.5 -0.8,4 0.5,-3.5 z m -35.6,4 3.5,1.9 -3.4,-2.1 3.5,1.9 -3.4,-2.1 3.5,1.9 -3.4,-2.1 3.5,1.9 -3.4,-2.1 3.5,1.9 -3.4,-2.1 3.5,1.9 -2.8,-3.2 4.2,0.8 -2.8,-3.2 4.2,0.8 -2.8,-3.2 4.2,0.8 -2.8,-3.2 4.2,0.8 -2.8,-3.2 4.2,0.8 -2.8,-3.2 3.5,1.9 -3.4,-2.1 3.5,1.9 -3.4,-2.1 3.5,1.9 -3.4,-2.1 3.5,1.9 -3.4,-2.1 3.5,1.9 -3.4,-2.1 0.1,2 4.2,-0.6 -2.8,3.2 4.2,-0.5 -2.8,3.2 4.3,-0.5 -2.8,3.2 4.3,-0.5 -2.8,3.2 4.3,-0.5 -2.8,3.2 4.2,1.4 -3.3,-2.9 -1.4,4.1 -1.7,-3.9 -1.4,4.1 -1.7,-3.9 -1.4,4.1 -1.7,-3.9 -1.4,4.1 -1.7,-3.9 -1.4,4.1 -1.7,-3.9 -1.9,2.3 3.9,-0.7 -3.9,0.7 3.9,-0.7 -3.9,0.7 3.9,-0.7 -3.9,0.7 3.9,-0.7 -3.9,0.7 3,-2.1 z m 2.9,18.9 3.7,-2.3 -4.2,-0.9 3.7,-2.3 -4.2,-0.9 3.7,-2.3 -4.2,-0.9 3.7,-2.3 -4.2,-0.9 3.7,-2.3 -4.2,-0.9 3,-0.5 0.8,-2.8 -0.1,4.3 2.9,-3.1 -0.1,4.3 2.9,-3.1 -0.1,4.3 2.9,-3.1 -0.1,4.3 2.9,-3.1 -0.1,4.3 4.1,-1.6 -4.4,-0.1 1.6,4 -3.8,-1.9 1.6,4 -3.8,-1.9 1.6,4 -3.8,-1.9 1.6,4 -3.8,-1.9 1.5,4 -3.8,-1.9 v 3 l 2.7,-3 -2.7,3 2.7,-3 -2.7,3 2.7,-3 -2.7,3 2.7,-3 -2.7,3 1,-3.5 z m 0,-0.6 4,1.7 0.2,-4.3 2.7,3.3 0.2,-4.3 2.7,3.3 0.2,-4.3 2.7,3.3 0.2,-4.3 2.7,3.3 0.2,-4.3 0.8,3 3.1,0.2 -4.2,1 3.8,2.1 -4.2,1 3.8,2.1 -4.2,1 3.8,2.1 -4.2,1 3.8,2.1 -4.2,1 2.4,3.7 -0.6,-4.5 -3.8,2 1.3,-4.1 -3.8,2 1.3,-4.1 -3.8,2 1.3,-4.1 -3.8,2 1.3,-4.1 -3.5,2.3 z m 32.3,13.8 -1.4,-4 -1.4,4 -1.4,-4 -1.4,4 -1.4,-4 -1.4,4 -1.4,-4 -1.4,4 -1.4,-4 -1.4,4 -1.4,-4 -0.1,4 -0.1,-4 -0.1,4 -0.1,-4 -0.1,4 -0.1,-4 -0.1,4 -0.1,-4 -0.1,4 -0.1,-4 -1.9,1.1 4.3,0.7 -2.6,-3.4 4.2,0.8 -2.6,-3.4 4.2,0.8 -2.6,-3.4 4.2,0.8 -2.6,-3.4 4.2,0.8 -2.6,-3.4 2.5,1.8 2.5,-1.8 -2.6,3.4 4.2,-0.8 -2.6,3.4 4.2,-0.8 -2.5,3.4 4.2,-0.8 -2.6,3.4 4.2,-0.8 -2.6,3.4 4.3,-0.7 -1.9,-1.1 -0.1,4 -0.1,-4 -0.1,4 -0.1,-4 -0.1,4 -0.1,-4 -0.1,4 -0.1,-4 1.9,2.2 z m 2.6,-0.5 -1.3,-3.5 v 4 -4 4 -4 4 -4 4 -4 4 l 2,-2.3 -4.2,-1 3.8,-2.1 -4.2,-1 3.8,-2.1 -4.2,-1 3.8,-2.1 -4.2,-1 3.8,-2.1 -4.2,-1 3.8,-2.1 -3.5,-2.8 2.1,3.9 2.7,-3.3 0.2,4.3 2.7,-3.3 0.2,4.3 2.7,-3.3 0.2,4.3 2.7,-3.3 0.2,4.3 2.7,-3.3 -1.1,2.7 2,2.3 -3.8,-2 1.3,4.1 -3.8,-2 1.3,4.1 -3.8,-2 1.3,4.1 -3.8,-2 1.3,4.1 -4.4,-1.1 z m 14.4,-12.7 -3.3,-1.9 2.6,3.1 -2.6,-3.1 2.6,3.1 -2.6,-3.1 2.6,3.1 -2.6,-3.1 2.6,3.1 -2.6,-3.1 2.6,3.1 v -3 l -3.8,1.9 1.6,-4 -3.8,1.9 1.6,-4 -3.8,1.9 1.6,-4 -3.8,1.9 1.6,-4 -3.8,1.9 1.5,-4 -4.4,0.1 4.1,1.6 -0.1,-4.3 2.9,3.1 -0.1,-4.3 2.9,3.1 -0.1,-4.3 2.9,3.1 -0.1,-4.3 2.9,3.1 -0.1,-4.3 0.8,2.8 3,0.5 -4.2,0.9 3.7,2.3 -4.2,0.9 3.7,2.3 -4.2,0.9 3.7,2.3 -4.2,0.9 3.7,2.3 -4.1,2 z m 1.1,-15.9 -1.4,-4.1 -1.7,3.9 -1.4,-4.1 -1.7,3.9 -1.4,-4.1 -1.7,3.9 -1.4,-4.1 -1.7,3.9 -1.4,-4.1 -1.7,3.9 0.3,-3.1 -2.8,-1.3 4.2,0.5 -2.8,-3.2 4.3,0.5 -2.8,-3.2 4.3,0.5 -2.8,-3.2 4.3,0.5 -2.8,-3.2 4.3,0.5 -2.8,-3.3 v 2.2 l 3.5,-1.9 -3.4,2.1 3.5,-1.9 -3.4,2.1 3.5,-1.9 -3.4,2.1 3.5,-1.9 -3.4,2.1 3.5,-1.9 -3.4,2.1 3.9,-1.3 -3,2.7 3.9,-1.3 -3,2.7 3.9,-1.3 -3,2.7 3.9,-1.3 -3,2.7 3.9,-1.3 -3,2.7 3.9,-1.3 -3.1,2.6 3.8,-1.4 -3.1,2.6 3.8,-1.4 -3.1,2.6 3.8,-1.4 -3.1,2.6 3.8,-1.4 -3.1,2.6 3.8,-1.4 -3.1,2.6 3.7,-0.7 -3.9,-0.7 3.9,0.7 -3.9,-0.7 3.9,0.7 -3.9,-0.7 3.9,0.7 -3.9,-0.7 3.9,0.7 -4,-0.4 z"
   id="path35"
   inkscape:label="path35"
   style="fill:url(#SVGID_1_)" />
		<path
   class="st1"
   d="m 403.8,365.5 3.6,-1 -2.6,-3.2 3.7,1.9 -2.3,-3.4 3.6,2 -2.4,-3.3 3.7,1.7 -2.8,-3 4,0.7 -3.8,-0.7 2.2,-3.2 -2.2,3.4 -1.1,-3.9 v 4.1 l -2.4,-3.3 0.8,4 -2.7,-3.1 1,4 -2.7,-3.1 0.6,4.1 -1.9,-3.6 -1.4,3.8 1.6,-3.6 -3.9,1.1 3.5,-2.1 -4.1,-0.2 3.9,-1.4 -4.1,-0.6 4,-1.1 -4,-0.9 4,-0.8 -4,-1.1 4.1,-0.7 -2.2,1.8 -2.1,-3.5 0.7,4 -2.4,-3.3 0.8,4 -2.5,-3.3 0.9,4 -2.5,-3.2 1,4 -2.6,-3.2 -1.6,3.1 3.8,-1.3 -3.9,-1.1 4,-0.1 -3.9,-1.1 4,-0.1 -3.9,-1.1 4,-0.1 -3.9,-1.1 4,-0.1 -3.9,-1.1 3.3,1.2 2.9,-6.3 7.2,0.4 3.1,-6.5 7.2,0.2 2.9,-6.6 h 7.2 l 2.7,-6.7 7.2,-0.3 2.2,-6.9 7.1,-1.3 -1,-5.8 -3.8,-3.6 -4.4,5.5 -6.8,-1.5 -3.6,6.1 -7,-1 -3.3,6.2 -7,-0.8 -3.1,6.3 -7,-0.6 -3,6.4 -6.5,-0.7 -1.5,1.9 3.7,-1.6 -4,0.5 3.7,-1.6 -4,0.5 3.7,-1.6 -4,0.5 3.7,-1.6 -4,0.5 3.7,-1.6 -2,1.9 -2.1,-2.4 3.1,2.6 -3.8,-1.4 3.1,2.6 -3.8,-1.4 3.1,2.6 -3.8,-1.4 3.1,2.6 -3.8,-1.4 3.1,2.6 -2.3,-2.4 -1.7,3.4 0.2,-4.2 -2.5,3.3 0.2,-4.2 -2.5,3.3 0.2,-4.2 -2.5,3.3 0.2,-4.2 -2.5,3.3 0.1,-4.2 -2,3.5 -1.5,-3.6 -0.1,4.2 -2.2,-3.6 -0.1,4.2 -2.2,-3.6 -0.1,4.2 -2.2,-3.6 -0.1,4.2 -2.2,-3.6 -0.1,4.2 -1.7,-3.6 -1.7,3 2.9,-2.8 -3.3,2.3 2.9,-2.8 -3.3,2.3 2.9,-2.8 -3.3,2.3 2.9,-2.8 -3.3,2.3 2.9,-2.8 -3.5,1.9 3.6,-1.7 -3.9,0.7 3.8,-1.3 -3.9,0.7 3.8,-1.3 -3.9,0.7 3.8,-1.3 -3.9,0.7 3.8,-1.3 -3.9,0.7 3,0.8 1.6,-5.3 5.6,1.6 1.7,-5.5 5.7,1.3 1.4,-5.6 5.7,0.9 0.9,-5.7 5.8,0.1 -0.3,-5.8 5.4,-2.1 -4.2,-3.5 1,-4.8 -4.2,2.5 -2.7,-4.1 -2.2,4.4 -3.9,-3 -1.2,4.8 -4.3,-2.4 -0.7,4.9 -4.5,-2 -0.5,4.9 -1.6,-0.5 -3.9,-1.8 3.9,-1.8 -4.2,-0.8 3.3,-2.7 -4.3,0.2 2.6,-3.4 -4.1,1.2 1.8,-3.9 -3.7,2.2 0.3,-4.3 -1.6,3.7 -4.1,-0.8 2.4,4.3 -4.8,1.1 2.7,4.1 -4.7,1.2 2.7,4.1 -4.8,1.2 2.6,4.1 -4.8,1 2.4,4.3 -4.6,0.3 0.8,3.3 -0.2,-4 -1.1,3.9 v -4 l -1.4,3.8 0.4,-4 -1.8,3.6 0.9,-3.9 -2.4,3.2 2,-3.5 -3.4,-0.2 3.6,2 -2.2,-3.4 3.4,2.3 -2.2,-3.5 3.4,2.3 -2.2,-3.4 3.4,2.3 -2.2,-3.5 3.4,2.3 -2.2,-3.5 4,0.6 -3.7,1.6 1.3,-3.9 -2.7,3 1.3,-3.9 -2.7,3 1.3,-3.9 -2.7,3 1.3,-3.9 -2.7,3 1.3,-3.9 -1.9,3.3 -1.2,-3.7 0.1,4.1 -1.9,-3.6 0.1,4.1 -1.9,-3.6 0.1,4.1 -1.9,-3.6 0.1,4.1 -1.9,-3.6 0.1,4.1 -0.8,-3.6 -3.5,2.5 0.1,-4.6 -4,2.3 v -4.6 l -3.9,2.3 0.1,-4.6 -4,2.3 v -4.6 l -4,2.3 v -4.6 l -3.9,2.3 1.4,-3.8 -2.3,3.3 1.3,-3.8 -2.2,3.4 1.3,-3.8 -2.2,3.4 1.2,-3.8 -2.2,3.4 1.2,-3.8 -2.2,3.4 2.3,-1.7 -3.4,-1.9 3.7,1.5 -3.2,-2.5 3.7,1.5 -3.2,-2.5 3.7,1.5 -3.2,-2.5 3.7,1.5 -3.2,-2.5 3.7,1.5 -3.5,-1.4 3.6,-2.3 -4.3,-1.2 3.6,-2.6 -4.3,-1.2 3.6,-2.6 -4.3,-1.2 3.6,-2.6 -4.3,-1.2 3.6,-2.6 -4.3,-1.2 3.6,-2.4 -2.3,-1.9 2.2,3.4 -1.1,-3.9 2.3,3.4 -1.2,-3.9 2.3,3.3 -1.2,-3.9 2.3,3.3 -1.2,-3.9 2.3,3.3 -1.3,-3.8 3.9,2.3 -0.1,-4.6 4,2.3 v -4.6 l 3.9,2.3 -0.1,-4.6 4,2.3 v -4.6 l 4,2.3 V 248 l 3.5,2.5 0.8,-3.6 -0.1,4.1 1.9,-3.6 -0.1,4.1 1.9,-3.6 -0.1,4.1 1.9,-3.6 -0.1,4.1 1.9,-3.6 -0.1,4.1 1.2,-3.7 1.9,3.3 -1.3,-3.9 2.7,3 -1.3,-3.9 2.7,3 -1.3,-3.9 2.7,3 -1.3,-3.9 2.7,3 -1.3,-3.9 3.7,1.6 -4,0.6 2.2,-3.4 -3.4,2.3 2.2,-3.5 -3.4,2.3 2.2,-3.4 -3.4,2.3 2.2,-3.5 -3.4,2.3 2.2,-3.5 -3.6,2 3.4,-0.2 -1.9,-3.5 2.4,3.2 -0.9,-3.9 1.8,3.6 -0.4,-4 1.4,3.8 v -4 l 1.1,3.9 0.2,-4 -0.7,3.3 4.6,0.3 -2.4,4.3 4.8,1 -2.6,4.1 4.8,1.2 -2.7,4.1 4.7,1.2 -2.7,4.1 4.8,1.1 -2.4,4.3 4.1,-0.8 1.6,3.7 -0.3,-4.3 3.7,2.2 -1.8,-3.9 4.1,1.2 -2.6,-3.4 4.3,0.2 -3.3,-2.7 4.2,-0.8 -3.9,-1.8 3.9,-1.8 1.6,-0.5 0.5,4.9 4.5,-2 0.7,4.9 4.3,-2.4 1.2,4.8 4,-3 2.2,4.4 2.7,-4.1 4.2,2.5 -1,-4.8 4.2,-3.5 -5.4,-2.1 0.3,-5.7 -5.8,0.1 -0.9,-5.7 -5.7,0.9 -1.4,-5.6 -5.7,1.3 -1.7,-5.5 -5.6,1.6 -1.6,-5.3 -3,0.8 3.9,0.7 -3.8,-1.3 3.9,0.7 -3.8,-1.3 3.9,0.7 -3.8,-1.3 3.9,0.7 -3.8,-1.3 3.9,0.7 -3.6,-1.7 3.5,1.9 -2.9,-2.8 3.3,2.3 -2.9,-2.8 3.3,2.3 -2.9,-2.8 3.3,2.3 -2.9,-2.8 3.3,2.3 -2.9,-2.8 1.7,3 1.7,-3.6 0.1,4.2 2.2,-3.6 0.1,4.2 2.2,-3.6 0.1,4.2 2.2,-3.6 0.1,4.2 2.2,-3.6 0.1,4.2 1.6,-3.6 2,3.5 -0.2,-4.2 2.5,3.3 -0.2,-4.2 2.5,3.3 -0.2,-4.2 2.5,3.3 -0.2,-4.2 2.5,3.3 -0.1,-4.2 1.7,3.4 2.3,-2.4 -3.1,2.6 3.8,-1.4 -3.1,2.6 3.8,-1.4 -3.1,2.6 3.8,-1.4 -3.1,2.6 3.8,-1.4 -3.1,2.6 2.2,-2.4 2,1.9 -3.7,-1.6 4,0.5 -3.7,-1.6 4,0.5 -3.7,-1.6 4,0.5 -3.7,-1.6 4,0.5 -3.7,-1.6 1.5,1.9 6.5,-0.7 3,6.4 7,-0.6 3.1,6.3 7,-0.8 3.3,6.2 7,-1 3.6,6.1 6.9,-1.5 4.4,5.5 3.8,-3.6 1,-5.9 -7.1,-1.3 -2.2,-6.9 -7.2,-0.3 -2.7,-6.7 h -7.2 l -2.9,-6.6 -7.2,0.2 -3.1,-6.5 -7.2,0.4 -2.9,-6.3 -3.3,1.2 3.9,-1.1 -4,-0.1 3.9,-1.1 -4,-0.1 3.9,-1.1 -4,-0.1 3.9,-1.1 -4,-0.1 3.9,-1.1 -3.8,-1.3 1.7,3.1 2.6,-3.2 -1,4 2.5,-3.2 -0.9,4 2.5,-3.3 -0.8,4 2.4,-3.3 -0.6,4 2.1,-3.5 2.2,1.8 -4.1,-0.7 4,-1.1 -4,-0.8 4,-0.9 -4,-1.1 4.1,-0.6 -3.9,-1.4 4.1,-0.2 -3.5,-2.1 3.9,1.1 -1.6,-3.6 1.4,3.8 2,-3.6 -0.7,4.1 2.7,-3.1 -1,4 2.7,-3.1 -0.8,4 2.4,-3.3 v 4.1 l 1.1,-3.9 2.2,3.4 -2.2,-3.2 3.8,-0.7 -4,0.7 2.8,-3 -3.7,1.7 2.4,-3.3 -3.6,2 2.3,-3.4 -3.7,1.9 2.6,-3.2 -3.6,-1 7.2,0.3 2.6,-6.2 6.7,0.6 2.5,-6.3 6.7,0.5 2.4,-6.3 6.8,0.3 2.1,-6.4 6.8,-0.1 1.5,-6.6 6.4,-3.8 -6.5,3.6 -6.4,-2 -3.4,5.8 -6.6,-1.3 -3.1,6 -6.7,-1.1 -3,6.1 -6.7,-0.9 -2.8,6.1 -6.7,-0.8 -3.3,6.4 0.9,-3.6 -4,0.7 3.5,-2.2 -4.1,0.3 3.5,-2.2 -4.1,0.4 3.4,-2.4 -4,0.9 2.6,-3.2 -2.5,2.9 -1.7,-3.5 1.9,3.6 -3.9,-1 3.6,2 -4.1,0.4 3.9,1.3 -4,0.8 4,1.1 -4,0.8 3.9,1.5 -4.1,-0.1 2.6,3.1 -2.3,-3.2 -1,3.9 v -4.1 l -2.2,3.5 0.7,-4 -2.6,3.2 1.1,-4 -2.8,3 1.3,-3.9 -2.9,2.9 1.4,-3.9 0.4,2.8 -4.1,0.1 3.8,1.5 -4.1,0.4 3.9,1.3 -4.1,0.5 3.9,1.2 -4.1,0.6 3.9,1.2 -4,0.6 1.9,3 0.8,-3.9 -2.9,2.9 1.9,-3.5 -2.9,2.9 1.9,-3.5 -2.9,2.9 1.9,-3.5 -2.9,2.9 1.9,-3.5 -2.9,2.9 2.7,-2.3 -4,-5.7 3.9,-6 -4.1,-5.9 3.8,-6.1 -4.3,-5.8 3.6,-6.2 -4.5,-5.7 3.3,-6.4 -4.9,-5.3 2.4,-6.8 -5.6,-2.1 -5,1.5 2.6,6.6 -4.7,5.2 3.5,6.1 -4.3,5.5 3.8,5.9 -4.2,5.7 3.9,5.8 -4,5.8 4,5.8 -3.8,5.3 0.9,2.3 0.5,-4 -1.6,3.7 0.5,-4 -1.6,3.7 0.5,-4 -1.6,3.7 0.5,-4 -1.6,3.7 0.5,-4 0.7,2.7 -3.2,0.6 3.8,-1.4 -3.1,2.6 3.8,-1.4 -3.1,2.6 3.8,-1.4 -3.1,2.6 3.8,-1.4 -3.1,2.6 3.8,-1.4 -3.2,0.8 2.2,3.2 -3.6,-2.2 1.6,3.9 -3.6,-2.2 1.6,3.9 -3.6,-2.2 1.6,3.9 -3.6,-2.2 1.6,3.9 -3.6,-2.2 2,3.4 -3.9,-0.5 3.6,2.2 -4.2,0.1 3.6,2.2 -4.2,0.1 3.6,2.2 -4.2,0.1 3.6,2.2 -4.2,0.1 3.6,2.2 -4,-0.3 1.8,3 -1,-3.9 0.3,4 -1,-3.9 0.3,4 -1,-3.9 0.3,4 -1,-3.9 0.3,4 -1,-3.9 -0.1,4 0.3,-4 -1.3,3.8 0.7,-3.9 -1.3,3.8 0.7,-3.9 -1.3,3.8 0.7,-3.9 -1.3,3.8 0.7,-3.9 -1.4,3.8 2.2,-2.2 -3.7,-4.1 4.1,-4.1 -4,-4.2 3.9,-4.3 -4.2,-4 3.6,-4.5 -4.5,-3.6 3,-5 -5.1,-2.6 0.9,-5.7 -5.1,1.8 -3.7,-3.2 v 4.9 l -4.9,0.3 2.7,4.1 -4.5,1.9 3.5,3.5 -4.2,2.6 3.9,3.1 -4,2.9 4,2.9 -1.2,1.1 -3.5,2.5 0.4,-4.3 -2.8,3.3 -0.7,-4.2 -2,3.8 -1.6,-4 -1,4.2 -2.5,-3.5 0.1,4.3 -3.5,-2.4 2.4,3.3 -2.7,3.1 4.9,0.1 -1.5,4.7 4.9,-0.3 -1.3,4.7 4.9,-0.3 -1.3,4.7 4.9,-0.2 -1.5,4.7 h 4.9 l -2,4.2 3.2,1 -3.6,-1.8 2.8,2.9 -3.5,-2.1 2.6,3.1 -3.3,-2.3 2.3,3.4 -3,-2.9 1.6,3.7 -2.1,-3.4 -1.8,2.8 3.6,-2.1 -4.1,0.2 3.7,-1.8 -4.1,0.2 3.7,-1.8 -4.1,0.2 3.7,-1.8 -4.1,0.2 3.7,-1.8 -4.1,0.2 2.5,-3.1 -0.5,4 -2.7,-3 1.3,3.9 -2.7,-3 1.3,3.9 -2.7,-3 1.3,3.9 -2.7,-3 1.3,3.9 -2.7,-3 1.9,3.3 -3.8,-0.8 3.6,1.9 -4.1,-0.1 3.6,1.9 -4.1,-0.1 3.6,1.9 -4.1,-0.1 3.6,1.9 -4.1,-0.1 3.6,1.9 -3.5,-1.1 0.4,4.3 -3.9,-2.3 v 4.6 l -4,-2.3 0.1,4.6 -4.1,-2.7 v 4.6 l -4,-2.3 v 4.6 l -4,-2.3 0.1,4.6 -2.6,-3.1 1.7,3.7 -2.7,-3 1.7,3.7 -2.8,-3 1.8,3.6 -2.8,-2.9 1.8,3.6 -2.8,-2.9 1.8,3.6 -0.5,-2.9 -3.9,1.9 1.1,-4.3 -4.1,1.8 1.1,-4.3 -4.1,1.8 1.1,-4.3 -4.1,1.8 1.1,-4.3 -4.1,1.8 1.1,-4.3 -3.8,2 0.5,-3.7 -0.5,4 -0.5,-4 -0.5,4 -0.5,-4 -0.5,4 -0.5,-4 -0.5,4 -0.5,-4 -0.5,4 0.1,-3.9 -2.6,1.2 4,-0.2 -3.9,-0.9 4,-0.2 -3.9,-0.8 4,-0.2 -4,-0.8 4,-0.3 -4,-0.8 4,-0.3 -4,-0.7 4,-2.2 -4,-2.3 4,-2.3 -4,-2.3 4,-2.2 -4,-2.3 4,-2.3 -4,-2.3 4,-2.3 -4,-2.3 4,-1.8 -2.7,-2.5 3.5,2.2 -2.2,-3.5 3.5,2.2 -2.2,-3.5 3.5,2.2 -2.2,-3.5 3.5,2.2 -2.2,-3.5 3.5,2.2 -2.6,-2.9 h 3.8 l -4,-0.8 4,-0.8 -4,-0.8 4,-0.8 -4,-0.8 4,-0.8 -4,-0.8 4,-0.8 -4,-0.8 3.2,-2.4 -1.5,3.7 -1.9,-3.6 0.3,4.1 -1.9,-3.6 0.3,4.1 -1.9,-3.6 0.3,4.1 -1.9,-3.6 0.3,4.1 -1.9,-3.6 -0.1,4.1 1.5,-3 -4,-0.1 4,-0.5 -3.9,-1.2 4,0.3 -3.7,-1.7 4,0.7 -3.5,-2 3.9,1 -3.4,-2.2 2.4,2.3 2.6,-3.9 2.5,4.2 3.3,-3.6 2.2,4.4 3.4,-3.5 2.2,4.4 3.4,-3.5 2.2,4.4 3.3,-3.6 2.6,4.2 1.4,-3.9 4,0.4 -3.9,-1.8 3.7,-2.1 -4.3,-0.4 3.1,-3 -4.2,0.6 2.3,-3.6 -4,1.5 1.4,-4 -3.5,2.5 0.4,-4.2 0.3,-1.6 4.5,2 0.5,-4.9 4.6,1.8 0.1,-4.9 4.8,1.3 -0.6,-4.9 4.9,0.3 -2.2,-4.4 4.2,-2.4 -4.6,-1.6 -1,-5.4 -4.5,3.6 -4.8,-3.1 -2.8,5.1 -5.4,-2.1 -2.1,5.4 -5.6,-1.6 -1.7,5.5 -5.6,-1.3 -1.4,5.6 -5.4,-1.2 -0.8,3 2.6,-3.1 -3.1,2.6 2.6,-3.1 -3.1,2.6 2.6,-3.1 -3.1,2.6 2.6,-3.1 -3.1,2.6 2.6,-3.1 -3.3,2.3 3.4,-2.1 -3.9,1.1 3.6,-1.7 -3.9,1.1 3.6,-1.7 -3.9,1.1 3.6,-1.7 -3.9,1.1 3.6,-1.7 -3.9,1.1 3.5,0.1 -2.3,-3.3 3.7,2 -2,-3.7 3.7,2 -2,-3.7 3.7,2 -2,-3.7 3.7,2 -2,-3.7 3.7,2 -2.4,-3.2 h 4 l -3.7,-2 4.2,-0.5 -3.7,-2 4.2,-0.5 -3.7,-2 4.2,-0.5 -3.7,-2 4.2,-0.5 -3.7,-2 3.8,0.3 -0.9,-3.2 0.7,4 0.7,-4 0.7,4 0.7,-4 0.7,4 0.7,-4 0.7,4 0.7,-4 0.7,4 -1,-3.1 2.7,-0.7 -3.2,2.4 2.4,-3.2 -3.2,2.4 2.4,-3.2 -3.2,2.4 2.4,-3.2 -3.2,2.4 2.4,-3.2 -3.2,2.4 2.4,-0.4 2.7,-6 7,0.6 3,-6.4 7,0.5 2.8,-6.4 7,0.3 2.6,-6.5 7,-0.1 2.1,-6.7 7,-1.1 -1.2,-5.1 -4.6,-3.8 -4.7,5.5 -7,-1.6 -3.9,6.1 -7.1,-1 -3.6,6.3 -7.2,-0.8 -3.4,6.4 -7.2,-0.6 -3.3,6.4 -6.9,-0.6 -0.6,3.5 1,-3.9 -2.1,3.5 1,-3.9 -2.1,3.5 1,-3.9 -2.1,3.5 1,-3.9 -2.1,3.5 1,-3.9 -3,2.7 3.5,0.1 -1.5,-3.8 3,2.8 -1.5,-3.8 3,2.8 -1.6,-3.8 3.1,2.7 -1.7,-3.7 3.2,2.6 -2,-3.6 2.7,-1 -2.6,3.2 1,-4 -2.7,3.1 1.2,-3.9 -2.9,2.9 1.5,-3.8 -3.1,2.6 1.9,-3.6 -3.6,2 2.9,-2.8 -4,-0.4 4,0.7 -2.1,-3.5 3.2,2.6 -1.4,-3.9 3,2.9 -1.3,-3.9 3.1,2.7 -1.7,-3.7 3.6,2.1 -2.9,-2.9 4,-0.2 -3.9,0.3 1.3,-3.6 -1.5,3.8 -1.2,-3.9 -0.4,4.1 -1.7,-3.7 -0.1,4.1 -1.8,-3.7 -0.2,4.1 -1.4,-3.8 -2.7,2.6 3.9,-6.1 -4.1,-5.4 3.9,-5.5 -4.2,-5.3 3.8,-5.6 -4.3,-5.2 3.6,-5.7 -4.5,-5.1 3.3,-5.9 -4.9,-4.6 -0.1,-7.4 -0.1,7.4 -4.9,4.6 3.3,5.9 -4.5,5.1 3.6,5.7 -4.3,5.2 3.8,5.6 -4.2,5.3 3.9,5.5 -4.1,5.4 3.9,6.1 -2.7,-2.6 -1.4,3.8 -0.2,-4.1 -1.8,3.7 -0.1,-4.1 -1.7,3.7 -0.4,-4.1 -1.2,3.9 -1.5,-3.8 1.3,3.6 -3.9,-0.3 4,0.2 -2.8,2.9 3.6,-2.1 -1.7,3.7 3.1,-2.7 -1.3,3.9 3,-2.9 -1.4,3.9 3.2,-2.6 -2.1,3.5 4,-0.7 -4,0.4 2.9,2.8 -3.6,-2 1.9,3.6 -3.1,-2.6 1.5,3.8 -2.9,-2.9 1.2,3.9 -2.7,-3.1 1,4 -2.6,-3.2 2.7,1 -2,3.6 3.2,-2.6 -1.7,3.7 3.1,-2.7 -1.6,3.8 3,-2.8 -1.5,3.8 3,-2.8 -1.5,3.8 3.5,-0.1 -3,-2.7 1,3.9 -2.1,-3.5 1,3.9 -2.1,-3.5 1,3.9 -2.1,-3.5 1,3.9 -2.1,-3.4 1,3.9 -0.6,-3.5 -6.9,0.6 -3.3,-6.4 -7.2,0.6 -3.4,-6.4 -7.2,0.8 -3.6,-6.3 -7.1,1 -3.9,-6.1 -7,1.6 -4.7,-5.5 -4.6,3.8 -1.2,5.1 7,1.1 2.1,6.7 7,0.1 2.6,6.5 7,-0.3 2.8,6.4 7,-0.5 3,6.4 7,-0.6 2.7,6 2.4,0.4 -3.2,-2.4 2.4,3.2 -3.2,-2.4 2.4,3.2 -3.2,-2.4 2.4,3.2 -3.2,-2.4 2.4,3.3 -3.2,-2.4 2.7,0.8 -1,3.1 0.7,-4 0.7,4 0.7,-4 0.7,4 0.7,-4 0.7,4 0.7,-4 0.7,4 0.7,-4 -0.9,3.2 3.8,-0.3 -3.7,2 4.2,0.5 -3.7,2 4.2,0.5 -3.7,2 4.2,0.5 -3.7,2 4.2,0.5 -3.7,2 h 4 l -2.4,3.2 3.7,-2 -2,3.7 3.7,-2 -2,3.7 3.7,-2 -2,3.7 3.7,-2 -2,3.7 3.7,-2 -2.3,3.3 3.4,-0.1 -3.9,-1.1 3.6,1.7 -3.9,-1.1 3.6,1.7 -3.9,-1.1 3.6,1.7 -3.9,-1.1 3.6,1.7 -3.9,-1.1 3.4,2.1 -3.3,-2.3 2.6,3.1 -3.1,-2.6 2.6,3.1 -3.1,-2.6 2.6,3.1 -3.1,-2.6 2.6,3.1 -3.1,-2.6 2.6,3.1 -0.8,-3 -5.4,1.2 -1.4,-5.6 -5.6,1.3 -1.7,-5.5 -5.6,1.6 -2.1,-5.4 -5.4,2.1 -2.8,-5.1 -4.8,3.1 -4.5,-3.6 -1,5.4 -4.6,1.6 4.2,2.4 -2.2,4.4 4.9,-0.3 -0.6,4.9 4.8,-1.3 0.1,4.9 4.6,-1.8 0.5,4.9 4.5,-2 0.3,1.6 0.4,4.2 -3.5,-2.5 1.4,4 -4,-1.5 2.3,3.6 -4.2,-0.6 3.1,3 -4.3,0.4 3.7,2.1 -3.9,1.8 4,-0.4 1.4,3.9 2.6,-4.2 3.3,3.6 2.2,-4.4 3.4,3.5 2.2,-4.4 3.4,3.5 2.3,-4.4 3.3,3.6 2.5,-4.2 2.6,3.9 2.4,-2.3 -3.4,2.2 3.9,-1 -3.5,2 4,-0.7 -3.7,1.7 4,-0.3 -3.9,1.2 4,0.5 -4,0.1 1.5,3 -0.1,-4.1 -1.9,3.6 0.3,-4.1 -1.9,3.6 0.3,-4.1 -1.9,3.6 0.3,-4.1 -1.9,3.6 0.3,-4.1 -1.9,3.6 -1.5,-3.7 3.2,2.4 -4,0.8 4,0.8 -4,0.8 4,0.8 -4,0.8 4,0.8 -4,0.8 4,0.8 -4,0.8 h 3.8 l -2.6,2.9 3.5,-2.2 -2.2,3.5 3.5,-2.2 -2.2,3.5 3.5,-2.2 -2.2,3.5 3.5,-2.2 -2.2,3.5 3.5,-2.2 -2.7,2.5 3.9,1.8 -4,2.3 4,2.3 -4,2.3 4,2.2 -4,2.3 4,2.3 -4,2.3 4,2.3 -4,2.3 4,2.3 -4,0.7 4,0.3 -4,0.8 4,0.3 -4,0.8 4,0.2 -3.9,0.8 4,0.2 -3.9,0.9 4,0.2 -2.6,-1.2 0.1,3.9 -0.5,-4 -0.5,4 -0.5,-4 -0.5,4 -0.5,-4 -0.5,4 -0.5,-4 -0.5,4 -0.6,-4 0.5,3.7 -3.8,-2 1.1,4.3 -4.1,-1.8 1.1,4.3 -4.1,-1.8 1.1,4.3 -4.1,-1.8 1.1,4.3 -4.1,-1.8 1.1,4.3 -3.9,-1.9 -0.5,2.9 1.8,-3.6 -2.8,2.9 1.8,-3.6 -2.8,2.9 1.8,-3.6 -2.8,3 1.7,-3.7 -2.7,3 1.7,-3.7 -2.6,3.1 0.1,-4.6 -3.9,2.3 v -4.6 l -4,2.3 0.1,-4.6 -3.9,2.3 v -4.6 l -4,2.3 v -4.6 l -4,2.3 0.4,-4.3 -3.5,1.1 3.6,-1.9 -4.1,0.1 3.6,-1.9 -4.1,0.1 3.6,-1.9 -4.1,0.1 3.6,-1.9 -4.1,0.1 3.6,-1.9 -3.8,0.8 1.9,-3.3 -2.7,3 1.3,-3.9 -2.7,3 1.3,-3.9 -2.7,3 1.3,-3.9 -2.7,3 1.3,-3.9 -2.7,3 -0.5,-4 2.5,3.1 -4.1,-0.2 3.7,1.8 -4.1,-0.2 3.7,1.8 -4.1,-0.2 3.7,1.8 -4.1,-0.2 3.7,1.8 -4.1,-0.2 3.6,2.1 -1.8,-2.8 -2.1,3.4 1.6,-3.7 -2.9,2.8 2.3,-3.3 -3.3,2.3 2.6,-3.1 -3.5,2.1 2.8,-2.9 -3.6,1.8 3.2,-1 -2,-4.2 h 4.9 l -1.5,-4.7 4.9,0.2 -1.3,-4.7 4.9,0.3 -1.3,-4.7 4.9,0.3 -1.5,-4.7 4.9,-0.1 -2.7,-3.1 2.4,-3.3 -3.5,2.4 0.1,-4.3 -2.5,3.5 -1,-4.2 -1.6,4 -1.9,-3.8 -0.7,4.2 -2.8,-3.3 0.4,4.3 -3.5,-2.5 -1.2,-1.1 4,-2.9 -4,-2.9 3.9,-3.1 -4.2,-2.6 3.5,-3.5 -4.5,-1.9 2.7,-4.1 -4.3,-0.2 v -4.9 l -3.7,3.2 -5.1,-1.8 0.9,5.7 -5.1,2.6 3,4.9 -4.5,3.6 3.6,4.5 -4.2,4 3.9,4.3 -4,4.2 4.1,4.1 -3.7,4.1 2.2,2.2 -1.3,-3.8 0.7,3.9 -1.3,-3.8 0.7,3.9 -1.3,-3.8 0.7,3.9 -1.3,-3.8 0.7,3.9 -1.4,-3.8 0.3,4 -0.1,-4 -1,3.9 0.3,-4 -1,3.9 0.3,-4 -1,3.9 0.3,-4 -1,3.9 0.3,-4 -1,3.9 1.8,-3 -4,0.3 3.6,-2.2 -4.2,-0.1 3.6,-2.2 -4.2,-0.1 3.6,-2.2 -4.2,-0.1 3.6,-2.2 -4.2,-0.1 3.6,-2.2 -3.9,0.5 2,-3.4 -3.6,2.2 1.6,-3.9 -3.6,2.2 1.6,-3.9 -3.6,2.2 1.6,-3.9 -3.6,2.2 1.6,-3.9 -3.6,2.2 2.1,-3.2 -3.2,-0.8 3.8,1.4 -3.1,-2.6 3.8,1.4 -3.1,-2.6 3.8,1.4 -3.1,-2.6 3.8,1.4 -3.1,-2.6 3.8,1.4 -3.2,-0.7 0.7,-2.7 0.5,4 -1.6,-3.7 0.5,4 -1.6,-3.7 0.5,4 -1.6,-3.7 0.5,4 -1.6,-3.7 0.5,4 0.9,-2.3 -3.8,-5.3 4,-5.7 -4,-5.8 3.9,-5.8 -4.2,-5.7 3.8,-5.9 -4.3,-5.5 3.5,-6.1 -4.7,-5.2 2.6,-6.6 -5,-1.5 -5.6,2.1 2.4,6.8 -4.9,5.3 3.3,6.4 -4.5,5.7 3.6,6.2 -4.3,5.8 3.8,6.1 -4.1,5.9 3.9,6 -4,5.7 2.7,2.3 -2.9,-2.9 1.9,3.5 -2.9,-2.9 1.9,3.5 -2.9,-2.9 1.9,3.5 -2.9,-2.8 1.9,3.5 -2.9,-2.8 0.8,3.9 1.9,-3 -4,-0.6 3.9,-1.2 -4.1,-0.6 3.9,-1.2 -4.1,-0.5 3.9,-1.3 -4.1,-0.4 3.8,-1.5 -4.1,-0.1 0.4,-2.8 1.4,3.9 -2.9,-2.9 1.3,3.9 -2.8,-3 1.1,4 -2.6,-3.2 0.7,4 -2.2,-3.5 v 4.1 l -1,-3.9 -2.3,3.2 2.6,-3.1 -4.1,0.1 3.9,-1.5 -4,-0.8 4,-1.1 -4,-0.8 3.9,-1.3 -4.1,-0.4 3.6,-2.1 -3.9,1 1.9,-3.6 -1.7,3.5 -2.5,-2.9 2.6,3.2 -4,-0.9 3.4,2.4 -4.1,-0.4 3.5,2.2 -4.1,-0.3 3.5,2.2 -4,-0.7 0.9,3.6 -3.3,-6.4 -6.7,0.8 -2.8,-6.1 -6.7,0.9 -3,-6.1 -6.7,1.1 -3.1,-6 -6.6,1.3 -3.5,-5.8 -6.4,2 -6.5,-3.6 6.4,3.8 1.5,6.6 6.8,0.1 2.7,7.6 6.7,-0.3 2.4,6.3 6.7,-0.5 2.5,6.3 6.7,-0.6 2.6,6.2 7.2,-0.3 -3.6,1 2.6,3.2 -3.7,-1.9 2.3,3.4 -3.6,-2 2.4,3.3 -3.7,-1.7 2.8,3 -4,-0.7 3.8,0.7 -2.2,3.2 2.2,-3.4 1.1,3.9 V 198 l 2.4,3.3 -0.8,-4 2.7,3.1 -1,-4 2.7,3.1 -0.6,-4.1 1.9,3.6 1.4,-3.8 -1.6,3.6 3.9,-1.1 -3.5,2.1 4.1,0.2 -3.9,1.4 4.1,0.6 -4,1.1 4,0.9 -4,0.8 4,1.1 -4.1,0.7 2.2,-1.8 2.1,3.5 -0.7,-4 2.4,3.3 -0.8,-4 2.5,3.3 -0.9,-4 2.5,3.2 -1,-4 2.6,3.2 1.6,-3.1 -3.8,1.3 3.9,1.1 -4,0.1 3.9,1.1 -4,0.1 3.9,1.1 -4,0.1 3.9,1.1 -4,0.1 3.9,1.1 -3.3,-1.2 -2.9,6.3 -7.2,-0.4 -3.1,6.5 -7.2,-0.2 -2.9,6.6 h -7.2 l -2.7,6.7 -7.2,0.3 -2.2,6.9 -7.1,1.3 1,5.8 3.8,3.6 4.4,-5.5 6.8,1.5 3.6,-6.1 7,1 3.3,-6.2 7,0.8 3.1,-6.3 7,0.6 3,-6.4 6.5,0.7 1.5,-1.9 -3.7,1.6 4,-0.5 -3.7,1.6 4,-0.5 -3.7,1.6 4,-0.5 -3.7,1.6 4,-0.5 -3.7,1.6 2,-1.9 2.1,2.4 -3.1,-2.6 3.8,1.4 -3.1,-2.6 3.8,1.4 -3.1,-2.6 3.8,1.4 -3.1,-2.6 3.8,1.4 -3.1,-2.6 2.3,2.4 1.7,-3.4 -0.4,4.1 2.5,-3.3 -0.2,4.2 2.5,-3.3 -0.2,4.2 2.5,-3.3 -0.2,4.2 2.5,-3.3 -0.1,4.2 2,-3.5 1.5,3.6 0.1,-4.2 2.2,3.6 0.1,-4.2 2.2,3.6 0.1,-4.2 2.2,3.6 0.1,-4.2 2.2,3.6 0.1,-4.2 1.7,3.6 1.7,-3 -2.9,2.8 3.3,-2.3 -2.9,2.8 3.3,-2.3 -2.9,2.8 3.3,-2.3 -2.9,2.8 3.3,-2.3 -2.9,2.8 3.5,-1.9 -3.6,1.7 3.9,-0.7 -3.8,1.3 3.9,-0.7 -3.8,1.3 3.9,-0.7 -3.8,1.3 3.9,-0.7 -3.8,1.3 3.9,-0.7 -3,-0.8 -1.6,5.3 -5.6,-1.6 -1.7,5.5 -5.7,-1.3 -1.4,5.6 -5.7,-0.9 -0.9,5.7 -5.8,-0.1 0.3,5.8 -5.4,2.1 4.2,3.5 -1,4.8 4.2,-2.5 2.7,4.1 2.2,-4.4 3.9,3 1.2,-4.8 4.3,2.4 0.7,-4.9 4.5,2 0.5,-4.9 1.6,0.5 3.9,1.8 -3.9,1.8 4.2,0.8 -3.3,2.7 4.3,-0.2 -2.6,3.4 4.1,-1.2 -1.8,3.9 3.7,-2.2 -0.3,4.3 1.6,-3.7 4.1,0.8 -2.4,-4.3 4.8,-1.1 -2.7,-4.1 4.7,-1.2 -2.7,-4.1 4.8,-1.2 -2.6,-4.1 4.8,-1 -2.4,-4.3 4.6,-0.3 -0.8,-3.3 0.2,4 1.1,-3.9 v 4 l 1.4,-3.8 -0.4,4 1.8,-3.6 -0.9,3.9 2.4,-3.2 -2,3.5 3.4,0.2 -3.6,-2 2.2,3.4 -3.4,-2.3 2.2,3.5 -3.4,-2.3 2.2,3.4 -3.4,-2.3 2.2,3.5 -3.4,-2.3 2.2,3.5 -4,-0.6 3.7,-1.6 -1.3,3.9 2.7,-3 -1.3,3.9 2.7,-3 -1.3,3.9 2.7,-3 -1.3,3.9 2.7,-3 -1.3,3.9 1.9,-3.3 1.2,3.7 -0.1,-4.1 1.9,3.6 -0.1,-4.1 1.9,3.6 -0.1,-4.1 1.9,3.6 -0.1,-4.1 1.9,3.6 -0.1,-4.1 0.8,3.6 3.5,-2.5 -0.1,4.6 4,-2.3 v 4.6 l 3.9,-2.3 -0.1,4.6 4,-2.3 v 4.6 l 4,-2.3 v 4.6 l 3.9,-2.3 -1.3,3.8 2.3,-3.3 -1.2,3.9 2.3,-3.3 -1.2,3.9 2.3,-3.3 -1.2,3.9 2.3,-3.4 -1.1,3.9 2.2,-3.4 -2.3,1.9 3.6,2.4 -4.3,1.2 3.6,2.6 -4.3,1.2 3.6,2.6 -4.3,1.2 3.6,2.6 -4.3,1.2 3.6,2.6 -4.3,1.2 3.6,2.3 -3.5,1.4 3.7,-1.5 -3.2,2.5 3.7,-1.5 -3.2,2.5 3.7,-1.5 -3.2,2.5 3.7,-1.5 -3.2,2.5 3.7,-1.5 -3.4,1.9 2.3,1.6 -2.2,-3.4 1.2,3.8 -2.2,-3.4 1.2,3.8 -2.2,-3.4 1.3,3.8 -2.2,-3.4 1.3,3.8 -2.3,-3.3 1.4,3.8 -3.9,-2.3 0.1,4.6 -4,-2.3 v 4.6 l -3.9,-2.3 0.1,4.6 -4,-2.3 v 4.6 l -4,-2.3 v 4.6 l -3.5,-2.5 -0.8,3.6 0.1,-4.1 -1.9,3.6 0.1,-4.1 -1.9,3.6 0.1,-4.1 -1.9,3.6 0.1,-4.1 -1.9,3.6 0.1,-4.1 -1.2,3.7 -1.9,-3.3 1.3,3.9 -2.7,-3 1.3,3.9 -2.7,-3 1.3,3.9 -2.7,-3 1.3,3.9 -2.7,-3 1.3,3.9 -3.7,-1.6 4,-0.6 -2.2,3.4 3.4,-2.3 -2.2,3.5 3.4,-2.3 -2.2,3.4 3.4,-2.3 -2.2,3.5 3.4,-2.3 -2.2,3.5 3.6,-2 -3.4,0.2 1.9,3.5 -2.4,-3.2 0.9,3.9 -0.6,-4.6 0.4,4 -1.4,-3.8 v 4 l -1.1,-3.9 -0.2,4 0.7,-3.3 -4.6,-0.3 2.4,-4.3 -4.8,-1 2.6,-4.1 -4.8,-1.2 2.7,-4.1 -4.7,-1.2 2.7,-4.1 -4.8,-1.1 2.4,-4.3 -4.1,0.8 -1.6,-3.7 0.3,4.3 -3.7,-2.2 1.8,3.9 -4.1,-1.2 2.6,3.4 -4.3,-0.2 3.3,2.7 -4.2,0.8 3.9,1.8 -3.9,1.8 -1.6,0.5 -0.5,-4.9 -4.5,2 -0.7,-4.9 -4.3,2.4 -1.2,-4.8 -4,3 -2.2,-4.4 -2.7,4.1 -4.2,-2.5 1,4.8 -4.2,3.5 5.4,2.1 -0.3,5.7 5.8,-0.1 0.9,5.7 5.7,-0.9 1.4,5.6 5.7,-1.3 1.7,5.5 5.6,-1.6 1.6,5.3 3,-0.8 -3.9,-0.7 3.8,1.3 -3.9,-0.7 3.8,1.3 -3.9,-0.7 3.8,1.3 -3.9,-0.7 3.8,1.3 -3.9,-0.7 3.6,1.7 -3.5,-1.9 2.9,2.8 -3.3,-2.3 2.9,2.8 -3.3,-2.3 2.9,2.8 -3.3,-2.3 2.9,2.8 -3.3,-2.3 2.9,2.8 -1.7,-3 -1.7,3.6 -0.1,-4.2 -2.2,3.6 -0.1,-4.2 -2.2,3.6 -0.1,-4.2 -2.2,3.6 -0.1,-4.2 -2.2,3.6 -0.1,-4.2 -1.6,3.6 -2,-3.5 0.2,4.2 -2.5,-3.3 0.2,4.2 -2.5,-3.3 0.2,4.2 -2.5,-3.3 0.2,4.2 -2.5,-3.3 0.1,4.2 -1.7,-3.4 -2.3,2.4 3.1,-2.6 -3.8,1.4 3.1,-2.6 -3.8,1.4 3.1,-2.6 -3.8,1.4 3.1,-2.6 -3.8,1.4 3.1,-2.6 -2.2,2.4 -2,-1.9 3.7,1.6 -4,-0.5 3.7,1.6 -4,-0.5 3.7,1.6 -4,-0.5 3.7,1.6 -4,-0.5 3.7,1.6 -1.5,-1.9 -6.5,0.7 -3,-6.4 -7,0.6 -3.1,-6.3 -7,0.8 -3.3,-6.2 -7,1 -3.6,-6.1 -6.9,1.5 -4.4,-5.5 -3.8,3.6 -1,5.9 7.1,1.3 2.2,6.9 7.2,0.3 2.7,6.7 h 7.2 l 2.9,6.6 7.2,-0.2 3.1,6.5 7.2,-0.4 2.9,6.3 3.3,-1.2 -3.9,1.1 4,0.1 -3.9,1.1 4,0.1 -3.9,1.1 4,0.1 -3.9,1.1 4,0.1 -3.9,1.1 3.8,1.3 -1.7,-3.1 -2.6,3.2 1,-4 -2.5,3.2 0.9,-4 -2.5,3.3 0.8,-4 -2.4,3.3 0.6,-4 -2.1,3.5 -2.2,-1.8 4.1,0.7 -4,1.1 4,0.8 -4,0.9 4,1.1 -4.1,0.6 3.9,1.4 -4.1,0.2 3.5,2.1 -3.9,-1.1 1.6,3.6 -1.4,-3.8 -2,3.6 0.7,-4.1 -2.7,3.1 1,-4 -2.7,3.1 0.8,-4 -2.4,3.3 v -4.1 l -1.1,3.9 -2.2,-3.4 2.2,3.2 -3.8,0.7 4,-0.7 -2.8,3 3.7,-1.7 -2.4,3.3 3.6,-2 -2.3,3.4 3.7,-1.9 -2.6,3.2 3.6,1 -7.2,-0.3 -2.6,6.2 -6.7,-0.6 -2.5,6.3 -6.7,-0.5 -2.4,6.3 -6.8,-0.3 -2.1,6.4 -6.8,0.1 -1.5,6.6 -6.4,3.8 6.5,-3.6 6.4,2 3.4,-5.8 6.6,1.3 3.1,-6 6.7,1.1 3,-6.1 6.7,0.9 2.8,-6.1 6.7,0.8 3.3,-6.4 -0.9,3.6 4,-0.7 -3.5,2.2 4.1,-0.3 -3.5,2.2 4.1,-0.4 -3.4,2.4 4,-0.9 -2.6,3.2 2.5,-2.9 1.7,3.5 -1.9,-3.6 3.9,1 -3.6,-2 4.1,-0.4 -3.9,-1.3 4,-0.8 -4,-1.1 4,-0.8 -3.9,-1.5 4.1,0.1 -2.6,-3.1 2.3,3.2 1,-3.9 v 4.1 l 2.2,-3.5 -0.7,4 2.6,-3.2 -1.1,4 2.8,-3 -1.3,3.9 2.9,-2.9 -1.4,3.9 -0.4,-2.8 4.1,-0.1 -3.8,-1.5 4.1,-0.4 -3.9,-1.3 4.1,-0.5 -3.9,-1.2 4.1,-0.6 -3.9,-1.2 4,-0.6 -1.9,-3 -0.8,3.9 2.9,-2.9 -1.9,3.5 2.9,-2.9 -1.9,3.5 2.9,-2.9 -1.9,3.5 2.9,-2.9 -1.9,3.5 2.9,-2.9 -2.7,2.3 4,5.7 -3.9,6 4.1,5.9 -3.8,6.1 4.3,5.8 -3.6,6.2 4.5,5.7 -3.3,6.4 4.9,5.3 -2.4,6.8 5.6,2.1 5,-1.5 -2.6,-6.6 4.7,-5.2 -3.5,-6.1 4.3,-5.5 -3.8,-5.9 4.2,-5.7 -3.9,-5.8 4,-5.8 -4,-5.8 3.8,-5.3 -0.9,-2.3 -0.5,4 1.6,-3.7 -0.5,4 1.6,-3.7 -0.5,4 1.6,-3.7 -0.5,4 1.6,-3.7 -0.5,4 -0.7,-2.7 3.2,-0.6 -3.8,1.4 3.1,-2.6 -3.8,1.4 3.1,-2.6 -3.8,1.4 3.1,-2.6 -3.8,1.4 3.1,-2.6 -3.8,1.4 3.2,-0.8 -2.2,-3.2 3.6,2.2 -1.6,-3.9 3.6,2.2 -1.6,-3.9 3.6,2.2 -1.6,-3.9 3.6,2.2 -1.6,-3.9 3.6,2.2 -2,-3.4 3.9,0.5 -3.6,-2.2 4.2,-0.1 -3.6,-2.2 4.2,-0.1 -3.6,-2.2 4.2,-0.1 -3.6,-2.2 4.2,-0.1 -3.6,-2.2 4,0.3 -1.8,-3 1,3.9 -0.3,-4 1,3.9 -0.3,-4 1,3.9 -0.3,-4 1,3.9 -0.3,-4 1,3.9 0.1,-4 -0.3,4 1.3,-3.8 -0.7,3.9 1.3,-3.8 -0.7,3.9 1.3,-3.8 -0.7,3.9 1.3,-3.8 -0.7,3.9 1.4,-3.8 -2.2,2.2 3.7,4.1 -4.1,4.1 4,4.2 -3.9,4.3 4.2,4 -3.6,4.5 4.5,3.6 -3,5 5.1,2.6 -0.9,5.7 5.1,-1.8 3.7,3.2 v -4.9 l 4.9,-0.3 -2.7,-4.1 4.5,-1.9 -3.5,-3.5 4.2,-2.6 -3.9,-3.1 4,-2.9 -4,-2.9 1.2,-1.1 3.5,-2.5 -0.4,4.3 2.8,-3.3 0.7,4.2 2,-3.8 1.6,4 1,-4.2 2.5,3.5 -0.1,-4.3 3.5,2.4 -2.4,-3.3 2.7,-3.1 -4.9,-0.1 1.5,-4.7 -4.9,0.3 1.3,-4.7 -4.9,0.3 1.3,-4.7 -4.9,0.2 1.5,-4.7 h -4.9 l 2,-4.2 -3.2,-1 3.6,1.8 -2.8,-2.9 3.5,2.1 -2.6,-3.1 3.3,2.3 -2.3,-3.4 2.9,2.8 -1.6,-3.7 2.1,3.4 1.8,-2.8 -3.6,2.1 4.1,-0.2 -3.7,1.8 4.1,-0.2 -3.7,1.8 4.1,-0.2 -3.7,1.8 4.1,-0.2 -3.7,1.8 4.1,-0.2 -2.5,3.1 0.5,-4 2.7,3 -1.3,-3.9 2.7,3 -1.3,-3.9 2.7,3 -1.3,-3.9 2.7,3 -1.3,-3.9 2.7,3 -1.9,-3.3 3.8,0.8 -3.6,-1.9 4.1,0.1 -3.6,-1.9 4.1,0.1 -3.6,-1.9 4.1,0.1 -3.6,-1.9 4.1,0.1 -3.6,-1.9 3.5,1.1 -0.4,-4.3 3.9,2.3 v -4.6 l 4,2.3 -0.1,-4.6 3.9,2.3 v -4.6 l 4,2.3 V 311 l 4,2.3 -0.1,-4.6 2.6,3.1 -1.8,-3.6 2.7,3 -1.8,-3.6 2.7,3 -1.8,-3.6 2.7,3 -1.8,-3.6 2.7,3 -1.8,-3.6 0.3,2.8 3.3,-2 -3.2,2.5 3.7,-1.5 -3.2,2.5 3.7,-1.5 -3.2,2.5 3.7,-1.5 -3.2,2.5 3.7,-1.5 -3.2,2.5 3,-2.3 0.2,4.3 3.2,-3.1 0.5,4.4 3.2,-3.1 0.5,4.4 3.2,-3.1 0.5,4.4 3.2,-3.1 0.5,4.4 3.2,-3.1 0.3,4.4 2.8,-1 -4,0.3 3.9,0.9 -4,0.3 3.9,0.9 -4,0.3 3.9,0.9 -4,0.3 3.9,0.9 -4,0.4 4,0.7 -4,2.2 4,2.3 -4,2.3 4,2.3 -4,2.2 4,2.3 -4,2.3 4,2.3 -4,2.3 4,2.3 -4,1.8 2.7,2.5 -3.5,-2.2 2.2,3.5 -3.5,-2.2 2.2,3.5 -3.5,-2.2 2.2,3.5 -3.5,-2.2 2.2,3.5 -3.5,-2.2 2.6,2.9 h -3.8 l 4,0.8 -4,0.8 4,0.8 -4,0.8 4,0.8 -4,0.8 4,0.8 -4,0.8 4,0.8 -3.2,2.4 1.5,-3.7 1.9,3.6 -0.3,-4.1 1.9,3.6 -0.3,-4.1 1.9,3.6 -0.3,-4.1 1.9,3.6 -0.3,-4.1 1.9,3.6 0.1,-4.1 -1.5,3 4,0.1 -4,0.5 3.9,1.2 -4,-0.3 3.7,1.7 -4,-0.7 3.5,2 -3.9,-1 3.4,2.2 -2.4,-2.3 -2.6,3.9 -2.5,-4.2 -3.3,3.6 -2.2,-4.4 -3.4,3.5 -2.2,-4.4 -3.4,3.5 -2.2,-4.4 -3.3,3.6 -2.6,-4.2 -1.4,3.9 -4,-0.4 3.9,1.8 -3.7,2.1 4.3,0.4 -3.1,3 4.2,-0.6 -2.3,3.6 4,-1.5 -1.4,4 3.5,-2.5 -0.4,4.2 -0.3,1.6 -4.5,-2 -0.5,4.9 -4.6,-1.8 -0.1,4.9 -4.8,-1.3 0.6,4.9 -4.9,-0.3 2.2,4.4 -4.2,2.4 4.6,1.6 1,5.4 4.5,-3.6 4.8,3.1 2.8,-5.1 5.4,2.1 2.1,-5.4 5.6,1.6 1.7,-5.5 5.6,1.3 1.4,-5.6 5.4,1.2 0.8,-3 -2.6,3.1 3.1,-2.6 -2.6,3.1 3.1,-2.6 -2.6,3.1 3.1,-2.6 -2.6,3.1 3.1,-2.6 -2.6,3.1 3.3,-2.3 -3.4,2.1 3.9,-1.1 -3.6,1.7 3.9,-1.1 -3.6,1.7 3.9,-1.1 -3.6,1.7 3.9,-1.1 -3.6,1.7 3.9,-1.1 -3.5,-0.1 2.3,3.3 -3.7,-2 2,3.7 -3.7,-2 2,3.7 -3.7,-2 2,3.7 -3.7,-2 2,3.7 -3.7,-2 2.4,3.2 h -4 l 3.7,2 -4.2,0.5 3.7,2 -4.2,0.5 3.7,2 -4.2,0.5 3.7,2 -4.2,0.5 3.7,2 -3.8,-0.3 0.9,3.2 -0.7,-4 -0.7,4 -0.7,-4 -0.7,4 -0.7,-4 -0.7,4 -0.7,-4 -0.7,4 -0.7,-4 1,3.1 -2.7,0.7 3.2,-2.4 -2.4,3.2 3.2,-2.4 -2.4,3.2 3.2,-2.4 -2.4,3.2 3.2,-2.4 -2.4,3.2 3.2,-2.4 -2.4,0.4 -2.7,6 -7,-0.6 -3,6.4 -7,-0.5 -2.8,6.4 -7,-0.3 -2.6,6.5 -7,0.1 -2.1,6.7 -7,1.1 1.2,5.1 4.6,3.8 4.7,-5.5 7,1.6 3.9,-6.1 7.1,1 3.6,-6.3 7.2,0.8 3.4,-6.4 7.2,0.6 3.3,-6.4 6.9,0.6 0.6,-3.5 -1,3.9 2.1,-3.5 -1,3.9 2.1,-3.5 -1,3.9 2.1,-3.5 -1,3.9 2.1,-3.5 -1,3.9 3,-2.7 -3.5,-0.1 1.5,3.8 -3,-2.8 1.5,3.8 -3,-2.8 1.6,3.8 -3.1,-2.7 1.7,3.7 -3.2,-2.6 2,3.6 -2.7,1 2.6,-3.2 -1,4 2.7,-3.1 -1.2,3.9 2.9,-2.9 -1.5,3.8 3.1,-2.6 -1.9,3.6 3.6,-2 -2.9,2.8 4,0.4 -4,-0.7 2.1,3.5 -3.2,-2.6 1.4,3.9 -3,-2.9 1.3,3.9 -3.1,-2.7 1.7,3.7 -3.6,-2.1 2.9,2.9 -4,0.2 3.9,-0.3 -1.3,3.6 1.5,-3.8 1.2,3.9 0.4,-4.1 1.7,3.7 0.1,-4.1 1.8,3.7 0.2,-4.1 1.4,3.8 2.7,-2.6 -3.9,6.1 4.1,5.4 -3.9,5.5 4.2,5.3 -3.8,5.6 4.3,5.2 -3.6,5.7 4.5,5.1 -3.3,5.9 4.9,4.6 0.1,7.4 0.1,-7.4 4.9,-4.6 -3.3,-5.9 4.5,-5.1 -3.6,-5.7 4.3,-5.2 -3.8,-5.6 4.2,-5.3 -3.9,-5.5 4.1,-5.4 -3.9,-6.1 2.7,2.6 1.4,-3.8 0.2,4.1 1.8,-3.7 0.1,4.1 1.7,-3.7 0.4,4.1 1.2,-3.9 1.5,3.8 -1.3,-3.6 3.9,0.3 -4,-0.2 2.8,-2.9 -3.6,2.1 1.7,-3.7 -3.1,2.7 1.3,-3.9 -3,2.9 1.4,-3.9 -3.2,2.6 2.1,-3.5 -4,0.7 4,-0.4 -2.9,-2.8 3.6,2 -1.9,-3.6 3.1,2.6 -1.5,-3.8 2.9,2.9 -1.2,-3.9 2.7,3.1 -1,-4 2.6,3.2 -2.7,-1 2,-3.6 -3.2,2.6 1.7,-3.7 -3.1,2.7 1.6,-3.8 -3,2.8 1.5,-3.8 -3,2.8 1.5,-3.8 -3.5,0.1 3,2.7 -1,-3.9 2.1,3.5 -1,-3.9 2.1,3.5 -1,-3.9 2.1,3.5 -1,-3.9 2.1,3.4 -1,-3.9 0.6,3.5 6.9,-0.6 3.3,6.4 7.2,-0.6 3.4,6.4 7.2,-0.8 3.6,6.3 7.1,-1 3.9,6.1 7,-1.6 4.7,5.5 4.6,-3.8 1.2,-5.1 -7,-1.1 -2.1,-6.7 -7,-0.1 -2.6,-6.5 -7,0.3 -2.8,-6.4 -7,0.5 -3,-6.4 -7,0.6 -2.7,-6 -2.4,-0.4 3.2,2.4 -2.4,-3.2 3.2,2.4 -2.4,-3.2 3.2,2.4 -2.4,-3.2 3.2,2.4 -2.4,-3.3 3.2,2.4 -2.7,-0.8 1,-3.1 -0.7,4 -0.7,-4 -0.7,4 -0.7,-4 -0.7,4 -0.7,-4 -0.7,4 -0.7,-4 -0.7,4 0.9,-3.2 -3.8,0.3 3.7,-2 -4.2,-0.5 3.7,-2 -4.2,-0.5 3.7,-2 -4.2,-0.5 3.7,-2 -4.2,-0.5 3.7,-2 h -4 l 2.4,-3.2 -3.7,2 2,-3.7 -3.7,2 2,-3.7 -3.7,2 2,-3.7 -3.7,2 2,-3.7 -3.7,2 2.3,-3.3 -3.4,0.1 3.9,1.1 -3.6,-1.7 3.9,1.1 -3.6,-1.7 3.9,1.1 -3.6,-1.7 3.9,1.1 -3.6,-1.7 3.9,1.1 -3.4,-2.1 3.3,2.3 -2.6,-3.1 3.1,2.6 -3.3,-0.9 3.1,2.6 -2.6,-3.1 3.1,2.6 -2.6,-3.1 3.1,2.6 -2.6,-3.1 0.8,3 5.4,-1.2 1.4,5.6 5.6,-1.3 1.7,5.5 5.6,-1.6 2.1,5.4 5.4,-2.1 2.8,5.1 4.8,-3.1 4.5,3.6 1,-5.4 4.6,-1.6 -4.2,-2.4 2.2,-4.4 -4.9,0.3 0.6,-4.9 -4.8,1.3 -0.1,-4.9 -4.6,1.8 -0.5,-4.9 -4.5,2 -0.3,-1.6 -0.4,-4.2 3.5,2.5 -1.4,-4 4,1.5 -2.3,-3.6 4.2,0.6 -3.1,-3 4.3,-0.4 -3.7,-2.1 3.9,-1.8 -4,0.4 -1.4,-3.9 -2.6,4.2 -3.3,-3.6 -2.2,4.4 -3.4,-3.5 -2.2,4.4 -3.4,-3.5 -2.3,4.4 -3.3,-3.6 -2.5,4.2 -2.6,-3.9 -2.4,2.3 3.4,-2.2 -3.9,1 3.5,-2 -4,0.7 3.7,-1.7 -4,0.3 3.9,-1.2 -4,-0.5 4,-0.1 -1.5,-3 0.1,4.1 1.9,-3.6 -0.3,4.1 1.9,-3.6 -0.3,4.1 1.9,-3.6 -0.3,4.1 1.9,-3.6 -0.3,4.1 1.9,-3.6 1.5,3.7 -3.2,-2.4 4,-0.8 -4,-0.8 4,-0.8 -4,-0.8 4,-0.8 -4,-0.8 4,-0.8 -4,-0.8 4,-0.8 h -3.8 l 2.6,-2.9 -3.5,2.2 2.2,-3.5 -3.5,2.2 2.2,-3.5 -3.5,2.2 2.2,-3.5 -3.5,2.2 2.2,-3.5 -3.5,2.2 2.7,-2.5 -3.9,-1.8 4,-2.3 -4,-2.3 4,-2.3 -4,-2.2 4,-2.3 -4,-2.3 4,-2.3 -4,-2.3 4,-2.3 -4,-2.2 4,-0.7 -4,-0.4 3.9,-0.9 -4,-0.3 3.9,-0.9 -4,-0.3 3.9,-0.9 -4,-0.3 3.9,-0.9 -4,-0.3 2.8,1 0.3,-4.4 3.2,3.1 0.5,-4.4 3.2,3.1 0.5,-4.4 3.2,3.1 0.5,-4.4 3.2,3.1 0.5,-4.4 3.2,3.1 0.2,-4.3 3,2.3 -3.2,-2.5 3.7,1.5 -3.2,-2.5 3.7,1.5 -3.2,-2.5 3.7,1.5 -3.2,-2.5 3.7,1.5 -3.2,-2.5 3.3,2 0.3,-2.8 -1.8,3.6 2.7,-3 -1.8,3.6 2.7,-3 -1.8,3.6 2.7,-3 -1.8,3.6 2.7,-3 -1.8,3.6 2.5,-3.1 -0.1,4.6 3.9,-2.3 v 4.6 l 4,-2.3 -0.1,4.6 3.9,-2.3 v 4.6 l 4,-2.3 v 4.6 l 4,-2.3 -0.4,4.3 3.5,-1.1 -3.6,1.9 4.1,-0.1 -3.6,1.9 4.1,-0.1 -3.6,1.9 4.1,-0.1 -3.6,1.9 4.1,-0.1 -3.6,1.9 3.8,-0.8 -1.9,3.3 2.7,-3 -1.3,3.9 2.7,-3 -1.3,3.9 2.7,-3 -1.3,3.9 2.7,-3 -1.3,3.9 2.7,-3 0.5,4 -2.5,-3.1 4.1,0.2 -3.7,-1.8 4.1,0.2 -3.7,-1.8 4.1,0.2 -3.7,-1.8 4.1,0.2 -3.7,-1.8 4.1,0.2 -3.6,-2.1 1.8,2.8 2.1,-3.4 -1.6,3.7 2.9,-2.8 -2.3,3.3 3.3,-2.3 -2.6,3.1 3.5,-2.1 -2.8,2.9 3.6,-1.8 -3.2,1 2,4.2 H 318 l 1.5,4.7 -4.9,-0.2 1.3,4.7 -4.9,-0.3 1.3,4.7 -4.9,-0.3 1.5,4.7 -4.9,0.1 2.7,3.1 -2.4,3.3 3.5,-2.4 -0.1,4.3 2.5,-3.5 1,4.2 1.6,-4 1.9,3.8 0.7,-4.2 2.8,3.3 -0.4,-4.3 3.5,2.5 1.2,1.1 -4,2.9 4,2.9 -3.9,3.1 4.2,2.6 -3.5,3.5 4.5,1.9 -2.7,4.1 4.9,0.3 v 4.9 l 3.7,-3.2 5.1,1.8 -0.9,-5.7 5.1,-2.6 -3,-4.9 4.5,-3.6 -3.6,-4.5 4.2,-4 -3.9,-4.3 4,-4.2 -4.1,-4.1 3.7,-4.1 -2.2,-2.2 1.3,3.8 -0.7,-3.9 1.3,3.8 -0.7,-3.9 1.3,3.8 -0.7,-3.9 1.3,3.8 -0.7,-3.9 1.4,3.8 -0.3,-4 0.1,4 1,-3.9 -0.3,4 1,-3.9 -0.3,4 1,-3.9 -0.3,4 1,-3.9 -0.3,4 1,-3.9 -1.8,3 4,-0.3 -3.6,2.2 4.2,0.1 -3.6,2.2 4.2,0.1 -3.6,2.2 4.2,0.1 -3.6,2.2 4.2,0.1 -3.6,2.2 3.9,-0.5 -2,3.4 3.6,-2.2 -1.6,3.9 3.6,-2.2 -1.6,3.9 3.6,-2.2 -1.6,3.9 3.6,-2.2 -1.6,3.9 3.6,-2.2 -2.1,3.2 3.2,0.8 -3.8,-1.4 3.1,2.6 -3.8,-1.4 3.1,2.6 -3.8,-1.4 3.1,2.6 -3.8,-1.4 3.1,2.6 -3.8,-1.4 3.2,0.7 -0.7,2.7 -0.5,-4 1.6,3.7 -0.5,-4 1.6,3.7 -0.5,-4 1.6,3.7 -0.5,-4 1.6,3.7 -0.5,-4 -0.9,2.3 3.8,5.3 -4,5.7 4,5.8 -3.9,5.8 4.2,5.7 -3.8,5.9 4.3,5.5 -3.5,6.1 4.7,5.2 -2.6,6.6 5,1.5 5.6,-2.1 -2.4,-6.8 4.9,-5.3 -3.3,-6.4 4.5,-5.7 -3.6,-6.2 4.3,-5.8 -3.8,-6.1 4.1,-5.9 -3.9,-6 4,-5.7 -2.7,-2.3 2.9,2.9 -1.9,-3.5 2.9,2.9 -1.9,-3.5 2.9,2.9 -1.9,-3.5 2.9,2.8 -1.9,-3.5 2.9,2.8 -0.8,-3.9 -1.9,3 4,0.6 -3.9,1.2 4.1,0.6 -3.9,1.2 4.1,0.5 -3.9,1.3 4.1,0.4 -3.8,1.5 4.1,0.1 -0.4,2.8 -1.4,-3.9 2.9,2.9 -1.3,-3.9 2.8,3 -1.1,-4 2.6,3.2 -0.7,-4 2.2,3.5 v -4.1 l 1,3.9 2.3,-3.2 -2.6,3.1 4.1,-0.1 -3.9,1.5 4,0.8 -4,1.1 4,0.8 -3.9,1.3 4.1,0.4 -3.6,2.1 3.9,-1 -1.9,3.6 1.7,-3.5 2.5,2.9 -2.6,-3.2 4,0.9 -3.4,-2.4 4.1,0.4 -3.5,-2.2 4.1,0.3 -3.5,-2.2 4,0.7 -0.9,-3.6 3.3,6.4 6.7,-0.8 2.8,6.1 6.7,-0.9 3,6.1 6.7,-1.1 3.1,6 6.6,-1.3 3.5,5.8 6.4,-2 6.5,3.6 -6.4,-3.8 -1.5,-6.6 -6.8,-0.1 -2.1,-6.4 -6.7,0.3 -2.4,-6.3 -6.7,0.5 -2.5,-6.3 -6.7,0.6 -2.6,-6.2 z m -176.4,-109.6 2.2,3.4 -0.5,-4.1 2.2,3.4 -0.5,-4.1 2.2,3.4 -0.5,-4.1 2.2,3.4 -0.5,-4.1 2.2,3.4 -0.5,-4.1 2.2,3.4 -0.7,-4 2,3.5 -0.7,-4 2,3.5 -0.7,-4 2,3.5 -0.7,-4 2,3.5 -0.7,-4 2,3.5 v -4.1 4.1 l 2,-3.5 -0.7,4 2,-3.5 -0.7,4 2,-3.5 -0.7,4 2,-3.5 -0.7,4 2,-3.5 -0.7,4 2.2,-3.4 -0.5,4.1 2.2,-3.4 -0.5,4.1 2.2,-3.4 -0.5,4.1 2.2,-3.4 -0.5,4.1 2.2,-3.4 -0.5,4.1 2.2,-3.4 -2.4,2.9 3.5,-2 -3.5,2 3.5,-2 -3.5,2 3.5,-2 -3.5,2 3.5,-2 -3.5,2 3.5,-2 -3,-0.6 1.2,4.1 -3.7,-2.2 1.2,4.1 -3.7,-2.2 1.2,4.1 -3.7,-2.2 1.2,4.1 -3.7,-2.2 1.2,4.1 -3.7,-2.2 -0.7,4.4 2.3,-3.8 -4.2,-0.6 3.6,-2.3 -4.2,-0.7 3.6,-2.3 -4.2,-0.7 3.6,-2.3 -4.2,-0.7 3.6,-2.3 -4.2,-0.7 1.7,-3.9 1.6,3.9 -4.2,0.6 3.6,2.3 -4.2,0.7 3.6,2.3 -4.2,0.7 3.6,2.3 -4.2,0.7 3.6,2.3 -4.2,0.7 2.3,3.8 -0.7,-4.4 -3.7,2.2 1.3,-4.1 -3.7,2.2 1.2,-4.1 -3.7,2.2 1.2,-4.1 -3.7,2.2 1.2,-4.1 -3.7,2.2 1.2,-4.1 -3,0.6 3.5,2 -3.5,-2 3.5,2 -3.5,-2 3.5,2 -3.5,-2 3.5,2 -3.5,-2 3.6,0.3 z m 25.5,12.4 -2.7,3.1 3.8,-1.4 -3.1,2.6 3.8,-1.4 -3.1,2.6 3.8,-1.4 -3.1,2.6 3.8,-1.4 -3.1,2.6 3.8,-1.4 -3.4,1.9 3.8,0.6 -4.1,-0.1 3.8,1.3 -4.1,-0.1 3.8,1.3 -4.1,-0.1 3.8,1.3 -4.1,-0.1 3.8,1.3 -4.1,-0.1 3.6,2 -3.5,-2.1 2.1,3.5 -3.1,-2.6 2.1,3.5 -3.1,-2.6 2.1,3.5 -3.1,-2.6 2.1,3.5 -3.1,-2.6 2.1,3.5 -2.5,-3 v 3.9 l -0.6,-4 -0.6,4 -0.6,-4 -0.6,4 -0.6,-4 -0.6,4 -0.7,-4 -0.7,4 -0.7,-4 -1.3,3.9 1.5,-3.8 -3.1,2.6 2.1,-3.5 -3.1,2.7 2.1,-3.5 -3.1,2.6 2.1,-3.5 -3.1,2.6 2.1,-3.5 -3.1,2.5 2.5,-3 -3.8,0.7 3.8,-1.3 -4.1,0.1 3.8,-1.3 -4.1,0.1 3.8,-1.3 -4.1,0.1 3.8,-1.3 -4.1,0.1 3.8,-1.3 -4.1,-0.6 4,0.8 -3.1,-2.6 3.8,1.4 -3.1,-2.6 3.8,1.4 -3.1,-2.6 3.8,1.4 -3.1,-2.6 3.8,1.4 -3.1,-2.6 3.3,2 -1.4,-3.6 2,3.5 -0.8,-4 2,3.5 -0.8,-4 2,3.5 -0.8,-4 2,3.5 -0.8,-4 2,3.5 -0.1,-4.1 -0.1,4.1 2,-3.5 -0.8,4 2,-3.5 -0.8,4 2,-3.5 -0.8,4 2,-3.5 -0.8,4 0.5,-3.5 z m -35.6,4 3.5,1.9 -3.4,-2.1 3.5,1.9 -3.4,-2.1 3.5,1.9 -3.4,-2.1 3.5,1.9 -3.4,-2.1 3.5,1.9 -3.4,-2.1 3.5,1.9 -2.8,-3.2 4.2,0.8 -2.8,-3.2 4.2,0.8 -2.8,-3.2 4.2,0.8 -2.8,-3.2 4.2,0.8 -2.8,-3.2 4.2,0.8 -2.8,-3.2 3.5,1.9 -3.4,-2.1 3.5,1.9 -3.4,-2.1 3.5,1.9 -3.4,-2.1 3.5,1.9 -3.4,-2.1 3.5,1.9 -3.4,-2.1 0.1,2 4.2,-0.6 -2.8,3.2 4.2,-0.5 -2.8,3.2 4.3,-0.5 -2.8,3.2 4.3,-0.5 -2.8,3.2 4.3,-0.5 -2.8,3.2 4.2,1.4 -3.3,-2.9 -1.4,4.1 -1.7,-3.9 -1.4,4.1 -1.7,-3.9 -1.4,4.1 -1.7,-3.9 -1.4,4.1 -1.7,-3.9 -1.4,4.1 -1.7,-3.9 -1.9,2.3 3.9,-0.7 -3.9,0.7 3.9,-0.7 -3.9,0.7 3.9,-0.7 -3.9,0.7 3.9,-0.7 -3.9,0.7 3,-2.1 z m 2.9,18.9 3.7,-2.3 -4.2,-0.9 3.7,-2.3 -4.2,-0.9 3.7,-2.3 -4.2,-0.9 3.7,-2.3 -4.2,-0.9 3.7,-2.3 -4.2,-0.9 3,-0.5 0.8,-2.8 -0.1,4.3 2.9,-3.1 -0.1,4.3 2.9,-3.1 -0.1,4.3 2.9,-3.1 -0.1,4.3 2.9,-3.1 -0.1,4.3 4.1,-1.6 -4.4,-0.1 1.6,4 -3.8,-1.9 1.6,4 -3.8,-1.9 1.6,4 -3.8,-1.9 1.6,4 -3.8,-1.9 1.5,4 -3.8,-1.9 v 3 l 2.7,-3 -2.7,3 2.7,-3 -2.7,3 2.7,-3 -2.7,3 2.7,-3 -2.7,3 1,-3.5 z m 0,-0.6 4,1.7 0.2,-4.3 2.7,3.3 0.2,-4.3 2.7,3.3 0.2,-4.3 2.7,3.3 0.2,-4.3 2.7,3.3 0.2,-4.3 0.8,3 3.1,0.2 -4.2,1 3.8,2.1 -4.2,1 3.8,2.1 -4.2,1 3.8,2.1 -4.2,1 3.8,2.1 -4.2,1 2.4,3.7 -0.6,-4.5 -3.8,2 1.3,-4.1 -3.8,2 1.3,-4.1 -3.8,2 1.3,-4.1 -3.8,2 1.3,-4.1 -3.5,2.3 z m 32.3,13.8 -1.4,-4 -1.4,4 -1.4,-4 -1.4,4 -1.4,-4 -1.4,4 -1.4,-4 -1.4,4 -1.4,-4 -1.4,4 -1.4,-4 -0.1,4 -0.1,-4 -0.1,4 -0.1,-4 -0.1,4 -0.1,-4 -0.1,4 -0.1,-4 -0.1,4 -0.1,-4 -1.9,1.1 4.3,0.7 -2.6,-3.4 4.2,0.8 -2.6,-3.4 4.2,0.8 -2.6,-3.4 4.2,0.8 -2.6,-3.4 4.2,0.8 -2.6,-3.4 2.5,1.8 2.5,-1.8 -2.6,3.4 4.2,-0.8 -2.6,3.4 4.2,-0.8 -2.5,3.4 4.2,-0.8 -2.6,3.4 4.2,-0.8 -2.6,3.4 4.3,-0.7 -1.9,-1.1 -0.1,4 -0.1,-4 -0.1,4 -0.1,-4 -0.1,4 -0.1,-4 -0.1,4 -0.1,-4 1.9,2.2 z m 2.6,-0.5 -1.3,-3.5 v 4 -4 4 -4 4 -4 4 -4 4 l 2,-2.3 -4.2,-1 3.8,-2.1 -4.2,-1 3.8,-2.1 -4.2,-1 3.8,-2.1 -4.2,-1 3.8,-2.1 -4.2,-1 3.8,-2.1 -3.5,-2.8 2.1,3.9 2.7,-3.3 0.2,4.3 2.7,-3.3 0.2,4.3 2.7,-3.3 0.2,4.3 2.7,-3.3 0.2,4.3 2.7,-3.3 -1.1,2.7 2,2.3 -3.8,-2 1.3,4.1 -3.8,-2 1.3,4.1 -3.8,-2 1.3,4.1 -3.8,-2 1.3,4.1 -4.4,-1.1 z m 14.4,-12.7 -3.3,-1.9 2.6,3.1 -2.6,-3.1 2.6,3.1 -2.6,-3.1 2.6,3.1 -2.6,-3.1 2.6,3.1 -2.6,-3.1 2.6,3.1 v -3 l -3.8,1.9 1.6,-4 -3.8,1.9 1.6,-4 -3.8,1.9 1.6,-4 -3.8,1.9 1.6,-4 -3.8,1.9 1.5,-4 -4.4,0.1 4.1,1.6 -0.1,-4.3 2.9,3.1 -0.1,-4.3 2.9,3.1 -0.1,-4.3 2.9,3.1 -0.1,-4.3 2.9,3.1 -0.1,-4.3 0.8,2.8 3,0.5 -4.2,0.9 3.7,2.3 -4.2,0.9 3.7,2.3 -4.2,0.9 3.7,2.3 -4.2,0.9 3.7,2.3 -4.1,2 z m 1.1,-15.9 -1.4,-4.1 -1.7,3.9 -1.4,-4.1 -1.7,3.9 -1.4,-4.1 -1.7,3.9 -1.4,-4.1 -1.7,3.9 -1.4,-4.1 -1.7,3.9 0.3,-3.1 -2.8,-1.3 4.2,0.5 -2.8,-3.2 4.3,0.5 -2.8,-3.2 4.3,0.5 -2.8,-3.2 4.3,0.5 -2.8,-3.2 4.3,0.5 -2.8,-3.3 v 2.2 l 3.5,-1.9 -3.4,2.1 3.5,-1.9 -3.4,2.1 3.5,-1.9 -3.4,2.1 3.5,-1.9 -3.4,2.1 3.5,-1.9 -3.4,2.1 3.9,-1.3 -3,2.7 3.9,-1.3 -3,2.7 3.9,-1.3 -3,2.7 3.9,-1.3 -3,2.7 3.9,-1.3 -3,2.7 3.9,-1.3 -3.1,2.6 3.8,-1.4 -3.1,2.6 3.8,-1.4 -3.1,2.6 3.8,-1.4 -3.1,2.6 3.8,-1.4 -3.1,2.6 3.8,-1.4 -3.1,2.6 3.7,-0.7 -3.9,-0.7 3.9,0.7 -3.9,-0.7 3.9,0.7 -3.9,-0.7 3.9,0.7 -3.9,-0.7 3.9,0.7 -4,-0.4 z"
   id="path37"
   inkscape:label="path37" />
	</g>
	<radialGradient
   id="SVGID_2_"
   cx="244.87"
   cy="277.48318"
   r="10.2157"
   gradientUnits="userSpaceOnUse">
		<stop
   offset="0"
   style="stop-color:#29ABE2"
   id="stop41" />
		<stop
   offset="9.621286e-002"
   style="stop-color:#26B0E4"
   id="stop43" />
		<stop
   offset="0.2165"
   style="stop-color:#1FC0E9"
   id="stop45" />
		<stop
   offset="0.3497"
   style="stop-color:#12D9F2"
   id="stop47" />
		<stop
   offset="0.4912"
   style="stop-color:#01FDFE"
   id="stop49" />
		<stop
   offset="0.5"
   style="stop-color:#00FFFF"
   id="stop51" />
		<stop
   offset="0.5244"
   style="stop-color:#03F8FD"
   id="stop53" />
		<stop
   offset="0.6575"
   style="stop-color:#14D7F1"
   id="stop55" />
		<stop
   offset="0.7845"
   style="stop-color:#1FBFE9"
   id="stop57" />
		<stop
   offset="0.9018"
   style="stop-color:#27B0E4"
   id="stop59" />
		<stop
   offset="1"
   style="stop-color:#29ABE2"
   id="stop61" />
	</radialGradient>
	<polygon
   class="st2"
   points="251.6,269.8 248.5,275.7 255.2,276 248.9,278.5 253.9,283 247.5,281 248.4,287.6 244.9,281.9 241.3,287.6 242.2,281 235.8,283 240.8,278.5 234.6,276 241.3,275.7 238.2,269.8 243.5,273.9 244.9,267.3 246.3,273.9 "
   id="polygon64"
   inkscape:label="polygon64"
   style="fill:url(#SVGID_2_)" />
</g>
<g
   id="Layer_3"
   class="st3"
   inkscape:label="Layer_3"
   transform="translate(-33.472365,-35.296622)">
</g>
</svg>
