<?xml version="1.0" encoding="UTF-8" standalone="no"?>
<!-- Created with Inkscape (http://www.inkscape.org/) -->

<svg
   width="119.05701mm"
   height="31.400728mm"
   viewBox="0 0 119.05701 31.400728"
   version="1.1"
   id="svg5"
   inkscape:version="1.2.1 (9c6d41e410, 2022-07-14)"
   sodipodi:docname="stopy.svg"
   xmlns:inkscape="http://www.inkscape.org/namespaces/inkscape"
   xmlns:sodipodi="http://sodipodi.sourceforge.net/DTD/sodipodi-0.dtd"
   xmlns="http://www.w3.org/2000/svg"
   xmlns:svg="http://www.w3.org/2000/svg">
  <sodipodi:namedview
     id="namedview7"
     pagecolor="#ffffff"
     bordercolor="#000000"
     borderopacity="0.25"
     inkscape:showpageshadow="2"
     inkscape:pageopacity="0.0"
     inkscape:pagecheckerboard="0"
     inkscape:deskcolor="#d1d1d1"
     inkscape:document-units="mm"
     showgrid="false"
     inkscape:zoom="0.70710678"
     inkscape:cx="467.39758"
     inkscape:cy="259.50819"
     inkscape:window-width="1920"
     inkscape:window-height="1001"
     inkscape:window-x="-9"
     inkscape:window-y="-9"
     inkscape:window-maximized="1"
     inkscape:current-layer="layer1" />
  <defs
     id="defs2">
    <clipPath
       clipPathUnits="userSpaceOnUse"
       id="clipPath6016">
      <g
         inkscape:label="Clip"
         id="use6018" />
    </clipPath>
  </defs>
  <g
     inkscape:label="Vrstva 1"
     inkscape:groupmode="layer"
     id="layer1"
     transform="translate(-21.99875,-53.004347)">
    <path
       id="path2611-2"
       style="stroke-width:0.0944737"
       d="m 26.335482,60.215983 c 0.129403,0.56502 0.794306,1.1357 1.351159,1.228731 3.739698,0.624773 7.7185,-1.679773 11.380051,-1.980083 0.465022,-0.03813 0.06409,0.945676 -0.26589,1.224589 -3.772856,3.188933 -8.40863,7.0494 -12.946099,5.496038 -1.866275,-0.638943 -3.105988,-2.742866 -3.569197,-5.067445 z m 8.6e-5,-1.18e-4 -4.049975,0.90183 c -0.566897,-2.301482 -0.337071,-4.732675 1.081783,-6.103103 3.449642,-3.331899 9.285452,-1.8032 14.05494,-0.516442 0.417155,0.112536 1.197642,0.833286 0.760376,0.996063 -3.443018,1.281707 -8.023735,0.88316 -11.144992,3.035704 -0.464765,0.320521 -0.824688,1.119404 -0.702132,1.685948 z" />
    <path
       id="path2611-2-9"
       style="stroke-width:0.0944737"
       d="m 38.962941,78.080954 c 0.129402,0.565023 0.794305,1.135703 1.351158,1.228734 3.739697,0.624776 7.718499,-1.679772 11.380052,-1.980086 0.465021,-0.03813 0.06409,0.94568 -0.265892,1.224594 -3.772855,3.188929 -8.408627,7.049391 -12.946096,5.496031 -1.866276,-0.638941 -3.105989,-2.742866 -3.569197,-5.067444 z m 8.6e-5,-1.18e-4 -4.049975,0.901829 c -0.566897,-2.301482 -0.337074,-4.73267 1.081782,-6.1031 3.449643,-3.331901 9.285451,-1.803196 14.054939,-0.516439 0.417158,0.112527 1.197644,0.833281 0.760376,0.996064 -3.443018,1.281706 -8.023734,0.883156 -11.144992,3.035704 -0.464763,0.320514 -0.824686,1.119397 -0.70213,1.685942 z" />
    <path
       id="path2611-2-9-6"
       style="stroke-width:0.0944737"
       d="m 53.080134,60.683463 c 0.0423,0.578105 0.613059,1.24294 1.149388,1.419268 3.60186,1.184179 7.883899,-0.490919 11.54868,-0.232987 0.465433,0.03276 -0.07993,0.944471 -0.448364,1.170167 -4.212465,2.580474 -9.379632,5.693985 -13.629361,3.471066 -1.747921,-0.914333 -2.654548,-3.181801 -2.760202,-5.549725 z m 1.02e-4,-1.04e-4 -4.139857,0.277789 c -0.211646,-2.360803 0.383883,-4.729102 1.993997,-5.868734 3.914645,-2.770764 9.45146,-0.375501 13.970922,1.619046 0.395293,0.174435 1.057564,1.005121 0.600681,1.099772 -3.597466,0.745243 -8.064912,-0.342748 -11.476275,1.312032 -0.50796,0.246395 -0.984769,0.981523 -0.949468,1.560095 z" />
    <path
       id="path2611-2-9-6-2"
       style="stroke-width:0.0944737"
       d="m 70.40149,77.148015 c 0.0423,0.578105 0.61306,1.24294 1.149388,1.419268 3.601861,1.184179 7.883899,-0.490919 11.548681,-0.232987 0.465432,0.03276 -0.07993,0.944471 -0.448365,1.170167 -4.212465,2.580474 -9.379632,5.693985 -13.62936,3.471066 -1.747921,-0.914333 -2.654548,-3.181801 -2.760203,-5.549725 z m 1.03e-4,-1.04e-4 -4.139858,0.277789 c -0.211646,-2.360803 0.383884,-4.729102 1.993998,-5.868734 3.914645,-2.770764 9.451459,-0.375501 13.970922,1.619046 0.395292,0.174435 1.057564,1.005121 0.60068,1.099772 -3.597465,0.745243 -8.064912,-0.342749 -11.476274,1.312032 -0.50796,0.246395 -0.984769,0.981523 -0.949469,1.560094 z" />
    <path
       id="path2611-2-9-6-2-4"
       style="stroke-width:0.0944737"
       d="m 81.873109,59.893243 c 0.0423,0.578105 0.61306,1.242941 1.149388,1.419268 3.601861,1.184179 7.883899,-0.490918 11.548681,-0.232987 0.465433,0.03276 -0.07993,0.944471 -0.448364,1.170167 -4.212466,2.580474 -9.379632,5.693985 -13.629361,3.471066 -1.747921,-0.914333 -2.654548,-3.1818 -2.760202,-5.549725 z m 1.03e-4,-1.03e-4 -4.139858,0.277789 c -0.211646,-2.360804 0.383884,-4.729103 1.993998,-5.868735 3.914645,-2.770763 9.45146,-0.375501 13.970922,1.619046 0.395292,0.174436 1.057564,1.005121 0.600681,1.099772 -3.597466,0.745243 -8.064912,-0.342748 -11.476275,1.312033 -0.50796,0.246394 -0.984769,0.981522 -0.949469,1.560093 z"
       inkscape:transform-center-x="3.223027"
       inkscape:transform-center-y="19.110946" />
    <path
       id="path2611-2-9-6-2-4-8"
       style="stroke-width:0.0944737"
       d="m 97.124967,77.379488 c -0.01953,0.579321 0.477162,1.301179 0.991652,1.533637 3.455201,1.561152 7.891331,0.351763 11.507781,0.998641 0.4593,0.08215 -0.18006,0.930591 -0.57048,1.115742 -4.46339,2.117029 -9.932841,4.662354 -13.921574,1.999354 -1.640569,-1.095339 -2.300478,-3.446488 -2.153272,-5.812193 z m 1.13e-4,-9.2e-5 -4.145892,-0.164819 c 0.04106,-2.369916 0.885499,-4.661295 2.607857,-5.622913 4.187544,-2.337961 9.437675,0.633516 13.718935,3.098181 0.37446,0.215553 0.94447,1.112065 0.4801,1.157505 -3.65638,0.357757 -7.98251,-1.19997 -11.550731,0.08198 -0.53132,0.190878 -1.083732,0.871028 -1.11027,1.450067 z"
       inkscape:transform-center-x="5.2432669"
       inkscape:transform-center-y="18.401374" />
    <path
       id="path2611-2-9-6-2-4-8-7"
       style="stroke-width:0.0944737"
       d="m 113.61185,60.43106 c -0.0195,0.579322 0.47717,1.301181 0.99166,1.533637 3.45521,1.561155 7.89134,0.351766 11.50778,0.998644 0.4593,0.08215 -0.18005,0.930591 -0.57047,1.115742 -4.46339,2.117029 -9.93285,4.662353 -13.92159,1.999351 -1.64056,-1.095337 -2.30047,-3.446487 -2.15327,-5.812192 z m 1.2e-4,-9.1e-5 -4.14589,-0.164818 c 0.0411,-2.369915 0.8855,-4.661295 2.60786,-5.622913 4.18754,-2.337962 9.43768,0.633517 13.71894,3.098181 0.37446,0.215554 0.94447,1.112066 0.4801,1.157506 -3.65639,0.357757 -7.98251,-1.19997 -11.55075,0.08197 -0.53131,0.190879 -1.08372,0.871028 -1.11026,1.450067 z"
       inkscape:transform-center-x="5.2432686"
       inkscape:transform-center-y="18.401373" />
    <path
       id="path2611-2-9-6-2-4-8-7-6"
       style="stroke-width:0.0944737"
       d="m 128.22049,76.636823 c -0.0195,0.579322 0.47717,1.301181 0.99165,1.533637 3.45521,1.561155 7.89134,0.351766 11.50779,0.998644 0.4593,0.08215 -0.18005,0.930591 -0.57048,1.115742 -4.46339,2.117029 -9.93284,4.662353 -13.92158,1.999351 -1.64056,-1.095337 -2.30048,-3.446487 -2.15327,-5.812192 z m 1.2e-4,-9.1e-5 -4.14589,-0.164818 c 0.0411,-2.369915 0.8855,-4.661295 2.60785,-5.622913 4.18755,-2.337962 9.43768,0.633517 13.71894,3.098181 0.37446,0.215554 0.94447,1.112066 0.4801,1.157506 -3.65638,0.357757 -7.9825,-1.19997 -11.55074,0.08197 -0.53132,0.190879 -1.08373,0.871028 -1.11026,1.450067 z"
       inkscape:transform-center-x="5.2432706"
       inkscape:transform-center-y="18.401373" />
  </g>
</svg>
